<svg width="49" height="49" viewBox="0 0 49 49" fill="none" xmlns="http://www.w3.org/2000/svg">
<g id="ph:trend-down-fill">
<rect x="0.585938" y="0.853516" width="47" height="47" rx="23.5" fill="white"/>
<rect x="0.585938" y="0.853516" width="47" height="47" rx="23.5" stroke="#E0F2F6"/>
<path id="Vector" d="M38.4855 24.0875V32.3836C38.4855 32.6586 38.3772 32.9224 38.1843 33.1168C37.9914 33.3113 37.7298 33.4206 37.457 33.4206H29.2286C29.025 33.4207 28.826 33.36 28.6567 33.2461C28.4874 33.1321 28.3555 32.9701 28.2776 32.7805C28.1997 32.5909 28.1793 32.3823 28.219 32.181C28.2588 31.9798 28.3569 31.7949 28.5009 31.6499L31.8887 28.2355L25.1144 21.4056L20.6993 25.8582C20.6038 25.9546 20.4904 26.0311 20.3655 26.0833C20.2406 26.1355 20.1068 26.1624 19.9716 26.1624C19.8365 26.1624 19.7026 26.1355 19.5778 26.0833C19.4529 26.0311 19.3395 25.9546 19.2439 25.8582L9.98697 16.5252C9.79397 16.3306 9.68555 16.0667 9.68555 15.7915C9.68555 15.5163 9.79397 15.2524 9.98697 15.0578C10.18 14.8632 10.4417 14.7539 10.7147 14.7539C10.9876 14.7539 11.2494 14.8632 11.4424 15.0578L19.9716 23.6585L24.3867 19.2058C24.4822 19.1094 24.5956 19.0329 24.7205 18.9807C24.8454 18.9285 24.9792 18.9017 25.1144 18.9017C25.2496 18.9017 25.3834 18.9285 25.5083 18.9807C25.6331 19.0329 25.7466 19.1094 25.8421 19.2058L33.3428 26.7695L36.7293 23.3538C36.8731 23.2087 37.0565 23.1098 37.2561 23.0697C37.4557 23.0296 37.6627 23.0501 37.8507 23.1287C38.0388 23.2072 38.1995 23.3403 38.3125 23.511C38.4255 23.6817 38.4857 23.8823 38.4855 24.0875Z" fill="#282668"/>
</g>
</svg>
