<svg width="32" height="33" viewBox="0 0 32 33" fill="none" xmlns="http://www.w3.org/2000/svg">
<g id="mdi:lightbulb-on">
<path id="Vector" d="M15.9997 8.88005C18.1214 8.88005 20.1562 9.7229 21.6565 11.2232C23.1568 12.7235 23.9997 14.7583 23.9997 16.88C23.9997 19.84 22.3863 22.4267 19.9997 23.8134V26.2134C19.9997 26.567 19.8592 26.9061 19.6091 27.1562C19.3591 27.4062 19.02 27.5467 18.6663 27.5467H13.333C12.9794 27.5467 12.6402 27.4062 12.3902 27.1562C12.1402 26.9061 11.9997 26.567 11.9997 26.2134V23.8134C9.61301 22.4267 7.99967 19.84 7.99967 16.88C7.99967 14.7583 8.84253 12.7235 10.3428 11.2232C11.8431 9.7229 13.8779 8.88005 15.9997 8.88005ZM18.6663 28.88V30.2134C18.6663 30.567 18.5259 30.9061 18.2758 31.1562C18.0258 31.4062 17.6866 31.5467 17.333 31.5467H14.6663C14.3127 31.5467 13.9736 31.4062 13.7235 31.1562C13.4735 30.9061 13.333 30.567 13.333 30.2134V28.88H18.6663ZM26.6663 15.5467H30.6663V18.2134H26.6663V15.5467ZM1.33301 15.5467H5.33301V18.2134H1.33301V15.5467ZM17.333 2.21338V6.21338H14.6663V2.21338H17.333ZM6.55967 5.54671L9.39968 8.40005L7.50634 10.28L4.66634 7.45338L6.55967 5.54671ZM22.5997 8.38671L25.4263 5.54671L27.333 7.45338L24.493 10.28L22.5997 8.38671Z" fill="#282668"/>
</g>
</svg>
