<?xml version="1.0" standalone="no"?>
<svg version="1.1" id="Layer_1" xmlns:cc="http://creativecommons.org/ns#" xmlns:dc="http://purl.org/dc/elements/1.1/" xmlns:rdf="http://www.w3.org/1999/02/22-rdf-syntax-ns#" xmlns:svg="http://www.w3.org/2000/svg" xmlns="http://www.w3.org/2000/svg" xmlns:xlink="http://www.w3.org/1999/xlink" x="0px" y="0px" viewBox="0 0 595.2 595.2" enable-background="new 0 0 595.2 595.2" xml:space="preserve">
<path id="color_x5F_1" fill="#2c2a80" d="M135.351,211.656h9.361h13.256h5.131h13.256h5.131h13.256h5.131h13.256h5.131h13.256
	h18.441c0.329,0,0.595-0.267,0.595-0.595s-0.267-0.595-0.595-0.595h-17.846v-68.783c0-0.329-0.267-0.595-0.595-0.595h-13.256
	c-0.329,0-0.595,0.267-0.595,0.595v68.783h-3.94v-60.659c0-0.329-0.267-0.595-0.595-0.595h-13.256c-0.329,0-0.595,0.267-0.595,0.595
	v60.659h-3.941v-56.168c0-0.329-0.267-0.595-0.595-0.595h-13.256c-0.329,0-0.595,0.267-0.595,0.595v56.168h-3.941v-43.34
	c0-0.329-0.267-0.595-0.595-0.595h-13.256c-0.329,0-0.595,0.267-0.595,0.595v43.34h-3.941V175.25c0-0.329-0.267-0.595-0.595-0.595
	h-13.256c-0.329,0-0.595,0.267-0.595,0.595v35.216h-8.17v-99.09c0-0.329-0.267-0.595-0.595-0.595s-0.595,0.267-0.595,0.595v99.685
	C134.756,211.39,135.022,211.656,135.351,211.656z M218.856,142.278h12.066v68.188h-12.066V142.278z M200.469,150.402h12.066v60.063
	h-12.066V150.402z M182.082,154.893h12.065v55.573h-12.065V154.893z M163.694,167.721h12.065v42.745h-12.065V167.721z
	 M145.307,175.845h12.065v34.621h-12.065V175.845z M542.535,458.858c-0.003,0-0.007,0-0.011,0.001
	c-0.188,0.003-19.075,0.578-34.971,21.271c-5.564,7.242-8.948,14.936-11.005,21.887c-2.83,9.569-3.138,17.717-3.102,21.336
	c0.008,0.845,0.034,1.442,0.051,1.752h-1.126h-3.777c-0.169-1.613-1.907-15.75-11.5-28.077c-4.686-6.021-11.24-11.609-20.409-15.088
	c-26.938-10.222-41.298,7.856-41.44,8.041c-0.2,0.26-0.152,0.633,0.107,0.834c0.26,0.2,0.633,0.154,0.835-0.106
	c0.137-0.177,13.987-17.554,40.076-7.655c8.846,3.357,15.203,8.726,19.766,14.528c9.344,11.883,11.152,25.563,11.367,27.524h-92.74
	l2.396-44.918c10.079-3.389,19.05-6.84,19.203-6.898c0.155-0.06,0.277-0.182,0.339-0.335c0.062-0.154,0.056-0.326-0.015-0.476
	c-0.655-1.381-1.714-3.521-3.021-6.165c-6.172-12.481-17.5-35.387-18.77-43.479c5.527,0.561,10.063,0.974,12.32,1.076
	c7.902,0.354,16.155-0.658,17.552-10.904c1.14-8.352-13.855-56.317-18.783-72.08c-0.458-1.464-0.802-2.563-1.003-3.22
	c-2.354-7.679-4.969-8.07-8.277-8.566l-0.539-0.082c-3.407-0.532-24.128-5.027-25.374-5.297c-0.539-0.26-4.596-2.269-6.518-4.738
	c-1.136-1.461-2.271-3.541-3.076-5.146c0.655,0.428,1.436,0.861,2.376,1.254c3.517,1.472,7.63,0.809,7.802,0.779
	c0.226-0.037,0.409-0.202,0.473-0.422c0.064-0.22-0.005-0.457-0.175-0.61c-0.049-0.044-4.893-4.554-2.529-16.487
	c0.562-2.835,1.44-5.78,2.371-8.899c3.212-10.762,6.854-22.959,0.689-39.234c-7.117-18.793-19.702-18.447-22.491-18.119
	c-0.477-1.375-2.219-4.914-7.725-5.973c-6.464-1.249-20.713,1.571-33.095,20.018c-9.963,14.841-6.835,28.72-3.81,42.141
	c0.703,3.123,1.432,6.352,1.988,9.557c1.072,6.16,0.428,10.952-1.913,14.241c-2.331,3.275-5.592,3.841-5.624,3.846
	c-0.269,0.044-0.475,0.265-0.498,0.535c-0.024,0.271,0.138,0.524,0.395,0.614c0.377,0.133,9.338,3.242,18.021,2.751
	c5.568-0.318,9.436-0.835,11.523-1.17c-2.346,2.451-7.42,7.673-10.091,9.81c-0.493,0.395-0.969,1.046-1.424,1.872l-12.014,4.219
	c-0.124,0.043-0.234,0.126-0.31,0.245c-0.414,0.653-10.155,16.118-11.394,25.201c-1.14,8.359-10.168,42.604-11.381,47.188
	c-7.747-1.022-14.682-2.305-21.413-3.718c-0.643-60.444-1.686-162.729-1.429-167.565c0.17-3.202-0.329-5.229-1.482-6.025
	c-0.653-0.451-1.364-0.394-1.768-0.263H99.798c-0.225,0-0.43,0.126-0.531,0.326c-3.07,6.067-3.249,12.841-0.529,20.135
	l-5.104,218.122c-0.003,0.16,0.057,0.315,0.169,0.43c0.112,0.114,0.266,0.18,0.426,0.18h14.389v56.249h-5.134H68.529
	c-0.663,0-1.2,0.537-1.2,1.2s0.537,1.2,1.2,1.2h444.756c0.663,0,1.2-0.537,1.2-1.2s-0.537-1.2-1.2-1.2h-18.594
	c-0.026-0.425-0.089-1.748-0.04-3.759c0.101-4.12,0.684-11.105,3.06-19.092c2.023-6.799,5.345-14.317,10.785-21.399
	c15.528-20.214,33.866-20.803,34.049-20.807c0.329-0.006,0.591-0.277,0.584-0.605C543.124,459.117,542.859,458.858,542.535,458.858z
	 M312.864,480.047c-0.103-0.013-0.199-0.026-0.299-0.04c-2.294-0.303-3.939-0.562-4.714-0.691
	c0.409-11.859,1.381-30.454,3.618-40.983c3.63-17.079,3.207-32.218-1.255-44.996c-4.663-13.35,1.867-26.85,4.892-32.034
	c2.974-5.099,5.976-13.456,7.008-16.446l5.609,7.774l0.215,0.299c0.429,2.279,1.063,4.925,1.959,8.056
	c-0.326,1.243-2.329,9.021-2.762,13.84c-0.358,3.986-0.751,7.658-0.907,9.083c-1.239-0.735-2.417-1.284-3.398-1.416
	c-1.553-0.21-2.702,0.091-3.194,0.827c-0.702-0.036-1.961,0.046-2.371,1.063c-0.376,0.927,0.365,2.096,1.884,3.918
	c-0.061,0.685-0.156,2.529,0.418,3.739c0.172,0.363,0.612,0.989,1.202,1.739c0.204,0.749,1.278,4.463,3.07,6.939
	c0.324,0.448,0.673,0.848,1.043,1.19c-0.133,1.635-0.79,10.087-1.163,21.039c-0.189,5.556-0.305,11.753-0.241,18.028
	c0.174,17.085,0.06,34.686,0.022,39.508c-0.002,0.249-0.004,0.474-0.005,0.653c-1.367-0.105-2.636-0.213-3.824-0.322
	C317.07,480.565,314.761,480.295,312.864,480.047z M331.145,317.732c-0.215-2.091-0.658-4.092-1.158-5.853
	c-0.47-1.654-0.992-3.097-1.428-4.185c3.495,2.436,7.342,3.74,11.15,3.712c5.918-0.042,11.255-3.229,15.435-9.22
	c1.084-1.555,2.019-3.252,2.825-5.045c0.051,3.36,0.165,8.99,0.399,13.944c-0.013,0.081-0.01,0.165,0.012,0.246
	c0.09,1.856,0.197,3.61,0.325,5.104c0.03,0.352,0.04,0.706,0.055,1.06c0.34,8.293-3.571,16.901-10.865,23.779
	c-7.179,6.77-14.777,15.672-17.114,18.456c-3.614-12.968-2.484-16.871-1.063-21.777C330.933,333.762,332.31,329.01,331.145,317.732z
	 M306.725,273.215c0.036-0.946,0.213-1.775,0.526-2.398c0.461-0.914,1.162-1.332,2.079-1.261c-0.912,1.415-1.792,2.582-2.533,3.563
	C306.771,273.153,306.751,273.182,306.725,273.215z M314.31,272.691c2.903-1.361,6.352-3.105,9.994-5.198
	c0.534-0.025,1.084-0.029,1.646,0.004c4.017,0.236,5.783,0.938,5.801,0.945c0.306,0.124,0.65-0.022,0.775-0.325
	c0.125-0.304-0.02-0.65-0.322-0.776c-0.075-0.031-1.868-0.746-5.921-1.012c1.797-1.077,3.622-2.228,5.445-3.469
	c9.837-6.699,13.914-12.717,15.326-15.275c0.877,2.106,3.017,6.18,7.157,8.583c1.178,0.683,2.19,1.394,3.053,2.086
	c2.638,2.115,3.878,4.057,4.148,4.513c0.146,1.977,1.706,25.911-7.244,38.737c-3.019,4.327-6.655,7.1-10.664,8.186
	c-1.235,0.335-2.504,0.515-3.803,0.523c-0.035,0.001-0.071,0.001-0.107,0.001c-4.171,0-8.355-1.699-12.063-4.807
	c-0.045-0.054-0.098-0.098-0.156-0.132c-1.698-1.446-3.294-3.189-4.739-5.201C314.862,289.264,314.343,274.826,314.31,272.691z
	 M314.836,285.241c-0.655-0.083-1.846-0.384-3.158-1.472c-2.674-2.215-4.168-5.224-4.718-7.903c1.218-0.476,3.391-1.358,6.173-2.631
	C313.193,275.06,313.48,279.718,314.836,285.241z M362.786,271.944c1.983-1.862,3.73-2.687,4.928-2.312
	c1.105,0.348,1.517,1.658,1.664,2.408c0.641,3.269-0.989,8.549-4.827,11.729c-1.249,1.035-2.391,1.358-3.063,1.459
	C362.347,280.475,362.686,275.806,362.786,271.944z M344.091,383.922c-0.345-0.074-0.679-0.156-0.99-0.251
	c-0.54-0.164-0.999-0.316-1.391-0.446c-1.278-0.425-1.923-0.638-2.462-0.271c-0.466,0.313-0.542,0.903-0.576,1.432
	c-0.13,1.983,1.266,4.266,4.654,4.943l-0.135,0.989c-0.417,0.039-0.824,0.066-1.182,0.053l-0.533-0.004
	c-2.052-0.013-6.32-0.04-8.501-1.631c-0.454-0.331-0.976-0.729-1.541-1.16c-1.276-0.973-2.694-2.046-4.084-2.963
	c0.063-0.57,0.543-4.907,0.971-9.677c0.016-0.18,0.04-0.375,0.06-0.564c0.155-1.414,0.428-3.049,0.747-4.687
	c0.752-3.865,1.739-7.697,1.929-8.425c0.246-0.297,1.067-1.284,2.301-2.724c1.387-1.618,3.289-3.801,5.469-6.203
	c2.191-0.716,10.304-3.386,13.609-4.753c-0.425,1.396-1.155,3.847-2.022,6.981c-1.937,6.999-4.555,17.402-5.99,27.085
	C344.309,382.416,344.2,383.17,344.091,383.922z M359.09,392.956c0.632,4.976,0.127,10.109-1.375,14.7
	c-0.147,0.007-3.459,0.169-7.353,0.321c-0.001,0-0.002,0-0.002,0c-0.001,0-0.002,0.001-0.003,0.001
	c-2.866,0.112-6.037,0.219-8.491,0.256c-0.042-0.013-0.081-0.033-0.127-0.037c-0.096-0.01-0.185,0.009-0.269,0.043
	c-1.574,0.019-2.808,0.006-3.394-0.059c-1.149-0.127-3.203-1.111-5.362-2.359c-2.587-1.495-5.323-3.368-6.836-4.613
	c-1.297-1.066-2.334-3.19-3.026-4.961c1.579,1.769,3.285,3.48,4.077,3.931c1.122,0.638,6.041,3.15,8.342,4.323
	c0.662,0.337,1.119,0.57,1.193,0.607c0.29,0.145,0.651,0.032,0.801-0.262c0.148-0.293,0.031-0.651-0.262-0.801
	c-0.042-0.021-2.295-1.165-4.618-2.357c-2.071-1.063-4.198-2.164-4.868-2.545c-0.987-0.561-3.997-3.829-5.708-5.969
	c-0.019-0.028-0.039-0.055-0.063-0.078c-0.551-0.694-0.958-1.262-1.102-1.565c-0.238-0.502-0.326-1.224-0.346-1.886
	c0.143,0.164,0.289,0.332,0.439,0.506l0.758,0.873c2.542,2.939,5.705,6.596,8.901,7.609c2.019,0.641,4.363,1.412,5.741,1.868
	c0.722,0.239,1.184,0.393,1.184,0.393l0.25-0.749l0.066-0.198l0.061-0.181c0,0-2.885-0.964-5.662-1.858
	c-0.434-0.14-0.865-0.278-1.282-0.41c-2.875-0.912-5.917-4.428-8.36-7.253l-0.76-0.876c-1.551-1.785-3.482-4.008-3.267-4.54
	c0.098-0.238,0.585-0.33,1.062-0.324c0.094,0.405,0.34,0.821,0.729,1.216c0.5,0.507,1.194,1.023,1.997,1.621
	c1.359,1.012,3.05,2.271,4.784,4.177c2.725,2.994,6.81,4.851,8.949,5.544c0.157,0.051,0.306,0.097,0.441,0.135
	c0.313,0.09,0.645-0.094,0.734-0.41c0.09-0.315-0.094-0.645-0.41-0.734c-0.096-0.027-0.222-0.072-0.33-0.106
	c-1.982-0.624-5.9-2.37-8.503-5.229c-1.812-1.992-3.554-3.289-4.954-4.331c-0.764-0.568-1.424-1.06-1.86-1.502
	c-0.337-0.342-0.493-0.683-0.4-0.87c0.101-0.201,0.658-0.529,2.065-0.342c2.037,0.274,5.506,2.918,8.039,4.849
	c0.573,0.437,1.101,0.839,1.561,1.174c2.491,1.818,6.853,1.846,9.195,1.86l0.525,0.005c1.712,0.008,4.212-0.493,5.044-0.677
	c0.327,0.26,0.479,0.443,0.481,0.447c0.202,0.26,0.576,0.306,0.836,0.104c0.259-0.202,0.306-0.576,0.104-0.836
	c-0.025-0.031-0.306-0.383-0.906-0.821c-0.017-0.013-0.034-0.025-0.052-0.036c-0.762-0.545-2.011-1.21-3.869-1.562
	c-2.926-0.555-3.86-2.349-3.771-3.717c0.02-0.292,0.05-0.437,0.071-0.505c0.236,0.01,0.829,0.206,1.404,0.396
	c0.399,0.133,0.869,0.288,1.42,0.455c1.224,0.372,2.662,0.569,4.053,0.759c2.061,0.282,4.19,0.573,5.418,1.423
	c1.832,1.269,5.119,2.596,6.366,3.078C358.803,391.022,358.967,391.986,359.09,392.956z M357.28,408.869
	c-1.074,2.873-2.538,5.503-4.369,7.695c-0.268-0.497-0.646-1.331-1.03-2.612c-0.54-1.8-0.768-3.827-0.852-4.81
	C353.837,409.03,356.255,408.918,357.28,408.869z M340.38,428.373c0.312,14.016,2.572,26.404,6.225,46.4
	c0.363,1.986,0.741,4.057,1.13,6.203c-0.769,0.076-2.214,0.206-4.18,0.327c-3.879,0.24-9.72,0.44-16.102,0.095
	c-0.758-0.041-1.496-0.089-2.229-0.138c-0.183-0.013-0.358-0.026-0.538-0.039c0.002-0.185,0.003-0.421,0.005-0.69
	c0.033-4.289,0.13-18.994,0.023-34.376c-0.012-1.727-0.027-3.463-0.044-5.193c-0.1-9.741,0.235-19.29,0.604-26.533
	c0.283-5.547,0.586-9.733,0.731-11.613c2.995,2.261,9.181,6.242,11.94,6.546c0.46,0.051,1.276,0.071,2.325,0.071
	c0.243,0,0.503-0.001,0.769-0.004C340.457,416.463,340.251,422.561,340.38,428.373z M344.488,389.615
	c0.371,0.112,0.71,0.234,1.007,0.363c-0.333,0.062-0.703,0.124-1.082,0.184L344.488,389.615z M412.493,466.841
	c1.132,2.29,2.077,4.201,2.734,5.566c-3.987,1.518-26.772,10.095-38.832,12.507c-0.564,0.113-1.127,0.219-1.691,0.324
	c-4.251,0.775-8.258,1.353-11.771,1.783c-6.212,0.745-11.131,1.061-12.691,1.149c-0.415-2.324-0.816-4.549-1.206-6.696l-0.014-0.076
	c0,0,0,0,0,0c-0.431-2.376-0.847-4.655-1.246-6.838c-5.157-28.227-7.53-41.239-5.543-65.144c2.26-0.038,5.026-0.128,7.602-0.227
	c0.084,1.012,0.318,3.153,0.904,5.105c0.772,2.576,1.537,3.524,1.646,3.65c0.008,0.01,0.018,0.02,0.026,0.029
	c0.043,0.044,0.091,0.079,0.142,0.107c0.065,0.035,0.138,0.059,0.214,0.067c0.331,0.039,24.362,2.875,40.803,4.562
	C394.666,430.792,406.224,454.164,412.493,466.841z M395.876,330.234l0.546,0.083c3.12,0.468,5.181,0.777,7.315,7.739
	c0.202,0.657,0.546,1.759,1.005,3.226c13.168,42.119,19.473,66.196,18.74,71.564c-1.021,7.493-5.749,10.356-16.317,9.875
	c-8.144-0.37-46.15-4.803-53.151-5.624c5.472-6.73,7.785-17.182,5.879-26.66c3.486,0.748,16.275,3.479,24.434,5.059
	c3.157,0.611,6.44,1.123,9.421,1.535c0.028,0.006,0.057,0.01,0.085,0.011c5.943,0.818,10.662,1.236,10.732,1.242
	c0.322,0.036,0.617-0.214,0.645-0.541c0.029-0.327-0.214-0.616-0.541-0.645c-0.069-0.006-4.601-0.407-10.363-1.193
	c-0.999-2.74-7.711-21.711-6.596-33.26c1.194-12.37,6.633-20.226,6.688-20.304c0.189-0.269,0.125-0.641-0.144-0.829
	c-0.269-0.188-0.64-0.127-0.829,0.144c-0.231,0.327-5.674,8.173-6.9,20.874c-1.092,11.311,4.903,28.9,6.445,33.189
	c-2.702-0.385-5.609-0.849-8.416-1.392c-8.85-1.714-23.158-4.785-25.091-5.201c-0.355-0.133-4.519-1.702-6.558-3.114
	c-1.462-1.013-3.735-1.323-5.935-1.623c-0.569-0.078-1.144-0.16-1.707-0.251c0.111-0.764,0.223-1.533,0.34-2.32
	c2.332-15.737,7.814-33.406,8.328-35.043c0.887-0.855,2.141-3.201,2.712-4.323l11.909,6.792c0.18,0.101,0.396,0.104,0.576,0.007
	s0.299-0.28,0.313-0.484l1.601-23.71C374.799,325.871,392.653,329.731,395.876,330.234z M363.229,319.753
	c1.887,2.426,5.478,4.351,6.644,4.935l-1.557,23.052l-11.631-6.634c-0.143-0.081-0.313-0.102-0.471-0.051
	c-0.157,0.048-0.287,0.159-0.359,0.308c-0.733,1.506-2.148,4.096-2.821,4.634c-0.648,0.496-7.343,2.809-12.561,4.539
	c2.585-2.795,5.444-5.757,8.239-8.392c7.872-7.422,11.946-16.828,11.18-25.808c-0.067-0.785-0.126-1.659-0.182-2.565
	C360.532,315.465,361.861,317.995,363.229,319.753z M317.278,318.681c-6.21,0.354-12.736-1.251-15.79-2.135
	c1.303-0.574,3.059-1.668,4.517-3.705c2.548-3.559,3.267-8.66,2.136-15.162c-0.563-3.234-1.294-6.478-2.001-9.615
	c-3.106-13.782-6.04-26.8,3.637-41.216c12.035-17.928,25.696-20.699,31.882-19.512c5.927,1.14,6.903,5.41,6.941,5.588
	c0.032,0.156,0.126,0.292,0.259,0.379c0.133,0.086,0.295,0.116,0.452,0.083c0.57-0.127,14.06-2.816,21.675,17.294
	c6.021,15.898,2.441,27.891-0.717,38.472c-0.939,3.146-1.826,6.118-2.398,9.008c-1.924,9.716,0.684,14.773,2.104,16.69
	c-1.399,0.09-3.889,0.087-6.047-0.816c-2.661-1.113-4.003-2.594-4.371-3.048c-0.334-7.074-0.422-15.531-0.433-16.708
	c0.912-2.529,1.607-5.18,2.135-7.827c0.767-0.057,2.355-0.356,4.054-1.764c4.336-3.593,5.934-9.315,5.235-12.875
	c-0.342-1.743-1.221-2.92-2.476-3.314c-1.039-0.328-2.762-0.228-5.254,1.828c0.046-4.396-0.2-7.433-0.23-7.787
	c-0.007-0.08-0.029-0.157-0.066-0.228c-0.084-0.159-2.126-3.931-7.713-7.172c-5.225-3.03-7.086-9.168-7.104-9.23
	c-0.072-0.244-0.291-0.416-0.546-0.427c-0.261-0.005-0.487,0.141-0.58,0.378c-0.028,0.074-3.049,7.523-15.521,16.017
	c-2.382,1.622-4.776,3.103-7.093,4.442c-3.347,0.206-5.927,1.279-6.055,1.334c-0.303,0.128-0.444,0.478-0.315,0.781
	c0.096,0.227,0.316,0.363,0.548,0.363c0.078,0,0.156-0.015,0.232-0.047c0.019-0.008,1.085-0.449,2.697-0.811
	c-6.004,3.264-11.184,5.477-13.793,6.523c0.15-0.201,0.308-0.409,0.47-0.624c2.057-2.723,5.163-6.838,7.13-13.674
	c0.091-0.316-0.092-0.646-0.407-0.737c-0.318-0.089-0.646,0.092-0.737,0.408c-1.027,3.572-2.381,6.378-3.724,8.626
	c-1.662-0.37-3.05,0.289-3.821,1.823c-0.598,1.191-0.792,2.781-0.608,4.513c-0.141,0.205-0.295,0.419-0.414,0.612
	c-0.132,0.215-0.113,0.491,0.046,0.687c0.147,0.18,0.385,0.252,0.607,0.195c0.664,2.966,2.376,6.14,5.099,8.396
	c1.85,1.534,3.562,1.751,4.231,1.774c1.249,4.647,3.264,9.784,6.519,14.312c1.502,2.089,3.163,3.902,4.934,5.411
	c0.397,0.833,2.626,5.689,3.298,11.131C328.464,317.578,324.136,318.289,317.278,318.681z M319.522,329.44
	c1.377-1.101,3.333-2.958,5.242-4.849c2.12-2.1,4.177-4.238,5.317-5.435c0.905,10.106-0.371,14.545-1.508,18.468
	c-0.87,3.002-1.668,5.761-1.296,10.525c0.053,0.675,0.129,1.391,0.232,2.154l-5.534-7.671l-1.932-10.164
	c-0.05-0.261-0.266-0.457-0.53-0.481c-0.279-0.034-0.513,0.13-0.609,0.377l-4.405,11.316
	C315.701,337.958,317.561,331.009,319.522,329.44z M305.97,335.642l10.652-3.741c-2.596,6.045-4.352,17.189-4.442,17.778
	c-0.047,0.3,0.14,0.587,0.434,0.666c0.296,0.077,0.599-0.076,0.709-0.359l5.939-15.259l1.568,8.257
	c0.017,0.085,0.051,0.166,0.103,0.237l0.326,0.452c-0.604,1.782-3.966,11.519-7.183,17.031c-3.106,5.327-9.813,19.209-4.987,33.026
	c4.39,12.569,4.799,27.493,1.216,44.355c-2.286,10.758-3.261,29.822-3.662,41.695c0,0.007-0.005,0.013-0.005,0.02l-0.013,0.544
	c-0.142,4.32-0.207,7.624-0.232,9.099l-10.271-3.852c0.71-3.918,5.397-30.291,6.354-49.186c0.001-0.008,0.002-0.016,0.003-0.022
	c0.003-0.03,0.004-0.06,0.003-0.088c0.14-2.789,0.197-5.413,0.147-7.776c-0.401-19.273-1.218-52.725-1.647-67.535
	C300.609,348.155,305.223,337.31,305.97,335.642z M282.621,408.484c0.298,0.033,0.575-0.149,0.652-0.438
	c0.421-1.582,10.318-38.846,11.544-47.839c0.742-5.443,4.8-13.519,7.823-18.944c-1.482,4.815-3.076,11.924-2.849,19.758
	c0.43,14.808,1.245,48.254,1.647,67.525c0.045,2.174-0.001,4.572-0.119,7.118l-77.526-8.131c0.055-10.434,1.704-19.615,4.173-30.061
	c6.426,1.295,12.459,2.679,18.299,4.02C257.986,404.182,269.055,406.722,282.621,408.484z M260.119,446.627l-3.477,0.078
	l0.015-14.528l3.307,0.347C260.043,439.744,260.098,444.723,260.119,446.627z M252.152,431.705l3.315,0.348l-0.016,15.26
	c0,0.006,0,0.012,0,0.018l-0.018,17.144h-4.048L252.152,431.705z M203.621,403.819c-0.09-0.024-9.069-2.492-13.591-3.877
	c-2.817-0.862-4.037-1.998-4.098-2.249c0.002-0.003,0.305-0.271,1.719-0.143c4.025,0.366,15.604,3.138,15.72,3.166
	c0.312,0.07,0.621-0.106,0.71-0.411c0.09-0.304-0.074-0.625-0.374-0.729c-0.104-0.037-10.448-3.669-15.266-5.151
	c-3.094-0.951-3.379-1.673-3.405-1.809c-0.031-0.162,0.192-0.369,0.304-0.461c0.55-0.283,4.141,0.118,7.548,0.984
	c2.453,0.623,10.55,2.648,12.324,3.092c0.222,0.056,0.351,0.088,0.351,0.088c0.062,0.016,0.125,0.021,0.186,0.017
	c-0.095,0.371-0.188,0.765-0.273,1.177c-0.53,2.537-0.667,5.787-0.726,7.175c-0.013,0.298-0.02,0.5-0.028,0.575
	c-0.048,0.32,0.17,0.621,0.491,0.675c0.326,0.056,0.631-0.164,0.685-0.488c0.011-0.064,0.025-0.318,0.042-0.712
	c0.058-1.358,0.192-4.539,0.702-6.98c0.459-2.198,1.103-3.818,1.419-4.538c1.119,0.281,1.929,0.758,2.277,0.988
	c0.17,1.462,0.563,3.593,1.47,5.733c-0.642,0.425-1.823,1.358-3.142,3.139c-1.91,2.578-2.543,4.632-2.569,4.719
	c-0.095,0.314,0.083,0.646,0.397,0.741c0.316,0.098,0.646-0.082,0.743-0.396c0.006-0.02,0.609-1.956,2.387-4.354
	c1.124-1.517,2.125-2.352,2.696-2.754c0.183,0.355,0.382,0.709,0.598,1.056c2.698,4.336,8.479,6.427,8.723,6.513
	c0.311,0.11,0.65-0.052,0.76-0.361s-0.052-0.65-0.362-0.76c-0.056-0.021-5.631-2.034-8.111-6.021
	c-2.494-4.009-2.529-9.08-2.529-9.131c0-0.16-0.065-0.304-0.168-0.41c-0.108-0.113-0.259-0.184-0.428-0.184h0
	c-0.094,0-0.18,0.027-0.26,0.066c-0.197,0.097-0.335,0.295-0.335,0.529c0,0.034,0,0.186,0.011,0.433
	c-0.585-0.299-1.396-0.627-2.378-0.812c-0.007-0.002-0.014-0.003-0.021-0.004c-0.286-0.053-0.586-0.094-0.899-0.118
	c-0.422-0.032-0.839-0.054-1.248-0.074c-0.957-0.049-1.847-0.095-2.659-0.275c-0.796-0.176-1.517-0.48-2.149-1.044
	c-0.925-0.824-1.204-1.895-0.989-2.269c0.147-0.255,0.681-0.271,1.392-0.041c1.457,0.47,3.664,0.534,6.001,0.603
	c2.4,0.07,4.881,0.143,6.206,0.69c2.446,1.012,11.895,6.971,13.316,7.871c-0.691,2.928-1.313,5.761-1.859,8.549
	c-0.547,2.794-1.009,5.554-1.376,8.318c-2.1-0.225-10.783-1.254-13.192-3.041c-1.861-1.381-5.672-2.72-8.896-3.737
	c-0.978-0.308-1.904-0.588-2.702-0.829c-0.779-0.235-1.421-0.429-1.849-0.571c-0.723-0.241-1.797-0.465-2.934-0.702
	c-2.145-0.447-5.385-1.123-5.963-2.042c-0.204-0.325-0.196-0.477-0.186-0.49c0.112-0.159,1.061-0.479,3.858,0.126
	c3.435,0.742,11.59,2.096,11.672,2.109c0.201,0.034,0.391-0.046,0.523-0.185c0.036-0.038,0.067-0.079,0.092-0.126
	c0.025-0.047,0.052-0.093,0.064-0.148C204.113,404.212,203.926,403.903,203.621,403.819z M187.692,388.682
	c0-0.336,0.093-0.461,0.184-0.537c0.151-0.129,0.513-0.287,1.373-0.287c0.524,0,1.233,0.059,2.193,0.219
	c2.984,0.497,6.296,1.168,7.356,1.386c0.228,0.655,0.668,1.32,1.275,1.862c0.814,0.726,1.716,1.104,2.673,1.315
	c0.912,0.202,1.875,0.253,2.866,0.304c0.4,0.021,0.806,0.041,1.218,0.073c0.007,0,0.013,0.001,0.02,0.001
	c-0.216,0.514-0.507,1.273-0.799,2.238c-0.043-0.031-0.091-0.056-0.144-0.074c-0.017-0.006-0.445-0.158-1.136-0.4
	c-2.193-0.768-7.103-2.468-10.488-3.491l-0.667-0.2C190.704,390.212,187.692,389.305,187.692,388.682z M256.865,230.762
	c0.123,0.012,0.264,0.053,0.404,0.154c0.353,0.253,1.153,1.245,0.956,4.971c-0.262,4.931,0.778,106.815,1.423,167.381
	c-0.991-0.211-1.976-0.427-2.96-0.644L256.865,230.762z M255.497,402.364c-0.882-0.195-1.764-0.395-2.645-0.593l2.768-118.273
	L255.497,402.364z M255.289,246.782c-1.604-5.287-1.495-9.916,0.328-14.026L255.289,246.782z M100.167,230.853h155.066
	c-2.874,5.255-2.975,11.494-0.297,18.575H99.75C97.307,242.696,97.447,236.451,100.167,230.853z M94.838,467.664l5.079-217.046
	h155.282l-3.531,150.886c-1.705-0.387-3.412-0.777-5.135-1.172c-6.019-1.382-12.242-2.81-18.895-4.141
	c-0.107-0.022-0.21-0.004-0.307,0.03c-1.751-1.108-10.884-6.86-13.401-7.902c-1.526-0.632-4.119-0.707-6.626-0.78
	c-2.151-0.063-4.375-0.128-5.671-0.546c-1.805-0.58-2.522,0.115-2.791,0.582c-0.109,0.191-0.177,0.407-0.206,0.639
	c-1.352-0.275-4.307-0.863-7-1.312c-2.391-0.399-3.787-0.297-4.531,0.333c-0.401,0.34-0.605,0.827-0.605,1.446
	c0,1.197,1.338,1.847,4.216,2.766c-2.234-0.437-5.297-0.877-6.098-0.238c-0.763,0.611-0.831,1.224-0.753,1.631
	c0.197,1.032,1.539,1.897,4.224,2.724c1.425,0.438,3.339,1.066,5.328,1.734c-2.233-0.444-4.326-0.812-5.66-0.933
	c-1.799-0.165-2.802,0.188-2.97,1.044c-0.278,1.417,2.257,2.865,4.893,3.672c0.518,0.158,1.093,0.331,1.707,0.513
	c-3.702-0.707-4.319,0.17-4.528,0.468c-0.236,0.337-0.401,0.924,0.153,1.807c0.787,1.252,3.285,1.856,6.728,2.574
	c1.102,0.23,2.143,0.447,2.8,0.666c0.435,0.146,1.088,0.343,1.882,0.582c3.136,0.945,8.973,2.706,11.232,4.383
	c2.669,1.98,11.515,3.029,13.745,3.266c-0.506,4.136-0.799,8.316-0.799,12.73c0,0.305,0.23,0.561,0.533,0.592l27.829,2.919
	l-0.844,36.084H235.39h-10.424H119.637h-10.424H94.838z M120.232,468.856h104.138v56.249H120.232V468.856z M235.985,525.105v-56.249
	h14.716c0.323,0,0.587-0.259,0.595-0.582l0.061-2.608h4.671c0.329,0,0.595-0.267,0.595-0.595l0.018-17.175l4.093-0.092
	c0.326-0.007,0.585-0.275,0.582-0.602c-0.004-0.324-0.063-5.708-0.159-14.553l40.105,4.206c-1.086,20.21-6.34,48.684-6.401,49.012
	c-0.053,0.283,0.106,0.564,0.376,0.666l11.189,4.195l2.079,34.376H235.985z M117.908,360.007v-88.573
	c0-0.329,0.267-0.595,0.595-0.595s0.595,0.267,0.595,0.595v0.518v87.46h100.553h0.685c0.329,0,0.595,0.267,0.595,0.596
	s-0.267,0.596-0.595,0.596H118.503C118.174,360.603,117.908,360.336,117.908,360.007z M341.683,268.117
	c-0.125-0.304,0.02-0.65,0.322-0.776c0.077-0.032,1.933-0.782,6.184-1.032c4.298-0.249,7.958,1.278,8.112,1.343
	c0.303,0.128,0.443,0.478,0.315,0.78c-0.096,0.227-0.316,0.363-0.549,0.363c-0.077,0-0.155-0.015-0.23-0.047
	c-0.036-0.015-3.566-1.487-7.578-1.251c-4.017,0.236-5.783,0.938-5.801,0.945C342.153,268.567,341.808,268.42,341.683,268.117z
	 M348.446,275.737c0,1.569-0.7,2.842-1.563,2.842s-1.563-1.272-1.563-2.842c0-1.569,0.7-2.842,1.563-2.842
	S348.446,274.167,348.446,275.737z M328.582,275.737c0-1.569,0.7-2.842,1.563-2.842s1.563,1.272,1.563,2.842
	c0,1.569-0.7,2.842-1.563,2.842S328.582,277.306,328.582,275.737z M334.754,291.197c-0.112-0.309,0.047-0.651,0.356-0.763
	c0.306-0.114,0.65,0.047,0.763,0.356c0,0,0.061,0.114,0.209,0.273c0.311,0.335,1.042,0.887,2.656,1.133
	c1.677,0.255,2.714-0.244,3.221-0.599c0.23-0.161,0.362-0.296,0.376-0.312c0.215-0.245,0.588-0.276,0.838-0.063
	c0.247,0.212,0.28,0.583,0.07,0.833c-0.055,0.064-1.208,1.401-3.614,1.401c-0.333,0-0.688-0.025-1.07-0.083
	C335.458,292.901,334.817,291.37,334.754,291.197z M330.292,294.705c-0.139,0.233-0.102,0.529,0.088,0.722
	c0.208,0.21,4.865,4.861,9.932,4.861c0.312,0,0.626-0.018,0.939-0.056c5.378-0.64,8.548-4.751,8.681-4.926
	c0.162-0.214,0.16-0.509-0.003-0.722c-0.163-0.213-0.448-0.289-0.698-0.188c-0.027,0.011-2.831,1.131-8.365,1.19
	c-5.597,0.07-9.855-1.138-9.898-1.15C330.712,294.362,330.429,294.471,330.292,294.705z M340.879,296.776
	c2.938-0.031,5.13-0.348,6.593-0.658c-1.345,1.155-3.535,2.595-6.361,2.931c-3.071,0.361-6.205-1.512-8.098-2.943
	C334.854,296.444,337.634,296.817,340.879,296.776z"></path>
<path id="color_x5F_w" fill="#ffffff" d="M437.389,234.372c-1.207-1.219-2.765-2.25-4.687-3.094
	c-1.008-0.433-3.058-1.054-6.163-1.851v-17.81c2.015,0.422,3.597,1.277,4.745,2.59c1.16,1.3,1.922,3.187,2.285,5.636l6.327-0.984
	c-0.551-3.925-2.168-7.019-4.851-9.268c-2.097-1.769-4.933-2.836-8.507-3.175v-2.953h-3.656v2.953
	c-4.089,0.41-7.183,1.535-9.257,3.363c-3.105,2.73-4.663,6.292-4.663,10.686c0,2.472,0.527,4.675,1.594,6.632
	c1.066,1.945,2.578,3.468,4.546,4.558c2.648,1.488,5.237,2.566,7.78,3.222v19.415c-2.426-0.258-4.511-1.488-6.245-3.691
	c-1.219-1.558-2.062-4.007-2.543-7.346l-6.187,1.195c0.234,3.211,1.043,5.917,2.449,8.143c1.406,2.214,3.07,3.831,5.003,4.827
	c1.933,0.996,4.441,1.687,7.522,2.074v6.187l3.656,0v-6.257c4.312-0.211,7.827-1.734,10.545-4.593
	c2.719-2.871,4.078-6.433,4.078-10.709c0-1.945-0.328-3.761-0.973-5.425C439.533,237.02,438.608,235.579,437.389,234.372z
	 M416.908,225.268c-1.172-1.418-1.758-3.187-1.758-5.296c0-2.132,0.691-3.972,2.074-5.53c1.371-1.57,3.269-2.531,5.659-2.894
	l0,16.943C420.071,227.763,418.079,226.685,416.908,225.268z M432.491,251.162c-1.57,1.793-3.55,2.836-5.952,3.128v-18.478
	c3.304,0.855,5.519,1.957,6.632,3.316c1.113,1.371,1.664,3.164,1.664,5.413C434.835,247.167,434.049,249.381,432.491,251.162z
	 M339.701,189.053h-30.93v-5.835h30.93V189.053z M308.772,191.777h30.93v5.835h-30.93V191.777z M339.701,180.494h-30.93v-5.835
	h30.93V180.494z M308.772,155.595H293.89l30.346-22.565l30.346,22.565h-14.881v15.562h-30.93V155.595z M472.324,350.208
	c-0.43-1.097-1.036-2.041-1.834-2.832c-0.79-0.798-1.811-1.473-3.069-2.026c-0.66-0.284-2.003-0.69-4.036-1.212v-11.664
	c1.32,0.276,2.356,0.837,3.108,1.696c0.76,0.852,1.259,2.087,1.497,3.691l4.144-0.644c-0.361-2.571-1.42-4.597-3.177-6.07
	c-1.374-1.159-3.231-1.857-5.571-2.08v-1.934h-2.394v1.934c-2.678,0.269-4.704,1.005-6.062,2.203
	c-2.033,1.788-3.054,4.121-3.054,6.999c0,1.619,0.345,3.062,1.044,4.343c0.698,1.274,1.688,2.272,2.977,2.985
	c1.734,0.974,3.43,1.681,5.095,2.11v12.715c-1.589-0.169-2.954-0.975-4.09-2.417c-0.798-1.021-1.35-2.624-1.665-4.811l-4.052,0.783
	c0.154,2.103,0.683,3.875,1.604,5.333c0.921,1.45,2.011,2.509,3.277,3.161c1.266,0.652,2.908,1.105,4.927,1.358v4.052h2.394v-4.098
	c2.824-0.138,5.126-1.136,6.906-3.008c1.78-1.88,2.67-4.213,2.67-7.014C472.961,352.487,472.746,351.298,472.324,350.208z
	 M460.99,343.524c-1.842-0.476-3.146-1.182-3.914-2.11c-0.768-0.929-1.151-2.087-1.151-3.469c0-1.396,0.453-2.601,1.358-3.622
	c0.898-1.028,2.141-1.658,3.706-1.895V343.524z M467.282,358.373c-1.028,1.174-2.325,1.857-3.898,2.049v-12.102
	c2.164,0.56,3.614,1.281,4.343,2.172c0.729,0.898,1.09,2.072,1.09,3.545C468.817,355.756,468.303,357.207,467.282,358.373z
	 M255.617,232.756l-0.328,14.026C253.685,241.496,253.793,236.867,255.617,232.756z M99.75,249.428
	c-2.443-6.732-2.303-12.977,0.417-18.575h155.066c-2.874,5.255-2.975,11.494-0.297,18.575H99.75z M252.852,401.771l2.768-118.273
	l-0.123,118.867C254.616,402.169,253.734,401.97,252.852,401.771z M252.152,431.705l3.315,0.348l-0.016,15.26
	c0,0.006,0,0.012,0,0.018l-0.018,17.144h-4.048L252.152,431.705z M259.648,403.268c-0.991-0.211-1.976-0.427-2.96-0.644
	l0.177-171.862c0.123,0.012,0.264,0.053,0.404,0.154c0.353,0.253,1.153,1.245,0.956,4.971
	C257.963,240.819,259.003,342.702,259.648,403.268z M222.602,428.069c0-4.414,0.292-8.594,0.799-12.73
	c-2.231-0.237-11.076-1.286-13.745-3.266c-2.26-1.677-8.097-3.438-11.232-4.383c-0.793-0.239-1.447-0.437-1.882-0.582
	c-0.657-0.219-1.698-0.436-2.8-0.666c-3.443-0.718-5.941-1.322-6.728-2.574c-0.555-0.883-0.39-1.47-0.153-1.807
	c0.209-0.298,0.826-1.175,4.528-0.468c-0.614-0.182-1.189-0.354-1.707-0.513c-2.635-0.807-5.17-2.255-4.893-3.672
	c0.168-0.855,1.17-1.209,2.97-1.044c1.334,0.121,3.427,0.488,5.66,0.933c-1.989-0.668-3.902-1.296-5.328-1.734
	c-2.685-0.826-4.027-1.691-4.224-2.724c-0.077-0.407-0.01-1.02,0.753-1.631c0.8-0.639,3.863-0.198,6.098,0.238
	c-2.878-0.919-4.216-1.568-4.216-2.766c0-0.619,0.204-1.106,0.605-1.446c0.744-0.63,2.14-0.732,4.531-0.333
	c2.692,0.448,5.647,1.036,7,1.312c0.029-0.231,0.097-0.447,0.206-0.639c0.269-0.467,0.985-1.162,2.791-0.582
	c1.295,0.418,3.52,0.482,5.671,0.546c2.507,0.073,5.1,0.148,6.626,0.78c2.517,1.042,11.65,6.794,13.401,7.902
	c0.097-0.034,0.2-0.052,0.307-0.03c6.653,1.331,12.876,2.759,18.895,4.141c1.723,0.395,3.431,0.785,5.135,1.172l3.531-150.886
	H99.917l-5.079,217.046h14.375h10.424h105.329h10.424h14.729l0.844-36.084l-27.829-2.919
	C222.832,428.63,222.602,428.374,222.602,428.069z M166.39,300.82c0.084-0.214,0.284-0.359,0.514-0.375
	c0.224-0.018,0.447,0.103,0.56,0.303l7.925,14.152l4.79,8.554l40.745-41.835l2.457-2.523c0.23-0.235,0.606-0.24,0.842-0.011
	s0.24,0.606,0.011,0.842l-43.758,44.928c-0.098,0.101-0.23,0.148-0.367,0.162c-0.046,0.005-0.09,0.02-0.137,0.013
	c-0.186-0.024-0.35-0.135-0.442-0.299l-0.238-0.425l-4.871-8.698l-7.382-13.183l-10.291,26.1l-5.395,13.684
	c-0.083,0.211-0.279,0.355-0.505,0.375c-0.224,0.01-0.443-0.094-0.559-0.287l-3.775-6.291l-4.753-7.922l-7.128,16.605l-3.412,7.949
	c-0.094,0.22-0.309,0.361-0.547,0.361c-0.003,0-0.007,0-0.011-0.001l-6.435-0.117c-0.329-0.006-0.59-0.276-0.584-0.605
	c0.006-0.325,0.271-0.585,0.595-0.585c0.003,0,0.007,0,0.011,0.001l0.783,0.014l5.252,0.095l2.46-5.732l8.38-19.523
	c0.088-0.206,0.284-0.345,0.507-0.359c0.229-0.012,0.436,0.097,0.55,0.287l5.296,8.826l3.209,5.348l4.262-10.809l7.841-19.886
	L166.39,300.82z M118.503,360.603c-0.329,0-0.595-0.267-0.595-0.596v-88.573c0-0.329,0.267-0.595,0.595-0.595
	s0.595,0.267,0.595,0.595v0.518v87.46h100.553h0.685c0.329,0,0.595,0.267,0.595,0.596s-0.267,0.596-0.595,0.596H118.503z
	 M259.964,432.524c0.079,7.219,0.134,12.198,0.155,14.103l-3.477,0.078l0.015-14.528L259.964,432.524z M346.605,474.774
	c0.363,1.986,0.741,4.057,1.13,6.203c-0.769,0.076-2.214,0.206-4.18,0.327c-3.879,0.24-9.72,0.44-16.102,0.095
	c-0.758-0.041-1.496-0.089-2.229-0.138c-0.183-0.013-0.358-0.026-0.538-0.039c0.002-0.185,0.003-0.421,0.005-0.69
	c0.033-4.289,0.13-18.994,0.023-34.376c-0.012-1.727-0.027-3.463-0.044-5.193c-0.1-9.741,0.235-19.29,0.604-26.533l-0.128,7.237
	c0.795-0.43,1.682-0.49,2.688-0.087c5.193,2.08,10.749,5.613,12.546,6.793C340.693,442.389,342.953,454.778,346.605,474.774z
	 M369.872,324.688l-1.557,23.052l-11.631-6.634c-0.143-0.081-0.313-0.102-0.471-0.051c-0.157,0.048-0.287,0.159-0.359,0.308
	c-0.733,1.506-2.148,4.096-2.821,4.634c-0.648,0.496-7.343,2.809-12.561,4.539c2.585-2.795,5.444-5.757,8.239-8.392
	c7.872-7.422,11.946-16.828,11.18-25.808c-0.067-0.785-0.126-1.659-0.182-2.565c0.824,1.695,2.153,4.225,3.52,5.983
	C365.115,322.179,368.706,324.104,369.872,324.688z M329.718,337.954c1.215-4.192,2.592-8.944,1.427-20.223
	c-0.215-2.091-0.658-4.092-1.158-5.853c1.807,1.266,6.384,4.248,9.787,4.524c4.329,0.351,7.839-0.234,12.578-0.468
	c3.325-0.164,5.439,0.907,6.409,1.562c0.34,8.293-3.571,16.901-10.865,23.779c-7.179,6.77-14.777,15.672-17.114,18.456
	C327.166,346.764,328.296,342.86,329.718,337.954z M326.941,391.519c2.725,2.994,6.81,4.851,8.949,5.544
	c-1.315,0.341-4.204-0.352-4.014,0.598c0.017,0.084,0.078,0.167,0.161,0.247c-0.434-0.14-0.865-0.278-1.282-0.41
	c-2.875-0.912-5.917-4.428-8.36-7.253l-0.76-0.876c-1.551-1.785-3.482-4.008-3.267-4.54c0.098-0.238,0.585-0.33,1.062-0.324
	c0.094,0.405,0.34,0.821,0.729,1.216c0.5,0.507,1.194,1.023,1.997,1.621C323.517,388.354,325.207,389.612,326.941,391.519z
	 M325.506,331.841c-1.053,4.329-1.345,9.068-0.76,11.935c0.399,1.954,1.727,3.552,2.533,4.373c0.053,0.675,0.129,1.391,0.232,2.154
	l-5.534-7.671l-1.932-10.164c-0.05-0.261-0.266-0.457-0.53-0.481c-0.279-0.034-0.513,0.13-0.609,0.377l-4.405,11.316
	c1.202-5.721,3.062-12.67,5.023-14.239c1.377-1.101,3.333-2.958,5.242-4.849C325.36,325.9,326.407,328.137,325.506,331.841z
	 M323.719,422.947c-0.189,5.556-0.305,11.753-0.241,18.028c0.174,17.085,0.06,34.686,0.022,39.508
	c-0.002,0.249-0.004,0.474-0.005,0.653c-1.367-0.105-2.636-0.213-3.824-0.322c-2.602-0.248-4.911-0.519-6.808-0.766
	c-0.103-0.013-0.199-0.026-0.299-0.04c0.171-3.115,1.26-21.121,4.138-32.739C319.032,437.865,320.555,426.999,323.719,422.947z
	 M336.138,400.501c-1.789,0.297-4.127,0.491-3.754,1.186c-2.071-1.063-4.198-2.164-4.868-2.545
	c-0.987-0.561-3.997-3.829-5.708-5.969c-0.019-0.028-0.039-0.055-0.063-0.078c-0.551-0.694-0.958-1.262-1.102-1.565
	c-0.238-0.502-0.326-1.224-0.346-1.886c0.143,0.164,0.289,0.332,0.439,0.506l0.758,0.873c2.542,2.939,5.705,6.596,8.901,7.609
	C332.416,399.274,334.76,400.045,336.138,400.501z M332.713,405.821c-2.587-1.495-5.323-3.368-6.836-4.613
	c-1.297-1.066-2.334-3.19-3.026-4.961c1.579,1.769,3.285,3.48,4.077,3.931c1.122,0.638,6.041,3.15,8.342,4.323
	c0.103,0.526-0.266,0.8-1.112,0.473C332.564,404.356,332.282,404.825,332.713,405.821z M337.639,399.947
	c0.054,0.069,0.04,0.135-0.066,0.198L337.639,399.947z M358.591,390.069c0.211,0.953,0.375,1.916,0.499,2.886
	c-2.119-0.261-9.36-1.024-12.589,0.318c-3.803,1.58-9.886-0.41-11.583,0.409c-1.36,0.656,0.734,1.388,1.407,2.264
	c-1.982-0.624-5.9-2.37-8.503-5.229c-1.812-1.992-3.554-3.289-4.954-4.331c-0.764-0.568-1.424-1.06-1.86-1.502
	c-0.337-0.342-0.493-0.683-0.4-0.87c0.101-0.201,0.658-0.529,2.065-0.342c2.037,0.274,5.506,2.918,8.039,4.849
	c0.573,0.437,1.101,0.839,1.561,1.174c2.491,1.818,6.853,1.846,9.195,1.86l0.525,0.005c1.712,0.008,4.212-0.493,5.044-0.677
	c0.327,0.26,0.479,0.443,0.481,0.447c0.202,0.26,0.576,0.306,0.836,0.104c0.259-0.202,0.306-0.576,0.104-0.836
	c-0.025-0.031-0.306-0.383-0.906-0.821c-0.017-0.013-0.034-0.025-0.052-0.036c-0.762-0.545-2.011-1.21-3.869-1.562
	c-2.926-0.555-3.86-2.349-3.771-3.717c0.02-0.292,0.05-0.437,0.071-0.505c0.236,0.01,0.829,0.206,1.404,0.396
	c0.399,0.133,0.869,0.288,1.42,0.455c1.224,0.372,2.662,0.569,4.053,0.759c2.061,0.282,4.19,0.573,5.418,1.423
	C354.057,388.26,357.344,389.587,358.591,390.069z M370.985,250.68c6.021,15.898,2.441,27.891-0.717,38.472
	c-0.939,3.146-1.826,6.118-2.398,9.008c-1.924,9.716,0.684,14.773,2.104,16.69c-1.399,0.09-3.889,0.087-6.047-0.816
	c-2.661-1.113-4.003-2.594-4.371-3.048c-0.334-7.074-0.422-15.531-0.433-16.708c0.912-2.529,1.607-5.18,2.135-7.827
	c0.767-0.057,2.355-0.356,4.054-1.764c4.336-3.593,5.934-9.315,5.235-12.875c-0.342-1.743-1.221-2.92-2.476-3.314
	c-1.039-0.328-2.762-0.228-5.254,1.828c0.046-4.396-0.2-7.433-0.23-7.787c-0.007-0.08-0.029-0.157-0.066-0.228
	c-0.084-0.159-2.126-3.931-7.713-7.172c-5.225-3.03-7.086-9.168-7.104-9.23c-0.072-0.244-0.291-0.416-0.546-0.427
	c-0.261-0.005-0.487,0.141-0.58,0.378c-0.028,0.074-3.049,7.523-15.521,16.017c-2.382,1.622-4.776,3.103-7.093,4.442
	c-3.347,0.206-5.927,1.279-6.055,1.334c-0.303,0.128-0.444,0.478-0.315,0.781c0.096,0.227,0.316,0.363,0.548,0.363
	c0.078,0,0.156-0.015,0.232-0.047c0.019-0.008,1.085-0.449,2.697-0.811c-6.004,3.264-11.184,5.477-13.793,6.523
	c0.15-0.201,0.308-0.409,0.47-0.624c2.057-2.723,5.163-6.838,7.13-13.674c0.091-0.316-0.092-0.646-0.407-0.737
	c-0.318-0.089-0.646,0.092-0.737,0.408c-1.027,3.572-2.381,6.378-3.724,8.626c-1.662-0.37-3.05,0.289-3.821,1.823
	c-0.598,1.191-0.792,2.781-0.608,4.513c-0.141,0.205-0.295,0.419-0.414,0.612c-0.132,0.215-0.113,0.491,0.046,0.687
	c0.147,0.18,0.385,0.252,0.607,0.195c0.664,2.966,2.376,6.14,5.099,8.396c1.85,1.534,3.562,1.751,4.231,1.774
	c1.249,4.647,3.264,9.784,6.519,14.312c1.502,2.089,3.163,3.902,4.934,5.411c0.397,0.833,2.626,5.689,3.298,11.131
	c-1.436,0.265-5.764,0.976-12.621,1.367c-6.21,0.354-12.736-1.251-15.79-2.135c1.303-0.574,3.059-1.668,4.517-3.705
	c2.548-3.559,3.267-8.66,2.136-15.162c-0.563-3.234-1.294-6.478-2.001-9.615c-3.106-13.782-6.04-26.8,3.637-41.216
	c12.035-17.928,25.696-20.699,31.882-19.512c5.927,1.14,6.903,5.41,6.941,5.588c0.032,0.156,0.126,0.292,0.259,0.379
	c0.133,0.086,0.295,0.116,0.452,0.083C349.881,233.259,363.37,230.569,370.985,250.68z M338.672,384.385
	c-0.13,1.983,1.266,4.266,4.654,4.943l-0.135,0.989c-0.417,0.039-0.824,0.066-1.182,0.053l-0.533-0.004
	c-2.052-0.013-6.32-0.04-8.501-1.631c-0.454-0.331-0.976-0.729-1.541-1.16c-1.276-0.973-2.694-2.046-4.084-2.963
	c0.063-0.57,0.543-4.907,0.971-9.677c0.016-0.18,0.04-0.375,0.06-0.564c0.155-1.414,0.428-3.049,0.747-4.687
	c0.752-3.865,1.739-7.697,1.929-8.425c0.246-0.297,1.067-1.284,2.301-2.724c1.945-0.765,5.982-2.239,9.991-2.998
	c4.074-0.772,6.211-0.941,7.065-0.977c-1.937,6.999-4.555,17.402-5.99,27.085c-0.115,0.772-0.224,1.527-0.333,2.278
	c-0.345-0.074-0.679-0.156-0.99-0.251c-0.54-0.164-0.999-0.316-1.391-0.446c-1.278-0.425-1.923-0.638-2.462-0.271
	C338.782,383.267,338.706,383.857,338.672,384.385z M320.77,393.779c0.204,0.749,1.278,4.463,3.07,6.939
	c-1.921-0.205-6.854-0.883-9.594-2.648c-3.452-2.223-5.089-22.523-0.175-30.83c4.14-6.998,11.447-12.913,13.653-14.608l0.215,0.299
	c0.429,2.279,1.063,4.925,1.959,8.056c-0.326,1.243-2.329,9.021-2.762,13.84c-0.358,3.986-0.751,7.658-0.907,9.083
	c-1.239-0.735-2.417-1.284-3.398-1.416c-1.553-0.21-2.702,0.091-3.194,0.827c-0.702-0.036-1.961,0.046-2.371,1.063
	c-0.376,0.927,0.365,2.096,1.884,3.918c-0.061,0.685-0.156,2.529,0.418,3.739C319.739,392.403,320.18,393.029,320.77,393.779z
	 M327.374,305.277c0.059,0.034,0.111,0.078,0.156,0.132c3.707,3.107,7.892,4.807,12.063,4.807c0.036,0,0.072,0,0.107-0.001
	c1.299-0.009,2.568-0.189,3.803-0.523c2.183-1.308,6.289-4.418,8.937-10.458c3.744-8.541,5.733-27.904,5.324-32.994
	c-0.298-3.701-0.443-6.647-0.5-7.985c-0.863-0.692-1.875-1.403-3.053-2.086c-4.141-2.402-6.28-6.476-7.157-8.583
	c-1.412,2.558-5.489,8.576-15.326,15.275c-1.822,1.241-3.647,2.391-5.445,3.469c4.054,0.266,5.846,0.981,5.921,1.012
	c0.303,0.125,0.447,0.472,0.322,0.776c-0.125,0.303-0.47,0.449-0.775,0.325c-0.018-0.007-1.784-0.708-5.801-0.945
	c-0.561-0.033-1.111-0.03-1.646-0.004c-3.642,2.092-7.091,3.836-9.994,5.198c0.033,2.135,0.553,16.573,8.325,27.385
	C324.08,302.088,325.676,303.831,327.374,305.277z M342.005,267.341c0.077-0.032,1.933-0.782,6.184-1.032
	c4.298-0.249,7.958,1.278,8.112,1.343c0.303,0.128,0.443,0.478,0.315,0.78c-0.096,0.227-0.316,0.363-0.549,0.363
	c-0.077,0-0.155-0.015-0.23-0.047c-0.036-0.015-3.566-1.487-7.578-1.251c-4.017,0.236-5.783,0.938-5.801,0.945
	c-0.305,0.124-0.65-0.022-0.775-0.325C341.558,267.814,341.702,267.467,342.005,267.341z M348.446,275.737
	c0,1.569-0.7,2.842-1.563,2.842s-1.563-1.272-1.563-2.842c0-1.569,0.7-2.842,1.563-2.842S348.446,274.167,348.446,275.737z
	 M335.11,290.434c0.306-0.114,0.65,0.047,0.763,0.356c0,0,0.061,0.114,0.209,0.273c0.311,0.335,1.042,0.887,2.656,1.133
	c1.677,0.255,2.714-0.244,3.221-0.599c0.23-0.161,0.362-0.296,0.376-0.312c0.215-0.245,0.588-0.276,0.838-0.063
	c0.247,0.212,0.28,0.583,0.07,0.833c-0.055,0.064-1.208,1.401-3.614,1.401c-0.333,0-0.688-0.025-1.07-0.083
	c-3.101-0.472-3.741-2.003-3.805-2.176C334.642,290.888,334.801,290.546,335.11,290.434z M340.865,295.586
	c5.534-0.06,8.338-1.179,8.365-1.19c0.25-0.101,0.535-0.024,0.698,0.188c0.163,0.212,0.165,0.508,0.003,0.722
	c-0.133,0.175-3.303,4.286-8.681,4.926c-0.313,0.038-0.628,0.056-0.939,0.056c-5.066,0-9.724-4.651-9.932-4.861
	c-0.189-0.192-0.227-0.489-0.088-0.722c0.137-0.233,0.42-0.343,0.675-0.269C331.01,294.448,335.269,295.656,340.865,295.586z
	 M330.145,272.895c0.863,0,1.563,1.272,1.563,2.842c0,1.569-0.7,2.842-1.563,2.842s-1.563-1.272-1.563-2.842
	C328.582,274.167,329.281,272.895,330.145,272.895z M364.552,283.769c-1.249,1.035-2.391,1.358-3.063,1.459
	c0.858-4.752,1.197-9.422,1.297-13.284c1.983-1.862,3.73-2.687,4.928-2.312c1.105,0.348,1.517,1.658,1.664,2.408
	C370.02,275.309,368.39,280.589,364.552,283.769z M309.33,269.556c-0.912,1.415-1.792,2.582-2.533,3.563
	c-0.026,0.034-0.046,0.062-0.072,0.096c0.036-0.946,0.213-1.775,0.526-2.398C307.711,269.903,308.413,269.486,309.33,269.556z
	 M313.133,273.236c0.06,1.824,0.348,6.482,1.703,12.005c-0.655-0.083-1.846-0.384-3.158-1.472c-2.674-2.215-4.168-5.224-4.718-7.903
	C308.178,275.391,310.351,274.509,313.133,273.236z M204.045,404.522c0.068-0.31-0.119-0.618-0.424-0.702
	c-0.09-0.024-9.069-2.492-13.591-3.877c-2.817-0.862-4.037-1.998-4.098-2.249c0.002-0.003,0.305-0.271,1.719-0.143
	c4.025,0.366,15.604,3.138,15.72,3.166c0.312,0.07,0.621-0.106,0.71-0.411c0.09-0.304-0.074-0.625-0.374-0.729
	c-0.104-0.037-10.448-3.669-15.266-5.151c-3.094-0.951-3.379-1.673-3.405-1.809c-0.031-0.162,0.192-0.369,0.304-0.461
	c0.55-0.283,4.141,0.118,7.548,0.984c2.453,0.623,10.55,2.648,12.324,3.092c0.02,0.36-0.018,0.741-0.138,1.15
	c-0.702,2.398-0.176,4.622-0.76,6.611c-0.069,0.236-0.188,0.461-0.334,0.677C204.006,404.622,204.033,404.576,204.045,404.522z
	 M194.283,391.291l-0.667-0.2c-2.912-0.879-5.924-1.786-5.924-2.409c0-0.336,0.093-0.461,0.184-0.537
	c0.151-0.129,0.513-0.287,1.373-0.287c0.524,0,1.233,0.059,2.193,0.219c2.984,0.497,6.296,1.168,7.356,1.386
	c0.228,0.655,0.668,1.32,1.275,1.862c0.814,0.726,1.716,1.104,2.673,1.315c0.789,0.628,1.559,1.321,2.026,2.142
	C202.579,394.014,197.669,392.314,194.283,391.291z M210.543,391.801c-2.373-0.369-5.814-0.54-7.529-0.321
	c-0.796-0.176-1.517-0.48-2.149-1.044c-0.925-0.824-1.204-1.895-0.989-2.269c0.147-0.255,0.681-0.271,1.392-0.041
	c1.457,0.47,3.664,0.534,6.001,0.603c2.4,0.07,4.881,0.143,6.206,0.69c2.446,1.012,11.895,6.971,13.316,7.871
	c-0.691,2.928-1.313,5.761-1.859,8.549c-1.054-0.151-3.561-0.762-6.227-3.251c-3.51-3.276-3.861-9.36-6.084-10.296
	c-0.321-0.135-0.806-0.26-1.391-0.372c-0.108-0.113-0.259-0.184-0.428-0.184h0C210.708,391.735,210.622,391.762,210.543,391.801z
	 M203.366,404.981c0.201,0.034,0.391-0.046,0.523-0.185c-0.806,1.084-2.318,1.921-2.42,2.584c-0.978-0.308-1.904-0.588-2.702-0.829
	c-0.779-0.235-1.421-0.429-1.849-0.571c-0.723-0.241-1.797-0.465-2.934-0.702c-2.145-0.447-5.385-1.123-5.963-2.042
	c-0.204-0.325-0.196-0.477-0.186-0.49c0.112-0.159,1.061-0.479,3.858,0.126C195.128,403.613,203.284,404.967,203.366,404.981z
	 M333.013,296.107c1.841,0.337,4.621,0.709,7.866,0.669c2.938-0.031,5.13-0.348,6.593-0.658c-1.345,1.155-3.535,2.595-6.361,2.931
	C338.039,299.411,334.905,297.538,333.013,296.107z"></path>
<path id="color_x5F_3" fill="#E84393" d="M325.506,331.841c0.901-3.704-0.146-5.941-0.741-7.25c2.12-2.1,4.177-4.238,5.317-5.435
	c0.905,10.106-0.371,14.545-1.508,18.468c-0.87,3.002-1.668,5.761-1.296,10.525c-0.806-0.821-2.134-2.419-2.533-4.373
	C324.161,340.909,324.453,336.17,325.506,331.841z M314.245,398.071c-3.452-2.223-5.089-22.523-0.175-30.83
	c4.14-6.998,11.447-12.913,13.653-14.608l-5.609-7.774c-1.033,2.99-4.034,11.347-7.008,16.446
	c-3.024,5.185-9.555,18.685-4.892,32.034c4.462,12.778,4.885,27.917,1.255,44.996c-2.237,10.529-3.21,29.124-3.618,40.983
	c0.775,0.128,2.42,0.388,4.714,0.691c0.171-3.115,1.26-21.121,4.138-32.739c2.329-9.404,3.853-20.27,7.017-24.322
	c0.373-10.952,1.03-19.404,1.163-21.039c-0.37-0.342-0.719-0.742-1.043-1.19C321.919,400.513,316.986,399.836,314.245,398.071z
	 M340.27,409.435c-1.049,0-1.865-0.021-2.325-0.071c-2.759-0.304-8.945-4.285-11.94-6.546c-0.145,1.88-0.448,6.066-0.731,11.613
	l-0.128,7.237c0.795-0.43,1.682-0.49,2.688-0.087c5.193,2.08,10.749,5.613,12.546,6.793c-0.129-5.813,0.077-11.91,0.658-18.942
	C340.772,409.433,340.513,409.435,340.27,409.435z M338.827,352.331c-2.18,2.402-4.082,4.585-5.469,6.203
	c1.945-0.765,5.982-2.239,9.991-2.998c4.074-0.772,6.211-0.941,7.065-0.977c0.867-3.134,1.597-5.585,2.022-6.981
	C349.13,348.944,341.018,351.615,338.827,352.331z"></path>
<path id="color_x5F_4" fill="#22cdb8" d="M457.284,334.324c0.898-1.028,2.141-1.658,3.706-1.895v11.096
	c-1.842-0.476-3.146-1.182-3.914-2.11c-0.768-0.929-1.151-2.087-1.151-3.469C455.925,336.549,456.378,335.344,457.284,334.324z
	 M463.384,348.321v12.102c1.573-0.192,2.87-0.875,3.898-2.049c1.021-1.167,1.535-2.617,1.535-4.336c0-1.473-0.361-2.648-1.09-3.545
	C466.998,349.602,465.548,348.881,463.384,348.321z M426.539,235.813v18.478c2.402-0.293,4.382-1.336,5.952-3.128
	c1.558-1.781,2.343-3.996,2.343-6.62c0-2.25-0.551-4.042-1.664-5.413C432.058,237.77,429.843,236.668,426.539,235.813z
	 M539.354,390.308c-1.341,24.286-7.849,48.624-15.648,69.862c-3.122-1.428-0.083-9.688,2.224-11.088
	c0.367-0.222,0.676-0.431,0.938-0.625c-2.867-0.101-5.943,0.081-9.22,0.636c-3.417,0.579-6.566,1.464-9.445,2.589
	c3.304,1.63,7.674,4.296,9.206,7.55c2.583,5.488-5.915,10.401-9.463,4.51c-2.229-3.701-3.879-7.431-4.798-9.693
	c-3.957,2.188-7.241,4.87-9.824,7.814c1.648,2.885,4.834,7.411,8.979,8.263c6.177,1.269,2.387,10.442-3.636,9.588
	c-5.537-0.785-7.444-11.573-8.136-14.154c-3.305,5.127-4.681,10.701-4.011,15.68c3.721,0.732,8.347,1.23,9.788,3.458
	c2.175,3.365-3.681,5.855-7.057,4.164c3.719,7.653,6.224,11.594,7.298,13.156c-2.83,9.569-3.138,17.717-3.102,21.336
	c-0.428,0.706-0.791,1.295-1.075,1.752h-3.777c-0.169-1.613-1.907-15.75-11.5-28.077c0.073-2.025,0.142-7.954-0.793-19.316
	c-1.769,4.126-7.48,5.605-7.449,0.566c0.02-3.337,3.33-7.087,5.831-10.448c-1.911-5.678-5.685-10.551-10.721-13.611
	c0.727,3.183,4.519,15.805,0.65,20.49c-4.209,5.096-11.59-1.859-7.465-7.497c2.768-3.784,3.01-10.744,2.869-14.913
	c-3.418-1.279-7.247-1.795-11.352-1.324c0.397,3.008,0.947,8.062,1.039,13.491c0.146,8.642-8.773,9.429-9.464,1.883
	c-0.41-4.475,1.648-10.314,3.39-14.326c-2.759,0.831-5.609,2.103-8.515,3.88c-2.787,1.705-5.238,3.661-7.391,5.767
	c0.296,0.021,0.635,0.023,1.025,0c2.712-0.16,10.192,7.823,6.297,11.104c-3.63,3.057-10.022,0.266-11.744-6.057
	c-9.929,13.234-10.565,29.081-8.268,28.59c1.892-0.405,3.647-0.164,7.041,3.093c1.398-2.578,3.08-6.054,5.773-9.47
	c6.366-8.075,14.113-2.597,8.26,1.872c-4.177,3.189-7.842,8.905-9.442,12.646c1.015,1.218,2.128,2.604,3.359,4.182
	c1.297,1.664,2.737,3.029,4.275,4.121c0.388-0.663,0.66-1.664,0.761-3.099c0.67-9.516,8.973-16.606,13.987-17.258
	c5.015-0.652-0.984,4.407-6.114,9.7c-3.251,3.355-4.211,8.86-4.309,12.941c3.559,1.311,7.389,1.48,11.083,0.718
	c0.02-1.981,0.165-5.494,0.795-10.101c1.005-7.349,10.669-13.331,13.422-8.604s-2.534,3.619-6.847,8.038
	c-2.231,2.285-3.635,6.414-4.472,9.869c4.473-1.545,8.567-4.444,11.497-8.293c5.87-7.713,10.088-8.311,11.925-8.081
	c9.344,11.883,11.152,25.563,11.367,27.524h-92.74l2.396-44.918c10.079-3.389,19.05-6.84,19.203-6.898
	c0.155-0.06,0.277-0.182,0.339-0.335c0.062-0.154,0.056-0.326-0.015-0.476c-0.655-1.381-1.714-3.521-3.021-6.165
	c-6.172-12.481-17.5-35.387-18.77-43.479c5.527,0.561,10.063,0.974,12.32,1.076c7.902,0.354,16.155-0.658,17.552-10.904
	c1.14-8.352-13.855-56.317-18.783-72.08c-0.458-1.464-0.802-2.563-1.003-3.22c-2.354-7.679-4.969-8.07-8.277-8.566l-0.539-0.082
	c-3.407-0.532-24.128-5.027-25.374-5.297c-0.539-0.26-4.596-2.269-6.518-4.738c-1.136-1.461-2.271-3.541-3.076-5.146
	c0.655,0.428,1.436,0.861,2.376,1.254c3.517,1.472,7.63,0.809,7.802,0.779c0.226-0.037,0.409-0.202,0.473-0.422
	c0.064-0.22-0.005-0.457-0.175-0.61c-0.049-0.044-4.893-4.554-2.529-16.487c0.562-2.835,1.44-5.78,2.371-8.899
	c3.212-10.762,6.854-22.959,0.689-39.234c-7.117-18.793-19.702-18.447-22.491-18.119c-0.477-1.375-2.219-4.914-7.725-5.973
	c-6.464-1.249-20.713,1.571-33.095,20.018c-9.963,14.841-6.835,28.72-3.81,42.141c0.703,3.123,1.432,6.352,1.988,9.557
	c1.072,6.16,0.428,10.952-1.913,14.241c-2.331,3.275-5.592,3.841-5.624,3.846c-0.269,0.044-0.475,0.265-0.498,0.535
	c-0.024,0.271,0.138,0.524,0.395,0.614c0.377,0.133,9.338,3.242,18.021,2.751c5.568-0.318,9.436-0.835,11.523-1.17
	c-2.346,2.451-7.42,7.673-10.091,9.81c-0.493,0.395-0.969,1.046-1.424,1.872l-12.014,4.219c-0.124,0.043-0.234,0.126-0.31,0.245
	c-0.414,0.653-10.155,16.118-11.394,25.201c-1.14,8.359-10.168,42.604-11.381,47.188c-7.747-1.022-14.682-2.305-21.413-3.718
	c-0.643-60.444-1.686-162.729-1.429-167.565c0.17-3.202-0.329-5.229-1.482-6.025c-0.653-0.451-1.364-0.394-1.768-0.263H99.798
	c-0.225,0-0.43,0.126-0.531,0.326c-3.07,6.067-3.249,12.841-0.529,20.135l-5.104,218.122c-0.003,0.16,0.057,0.315,0.169,0.43
	c0.112,0.114,0.266,0.18,0.426,0.18h14.389v56.249h-5.134c-50.359-38.903-39.757-77.374-21.145-161.161
	c16.019-72.114-10.989-69.109-34.388-143.989C-22.992-7.062,560.889,0.312,539.354,390.308z M250.554,211.061
	c0-0.329-0.267-0.595-0.595-0.595h-17.846v-68.783c0-0.329-0.267-0.595-0.595-0.595h-13.256c-0.329,0-0.595,0.267-0.595,0.595
	v68.783h-3.94v-60.659c0-0.329-0.267-0.595-0.595-0.595h-13.256c-0.329,0-0.595,0.267-0.595,0.595v60.659h-3.941v-56.168
	c0-0.329-0.267-0.595-0.595-0.595h-13.256c-0.329,0-0.595,0.267-0.595,0.595v56.168h-3.941v-43.34c0-0.329-0.267-0.595-0.595-0.595
	h-13.256c-0.329,0-0.595,0.267-0.595,0.595v43.34h-3.941V175.25c0-0.329-0.267-0.595-0.595-0.595h-13.256
	c-0.329,0-0.595,0.267-0.595,0.595v35.216h-8.17v-99.09c0-0.329-0.267-0.595-0.595-0.595s-0.595,0.267-0.595,0.595v99.685
	c0,0.329,0.267,0.595,0.595,0.595h9.361h13.256h5.131h13.256h5.131h13.256h5.131h13.256h5.131h13.256h18.441
	C250.287,211.656,250.554,211.39,250.554,211.061z M339.701,191.777h-30.93v5.835h30.93V191.777z M339.701,183.218h-30.93v5.835
	h30.93V183.218z M339.701,174.659h-30.93v5.835h30.93V174.659z M354.582,155.595l-30.346-22.565l-30.346,22.565h14.881v15.562h30.93
	v-15.562H354.582z M441.162,244.12c0-1.945-0.328-3.761-0.973-5.425c-0.656-1.675-1.582-3.117-2.8-4.323
	c-1.207-1.219-2.765-2.25-4.687-3.094c-1.008-0.433-3.058-1.054-6.163-1.851v-17.81c2.015,0.422,3.597,1.277,4.745,2.59
	c1.16,1.3,1.922,3.187,2.285,5.636l6.327-0.984c-0.551-3.925-2.168-7.019-4.851-9.268c-2.097-1.769-4.933-2.836-8.507-3.175v-2.953
	h-3.656v2.953c-4.089,0.41-7.183,1.535-9.257,3.363c-3.105,2.73-4.663,6.292-4.663,10.686c0,2.472,0.527,4.675,1.594,6.632
	c1.066,1.945,2.578,3.468,4.546,4.558c2.648,1.488,5.237,2.566,7.78,3.222v19.415c-2.426-0.258-4.511-1.488-6.245-3.691
	c-1.219-1.558-2.062-4.007-2.543-7.346l-6.187,1.195c0.234,3.211,1.043,5.917,2.449,8.143c1.406,2.214,3.07,3.831,5.003,4.827
	c1.933,0.996,4.441,1.687,7.522,2.074v6.187l3.656,0v-6.257c4.312-0.211,7.827-1.734,10.545-4.593
	C439.803,251.959,441.162,248.397,441.162,244.12z M472.961,353.761c0-1.274-0.215-2.463-0.637-3.553
	c-0.43-1.097-1.036-2.041-1.834-2.832c-0.79-0.798-1.811-1.473-3.069-2.026c-0.66-0.284-2.003-0.69-4.036-1.212v-11.664
	c1.32,0.276,2.356,0.837,3.108,1.696c0.76,0.852,1.259,2.087,1.497,3.691l4.144-0.644c-0.361-2.571-1.42-4.597-3.177-6.07
	c-1.374-1.159-3.231-1.857-5.571-2.08v-1.934h-2.394v1.934c-2.678,0.269-4.704,1.005-6.062,2.203
	c-2.033,1.788-3.054,4.121-3.054,6.999c0,1.619,0.345,3.062,1.044,4.343c0.698,1.274,1.688,2.272,2.977,2.985
	c1.734,0.974,3.43,1.681,5.095,2.11v12.715c-1.589-0.169-2.954-0.975-4.09-2.417c-0.798-1.021-1.35-2.624-1.665-4.811l-4.052,0.783
	c0.154,2.103,0.683,3.875,1.604,5.333c0.921,1.45,2.011,2.509,3.277,3.161c1.266,0.652,2.908,1.105,4.927,1.358v4.052h2.394v-4.098
	c2.824-0.138,5.126-1.136,6.906-3.008C472.071,358.895,472.961,356.562,472.961,353.761z M417.224,214.441
	c-1.383,1.558-2.074,3.398-2.074,5.53c0,2.109,0.586,3.878,1.758,5.296c1.172,1.418,3.164,2.496,5.976,3.222l0-16.943
	C420.493,211.91,418.595,212.871,417.224,214.441z M120.232,525.105h104.138v-56.249H120.232V525.105z M508.388,493.622
	c-0.091,0.876-0.019,1.457,0.188,1.835c0.821-1.678,1.654-3.41,2.496-5.194C509.571,491.09,508.533,492.234,508.388,493.622z
	 M494.652,521.346c2.707-4.556,6.986-12.064,11.855-21.723c-5.189,0.027-7.766,1.708-8.794,2.631
	C495.335,510.241,494.752,517.225,494.652,521.346z M295.237,486.533c-0.271-0.102-0.429-0.383-0.376-0.666
	c0.061-0.328,5.315-28.802,6.401-49.012l-40.105-4.206c0.096,8.845,0.156,14.229,0.159,14.553c0.003,0.326-0.256,0.595-0.582,0.602
	l-4.093,0.092l-0.018,17.175c0,0.328-0.267,0.595-0.595,0.595h-4.671l-0.061,2.608c-0.008,0.323-0.272,0.582-0.595,0.582h-14.716
	v56.249h72.519l-2.079-34.376L295.237,486.533z"></path>
<path id="color_x5F_5" fill="#2c2a80" d="M157.373,210.466h-12.065v-34.621h12.065V210.466z M175.76,167.721h-12.065v42.745h12.065
	V167.721z M194.147,154.893h-12.065v55.573h12.065V154.893z M212.535,150.402h-12.066v60.063h12.066V150.402z M230.922,142.278
	h-12.066v68.188h12.066V142.278z M468.854,478.278c0.02-3.337,3.33-7.087,5.831-10.448c-1.911-5.678-5.685-10.551-10.721-13.611
	c0.727,3.183,4.519,15.805,0.65,20.49c-4.209,5.096-11.59-1.859-7.465-7.497c2.768-3.784,3.01-10.744,2.869-14.913
	c-3.418-1.279-7.247-1.795-11.352-1.324c0.397,3.008,0.947,8.062,1.039,13.491c0.146,8.642-8.773,9.429-9.464,1.883
	c-0.41-4.475,1.648-10.314,3.39-14.326c-2.759,0.831-5.609,2.103-8.515,3.88c-2.787,1.705-5.238,3.661-7.391,5.767
	c0.296,0.021,0.635,0.023,1.025,0c2.712-0.16,10.192,7.823,6.297,11.104c-3.63,3.057-10.022,0.266-11.744-6.057
	c-9.929,13.234-10.565,29.081-8.268,28.59c1.892-0.405,3.647-0.164,7.041,3.093c1.398-2.578,3.08-6.054,5.773-9.47
	c6.366-8.075,14.113-2.597,8.26,1.872c-4.177,3.189-7.842,8.905-9.442,12.646c1.015,1.218,2.128,2.604,3.359,4.182
	c1.297,1.664,2.737,3.029,4.275,4.121c0.388-0.663,0.66-1.664,0.761-3.099c0.67-9.516,8.973-16.606,13.987-17.258
	c5.015-0.652-0.984,4.407-6.114,9.7c-3.251,3.355-4.211,8.86-4.309,12.941c3.559,1.311,7.389,1.48,11.083,0.718
	c0.02-1.981,0.165-5.494,0.795-10.101c1.005-7.349,10.669-13.331,13.422-8.604s-2.534,3.619-6.847,8.038
	c-2.231,2.285-3.635,6.414-4.472,9.869c4.473-1.545,8.567-4.444,11.497-8.293c5.87-7.713,10.088-8.311,11.925-8.081
	c-4.562-5.802-10.92-11.171-19.766-14.528c-26.089-9.898-39.939,7.479-40.076,7.655c-0.202,0.261-0.575,0.307-0.835,0.106
	c-0.26-0.201-0.308-0.574-0.107-0.834c0.143-0.185,14.502-18.263,41.44-8.041c9.169,3.479,15.724,9.067,20.409,15.088
	c0.073-2.025,0.142-7.954-0.793-19.316C474.533,481.838,468.823,483.317,468.854,478.278z M533.065,449.147
	c1.118,5.296-3.542,11.07-8.166,11.232c-0.471,0.016-0.866-0.059-1.193-0.209c-3.122-1.428-0.083-9.688,2.224-11.088
	c0.367-0.222,0.676-0.431,0.938-0.625c-2.867-0.101-5.943,0.081-9.22,0.636c-3.417,0.579-6.566,1.464-9.445,2.589
	c3.304,1.63,7.674,4.296,9.206,7.55c2.583,5.488-5.915,10.401-9.463,4.51c-2.229-3.701-3.879-7.431-4.798-9.693
	c-3.957,2.188-7.241,4.87-9.824,7.814c1.648,2.885,4.834,7.411,8.979,8.263c6.177,1.269,2.387,10.442-3.636,9.588
	c-5.537-0.785-7.444-11.573-8.136-14.154c-3.305,5.127-4.681,10.701-4.011,15.68c3.721,0.732,8.347,1.23,9.788,3.458
	c2.175,3.365-3.681,5.855-7.057,4.164c3.719,7.653,6.224,11.594,7.298,13.156c2.056-6.952,5.441-14.645,11.005-21.887
	c15.896-20.693,34.782-21.269,34.971-21.271c0.004-0.001,0.008-0.001,0.011-0.001c0.324,0,0.589,0.26,0.595,0.585
	c0.007,0.328-0.255,0.6-0.584,0.605c-0.183,0.004-18.521,0.593-34.049,20.807c-5.44,7.082-8.762,14.6-10.785,21.399
	c1.028-0.922,3.605-2.604,8.794-2.631c1.661-0.009,3.587,0.152,5.816,0.563c4.321,0.797,9.303,0.246,14.054-1.446
	c-2.237-1.809-5.282-3.724-8.297-3.898c-4.778-0.275-8.567,2.333-9.503,0.616c-0.206-0.378-0.279-0.959-0.188-1.835
	c0.145-1.389,1.183-2.533,2.683-3.359c3.743-2.061,10.373-2.137,13.265,0.948c2.539,2.709,4.169,4.979,5.031,6.297
	c3.706-1.742,7.139-4.192,9.837-7.243c-1.829-2.68-5.053-5.791-9.458-6.06c-6.95-0.424-14.595-0.161-9.728-2.783
	c4.867-2.621,15.486-2.926,20.154,3.054c0.704,0.902,1.38,1.409,2.017,1.617c0.942-1.671,1.678-3.466,2.156-5.375
	c0.454-1.81,0.882-3.42,1.292-4.857c-3.058-1.536-8.847-3.138-14.029-2.731c-7.26,0.57-2.505-7.834,6.762-6.296
	c3.92,0.651,6.941,1.958,9.318,2.836c1.718-4.258,3.222-5.49,5.126-6.373C555.124,462.227,547.79,451.975,533.065,449.147z
	 M224.221,279.085c-0.235-0.229-0.612-0.225-0.842,0.011l-2.457,2.523l-40.745,41.835l-4.79-8.554l-7.925-14.152
	c-0.113-0.2-0.335-0.32-0.56-0.303c-0.229,0.016-0.429,0.161-0.514,0.375l-3.601,9.133l-7.841,19.886l-4.262,10.809l-3.209-5.348
	l-5.296-8.826c-0.114-0.19-0.322-0.299-0.55-0.287c-0.223,0.015-0.419,0.153-0.507,0.359l-8.38,19.523l-2.46,5.732l-5.252-0.095
	l-0.783-0.014c-0.003-0.001-0.007-0.001-0.011-0.001c-0.324,0-0.589,0.26-0.595,0.585c-0.006,0.329,0.256,0.6,0.584,0.605
	l6.435,0.117c0.003,0.001,0.007,0.001,0.011,0.001c0.238,0,0.453-0.142,0.547-0.361l3.412-7.949l7.128-16.605l4.753,7.922
	l3.775,6.291c0.116,0.193,0.335,0.297,0.559,0.287c0.226-0.02,0.422-0.164,0.505-0.375l5.395-13.684l10.291-26.1l7.382,13.183
	l4.871,8.698l0.238,0.425c0.092,0.164,0.256,0.274,0.442,0.299c0.047,0.007,0.091-0.009,0.137-0.013
	c0.137-0.014,0.269-0.061,0.367-0.162l43.758-44.928C224.461,279.691,224.457,279.314,224.221,279.085z M412.493,466.841
	c-6.27-12.677-17.827-36.049-18.924-44.131c-16.44-1.687-40.472-4.522-40.803-4.562c-0.076-0.009-0.148-0.032-0.214-0.067
	c-0.051-0.028-0.099-0.063-0.142-0.107c-0.009-0.01-0.019-0.02-0.026-0.029c-0.108-0.126-0.873-1.074-1.646-3.65
	c-0.586-1.952-0.82-4.093-0.904-5.105c-2.575,0.098-5.342,0.189-7.602,0.227c-1.987,23.905,0.386,36.917,5.543,65.144
	c0.399,2.183,0.815,4.462,1.246,6.838c0,0,0,0,0,0l0.014,0.076c0.39,2.148,0.791,4.372,1.206,6.696
	c1.561-0.088,6.479-0.404,12.691-1.149c3.514-0.429,7.52-1.008,11.771-1.783c0.563-0.106,1.127-0.212,1.691-0.324
	c12.06-2.412,34.845-10.989,38.832-12.507C414.57,471.042,413.625,469.131,412.493,466.841z M301.439,428.546
	c-0.402-19.271-1.218-52.718-1.647-67.525c-0.228-7.834,1.366-14.942,2.849-19.758c-3.023,5.426-7.081,13.501-7.823,18.944
	c-1.226,8.993-11.124,46.257-11.544,47.839c-0.077,0.288-0.354,0.471-0.652,0.438c-13.566-1.762-24.635-4.302-36.354-6.991
	c-5.84-1.341-11.874-2.725-18.299-4.02c-2.469,10.445-4.119,19.627-4.173,30.061l77.526,8.131
	C301.438,433.118,301.484,430.72,301.439,428.546z M344.488,389.615l-0.075,0.547c0.378-0.059,0.748-0.122,1.082-0.184
	C345.198,389.85,344.86,389.727,344.488,389.615z M351.88,413.952c0.384,1.281,0.763,2.115,1.03,2.612
	c1.831-2.193,3.295-4.823,4.369-7.695c-1.024,0.049-3.442,0.161-6.252,0.273C351.112,410.125,351.339,412.152,351.88,413.952z
	 M352.903,386.013c2.039,1.412,6.204,2.981,6.558,3.114c1.933,0.416,16.241,3.487,25.091,5.201c2.807,0.543,5.714,1.007,8.416,1.392
	c-1.542-4.289-7.537-21.879-6.445-33.189c1.227-12.701,6.669-20.547,6.9-20.874c0.189-0.271,0.561-0.331,0.829-0.144
	c0.269,0.188,0.333,0.561,0.144,0.829c-0.055,0.078-5.493,7.934-6.688,20.304c-1.115,11.549,5.597,30.52,6.596,33.26
	c5.763,0.786,10.294,1.188,10.363,1.193c0.327,0.028,0.57,0.317,0.541,0.645c-0.027,0.327-0.322,0.577-0.645,0.541
	c-0.07-0.006-4.789-0.424-10.732-1.242c-0.028-0.001-0.057-0.005-0.085-0.011c-2.98-0.412-6.264-0.924-9.421-1.535
	c-8.158-1.579-20.947-4.311-24.434-5.059c1.906,9.479-0.407,19.93-5.879,26.66c7.001,0.821,45.008,5.254,53.151,5.624
	c10.568,0.481,15.296-2.382,16.317-9.875c0.732-5.368-5.572-29.445-18.74-71.564c-0.459-1.467-0.803-2.568-1.005-3.226
	c-2.135-6.962-4.195-7.271-7.315-7.739l-0.546-0.083c-3.223-0.503-21.077-4.363-24.836-5.177l-1.601,23.71
	c-0.014,0.204-0.132,0.388-0.313,0.484s-0.396,0.094-0.576-0.007l-11.909-6.792c-0.571,1.122-1.825,3.468-2.712,4.323
	c-0.514,1.637-5.996,19.306-8.328,35.043c-0.117,0.787-0.229,1.556-0.34,2.32c0.563,0.091,1.138,0.173,1.707,0.251
	C349.168,384.69,351.441,385,352.903,386.013z M320.83,342.984l-1.568-8.257l-5.939,15.259c-0.11,0.283-0.413,0.437-0.709,0.359
	c-0.294-0.079-0.48-0.366-0.434-0.666c0.091-0.59,1.846-11.734,4.442-17.778l-10.652,3.741c-0.747,1.668-5.36,12.514-4.988,25.344
	c0.43,14.811,1.246,48.262,1.647,67.535c0.05,2.363-0.008,4.987-0.147,7.776c0.001,0.028,0,0.058-0.003,0.088
	c-0.001,0.007-0.002,0.015-0.003,0.022c-0.957,18.895-5.644,45.268-6.354,49.186l10.271,3.852c0.025-1.475,0.09-4.779,0.232-9.099
	l0.013-0.544c0-0.007,0.005-0.013,0.005-0.02c0.401-11.874,1.376-30.938,3.662-41.695c3.583-16.862,3.174-31.786-1.216-44.355
	c-4.825-13.817,1.881-27.699,4.987-33.026c3.217-5.512,6.579-15.249,7.183-17.031l-0.326-0.452
	C320.881,343.15,320.847,343.068,320.83,342.984z"></path>
<path id="color_x5F_6" fill="#CCCCCC" d="M339.774,316.403c-3.403-0.276-7.98-3.258-9.787-4.524
	c-0.47-1.654-0.992-3.097-1.428-4.185c3.495,2.436,7.342,3.74,11.15,3.712c5.918-0.042,11.255-3.229,15.435-9.22
	c1.084-1.555,2.019-3.252,2.825-5.045c0.051,3.36,0.165,8.99,0.399,13.944c-0.013,0.081-0.01,0.165,0.012,0.246
	c0.09,1.856,0.197,3.61,0.325,5.104c0.03,0.352,0.04,0.706,0.055,1.06c-0.969-0.655-3.084-1.726-6.409-1.562
	C347.612,316.169,344.103,316.754,339.774,316.403z M354.167,301.505c8.95-12.827,7.391-36.76,7.244-38.737
	c-0.27-0.456-1.51-2.398-4.148-4.513c0.057,1.337,0.203,4.284,0.5,7.985c0.41,5.09-1.58,24.453-5.324,32.994
	c-2.648,6.041-6.754,9.15-8.937,10.458C347.512,308.605,351.148,305.832,354.167,301.505z M346.501,393.273
	c-3.803,1.58-9.886-0.41-11.583,0.409c-1.36,0.656,0.734,1.388,1.407,2.264c0.108,0.034,0.234,0.079,0.33,0.106
	c0.316,0.09,0.5,0.419,0.41,0.734c-0.09,0.316-0.422,0.5-0.734,0.41c-0.135-0.038-0.284-0.084-0.441-0.135
	c-1.315,0.341-4.204-0.352-4.014,0.598c0.017,0.084,0.078,0.167,0.161,0.247c2.776,0.894,5.662,1.858,5.662,1.858l-0.061,0.181
	c0.054,0.069,0.04,0.135-0.066,0.198l-0.25,0.749c0,0-0.462-0.154-1.184-0.393c-1.789,0.297-4.127,0.491-3.754,1.186
	c2.323,1.192,4.576,2.336,4.618,2.357c0.293,0.149,0.41,0.508,0.262,0.801c-0.149,0.294-0.511,0.406-0.801,0.262
	c-0.074-0.038-0.531-0.27-1.193-0.607c0.103,0.526-0.266,0.8-1.112,0.473c-1.594-0.617-1.876-0.148-1.445,0.848
	c2.159,1.247,4.213,2.232,5.362,2.359c0.586,0.065,1.82,0.078,3.394,0.059c0.084-0.033,0.173-0.053,0.269-0.043
	c0.046,0.004,0.085,0.023,0.127,0.037c2.454-0.037,5.625-0.144,8.491-0.256c0.001,0,0.002-0.001,0.003-0.001
	c0.001,0,0.002,0,0.002,0c3.893-0.153,7.206-0.314,7.353-0.321c1.503-4.591,2.007-9.724,1.375-14.7
	C356.971,392.694,349.73,391.932,346.501,393.273z M212.622,392.292c-0.321-0.135-0.806-0.26-1.391-0.372
	c0.102,0.107,0.167,0.25,0.168,0.41c0,0.051,0.035,5.122,2.529,9.131c2.48,3.986,8.055,6,8.111,6.021
	c0.31,0.109,0.472,0.45,0.362,0.76s-0.449,0.472-0.76,0.361c-0.245-0.086-6.025-2.177-8.723-6.513
	c-0.216-0.347-0.415-0.7-0.598-1.056c-0.571,0.402-1.572,1.237-2.696,2.754c-1.777,2.398-2.381,4.335-2.387,4.354
	c-0.096,0.314-0.427,0.494-0.743,0.396c-0.314-0.096-0.492-0.427-0.397-0.741c0.026-0.087,0.66-2.141,2.569-4.719
	c1.319-1.78,2.5-2.714,3.142-3.139c-0.907-2.141-1.3-4.271-1.47-5.733c-0.349-0.23-1.159-0.707-2.277-0.988
	c-0.316,0.72-0.96,2.34-1.419,4.538c-0.51,2.441-0.644,5.622-0.702,6.98c-0.017,0.394-0.031,0.647-0.042,0.712
	c-0.054,0.324-0.359,0.544-0.685,0.488c-0.321-0.054-0.539-0.354-0.491-0.675c0.008-0.075,0.016-0.277,0.028-0.575
	c0.059-1.388,0.196-4.638,0.726-7.175c0.086-0.412,0.178-0.806,0.273-1.177c-0.062,0.004-0.124-0.001-0.186-0.017
	c0,0-0.129-0.032-0.351-0.088c0.02,0.36-0.018,0.741-0.138,1.15c-0.702,2.398-0.176,4.622-0.76,6.611
	c-0.069,0.236-0.188,0.461-0.334,0.677c-0.025,0.047-0.056,0.088-0.092,0.126c-0.806,1.084-2.318,1.921-2.42,2.584
	c3.224,1.016,7.034,2.356,8.896,3.737c2.409,1.787,11.092,2.816,13.192,3.041c0.367-2.765,0.829-5.524,1.376-8.318
	c-1.054-0.151-3.561-0.762-6.227-3.251C215.195,399.313,214.845,393.228,212.622,392.292z M204.772,394.782
	c0.69,0.242,1.118,0.394,1.136,0.4c0.052,0.019,0.101,0.043,0.144,0.074c0.292-0.965,0.583-1.725,0.799-2.238
	c-0.007,0-0.013-0.001-0.02-0.001c-0.412-0.032-0.818-0.053-1.218-0.073c-0.991-0.05-1.954-0.102-2.866-0.304
	C203.535,393.268,204.305,393.96,204.772,394.782z M206.921,391.829c0.313,0.024,0.614,0.065,0.899,0.118
	c0.007,0.001,0.014,0.002,0.021,0.004c0.982,0.185,1.792,0.513,2.378,0.812c-0.011-0.247-0.011-0.398-0.011-0.433
	c0-0.235,0.138-0.432,0.335-0.529c-2.373-0.369-5.814-0.54-7.529-0.321c0.812,0.18,1.702,0.226,2.659,0.275
	C206.082,391.776,206.499,391.797,206.921,391.829z"></path>
</svg>