<?xml version="1.0" standalone="no"?>
<svg version="1.1" id="Layer_1" xmlns:cc="http://creativecommons.org/ns#" xmlns:dc="http://purl.org/dc/elements/1.1/" xmlns:rdf="http://www.w3.org/1999/02/22-rdf-syntax-ns#" xmlns:svg="http://www.w3.org/2000/svg" xmlns="http://www.w3.org/2000/svg" xmlns:xlink="http://www.w3.org/1999/xlink" x="0px" y="0px" viewBox="0 0 595.2 595.2" enable-background="new 0 0 595.2 595.2" xml:space="preserve">
<path id="color_x5F_1" fill="#2c2a80" d="M184.265,351.411c0.026,0,0.053,0,0.079-0.001c0.875-0.022,1.644-0.423,2.167-1.128
	c0.771-1.038,0.95-2.595,0.491-4.27c-0.76-2.773-2.991-4.911-5.106-4.911c-0.026,0-0.053,0-0.079,0.001l0,0
	c-0.875,0.022-1.644,0.423-2.167,1.128c-0.771,1.038-0.95,2.595-0.491,4.27C179.917,349.273,182.148,351.412,184.265,351.411z
	 M180.605,342.939c0.309-0.416,0.726-0.633,1.241-0.647c1.545,0.008,3.397,1.809,4.007,4.035c0.356,1.3,0.245,2.514-0.299,3.246
	c-0.309,0.416-0.727,0.634-1.241,0.647c-1.567,0.011-3.397-1.809-4.007-4.035C179.95,344.885,180.062,343.672,180.605,342.939z
	 M546.351,514.749h-56.945h-44.174l-6.842-37.396c0.351-2.569,7.816-57.21,10.316-79.914c1.339-12.159,10.331-32.739,18.264-50.897
	c7.57-17.325,13.549-31.011,12.125-35.053c-2.647-7.514-30.753-54.175-35.184-61.513h16.674c4.878,0,8.847-5.167,8.847-11.52
	c0-3.568-1.276-6.906-3.403-9.073c5.443-0.649,8.76-4.905,8.76-11.433c0-3.521-1.244-6.82-3.321-8.989
	c4.8-0.117,8.678-5.239,8.678-11.517c0-3.521-1.244-6.82-3.321-8.988c4.8-0.119,8.678-5.24,8.678-11.518
	c0-6.351-3.97-11.518-8.848-11.518H434.84l2.029-22.017c0.435-4.709-0.361-8.25-2.364-10.524c-1.481-1.681-3.628-2.617-6.229-2.707
	h-5.716c-3.65,0-4.524,3.5-4.853,4.817l-4.771,19.114l-22.698,25.026h-4.781v-1.282c0-2.237-1.232-3.47-3.471-3.47H335.55
	c-2.238,0-3.471,1.232-3.471,3.47v72.085c0,2.237,1.232,3.47,3.471,3.47h21.383c-4.214,7.062-30.119,50.594-32.758,58.086
	c-1.424,4.042,4.555,17.728,12.125,35.053c7.933,18.158,16.925,38.738,18.264,50.897c2.509,22.787,10.021,77.748,10.321,79.945
	l-3.257,37.366H230.75c-7.347-12.188-13.998-23.085-20.595-32.643c-0.126-0.202-1.455-2.293-2.921-3.536
	c-1.097-0.93-2.366-1.622-3-1.941c0.198-1.988,0.174-4.248-0.178-6.806c-0.145-1.052-0.36-2.133-0.634-3.232l18.291,2.082
	c0.436,0.041,0.856,0.044,1.256,0.012c3.169-0.146,6.057-1.528,7.87-3.807c1.375-1.729,1.922-3.764,1.462-5.442l-9.155-33.438
	c0.302-0.241,0.568-0.495,0.799-0.763c1.288-1.488,1.171-3.059,1.109-3.902c-0.11-1.492-0.97-3.019-1.553-3.899
	c2.39-0.693,3.963-2.354,3.922-4.337c-0.05-2.409-2.653-5.241-9.523-6.259l-3.095-11.304c1.497-0.425,2.72-0.869,3.555-1.364
	c0.924-0.548,1.237-1.41,0.836-2.306c-0.606-1.355-2.844-2.735-6.39-3.632l-13.873-50.666c-1.03-3.76-4.989-7.174-8.825-7.61
	l-46.631-5.307c-0.648-0.07-1.74,0.035-2.595,0.456l-5.469,2.679c-2.305,0.922-3.301,3.313-2.538,6.101l13.126,47.941
	c-0.347,1.658-0.754,3.252-1.199,4.796c-0.062,0.216-0.127,0.427-0.19,0.641c-1.383,4.644-3.109,8.798-4.693,12.599
	c-3.695,8.864-6.887,16.521-3.337,25.126c2.535,6.146,4.983,11.373,7.351,16.429c0.881,1.88,1.754,3.747,2.621,5.637
	c2.02,4.405,4.001,8.944,5.942,14.111c3.075,8.184,6.05,17.944,8.918,31.26c0.002,0.01,0.004,0.02,0.007,0.029
	c0.01,0.039,0.024,0.077,0.042,0.112c0.173,0.373,4.04,8.712,10.614,22.184H108.7H50.679c-0.663,0-1.2,0.537-1.2,1.2
	s0.537,1.2,1.2,1.2h495.672c0.663,0,1.2-0.537,1.2-1.2S547.014,514.749,546.351,514.749z M204.074,477.889
	c0.635,0.342,1.577,0.9,2.391,1.59c0.094,0.08,0.185,0.18,0.279,0.268c0.514,0.484,0.997,1.049,1.402,1.577
	c0.271,0.354,0.516,0.69,0.687,0.941c-2.551,1.663-5.486,3.242-8.697,4.648C201.654,485.126,203.401,482.223,204.074,477.889z
	 M225.457,466.305c-0.578,0.689-1.463,1.098-2.545,1.191c-0.316,0.013-0.637,0.015-0.957,0.002c-0.004,0-0.009,0-0.013,0
	c-0.036-0.003-0.072-0.006-0.108-0.01l-18.743-2.134c-3.432-12.071-13.315-25.955-15.426-28.834
	c2.158-1.352,10.916-6.381,22.945-7.235c2.306-0.164,4.324-0.416,6.063-0.759l9.316,34.026
	C226.405,464.066,226.215,465.399,225.457,466.305z M231.153,459.75c0.021,0.077,0.03,0.159,0.045,0.238
	c0.07,0.358,0.083,0.735,0.041,1.124c-0.107,0.994-0.561,2.056-1.332,3.025c-0.835,1.049-1.933,1.883-3.194,2.458
	c0.729-1.168,0.881-2.69,0.425-4.356l-9.3-33.965c1.743-0.416,3.161-0.939,4.266-1.572L231.153,459.75z M216.622,406.676
	c-0.912-0.099-1.89-0.166-2.938-0.2c-0.596-0.02-1.203-0.03-1.822-0.032l-2.623-9.579c1.595-0.344,3.088-0.679,4.417-1.021
	L216.622,406.676z M210.629,406.45c-12.873,0.177-29.733,3.646-36.458,5.146c3.539-2.44,10.331-6.89,16.588-9.669
	c4.835-2.147,11.144-3.495,16.709-4.684c0.203-0.043,0.405-0.086,0.605-0.129L210.629,406.45z M141.407,326.174
	c0.643-0.315,1.518-0.39,1.936-0.341l46.632,5.307c3.338,0.379,6.915,3.467,7.812,6.741l13.705,50.054
	c-1.448-0.292-3.076-0.507-4.865-0.617l-12.854-46.947c-1.029-3.761-4.988-7.175-8.825-7.611l-46.238-5.263L141.407,326.174z
	 M134.024,333.57c-0.472-1.726-0.235-3.861,1.844-4.686c0.003-0.001,0.007-0.002,0.01-0.004c0.665-0.261,1.44-0.343,2.302-0.246
	l46.631,5.308c3.338,0.379,6.915,3.467,7.812,6.742l12.752,46.573c-5.569-0.178-12.566,0.614-20.502,3.124
	c-18.514,5.854-26.511,12.693-29.146,15.438c-0.005-2.57,0.11-7.845,1.014-11.954c1.018-4.623,5.493-31.079,0.813-36.966
	c-0.951-1.197-1.856-1.786-2.75-1.786c-0.168,0-0.337,0.021-0.505,0.062c-2.922,0.727-4.729,7.701-7.786,24.003L134.024,333.57z
	 M145.011,440.911c-2.362-5.043-4.804-10.258-7.328-16.377c-3.362-8.15-0.406-15.239,3.335-24.214
	c2.212-5.308,4.704-11.283,6.173-18.369c0.004-0.016,0.007-0.031,0.01-0.047c0.084-0.406,0.165-0.815,0.242-1.229
	c2.409-12.947,4.61-23.715,7.142-24.345c0.55-0.141,1.236,0.303,2.036,1.309c4.038,5.081,0.317,29.788-1.044,35.97
	c-1.269,5.771-1.031,13.472-1.021,13.797c0.009,0.254,0.178,0.475,0.42,0.549s0.507-0.015,0.657-0.219
	c0.065-0.089,6.756-8.996,29.599-16.22c12.156-3.844,21.33-3.568,26.874-2.228c0.052,0.021,0.107,0.034,0.164,0.04
	c3.433,0.854,5.434,2.113,5.841,3.021c0.1,0.224,0.163,0.487-0.357,0.796c-1.803,1.069-5.849,1.933-10.534,2.934
	c-5.623,1.201-11.996,2.562-16.944,4.76c-9.05,4.019-19.17,11.463-19.271,11.538c-0.229,0.168-0.306,0.475-0.186,0.731
	s0.405,0.392,0.681,0.325c0.257-0.063,25.904-6.298,42.145-5.77c8.624,0.281,12.537,2.942,12.589,5.456
	c0.037,1.795-1.911,3.243-4.631,3.445c-2.163,0.161-4.5,0.226-6.974,0.294c-6.021,0.167-12.846,0.356-20.011,2.001
	c-10.056,2.308-16.666,7.307-16.942,7.519c-0.261,0.2-0.311,0.573-0.111,0.835c0.201,0.26,0.574,0.312,0.834,0.11
	c0.066-0.05,6.679-5.053,16.485-7.304c7.049-1.618,13.811-1.806,19.777-1.971c2.488-0.069,4.838-0.135,7.028-0.297
	c0.185-0.014,0.367-0.032,0.546-0.057c0.329,0.456,0.979,1.438,1.354,2.505c0.032,0.091,0.059,0.183,0.087,0.276
	c0.094,0.314,0.167,0.632,0.19,0.943c0.057,0.765,0.143,1.921-0.822,3.036c-1.043,1.206-3.06,2.136-6.022,2.779
	c-0.027,0.004-0.054,0.01-0.081,0.017c-0.005,0.002-0.011,0.003-0.016,0.005c-1.794,0.384-3.929,0.664-6.4,0.84
	c-14.194,1.009-23.959,7.713-24.056,7.78c-0.133,0.093-0.222,0.234-0.248,0.395c-0.025,0.159,0.015,0.322,0.112,0.451
	c0.146,0.195,14.59,19.533,16.525,33.162c0.005,0.033,0.012,0.067,0.016,0.1c0.021,0.154,0.03,0.296,0.049,0.448
	c0.026,0.215,0.047,0.423,0.069,0.634c0.037,0.359,0.075,0.719,0.099,1.066c0.118,1.71,0.083,3.267-0.075,4.667
	c-0.022,0.071-0.03,0.146-0.025,0.217c-0.963,7.847-5.586,10.916-6.032,11.194c-10.27,3.909-22.768,5.947-34.463,3.587
	C157.036,466.588,151.194,454.112,145.011,440.911z M173.402,514.749c-5.467-11.193-9.107-18.932-10.37-21.635
	c11.719,2.168,24.152,0.091,34.399-3.813c0.017-0.006,0.033-0.012,0.049-0.019c4.516-1.726,8.604-3.804,12.018-6.03
	c6.36,9.254,12.792,19.775,19.86,31.497H173.402z M474.758,305.266c-1.402,0.656-5.263,2.379-9.088,3.348
	c-4.041,1.023-9.126,1.453-10.627,1.563l-3.315-8.762c1.661-0.324,5.953-1.209,9.452-2.342c3.532-1.143,6.999-2.774,8.273-3.396
	C471.493,299.276,473.314,302.558,474.758,305.266z M412.392,361.106c-0.072-1.861,0.229-5.243,0.835-9.311
	c0.431-0.762,0.858-1.585,1.284-2.473c0.837-1.746,1.527-3.712,2.096-5.781c4.517-1.542,7.462-4.86,7.903-8.929
	c0.286-2.631-0.633-5.04-2.286-5.996c-0.211-0.122-0.428-0.218-0.65-0.289c1.302-3.019,5.971-14.968,1.22-21.239
	c-4.331-5.718-9.167-4.218-11.035-3.315c-0.236-1.035-0.861-2.764-2.491-4.119c-1.976-1.642-4.806-2.239-8.426-1.773
	c-7.957,1.027-16.309,8.739-19.704,13.358c-1.126,1.532-2.416,3.657-2.165,5.08c0.528,2.996,2.512,10.106,3.161,12.401
	c-0.604,0.093-1.164,0.326-1.658,0.698c-1.416,1.065-2.058,3.125-1.675,5.375c0.646,3.789,3.796,6.96,8.451,8.524
	c1.249,3.394,2.812,6.235,4.674,8.498c1.198,4.005,1.772,7.515,1.612,9.791c-6.629-0.817-13.042-2.744-18.375-6.007
	c-7.976-4.878-25.58-40.508-27.171-43.753l1.167-2.99c0.003-0.007,0.006-0.015,0.009-0.022l21.63-55.433h11.187
	c2.238,0,3.471-1.232,3.471-3.47v-6.239c0.695,0.344,1.581,0.795,2.575,1.303c5.337,2.724,9.869,4.979,11.273,4.979h31.684
	l19.365,51.172c0.006,0.019,0.013,0.036,0.021,0.054l3.707,9.796c0.004,0.01,0.008,0.02,0.012,0.029l1.19,3.146
	c-1.327,2.959-15.614,34.356-27.177,41.429v-0.001C423.957,358.139,418.458,360.042,412.392,361.106z M411.208,361.302
	c-5.278,0.82-10.939,1.011-16.487,0.439c0.151-2.003-0.209-4.784-1.039-8.044c4.456,4.195,8.237,5.937,11.569,5.315
	c2.336-0.434,4.438-1.981,6.439-4.786C411.398,356.551,411.112,359.445,411.208,361.302z M405.034,357.842
	c-2.943,0.552-6.401-1.107-10.581-5.053c-2.54-2.398-4.605-5.785-6.164-10.099c-0.009-0.032-0.02-0.063-0.033-0.094
	c-0.411-1.146-0.787-2.358-1.126-3.633c-0.956-3.603-1.416-6.986-1.633-9.194c-0.001-0.007-0.001-0.013-0.002-0.02
	c-0.123-1.256-0.178-2.227-0.201-2.778c1.625-0.306,6.704-1.517,12.543-5.462c2.822-1.906,4.797-3.676,6.154-5.118
	c-0.682,1.235-1.612,2.496-2.84,3.358c-0.697,0.489-1.022,1.02-0.968,1.576s0.47,1.01,1.236,1.35
	c2.787,1.236,10.918,1.128,16.62-2.484c0,1.722-0.051,5.277-0.397,9.494l-2.11,13.237c-0.563,2.122-1.253,4.129-2.096,5.885
	C410.789,354.329,408.04,357.284,405.034,357.842z M418.835,329.971c1.03-0.674,1.989-0.786,2.792-0.323
	c1.232,0.713,1.932,2.702,1.699,4.837c-0.365,3.369-2.714,6.169-6.355,7.651C417.957,338.098,418.518,333.773,418.835,329.971z
	 M382.845,329.864c0.025,0.004,0.051,0.005,0.077,0.004c0.444,0.023,0.921,0.141,1.424,0.351c0.234,2.251,0.703,5.548,1.634,9.051
	c0.238,0.895,0.494,1.761,0.767,2.596c-3.743-1.503-6.243-4.161-6.772-7.271c-0.308-1.809,0.158-3.427,1.217-4.224
	c0.449-0.338,0.976-0.507,1.562-0.507C382.783,329.863,382.813,329.863,382.845,329.864z M368.498,246.394
	c-3.48,0-6.302-2.821-6.302-6.302s2.821-6.302,6.302-6.302c3.48,0,6.302,2.821,6.302,6.302S371.978,246.394,368.498,246.394z
	 M456.977,274.194c4.017,6.805,8.261,14.07,11.887,20.445c-1.294,0.63-4.644,2.199-8.052,3.301
	c-3.593,1.163-8.053,2.063-9.513,2.344l-16.919-44.705l-2.121-5.605h10.259C443.64,251.832,449.962,262.31,456.977,274.194z
	 M390.5,180.32c0.168,0,0.328-0.071,0.441-0.195l22.976-25.332c0.065-0.073,0.112-0.161,0.136-0.256l4.807-19.259
	c0.483-1.936,1.301-3.915,3.698-3.915h5.695c2.276,0.079,4.078,0.854,5.355,2.304c1.778,2.019,2.476,5.258,2.072,9.627
	l-2.089,22.667c-0.016,0.167,0.04,0.332,0.153,0.456c0.112,0.124,0.272,0.194,0.439,0.194h42.468c3.02,0,5.63,2.378,6.875,5.813
	c0.495,1.366,0.781,2.895,0.781,4.515c0,5.695-3.435,10.328-7.656,10.328h-1.406c-0.258,0-0.486,0.166-0.566,0.411
	c-0.079,0.245,0.008,0.514,0.216,0.666c2.503,1.819,4.057,5.307,4.057,9.101c0,5.695-3.434,10.328-7.655,10.328h-1.407
	c-0.258,0-0.486,0.166-0.566,0.411c-0.079,0.245,0.008,0.514,0.216,0.666c2.503,1.82,4.057,5.307,4.057,9.101
	c0,6.467-3.388,10.328-9.062,10.328c-0.258,0-0.486,0.166-0.566,0.411c-0.079,0.245,0.008,0.514,0.217,0.666
	c2.502,1.819,4.056,5.306,4.056,9.101c0,5.695-3.434,10.328-7.655,10.328h-17.729h-11.456h-32.095
	c-1.232,0-7.179-3.036-10.731-4.849c-1.26-0.643-2.371-1.21-3.118-1.569V232.33v-52.01H390.5z M352.879,262.566
	c2.802-4.743,4.848-8.173,5.44-9.164h11.201l-1.925,4.933l-15.584,39.937c-0.87-0.111-3.143-0.515-7.021-1.951
	c-4.25-1.575-7.479-4.703-8.431-5.693C342.074,280.93,348.432,270.092,352.879,262.566z M335.946,291.709
	c1.245,1.262,4.423,4.169,8.63,5.728c3.614,1.338,5.88,1.811,6.989,1.977l-3.355,8.598c-1.038-0.079-4.047-0.439-8.637-2.054
	c-4.62-1.624-8.013-3.516-9.213-4.224C331.991,298.735,333.902,295.313,335.946,291.709z M355.746,397.308
	c-1.359-12.339-10.39-33.008-18.356-51.243c-6.871-15.727-13.361-30.581-12.093-34.18c0.252-0.717,0.742-1.803,1.406-3.157
	c0.795-1.621,1.843-3.633,3.09-5.945c1.273,0.754,4.672,2.641,9.386,4.298c4.297,1.512,7.229,1.957,8.579,2.089l-0.971,2.488
	c-0.061,0.155-0.054,0.328,0.02,0.477c0.776,1.6,19.124,39.216,27.734,44.481c5.57,3.407,12.289,5.392,19.222,6.197
	c0.063,0.037,0.135,0.063,0.213,0.074c0.089,0.015,0.179,0.005,0.264-0.021c5.893,0.639,11.925,0.433,17.523-0.468
	c0.05,0.007,0.099,0.006,0.151,0.002c0.071-0.009,0.138-0.029,0.198-0.06c6.419-1.069,12.248-3.054,16.614-5.725
	c12.394-7.58,27.123-40.776,27.744-42.186c0.062-0.143,0.067-0.305,0.012-0.451l-1-2.644c1.866-0.146,6.626-0.594,10.48-1.569
	c4.016-1.017,7.958-2.79,9.353-3.447c0.373,0.71,0.711,1.367,1.018,1.977c0.795,1.578,1.363,2.81,1.637,3.588
	c1.269,3.599-5.222,18.453-12.093,34.18c-7.967,18.235-16.997,38.904-18.356,51.243c-2.415,21.936-9.472,73.728-10.255,79.464
	h-5.856h-61.387h-4.022C365.219,471.035,358.161,419.243,355.746,397.308z M411.99,342.288c0.177,0.277,0.096,0.646-0.182,0.822
	c-2.559,1.632-5.999,2.288-9.473,2.288c-2.797,0-5.615-0.426-8.013-1.11c-0.316-0.09-0.5-0.42-0.409-0.735
	c0.09-0.316,0.417-0.501,0.735-0.409c5.121,1.463,12.216,1.709,16.519-1.037C411.446,341.929,411.814,342.012,411.99,342.288z
	 M86.9,292.1l-3.973,12.148c-0.08,0.245,0.007,0.515,0.216,0.666c0.209,0.152,0.492,0.153,0.701-0.001l10.326-7.532l10.326,7.532
	c0.104,0.077,0.228,0.115,0.351,0.115s0.246-0.038,0.35-0.114c0.209-0.151,0.296-0.421,0.216-0.666L101.44,292.1l10.354-7.492
	c0.209-0.151,0.297-0.421,0.217-0.667c-0.08-0.245-0.309-0.411-0.566-0.411h-0.001l-12.781,0.024l-3.926-12.163
	c-0.158-0.492-0.975-0.492-1.133,0l-3.926,12.163l-12.781-0.024c0,0,0,0-0.001,0c-0.258,0-0.486,0.166-0.566,0.411
	c-0.08,0.246,0.008,0.515,0.217,0.667L86.9,292.1z M90.109,284.746L90.109,284.746c0.259,0,0.488-0.167,0.567-0.412l3.493-10.822
	l3.493,10.822c0.079,0.246,0.308,0.412,0.566,0.412h0.001l11.371-0.022l-9.212,6.666c-0.209,0.152-0.297,0.421-0.217,0.667
	l3.535,10.808l-9.187-6.702c-0.104-0.076-0.228-0.114-0.351-0.114s-0.246,0.038-0.351,0.114l-9.187,6.702l3.535-10.808
	c0.08-0.246-0.007-0.516-0.217-0.667l-9.212-6.666L90.109,284.746z M130.991,292.1l-3.973,12.148
	c-0.08,0.245,0.007,0.515,0.216,0.666c0.209,0.152,0.492,0.153,0.701-0.001l10.326-7.532l10.326,7.532
	c0.104,0.077,0.228,0.115,0.351,0.115s0.246-0.038,0.35-0.114c0.209-0.151,0.296-0.421,0.216-0.666l-3.973-12.148l10.355-7.492
	c0.209-0.151,0.297-0.421,0.217-0.667c-0.08-0.245-0.309-0.411-0.566-0.411h-0.001l-12.781,0.024l-3.927-12.164
	c-0.158-0.491-0.975-0.492-1.133,0l-3.926,12.163l-12.781-0.024c0,0,0,0-0.001,0c-0.258,0-0.486,0.166-0.566,0.411
	c-0.08,0.246,0.008,0.515,0.217,0.667L130.991,292.1z M134.199,284.746C134.199,284.746,134.2,284.746,134.199,284.746
	c0.259,0,0.488-0.167,0.567-0.412l3.493-10.822l3.494,10.822c0.079,0.246,0.308,0.412,0.566,0.412h0.001l11.371-0.022l-9.212,6.666
	c-0.209,0.152-0.297,0.421-0.217,0.667l3.535,10.808l-9.187-6.702c-0.104-0.076-0.228-0.114-0.351-0.114s-0.246,0.038-0.351,0.114
	l-9.187,6.702l3.535-10.808c0.08-0.246-0.007-0.516-0.217-0.667l-9.212-6.666L134.199,284.746z M175.082,292.1l-3.974,12.147
	c-0.08,0.246,0.007,0.516,0.216,0.667c0.104,0.076,0.228,0.114,0.35,0.114c0.123,0,0.246-0.038,0.351-0.115l10.326-7.532
	l10.326,7.532c0.208,0.154,0.491,0.153,0.701,0.001c0.209-0.151,0.296-0.421,0.216-0.666L189.62,292.1l10.354-7.492
	c0.209-0.151,0.297-0.421,0.217-0.667c-0.08-0.245-0.309-0.411-0.566-0.411h-0.001l-12.781,0.024l-3.926-12.163
	c-0.158-0.492-0.975-0.492-1.133,0l-3.926,12.163l-12.781-0.024c0,0,0,0-0.001,0c-0.258,0-0.486,0.166-0.566,0.411
	c-0.08,0.246,0.008,0.515,0.217,0.667L175.082,292.1z M178.29,284.746C178.29,284.746,178.291,284.746,178.29,284.746
	c0.259,0,0.488-0.167,0.567-0.412l3.493-10.822l3.493,10.822c0.079,0.246,0.308,0.412,0.566,0.412h0.001l11.371-0.022l-9.212,6.666
	c-0.209,0.152-0.297,0.421-0.217,0.667l3.535,10.808l-9.187-6.702c-0.104-0.076-0.228-0.114-0.351-0.114s-0.246,0.038-0.351,0.114
	l-9.187,6.702l3.535-10.808c0.08-0.246-0.007-0.516-0.217-0.667l-9.212-6.666L178.29,284.746z M219.172,292.1l-3.973,12.148
	c-0.08,0.245,0.007,0.515,0.216,0.666c0.104,0.076,0.228,0.114,0.35,0.114c0.123,0,0.246-0.038,0.351-0.115l10.326-7.532
	l10.326,7.532c0.209,0.154,0.492,0.153,0.701,0.001c0.209-0.151,0.296-0.421,0.216-0.666L233.71,292.1l10.355-7.492
	c0.209-0.151,0.297-0.421,0.217-0.667c-0.08-0.245-0.309-0.411-0.566-0.411h-0.001l-12.781,0.024l-3.926-12.163
	c-0.158-0.492-0.975-0.492-1.133,0l-3.927,12.164l-12.781-0.024c0,0,0,0-0.001,0c-0.258,0-0.486,0.166-0.566,0.411
	c-0.08,0.246,0.008,0.515,0.217,0.667L219.172,292.1z M222.38,284.746C222.38,284.746,222.381,284.746,222.38,284.746
	c0.259,0,0.488-0.167,0.567-0.412l3.494-10.822l3.493,10.822c0.079,0.246,0.308,0.412,0.566,0.412h0.001l11.371-0.022l-9.212,6.666
	c-0.209,0.152-0.297,0.421-0.217,0.667l3.535,10.808l-9.187-6.702c-0.209-0.152-0.492-0.152-0.701,0l-9.187,6.702l3.535-10.808
	c0.08-0.246-0.007-0.516-0.217-0.667l-9.212-6.666L222.38,284.746z M263.262,292.1l-3.973,12.148
	c-0.08,0.245,0.007,0.515,0.216,0.666c0.209,0.152,0.492,0.153,0.701-0.001l10.326-7.532l10.326,7.532
	c0.104,0.077,0.228,0.115,0.351,0.115c0.123,0,0.246-0.038,0.35-0.114c0.209-0.151,0.296-0.421,0.216-0.666l-3.973-12.148
	l10.354-7.492c0.209-0.151,0.297-0.421,0.217-0.667c-0.08-0.245-0.309-0.411-0.566-0.411h-0.001l-12.781,0.024l-3.926-12.163
	c-0.158-0.492-0.975-0.492-1.133,0l-3.926,12.163l-12.781-0.024c0,0,0,0-0.001,0c-0.258,0-0.486,0.166-0.566,0.411
	c-0.08,0.246,0.008,0.515,0.217,0.667L263.262,292.1z M266.471,284.746C266.471,284.746,266.472,284.746,266.471,284.746
	c0.259,0,0.488-0.167,0.567-0.412l3.493-10.822l3.493,10.822c0.079,0.246,0.308,0.412,0.566,0.412h0.001l11.371-0.022l-9.212,6.666
	c-0.209,0.152-0.297,0.421-0.217,0.667l3.535,10.808l-9.187-6.702c-0.104-0.076-0.228-0.114-0.351-0.114s-0.246,0.038-0.351,0.114
	l-9.187,6.702l3.535-10.808c0.08-0.246-0.007-0.516-0.217-0.667l-9.212-6.666L266.471,284.746z"></path>
<path id="color_x5F_w" fill="#FFFFFF" d="M184.946,332.759l-46.238-5.263l2.699-1.322c0.643-0.315,1.518-0.39,1.936-0.341
	l46.632,5.307c3.338,0.379,6.915,3.467,7.812,6.741l13.705,50.054c-1.448-0.292-3.076-0.507-4.865-0.617l-12.854-46.947
	C192.742,336.609,188.783,333.195,184.946,332.759z M152.496,461.164c-1.941-5.167-3.923-9.706-5.942-14.111
	C148.61,451.78,150.681,456.654,152.496,461.164z M231.153,459.75l-9.048-33.049c-1.105,0.633-2.523,1.156-4.266,1.572l9.3,33.965
	c0.456,1.666,0.303,3.188-0.425,4.356c1.262-0.575,2.359-1.409,3.194-2.458c0.771-0.969,1.225-2.031,1.332-3.025
	c0.011-0.351-0.003-0.726-0.041-1.124C231.183,459.909,231.174,459.827,231.153,459.75z M181.846,342.292
	c-0.515,0.015-0.933,0.231-1.241,0.647c-0.543,0.732-0.655,1.945-0.299,3.246c0.61,2.227,2.44,4.046,4.007,4.035
	c0.515-0.014,0.933-0.231,1.241-0.647c0.543-0.732,0.655-1.946,0.299-3.246C185.243,344.101,183.392,342.3,181.846,342.292z
	 M211.862,406.443c0.619,0.002,1.226,0.013,1.822,0.032c1.048,0.034,2.026,0.102,2.938,0.2l-2.965-10.832
	c-1.329,0.342-2.822,0.677-4.417,1.021L211.862,406.443z M223.045,424.457c0.964-1.115,0.878-2.271,0.822-3.036
	c-0.023-0.312-0.096-0.629-0.19-0.943c-0.029-0.093-0.058-0.185-0.087-0.276c-0.375-1.066-1.026-2.049-1.354-2.505
	c-0.179,0.024-0.361,0.043-0.546,0.057c-2.19,0.162-4.54,0.228-7.028,0.297c-5.966,0.165-12.729,0.353-19.777,1.971
	c-9.806,2.251-16.419,7.254-16.485,7.304c-0.26,0.202-0.634,0.149-0.834-0.11c-0.2-0.262-0.15-0.635,0.111-0.835
	c0.276-0.212,6.886-5.211,16.942-7.519c7.165-1.645,13.989-1.834,20.011-2.001c2.474-0.068,4.811-0.133,6.974-0.294
	c2.721-0.202,4.668-1.65,4.631-3.445c-0.052-2.514-3.965-5.175-12.589-5.456c-16.241-0.528-41.887,5.706-42.145,5.77
	c-0.276,0.066-0.561-0.068-0.681-0.325s-0.043-0.563,0.186-0.731c0.101-0.075,10.221-7.52,19.271-11.538
	c4.948-2.198,11.321-3.559,16.944-4.76c4.685-1.001,8.731-1.864,10.534-2.934c0.52-0.309,0.457-0.572,0.357-0.796
	c-0.407-0.908-2.408-2.168-5.841-3.021c-0.057-0.006-0.112-0.02-0.164-0.04c-5.544-1.341-14.718-1.616-26.874,2.228
	c-22.842,7.224-29.534,16.131-29.599,16.22c-0.15,0.204-0.414,0.293-0.657,0.219s-0.412-0.295-0.42-0.549
	c-0.01-0.325-0.248-8.026,1.021-13.797c1.361-6.182,5.083-30.889,1.044-35.97c-0.8-1.006-1.486-1.449-2.036-1.309
	c-2.532,0.63-4.733,11.397-7.142,24.345c-0.077,0.413-0.158,0.822-0.242,1.229c-0.002,0.016-0.006,0.031-0.01,0.047
	c-1.47,7.086-3.961,13.062-6.173,18.369c-3.742,8.975-6.697,16.063-3.335,24.214c2.524,6.119,4.966,11.334,7.328,16.377
	c6.183,13.201,12.024,25.677,17.486,50.887c11.695,2.36,24.193,0.322,34.463-3.587c0.445-0.278,5.068-3.348,6.032-11.194
	c-0.005-0.071,0.003-0.146,0.025-0.217c0.158-1.4,0.192-2.957,0.075-4.667c-0.03-0.364-0.063-0.719-0.099-1.066
	c-0.022-0.21-0.042-0.419-0.069-0.634c-0.021-0.185-0.043-0.37-0.065-0.549c-1.934-13.629-16.378-32.967-16.525-33.162
	c-0.097-0.129-0.138-0.292-0.112-0.451c0.025-0.16,0.115-0.302,0.248-0.395c0.097-0.067,9.862-6.771,24.056-7.78
	c2.471-0.176,4.606-0.456,6.4-0.84c0.005-0.002,0.01-0.003,0.016-0.005c0.027-0.007,0.054-0.013,0.081-0.017
	C219.986,426.593,222.002,425.663,223.045,424.457z M368.498,246.394c3.48,0,6.302-2.821,6.302-6.302
	c0-3.48-2.821-6.302-6.302-6.302c-3.48,0-6.302,2.821-6.302,6.302S365.017,246.394,368.498,246.394z M483.528,172.424
	c-1.245-3.435-3.855-5.813-6.875-5.813h-42.468c-0.167,0-0.327-0.07-0.439-0.194c-0.113-0.124-0.169-0.29-0.153-0.456l2.089-22.667
	c0.403-4.37-0.294-7.609-2.072-9.627c-1.277-1.45-3.079-2.225-5.355-2.304h-5.695c-2.397,0-3.215,1.979-3.698,3.915l-4.807,19.259
	c-0.023,0.095-0.07,0.183-0.136,0.256l-22.976,25.332c-0.113,0.125-0.273,0.195-0.441,0.195h-5.046v52.01
	c4.821,2.166,14.048,7.42,14.048,7.42l58.628,1.173c0,0,5.843-3.325,6.123-7.687c0.281-4.362-5.146-7.882-5.146-7.882
	s8.99-0.13,9.511-7.231c0.521-7.1-3.909-11.595-3.909-11.595s7.964,2.118,9.25-8.273c1.287-10.391-4.234-13.875-4.234-13.875
	s11.661-0.391,13.354-6.97C483.516,175.713,483.615,174.014,483.528,172.424z M386.746,341.865
	c-0.272-0.835-0.528-1.701-0.767-2.596c-0.931-3.503-1.399-6.8-1.634-9.051c-0.503-0.21-0.979-0.327-1.424-0.351
	c-0.026,0.001-0.052,0-0.077-0.004c-0.031-0.001-0.062-0.001-0.092-0.001c-0.587,0-1.113,0.169-1.562,0.507
	c-1.059,0.797-1.524,2.415-1.217,4.224C380.503,337.704,383.003,340.362,386.746,341.865z M344.99,296.321
	c3.878,1.436,6.15,1.84,7.021,1.951l15.584-39.937c-1.013-0.007-1.842-0.033-2.422-0.086c-4.8-0.433-8.153,0.805-12.294,4.316
	c-4.447,7.526-10.805,18.363-16.319,28.062C337.511,291.618,340.74,294.746,344.99,296.321z M475.315,306.32
	c-1.395,0.657-5.337,2.431-9.353,3.447c-3.854,0.976-8.614,1.423-10.48,1.569l1,2.644c0.056,0.146,0.051,0.309-0.012,0.451
	c-0.621,1.409-15.351,34.605-27.744,42.186c-4.366,2.671-10.195,4.655-16.614,5.725c-0.061,0.03-0.127,0.051-0.198,0.06
	c-0.053,0.004-0.102,0.005-0.151-0.002c-5.599,0.9-11.631,1.106-17.523,0.468c-0.085,0.025-0.175,0.035-0.264,0.021
	c-0.078-0.011-0.149-0.037-0.213-0.074c-6.933-0.806-13.651-2.79-19.222-6.197c-8.61-5.266-26.958-42.882-27.734-44.481
	c-0.073-0.148-0.08-0.321-0.02-0.477l0.971-2.488c-1.351-0.132-4.282-0.577-8.579-2.089c-4.714-1.657-8.112-3.544-9.386-4.298
	c-1.247,2.312-2.296,4.324-3.09,5.945c-0.587,2.594-1.131,3.637,1.925,10.69c3.788,8.742,33.708,62.281,34.199,70.092
	c0.485,7.71,5.342,71.51,7.196,87.261h61.387c2.51-20.244,4.486-68.301,6.265-83.678c1.796-15.526,23.854-43.548,30.942-56.543
	c6.659-12.207,8.568-21.448,7.716-28.253C476.026,307.687,475.688,307.03,475.315,306.32z M455.043,310.177
	c1.501-0.11,6.586-0.54,10.627-1.563c3.825-0.969,7.686-2.691,9.088-3.348c-1.443-2.708-3.265-5.989-5.305-9.588
	c-1.274,0.622-4.741,2.253-8.273,3.396c-3.499,1.133-7.791,2.018-9.452,2.342L455.043,310.177z M444.906,260.595
	c-3.858-2.766-7.467-4.244-10.525-5.015l16.919,44.705c1.46-0.281,5.92-1.182,9.513-2.344c3.408-1.103,6.758-2.671,8.052-3.301
	c-3.626-6.375-7.87-13.64-11.887-20.445C452.859,268.378,448.618,263.256,444.906,260.595z M348.21,308.012l3.355-8.598
	c-1.109-0.166-3.375-0.639-6.989-1.977c-4.207-1.559-7.385-4.466-8.63-5.728c-2.044,3.604-3.955,7.026-5.586,10.025
	c1.2,0.708,4.593,2.6,9.213,4.224C344.163,307.572,347.172,307.933,348.21,308.012z M423.326,334.484
	c0.232-2.135-0.467-4.124-1.699-4.837c-0.803-0.463-1.762-0.351-2.792,0.323c-0.317,3.803-0.878,8.127-1.864,12.165
	C420.612,340.653,422.961,337.854,423.326,334.484z M400.184,321.326c0.055,0.557,0.47,1.01,1.236,1.35
	c2.787,1.236,10.918,1.128,16.62-2.484c0,1.722-0.051,5.277-0.397,9.494l-2.11,13.237c-0.563,2.122-1.253,4.129-2.096,5.885
	c-2.647,5.521-5.396,8.477-8.402,9.034c-2.943,0.552-6.401-1.107-10.581-5.053c-2.54-2.398-4.605-5.785-6.164-10.099
	c-0.009-0.032-0.02-0.063-0.033-0.094c-0.411-1.146-0.787-2.358-1.126-3.633c-0.956-3.603-1.416-6.986-1.633-9.194
	c-0.001-0.007-0.001-0.013-0.002-0.02c-0.123-1.256-0.178-2.227-0.201-2.778c1.625-0.306,6.704-1.517,12.543-5.462
	c2.822-1.906,4.797-3.676,6.154-5.118c-0.682,1.235-1.612,2.496-2.84,3.358C400.454,320.239,400.129,320.77,400.184,321.326z
	 M394.649,343.144c-0.318-0.092-0.646,0.093-0.735,0.409c-0.091,0.315,0.093,0.646,0.409,0.735c2.397,0.685,5.216,1.11,8.013,1.11
	c3.474,0,6.914-0.656,9.473-2.288c0.277-0.177,0.358-0.545,0.182-0.822c-0.176-0.276-0.544-0.359-0.822-0.182
	C406.865,344.853,399.771,344.606,394.649,343.144z M405.251,359.013c-3.332,0.621-7.113-1.12-11.569-5.315
	c0.83,3.26,1.19,6.041,1.039,8.044c5.548,0.571,11.209,0.381,16.487-0.439c-0.096-1.856,0.19-4.751,0.482-7.075
	C409.688,357.031,407.587,358.579,405.251,359.013z M109.601,284.724l-11.371,0.022c0,0,0,0-0.001,0
	c-0.258,0-0.487-0.167-0.566-0.412l-3.493-10.822l-3.493,10.822c-0.079,0.246-0.308,0.412-0.566,0.412H90.11l-11.371-0.022
	l9.212,6.666c0.209,0.152,0.297,0.421,0.217,0.667l-3.535,10.808l9.187-6.702c0.104-0.076,0.228-0.114,0.351-0.114
	s0.246,0.038,0.351,0.114l9.187,6.702l-3.535-10.808c-0.08-0.246,0.007-0.516,0.217-0.667L109.601,284.724z M128.723,302.865
	l9.187-6.702c0.104-0.076,0.228-0.114,0.351-0.114s0.246,0.038,0.351,0.114l9.187,6.702l-3.535-10.808
	c-0.08-0.246,0.007-0.516,0.217-0.667l9.212-6.666l-11.371,0.022c0,0,0,0-0.001,0c-0.258,0-0.487-0.167-0.566-0.412l-3.494-10.822
	l-3.493,10.822c-0.079,0.246-0.308,0.412-0.566,0.412h-0.001l-11.371-0.022l9.212,6.666c0.209,0.152,0.297,0.421,0.217,0.667
	L128.723,302.865z M176.348,292.057l-3.535,10.808l9.187-6.702c0.104-0.076,0.228-0.114,0.351-0.114s0.246,0.038,0.351,0.114
	l9.187,6.702l-3.535-10.808c-0.08-0.246,0.007-0.516,0.217-0.667l9.212-6.666l-11.371,0.022c0,0,0,0-0.001,0
	c-0.258,0-0.487-0.167-0.566-0.412l-3.493-10.822l-3.493,10.822c-0.079,0.246-0.308,0.412-0.566,0.412h-0.001l-11.371-0.022
	l9.212,6.666C176.341,291.542,176.428,291.811,176.348,292.057z M241.873,284.724l-11.371,0.022c0,0,0,0-0.001,0
	c-0.258,0-0.487-0.167-0.566-0.412l-3.493-10.822l-3.494,10.822c-0.079,0.246-0.308,0.412-0.566,0.412h-0.001l-11.371-0.022
	l9.212,6.666c0.209,0.152,0.297,0.421,0.217,0.667l-3.535,10.808l9.187-6.702c0.209-0.152,0.492-0.152,0.701,0l9.187,6.702
	l-3.535-10.808c-0.08-0.246,0.007-0.516,0.217-0.667L241.873,284.724z M285.963,284.724l-11.371,0.022c0,0,0,0-0.001,0
	c-0.258,0-0.487-0.167-0.566-0.412l-3.493-10.822l-3.493,10.822c-0.079,0.246-0.308,0.412-0.566,0.412h-0.001l-11.371-0.022
	l9.212,6.666c0.209,0.152,0.297,0.421,0.217,0.667l-3.535,10.808l9.187-6.702c0.104-0.076,0.228-0.114,0.351-0.114
	s0.246,0.038,0.351,0.114l9.187,6.702l-3.535-10.808c-0.08-0.246,0.007-0.516,0.217-0.667L285.963,284.724z"></path>
<path id="color_x5F_3" fill="#2c2a80" d="M225.457,466.305c-0.578,0.689-1.463,1.098-2.545,1.191
	c-0.316,0.013-0.637,0.015-0.957,0.002c-0.004,0-0.009,0-0.013,0c-0.036-0.003-0.072-0.006-0.108-0.01l-18.743-2.134
	c-3.432-12.071-13.315-25.955-15.426-28.834c2.158-1.352,10.916-6.381,22.945-7.235c2.306-0.164,4.324-0.416,6.063-0.759
	l9.316,34.026C226.405,464.066,226.215,465.399,225.457,466.305z M184.872,390.382c-18.514,5.854-26.511,12.693-29.146,15.438
	c-0.005-2.57,0.11-7.845,1.014-11.954c1.018-4.623,5.493-31.079,0.813-36.966c-0.951-1.197-1.856-1.786-2.75-1.786
	c-0.168,0-0.337,0.021-0.505,0.062c-2.922,0.727-4.729,7.701-7.786,24.003l-12.488-45.608c-0.472-1.726-0.235-3.861,1.844-4.686
	c0.003-0.001,0.007-0.002,0.01-0.004c0.665-0.261,1.44-0.343,2.302-0.246l46.631,5.308c3.338,0.379,6.915,3.467,7.812,6.742
	l12.752,46.573C199.806,387.08,192.809,387.872,184.872,390.382z M184.344,351.41c0.875-0.022,1.644-0.423,2.167-1.128
	c0.771-1.038,0.95-2.595,0.491-4.27c-0.76-2.773-2.991-4.911-5.106-4.911c-0.026,0-0.053,0-0.079,0.001l0,0
	c-0.875,0.022-1.644,0.423-2.167,1.128c-0.771,1.038-0.95,2.595-0.491,4.27c0.76,2.773,2.991,4.912,5.107,4.911
	C184.291,351.411,184.317,351.411,184.344,351.41z M208.073,397.115c-0.2,0.043-0.402,0.086-0.605,0.129
	c-5.565,1.188-11.874,2.536-16.709,4.684c-6.258,2.779-13.049,7.229-16.588,9.669c6.725-1.501,23.585-4.97,36.458-5.146
	L208.073,397.115z"></path>
<path id="color_x5F_4" fill="#00CEC9" d="M206.743,479.747c0.514,0.484,0.997,1.049,1.402,1.577
	C207.655,480.743,207.188,480.216,206.743,479.747z M202.86,469.885c0.022,0.178,0.044,0.363,0.065,0.549
	c-0.019-0.152-0.027-0.294-0.049-0.448C202.871,469.952,202.864,469.918,202.86,469.885z M231.199,459.988
	c0.038,0.399,0.052,0.773,0.041,1.124C231.282,460.722,231.268,460.346,231.199,459.988z M454.092,311.026
	c-0.004-0.01-0.008-0.02-0.012-0.029l-3.707-9.796c-0.008-0.018-0.015-0.035-0.021-0.054l-19.365-51.172h-31.684
	c-1.404,0-5.937-2.255-11.273-4.979c-0.994-0.508-1.88-0.959-2.575-1.303v6.239c0,2.237-1.232,3.47-3.471,3.47h-11.187
	l-21.63,55.433c-0.003,0.008-0.006,0.016-0.009,0.022l-1.167,2.99c1.591,3.245,19.195,38.875,27.171,43.753
	c5.333,3.263,11.746,5.189,18.375,6.007c0.16-2.276-0.414-5.786-1.612-9.791c-1.862-2.263-3.425-5.104-4.674-8.498
	c-4.655-1.564-7.806-4.735-8.451-8.524c-0.383-2.25,0.259-4.31,1.675-5.375c0.494-0.372,1.054-0.605,1.658-0.698
	c-0.649-2.295-2.633-9.405-3.161-12.401c-0.251-1.423,1.039-3.548,2.165-5.08c3.396-4.619,11.747-12.331,19.704-13.358
	c3.62-0.466,6.45,0.131,8.426,1.773c1.63,1.355,2.255,3.084,2.491,4.119c1.868-0.902,6.704-2.402,11.035,3.315
	c4.751,6.271,0.082,18.221-1.22,21.239c0.223,0.071,0.439,0.167,0.65,0.289c1.653,0.956,2.572,3.365,2.286,5.996
	c-0.441,4.068-3.387,7.387-7.903,8.929c-0.568,2.069-1.259,4.035-2.096,5.781c-0.426,0.888-0.854,1.711-1.284,2.473
	c-0.606,4.067-0.907,7.449-0.835,9.311c6.066-1.064,11.565-2.968,15.714-5.506v0.001c11.562-7.072,25.85-38.47,27.177-41.429
	L454.092,311.026z M489.406,514.749h-44.174l-6.842-37.396c0.351-2.569,7.816-57.21,10.316-79.914
	c1.339-12.159,10.331-32.739,18.264-50.897c7.57-17.325,13.549-31.011,12.125-35.053c-2.647-7.514-30.753-54.175-35.184-61.513
	h16.674c4.878,0,8.847-5.167,8.847-11.52c0-3.568-1.276-6.906-3.403-9.073c5.443-0.649,8.76-4.905,8.76-11.433
	c0-3.521-1.244-6.82-3.321-8.989c4.8-0.117,8.678-5.239,8.678-11.517c0-3.521-1.244-6.82-3.321-8.988
	c4.8-0.119,8.678-5.24,8.678-11.518c0-6.351-3.97-11.518-8.848-11.518H434.84l2.029-22.017c0.435-4.709-0.361-8.25-2.364-10.524
	c-1.481-1.681-3.628-2.617-6.229-2.707h-5.716c-3.65,0-4.524,3.5-4.853,4.817l-4.771,19.114l-22.698,25.026h-4.781v-1.282
	c0-2.237-1.232-3.47-3.471-3.47H335.55c-2.238,0-3.471,1.232-3.471,3.47v72.085c0,2.237,1.232,3.47,3.471,3.47h21.383
	c-4.214,7.062-30.119,50.594-32.758,58.086c-1.424,4.042,4.555,17.728,12.125,35.053c7.933,18.158,16.925,38.738,18.264,50.897
	c2.509,22.787,10.021,77.748,10.321,79.945l-3.257,37.366H230.75c-7.347-12.188-13.998-23.085-20.595-32.643
	c-0.126-0.202-1.455-2.293-2.921-3.536c-1.097-0.93-2.366-1.622-3-1.941c0.198-1.988,0.174-4.248-0.178-6.806
	c-0.145-1.052-0.36-2.133-0.634-3.232l18.291,2.082c0.436,0.041,0.856,0.044,1.256,0.012c3.169-0.146,6.057-1.528,7.87-3.807
	c1.375-1.729,1.922-3.764,1.462-5.442l-9.155-33.438c0.302-0.241,0.568-0.495,0.799-0.763c1.288-1.488,1.171-3.059,1.109-3.902
	c-0.11-1.492-0.97-3.019-1.553-3.899c2.39-0.693,3.963-2.354,3.922-4.337c-0.05-2.409-2.653-5.241-9.523-6.259l-3.095-11.304
	c1.497-0.425,2.72-0.869,3.555-1.364c0.924-0.548,1.237-1.41,0.836-2.306c-0.606-1.355-2.844-2.735-6.39-3.632l-13.873-50.666
	c-1.03-3.76-4.989-7.174-8.825-7.61l-46.631-5.307c-0.648-0.07-1.74,0.035-2.595,0.456l-5.469,2.679
	c-2.305,0.922-3.301,3.313-2.538,6.101l13.126,47.941c-0.347,1.658-0.754,3.252-1.199,4.796c-0.062,0.209-0.125,0.423-0.19,0.641
	c-1.383,4.644-3.109,8.798-4.693,12.599c-3.695,8.864-6.887,16.521-3.337,25.126c2.535,6.146,4.983,11.373,7.351,16.429
	c0.881,1.88,1.754,3.747,2.621,5.637c2.056,4.727,4.127,9.601,5.942,14.111c3.075,8.184,6.05,17.944,8.918,31.26
	c0.002,0.01,0.004,0.02,0.007,0.029c0.01,0.039,0.024,0.077,0.042,0.112c0.173,0.373,4.04,8.712,10.614,22.184H108.7
	c-57.123-27.575-119.789-242.792,14.497-269.473c92.125-18.304,107.153-50.437,137.168-105.798
	c49.618-91.518,220.333-89.164,275.465,80.048C587.855,379.203,499.527,501.474,489.406,514.749z M112.011,283.941
	c-0.08-0.245-0.309-0.411-0.566-0.411h-0.001l-12.781,0.024l-3.926-12.163c-0.158-0.492-0.975-0.492-1.133,0l-3.926,12.163
	l-12.781-0.024c0,0,0,0-0.001,0c-0.258,0-0.486,0.166-0.566,0.411c-0.08,0.246,0.008,0.515,0.217,0.667L86.9,292.1l-3.973,12.148
	c-0.08,0.245,0.007,0.515,0.216,0.666c0.209,0.152,0.492,0.153,0.701-0.001l10.326-7.532l10.326,7.532
	c0.104,0.077,0.228,0.115,0.351,0.115s0.246-0.038,0.35-0.114c0.209-0.151,0.296-0.421,0.216-0.666L101.44,292.1l10.354-7.492
	C112.002,284.456,112.09,284.187,112.011,283.941z M156.102,283.941c-0.08-0.245-0.309-0.411-0.566-0.411h-0.001l-12.781,0.024
	l-3.927-12.164c-0.158-0.491-0.975-0.492-1.133,0l-3.926,12.163l-12.781-0.024c0,0,0,0-0.001,0c-0.258,0-0.486,0.166-0.566,0.411
	c-0.08,0.246,0.008,0.515,0.217,0.667l10.355,7.492l-3.973,12.148c-0.08,0.245,0.007,0.515,0.216,0.666
	c0.209,0.152,0.492,0.153,0.701-0.001l10.326-7.532l10.326,7.532c0.104,0.077,0.228,0.115,0.351,0.115s0.246-0.038,0.35-0.114
	c0.209-0.151,0.296-0.421,0.216-0.666l-3.973-12.148l10.355-7.492C156.093,284.456,156.181,284.187,156.102,283.941z
	 M200.192,283.941c-0.08-0.245-0.309-0.411-0.566-0.411h-0.001l-12.781,0.024l-3.926-12.163c-0.158-0.492-0.975-0.492-1.133,0
	l-3.926,12.163l-12.781-0.024c0,0,0,0-0.001,0c-0.258,0-0.486,0.166-0.566,0.411c-0.08,0.246,0.008,0.515,0.217,0.667l10.355,7.492
	l-3.974,12.147c-0.08,0.246,0.007,0.516,0.216,0.667c0.104,0.076,0.228,0.114,0.35,0.114c0.123,0,0.246-0.038,0.351-0.115
	l10.326-7.532l10.326,7.532c0.208,0.154,0.491,0.153,0.701,0.001c0.209-0.151,0.296-0.421,0.216-0.666L189.62,292.1l10.354-7.492
	C200.184,284.456,200.271,284.187,200.192,283.941z M244.283,283.941c-0.08-0.245-0.309-0.411-0.566-0.411h-0.001l-12.781,0.024
	l-3.926-12.163c-0.158-0.492-0.975-0.492-1.133,0l-3.927,12.164l-12.781-0.024c0,0,0,0-0.001,0c-0.258,0-0.486,0.166-0.566,0.411
	c-0.08,0.246,0.008,0.515,0.217,0.667l10.355,7.492l-3.973,12.148c-0.08,0.245,0.007,0.515,0.216,0.666
	c0.104,0.076,0.228,0.114,0.35,0.114c0.123,0,0.246-0.038,0.351-0.115l10.326-7.532l10.326,7.532
	c0.209,0.154,0.492,0.153,0.701,0.001c0.209-0.151,0.296-0.421,0.216-0.666L233.71,292.1l10.355-7.492
	C244.274,284.456,244.362,284.187,244.283,283.941z M288.373,283.941c-0.08-0.245-0.309-0.411-0.566-0.411h-0.001l-12.781,0.024
	l-3.926-12.163c-0.158-0.492-0.975-0.492-1.133,0l-3.926,12.163l-12.781-0.024c0,0,0,0-0.001,0c-0.258,0-0.486,0.166-0.566,0.411
	c-0.08,0.246,0.008,0.515,0.217,0.667l10.354,7.492l-3.973,12.148c-0.08,0.245,0.007,0.515,0.216,0.666
	c0.209,0.152,0.492,0.153,0.701-0.001l10.326-7.532l10.326,7.532c0.104,0.077,0.228,0.115,0.351,0.115
	c0.123,0,0.246-0.038,0.35-0.114c0.209-0.151,0.296-0.421,0.216-0.666l-3.973-12.148l10.354-7.492
	C288.365,284.456,288.453,284.187,288.373,283.941z"></path>
<path id="color_x5F_5" fill="#2c2a80" d="M208.833,482.265c-2.551,1.663-5.486,3.242-8.697,4.648
	c1.518-1.787,3.265-4.69,3.938-9.024c0.635,0.342,1.577,0.9,2.391,1.59c0.094,0.08,0.185,0.18,0.279,0.268
	c0.445,0.47,0.912,0.996,1.402,1.577C208.417,481.678,208.662,482.014,208.833,482.265z M209.499,483.252
	c-3.414,2.227-7.502,4.305-12.018,6.03c-0.017,0.007-0.033,0.013-0.049,0.019c-10.248,3.904-22.68,5.981-34.399,3.813
	c1.263,2.703,4.903,10.441,10.37,21.635h55.957C222.29,503.027,215.859,492.506,209.499,483.252z"></path>
<path id="color_x5F_6" fill="#CCCCCC" d="M474.68,187.679c-0.079,0.245,0.008,0.514,0.216,0.666
	c2.503,1.819,4.057,5.307,4.057,9.101c0,5.695-3.434,10.328-7.655,10.328h-1.407c-0.258,0-0.486,0.166-0.566,0.411
	c-0.079,0.245,0.008,0.514,0.216,0.666c2.503,1.82,4.057,5.307,4.057,9.101c0,6.467-3.388,10.328-9.062,10.328
	c-0.258,0-0.486,0.166-0.566,0.411c-0.079,0.245,0.008,0.514,0.217,0.666c2.502,1.819,4.056,5.306,4.056,9.101
	c0,5.695-3.434,10.328-7.655,10.328h-17.729h-11.456h-32.095c-1.232,0-7.179-3.036-10.731-4.849c-1.26-0.643-2.371-1.21-3.118-1.569
	V232.33c4.821,2.166,14.048,7.42,14.048,7.42l58.628,1.173c0,0,5.843-3.325,6.123-7.687c0.281-4.362-5.146-7.882-5.146-7.882
	s8.99-0.13,9.511-7.231c0.521-7.1-3.909-11.595-3.909-11.595s7.964,2.118,9.25-8.273c1.287-10.391-4.234-13.875-4.234-13.875
	s11.661-0.391,13.354-6.97c0.437-1.696,0.536-3.395,0.449-4.985c0.495,1.366,0.781,2.895,0.781,4.515
	c0,5.695-3.435,10.328-7.656,10.328h-1.406C474.988,187.268,474.76,187.434,474.68,187.679z M328.628,319.418
	c-3.057-7.053-2.513-8.096-1.925-10.69c-0.664,1.354-1.153,2.44-1.406,3.157c-1.269,3.599,5.222,18.453,12.093,34.18
	c7.967,18.235,16.997,38.904,18.356,51.243c2.415,21.936,9.473,73.728,10.256,79.464h4.022c-1.854-15.752-6.711-79.551-7.196-87.261
	C362.335,381.7,332.416,328.16,328.628,319.418z M456.977,274.194c-7.015-11.884-13.337-22.363-14.459-24.219H432.26l2.121,5.605
	c3.057,0.771,6.667,2.249,10.525,5.015C448.618,263.256,452.859,268.378,456.977,274.194z M365.172,258.25
	c0.58,0.052,1.409,0.079,2.422,0.086l1.925-4.933h-11.201c-0.591,0.99-2.637,4.421-5.44,9.164
	C357.019,259.054,360.372,257.817,365.172,258.25z M476.333,308.297c0.852,6.805-1.057,16.045-7.716,28.253
	c-7.088,12.995-29.147,41.017-30.942,56.543c-1.779,15.377-3.755,63.434-6.265,83.678h5.856c0.783-5.736,7.84-57.528,10.255-79.464
	c1.359-12.339,10.39-33.008,18.356-51.243c6.871-15.727,13.361-30.581,12.093-34.18
	C477.697,311.107,477.129,309.875,476.333,308.297z"></path>
</svg>