<?xml version="1.0" standalone="no"?>
<svg version="1.1" id="Layer_1" xmlns:cc="http://creativecommons.org/ns#" xmlns:dc="http://purl.org/dc/elements/1.1/" xmlns:rdf="http://www.w3.org/1999/02/22-rdf-syntax-ns#" xmlns:svg="http://www.w3.org/2000/svg" xmlns="http://www.w3.org/2000/svg" xmlns:xlink="http://www.w3.org/1999/xlink" x="0px" y="0px" viewBox="0 0 595.2 595.2" enable-background="new 0 0 595.2 595.2" xml:space="preserve">
<path id="color_x5F_1" fill="#0984E3" d="M127.323,334.568v-83.396c0-0.329,0.267-0.595,0.595-0.595s0.595,0.267,0.595,0.595v82.801
	h95.286c0.329,0,0.595,0.267,0.595,0.596s-0.267,0.596-0.595,0.596h-95.881C127.59,335.163,127.323,334.897,127.323,334.568z
	 M396.341,260.173H504.25c0.329,0,0.596-0.267,0.596-0.595s-0.267-0.595-0.596-0.595h-17.364h-12.481h-4.831h-12.481h-4.831H439.78
	h-4.831h-12.481h-4.831h-12.481h-8.218v-93.264c0-0.329-0.267-0.595-0.596-0.595s-0.596,0.267-0.596,0.595v93.859
	C395.745,259.906,396.012,260.173,396.341,260.173z M539.32,481.448c0,0.663-0.537,1.2-1.2,1.2h-74.769H99.102H64.284
	c-0.663,0-1.2-0.537-1.2-1.2s0.537-1.2,1.2-1.2h31.795h64.592c-0.715-5.037-3.805-21.353-15.043-35.76
	c-6.174-7.916-14.806-15.255-26.86-19.829c-35.408-13.438-63.524,9.373-63.804,9.604c-0.252,0.213-0.628,0.175-0.838-0.078
	c-0.209-0.253-0.174-0.628,0.079-0.838c0.285-0.236,28.933-23.485,64.987-9.802c12.397,4.705,21.238,12.28,27.537,20.43
	c11.384,14.729,14.454,31.33,15.143,36.272h2.504c-0.056-3.244,0.159-11.218,2.948-20.635c1.954-6.596,5.167-13.894,10.445-20.765
	c15.099-19.655,33.042-20.202,33.222-20.205c0.004-0.001,0.007-0.001,0.011-0.001c0.324,0,0.589,0.26,0.595,0.585
	c0.006,0.328-0.255,0.6-0.583,0.605c-0.174,0.004-17.568,0.564-32.299,19.74c-5.149,6.704-8.299,13.819-10.22,20.258
	c-2.792,9.355-2.987,17.27-2.928,20.417h71.905c-0.424-4.314-3.215-29.829-12.584-60.539c-6.497-21.295-12.493-31.02-15.715-36.243
	c-2.006-3.253-3.11-5.045-2.747-6.985c0.875-4.67,27.34-15.289,31.677-17c2.249-12.157,4.976-21.962,8.163-24.921
	c3.953-3.671,9.836-7.22,15.58-10.202c-1.138-2.603-5.115-13.894,6.268-23.724c8.161-7.048,8.375-17.516,8.625-29.637
	c0.132-6.465,0.27-13.151,1.555-20.17c1.336-7.296,4.105-12.071,8.231-14.192c4.072-2.093,8.191-0.941,9.704-0.382
	c0.487-1.292,1.054-2.613,1.709-3.955c3.035-6.211,8.691-10.578,16.359-12.628c12.608-3.371,28.109-0.009,35.813,5.19
	c10.994,7.42,10.351,15.471,10.172,16.741c1.241,3.623,1.787,8.147,1.736,12.555c0.803,0.01,1.58,0.306,2.198,0.88
	c0.873,0.814,1.397,2.067,1.57,3.741l1.95,0.707c0.368,0.133,0.619,0.478,0.632,0.87c0.014,0.392-0.213,0.752-0.572,0.911
	l-2.067,0.911c-0.442,4.731-1.232,8.412-5.439,9.635l-0.607,0.177c-0.125,0.036-0.245,0.071-0.368,0.107
	c-2.179,8.248-5.137,15.142-6.79,18.042c-3.78,6.632-7.786,10.555-12.099,11.839c3.08,2.832,13.603,12.764,15.258,17.729
	c1.84,5.52,0.914,32.572,0.826,35.006c2.663,6.322,5.271,12.719,5.813,14.746c0.262,0.981,0.139,3.041-0.215,5.667l38.962-30.114
	c0.541-1.059,4.756-9.298,5.863-10.959c1.125-1.688,6.567-3.418,8.107-3.881c0.884-4.583,2.27-12.17,3.182-19.103
	c1.438-10.93,7.923-23.559,7.988-23.686c0.14-0.271,0.463-0.391,0.743-0.282l43.089,16.717c0.282,0.108,0.437,0.411,0.361,0.703
	c-0.058,0.229-3.269,12.682-6.666,25.59l27.412,0.211c0.037,0,0.068,0.015,0.103,0.022l45.747-30.973
	c0.213-0.144,0.49-0.136,0.692,0.019c0.203,0.153,0.287,0.419,0.207,0.66L527.844,330.6l10.281,0.08
	c0.327,0.003,0.591,0.269,0.591,0.596v35.042v114.112C539.071,480.637,539.32,481.007,539.32,481.448z M536.219,301.332
	l-52.247,35.373l-12.136,30.154c0,0.001,0,0.002-0.001,0.004l-16.799,41.74c0,0.001-0.002,0.002-0.002,0.003l-1.003,2.492
	l62.403-49.623L536.219,301.332z M401.334,404.64l50.927,7.665l1.389-3.452l-24.928-3.856c-0.228-0.035-0.415-0.198-0.48-0.42
	c-0.064-0.221,0.004-0.46,0.176-0.613l42.365-37.677l4.1-10.187l-10.515-1.583l-9.574,7.613c-1.023,3.101-2.143,6.33-3.185,9.265
	l8.776,1.658c0.224,0.042,0.403,0.208,0.464,0.427c0.06,0.22-0.01,0.454-0.181,0.604l-19.803,17.488
	c-0.11,0.097-0.251,0.149-0.395,0.149c-0.037,0-0.074-0.004-0.11-0.011l-15.2-2.873c-0.227-0.043-0.407-0.212-0.466-0.435
	c-0.058-0.222,0.018-0.458,0.193-0.606l13.592-11.419l-0.853-0.598L401.334,404.64z M447.753,381.968
	c-0.064,0.172-0.205,0.305-0.381,0.358c-0.058,0.019-0.117,0.027-0.176,0.027c-0.121,0-0.24-0.037-0.342-0.108l-7.365-5.16
	l-12.875,10.817l13.681,2.586l18.674-16.49l-7.764-1.467C449.316,377.82,447.783,381.89,447.753,381.968z M463.42,331.298
	c-2.743,10.413-5.548,20.888-6.862,25.268c-0.334,1.114-0.704,2.296-1.095,3.512l8.367-6.654c0.129-0.103,0.295-0.145,0.459-0.123
	l11.05,1.664l7.596-18.873c0.045-0.109,0.121-0.204,0.219-0.271l6.385-4.323L463.42,331.298z M415.493,333.993
	c0.875-0.256,1.827-0.565,2.633-0.826c1.259-0.408,1.877-0.606,2.165-0.639c0.181-0.018,0.792-0.01,1.105,0.959
	c0.388,1.2,0.124,3.459-2.188,4.763c-2.204,1.243-3.847,1.978-4.493,2.253c-0.279,1.322-1.362,6.412-1.88,8.125l-1.064,7.583
	l5.092,3.568c0.002,0.001,0.004,0.003,0.006,0.004l30.038,21.047c0.539-1.442,1.827-4.917,3.314-9.088c0-0.001,0-0.002,0-0.003
	c0.001-0.008,0.007-0.013,0.008-0.021c1.75-4.912,3.775-10.788,5.187-15.494c2.808-9.359,12.451-46.664,13.696-51.49l-42.091-16.329
	c-1.182,2.388-6.371,13.286-7.626,22.817C418.155,320.658,416.039,331.3,415.493,333.993z M413.415,358.832l-11.055,10.312
	l13.132-8.874l-2.069-1.45C413.419,358.824,413.419,358.829,413.415,358.832z M402.179,345.444c0.74,2.252,1.787,4.088,3.102,5.702
	c1.46,1.792,3.249,3.316,5.321,4.834l0.706-5.036c-1.19,1.268-2.644,2.334-2.888,2.51c-0.105,0.075-0.227,0.112-0.347,0.112
	c-0.186,0-0.368-0.086-0.484-0.248c-0.191-0.267-0.131-0.639,0.136-0.831c0.957-0.689,3.534-2.781,3.958-4.158
	c0.562-1.826,1.918-8.313,1.932-8.378c0.041-0.195,0.178-0.357,0.363-0.432c0.019-0.007,1.91-0.764,4.647-2.307
	c1.211-0.683,1.59-1.62,1.694-2.285c0.012-0.078,0.014-0.146,0.019-0.218c0.035-0.445-0.037-0.783-0.109-0.954
	c-0.36,0.098-1.082,0.332-1.735,0.544c-1.782,0.578-4.001,1.298-5.109,1.395c-1.085,0.095-3.794,1.837-5.246,2.912
	c-0.262,0.195-0.635,0.142-0.833-0.124c-0.195-0.265-0.14-0.638,0.124-0.833c0.412-0.305,4.078-2.986,5.852-3.141
	c0.241-0.021,0.559-0.082,0.926-0.169c0.051-0.245,0.262-1.274,0.57-2.846c-2.623,0.827-6.191,2.215-6.859,3.216
	C406.892,336.25,402.882,344.069,402.179,345.444z M361.492,379.001c-1.321,7.551-3.631,17.143-4.541,20.831l39.071-26.404
	l16.037-14.959c-2.643-1.805-5.432-3.797-7.67-6.554c-1.269-1.563-2.364-3.37-3.15-5.534l-39.384,30.438
	C361.745,377.52,361.623,378.251,361.492,379.001z M357.948,272.478c-2.592,0.706-5.047,1.134-8.089,0.379
	c-1.771-0.439-3.148-1.48-4.087-3.047c0.084,2.486,0.503,5.666,1.73,9.112c0.579,1.626,0.512,3.047-0.203,4.225
	c-1.34,2.211-4.466,2.67-4.599,2.688c-0.027,0.004-0.056,0.006-0.083,0.006c-0.292,0-0.546-0.215-0.588-0.512
	c-0.046-0.325,0.181-0.626,0.506-0.672c0.026-0.004,2.706-0.404,3.748-2.131c0.518-0.856,0.55-1.934,0.098-3.205
	c-1.873-5.259-1.935-9.931-1.742-12.595c-0.197-0.956-0.315-1.995-0.321-3.139c0-0.062,0-0.123,0.001-0.183
	c-0.115,0.004-0.239,0.013-0.369,0.026c-0.316,0.032-0.685,0.177-0.973,0.315c-0.014,0.278-0.042,0.562-0.084,0.849l-0.052,0.349
	c-0.545,3.748-1.109,7.623-5.725,9.533c-3.015,1.248-6.25,1.85-10.021,1.85c-0.898,0-1.827-0.034-2.791-0.102
	c-4.942-0.347-5.146-4.538-4.905-9.566c0.015-0.311,0.037-0.611,0.065-0.901l-3.251-0.236c-0.161-0.012-0.315-0.063-0.451-0.151
	l-2.096-1.352c-0.166,0.391-0.331,0.782-0.496,1.208c-0.092,0.238-0.331,0.389-0.581,0.379c-0.255-0.011-0.475-0.184-0.546-0.429
	c-0.326-1.125-0.738-2.141-1.207-3.062c-0.002-0.002-0.002-0.005-0.003-0.007c-2.285-4.485-6.023-6.538-8.884-5.883
	c-0.801,0.182-1.484,0.564-2.044,1.112c-1.57,1.534-2.161,4.401-1.552,8.059c0.98,5.888,4.324,9.337,7.849,10.664
	c0.045,0.011,0.088,0.027,0.128,0.047c1.109,0.401,2.216,0.566,3.306,0.584c0.002,0,0.003,0,0.005,0c0.192,0,0.374,0.093,0.485,0.25
	c2.453,3.456,5.059,7.043,7.75,10.368c4.376,5.407,8.978,10.117,13.525,12.416l0.169,0.083c7.394,3.64,13.907,0.284,19.915-10.262
	C352.849,287.153,355.74,280.547,357.948,272.478z M299.964,300.484l-14.154,3.193c1.774,0.941,3.301,2.649,4.623,4.352
	C291.768,307.797,296.994,306.508,299.964,300.484z M284.043,304.257c-0.259,1.172-0.463,2.235-0.661,3.269
	c-0.576,3.007-1.077,5.617-2.628,9.174l23.241,21.718l4.459-12.407c-3.123-3.153-5.653-4.974-8.098-6.726
	c-3.396-2.435-6.605-4.736-10.651-10.253C288.113,306.95,286.212,304.794,284.043,304.257z M311.377,328.962
	c0.61,1.422,1.446,3.37,1.918,3.729c5.512,4.205,9.413,7.669,13.187,11.019c1.923,1.706,3.751,3.329,5.711,4.978
	c3.51-20.406,2.088-25.83,0.133-33.291c-0.784-2.994-1.66-6.337-2.358-11.074c-0.57,1.44-1.232,3.275-1.901,5.471
	c-1.772,5.826-0.531,11.104-0.519,11.156c0.078,0.319-0.118,0.642-0.438,0.719c-0.315,0.077-0.641-0.117-0.719-0.438
	c-0.049-0.2-1.047-4.427,0-9.64c0.141-0.7,0.315-1.416,0.537-2.144c1.441-4.733,2.831-7.773,3.403-8.939
	c-7.342-3.997-14.667-13.72-20.999-22.628c-0.904-0.022-1.837-0.168-2.768-0.444c-0.147,1.178-0.475,3.64-0.982,6.626
	c-0.866,5.105-2.256,11.747-4.173,16.171c-0.557,1.287-1.212,2.384-1.917,3.332c-2.837,3.816-6.521,5.106-8.264,5.516
	c3.661,4.817,6.528,6.873,9.823,9.235c2.042,1.464,4.147,2.982,6.602,5.262c0.609,0.566,1.235,1.167,1.893,1.839c0,0,0,0,0,0
	c0.008,0.008,0.015,0.014,0.022,0.022C310.096,325.978,310.689,327.36,311.377,328.962z M335.106,322.523l10.16,6.533
	l-11.998-27.266c-0.618-0.202-1.243-0.451-1.874-0.746c-0.131,0.269-0.308,0.643-0.521,1.117c0.723,5.758,1.721,9.568,2.604,12.934
	C334.131,317.592,334.727,319.864,335.106,322.523z M324.439,274.309c4.7,0.33,8.496-0.18,11.943-1.607
	c3.607-1.493,4.027-4.38,4.56-8.036l0.051-0.351c0.238-1.619-0.09-3.042-0.923-4.007c-0.663-0.767-1.596-1.19-2.625-1.19
	c-5.284,0-12.351,1.219-12.422,1.231c-0.036,0.006-0.073,0.011-0.11,0.013c-1.142,0.063-3.362,1.48-3.596,6.387
	C321.039,272.561,321.681,274.115,324.439,274.309z M346.3,262.566c-0.002,0.028-0.006,0.056-0.011,0.084
	c-0.035,0.298-0.053,0.607-0.051,0.927c0.015,2.925,0.734,6.586,4.083,7.417c2.994,0.742,5.252,0.186,8.191-0.668
	c1.125-4.509,1.99-9.379,2.244-14.172c-1.954,0.162-6.608,0.608-10.367,1.424C348.531,257.981,346.659,259.792,346.3,262.566z
	 M349.981,255.702c3.009-0.653,6.492-1.069,8.849-1.302c-3.308-0.655-6.502-0.165-9.237,1.419
	C349.723,255.781,349.852,255.73,349.981,255.702z M363.926,260.145l-2.226-0.806c-0.37,3.6-1.03,7.186-1.846,10.592
	c2.882-0.89,3.551-3.246,4.008-8.47c0.001-0.012,0.002-0.024,0.003-0.036C363.904,260.958,363.924,260.533,363.926,260.145z
	 M361.954,256.06c-0.023,0.45-0.05,0.901-0.083,1.353c0.084,0.007,0.169,0.008,0.252,0.038l1.589,0.576
	c-0.216-0.882-0.553-1.348-0.81-1.587C362.555,256.116,362.204,256.054,361.954,256.06z M353.536,235.494
	c-2.532-0.439-4.41,0.165-6.585,0.866c-2.854,0.92-6.089,1.962-11.612,0.979c-9.967-1.773-15.094-1.517-17.265,4.751
	c-2.255,6.512,1.499,13.255,1.537,13.323c0.151,0.266,0.076,0.604-0.174,0.78c-1.931,1.363-3.371,3.042-4.675,5.504l5.085,1.891
	c1.002-3.772,3.377-5.025,4.898-5.139c0.706-0.121,7.428-1.25,12.699-1.25c1.597,0,3.045,0.659,4.078,1.855
	c0.645,0.747,1.084,1.659,1.304,2.68c0.291-0.1,0.607-0.181,0.926-0.214c0.292-0.03,0.56-0.041,0.792-0.041
	c0.459-2.007,1.568-3.574,2.913-4.588c-0.318-0.035-0.622-0.189-0.829-0.465c-0.397-0.53-0.29-1.283,0.24-1.68
	c3.953-2.964,8.892-3.773,13.942-2.32C360.609,244.151,358.232,236.311,353.536,235.494z M295.902,241.313
	c-2.322,9.449-0.453,16.976,1.025,20.899c0.102-3.252,1.335-5.279,2.921-6.346c0.579-0.389,1.201-0.658,1.836-0.802
	c3.125-0.712,7.095,1.225,9.69,5.573c0.185-0.049,0.383-0.056,0.574,0.015l1.677,0.624c1.168-2.246,2.601-4.156,4.702-5.745
	c-0.858-1.715-3.483-7.752-1.379-13.829c2.671-7.719,9.693-7.119,18.599-5.533c5.23,0.932,8.315-0.063,11.038-0.941
	c2.228-0.718,4.335-1.397,7.153-0.906c2.207,0.384,3.931,1.968,5.223,4.274c-0.538-3.059-2.555-8.047-9.521-12.748
	c-7.319-4.941-22.721-8.268-34.839-5.027c-7.43,1.987-12.677,6.024-15.597,12C297.558,235.781,296.563,238.623,295.902,241.313z
	 M262.902,323.813c7.878-4.009,15.238-6.879,16.688-7.434c1.551-3.514,2.052-6.1,2.623-9.077c0.23-1.2,0.468-2.441,0.792-3.854
	c0.007-0.034,0.017-0.066,0.029-0.099c0.027-0.068,0.065-0.129,0.113-0.182c0.063-0.069,0.143-0.125,0.236-0.158
	c0.027-0.011,0.056-0.019,0.085-0.024l17.115-3.862c2.863-7.116,4.517-19.563,4.832-22.097c-3.717-1.544-7.161-5.219-8.213-11.323
	c-0.637-1.13-6.784-12.682-1.381-28.327c-0.016-0.006-0.037-0.013-0.053-0.018c-1.375-0.49-5.123-1.509-8.712,0.342
	c-3.773,1.946-6.328,6.435-7.592,13.342c-1.268,6.925-1.404,13.562-1.536,19.98c-0.254,12.405-0.475,23.119-9.036,30.513
	c-9.457,8.168-7.725,17.332-6.448,21.079C262.613,323.117,262.775,323.521,262.902,323.813z M231.592,426.153
	c-0.007,0.084-0.438,6.093,1.705,11.562c0.714,1.822,1.713,3.583,3.108,5.046c2.56,2.683,6.095,3.979,10.497,3.835
	c16.352-0.512,42.014-3.87,58.76-7.677c-0.151-0.779-0.421-2.284-0.659-4.133c-0.282-2.194-0.518-4.875-0.452-7.431
	c0.108-4.271,0.959-7.518,1.396-8.922c-5.343-0.348-11.021-0.914-16.521-1.462c-12.588-1.254-24.477-2.44-31.867-1.107
	c-0.328,0.055-0.634-0.157-0.691-0.48c-0.058-0.323,0.157-0.633,0.48-0.691c0.091-0.016,0.191-0.028,0.284-0.044
	c1.779-0.302,3.787-0.472,5.991-0.533c0.002-0.05,0.011-0.101,0.027-0.151c0.128-0.403,12.775-40.498,7.21-49.957
	c-1.727-2.936-3.22-5.457-4.468-7.556c-2.87-4.825-4.433-7.392-4.455-7.428c-0.171-0.28-0.082-0.646,0.198-0.818
	c0.283-0.17,0.647-0.082,0.818,0.199c0.023,0.038,1.782,2.926,4.995,8.336c1.136,1.912,2.45,4.133,3.938,6.664
	c5.667,9.632-5.88,47.038-7.028,50.689c6.98-0.082,15.651,0.793,24.686,1.694c5.755,0.573,11.706,1.167,17.25,1.507
	c0.001,0.001,0.002,0.001,0.003,0.001c4.885,0.3,9.509-0.19,13.585-0.623c2.352-0.25,4.573-0.485,6.53-0.528
	c0.602-0.15,4.43-1.105,9.332-2.317l19.232-12.997c1.216-4.824,3.493-14.454,4.806-21.818c0.783-4.394,1.223-7.98,0.885-9.248
	c-1.129-4.231-11.967-29.064-12.076-29.314c-0.131-0.302,0.006-0.652,0.308-0.784c0.298-0.128,0.653,0.006,0.784,0.308
	c0.208,0.478,2.6,5.956,5.214,12.115c0.211-7.381,0.639-27.549-0.847-32.006c-1.683-5.046-13.814-16.211-15.545-17.786
	c-1.388,0.225-2.806,0.199-4.26-0.106l12.409,28.197c0.105,0.241,0.041,0.522-0.158,0.692c-0.199,0.171-0.487,0.19-0.709,0.049
	l-10.99-7.067c0.559,5.389,0.222,12.594-2.107,25.849c-0.036,0.209-0.182,0.383-0.381,0.456c-0.066,0.024-0.136,0.037-0.205,0.037
	c-0.137,0-0.271-0.048-0.38-0.138c-2.28-1.89-4.346-3.723-6.531-5.664c-3.757-3.335-7.642-6.783-13.118-10.961
	c-0.672-0.513-1.313-1.932-2.291-4.207c-0.329-0.767-0.683-1.589-0.995-2.218l-4.477,12.457c-0.068,0.188-0.226,0.33-0.421,0.378
	c-0.046,0.011-0.093,0.017-0.14,0.017c-0.149,0-0.295-0.057-0.406-0.161l-23.938-22.371c-2.898,1.124-23.601,9.329-32.83,17.899
	C237.272,344.533,231.648,425.338,231.592,426.153z M354.858,413.049c-0.028-0.328,0.215-0.616,0.542-0.644
	c0.28-0.024,7.152-0.397,11.413-0.473c-1.354-1.223-3.817-3.11-5.863-2.777c-3.081,0.503-30.292,7.28-33.488,8.077
	c-1.289,3.802-2.055,8.412-1.962,12.766c0.024,1.116,0.1,2.215,0.243,3.278c1.175,0.015,13.253,0.145,17.92-1.339
	c1.969-0.625,4.165-1.476,6.289-2.298c3.198-1.238,5.39-2.06,6.766-2.292c0.289-0.049,0.555-0.081,0.772-0.075l5.269,0.199
	c0.132,0.005,0.259,0.054,0.36,0.139c0.038,0.032,3.808,3.185,5.884,3.799c1.033,0.308,1.86,0.059,2.11-0.33
	c0.211-0.33,0.051-0.84-0.44-1.399c-1.038-1.182-2.611-2.365-3.761-3.229c-0.735-0.554-1.267-0.953-1.523-1.242
	c-0.447-0.262-3.899-0.789-7.617-1.233c-0.042-0.001-0.082-0.006-0.121-0.015c-0.791-0.094-1.592-0.185-2.378-0.268
	c-0.327-0.034-0.564-0.327-0.529-0.654c0.034-0.328,0.334-0.576,0.654-0.529c0.853,0.09,1.657,0.179,2.411,0.267
	c0.883-0.111,7.238-0.92,8.765-1.286c2.558-0.612,4.651,1.014,6.335,2.32c0.979,0.76,1.903,1.479,2.696,1.611
	c1.141,0.056,2.073-0.452,2.246-0.962c0.145-0.428-0.239-0.992-1.054-1.549c-1.292-0.882-2.446-1.72-3.431-2.436
	c-0.729-0.528-1.359-0.986-1.878-1.341c-0.009-0.006-0.017-0.012-0.025-0.018c-0.284-0.193-0.535-0.355-0.748-0.479
	c-2.394-1.393-12.309-0.938-15.685-0.385c-0.318,0.056-0.63-0.165-0.684-0.49c-0.054-0.324,0.166-0.631,0.49-0.684
	c2.485-0.41,13.476-1.217,16.477,0.529c0.232,0.136,0.498,0.307,0.796,0.509c0.409,0.196,3.989,1.896,6.736,2.617
	c1.587,0.42,3.018-0.413,3.268-1.146c0.215-0.627-0.533-1.053-0.999-1.25c-1.049-0.446-2.367-1.141-3.764-1.876
	c-2.888-1.521-6.16-3.244-8.059-3.331c-0.28-0.013-0.619-0.022-1.028-0.021c-0.047,0-0.105-0.001-0.159-0.001
	c-3.908,0-12.293,0.456-12.602,0.481C355.176,413.621,354.886,413.377,354.858,413.049z M415.786,411.568l-12.337,4.196
	l-18.231,27.278l12.173-4.067L415.786,411.568z M398.453,439.527l0.709,1.513l18.162-28.659l-0.226-0.633L398.453,439.527z
	 M397.457,440.207l-13.506,4.514c-0.123,0.041-0.258,0.045-0.387,0.001l-28.433-8.945l0.209,0.648l33.093,12.33l9.911-6.652
	L397.457,440.207z M402.093,415.65l-29.743-6.918l-2.209,3.313c0.573,0.109,1.205,0.303,1.873,0.551l1.728-2.72
	c0.137-0.214,0.394-0.313,0.638-0.261l17.264,4.009c0.017,0.003,0.032,0.007,0.048,0.011l8.698,2.02
	c0.19,0.045,0.348,0.18,0.419,0.362c0.072,0.183,0.05,0.389-0.061,0.551l-2.612,3.869c-0.01,0.017-0.021,0.033-0.032,0.049
	l-2.636,3.903c-0.001,0.002-0.003,0.004-0.004,0.007c-0.001,0.002-0.003,0.003-0.004,0.005l-2.952,4.374
	c-0.006,0.008-0.011,0.016-0.017,0.024l-2.856,4.23c-0.007,0.011-0.015,0.021-0.021,0.032l-2.949,4.367
	c-0.002,0.004-0.005,0.008-0.008,0.013l-3.129,4.634c-0.112,0.167-0.299,0.263-0.493,0.263c-0.058,0-0.115-0.009-0.172-0.025
	l-7.883-2.374c-0.01-0.003-0.019-0.005-0.028-0.009l-8.257-2.486c-0.016-0.004-0.03-0.008-0.045-0.013l-7.988-2.405
	c-0.178-0.054-0.321-0.188-0.386-0.362c-0.065-0.175-0.045-0.37,0.055-0.527l2.772-4.363c0.009-0.016,0.019-0.031,0.029-0.047
	l0.698-1.099l-2.676-0.101l-4.005,6.008l28.36,8.923L402.093,415.65z M364.836,423.861l0.529-0.936
	c-0.879,0.144-1.966,0.303-3.044,0.454C363.366,423.545,364.198,423.705,364.836,423.861z M365.994,424.233
	c0.127,0.062,0.23,0.124,0.284,0.184c0.177,0.199,0.747,0.628,1.35,1.081c0.224,0.169,0.475,0.359,0.724,0.549l1.795-2.731
	c-1.013-0.591-2.081-0.941-3.253-0.675L365.994,424.233z M377.367,421.857c0.034,0.023,0.066,0.046,0.101,0.07
	c1.274,0.871,1.591,1.703,1.598,2.315l0.205,0.057l1.556-2.399c-0.695,0.176-1.479,0.197-2.286-0.014
	c-0.327-0.086-0.663-0.185-1.002-0.292L377.367,421.857z M383.082,418.425l0.781-1.203c-1.052-0.266-2.058-0.52-2.974-0.75
	l-0.228,0.349c0.325,0.156,0.637,0.301,0.92,0.422C382.391,417.587,382.839,418.011,383.082,418.425z M363.694,435.297l2.894,0.872
	l2.234-3.418l-2.906-0.832L363.694,435.297z M364.717,431.575l-2.833-0.812l-2.127,3.348l2.748,0.828L364.717,431.575z
	 M367.776,436.526l2.979,0.897l2.253-3.473l-2.988-0.856L367.776,436.526z M371.943,437.781l2.938,0.885l2.295-3.521l-2.971-0.851
	L371.943,437.781z M377.757,428.82c0.995,0.278,2.006,0.561,2.995,0.839l2.05-3.145l-3.007-0.835L377.757,428.82z M384.854,430.82
	l2.099-3.152l-2.948-0.819l-2.052,3.148C382.976,430.286,383.956,430.565,384.854,430.82z M381.271,431.043l-2.218,3.401
	l2.845,0.815l2.263-3.399C383.261,431.605,382.284,431.328,381.271,431.043z M387.647,426.625l2.27-3.408
	c-0.946-0.267-1.966-0.552-2.997-0.84l-2.233,3.426L387.647,426.625z M390.611,422.174l1.845-2.772
	c-0.961-0.245-2.006-0.511-3.085-0.784l-1.769,2.713C388.776,421.658,389.771,421.937,390.611,422.174z M388.151,418.308
	c-1.021-0.259-2.058-0.521-3.07-0.777l-1.702,2.624c1.107,0.308,2.111,0.587,3.021,0.84L388.151,418.308z M382.699,421.202
	l-2.226,3.431l3.01,0.836l2.234-3.428C384.678,421.751,383.65,421.466,382.699,421.202z M377.078,429.867l-2.194,3.382l2.973,0.853
	l2.214-3.396C379.078,430.427,378.067,430.144,377.078,429.867z M376.069,439.024l2.769,0.833l2.368-3.557l-2.832-0.812
	L376.069,439.024z M380.029,440.216l2.757,0.83l2.429-3.598l-2.808-0.805L380.029,440.216z M385.916,436.41l2.278-3.376
	c-0.647-0.198-1.636-0.486-2.831-0.83l-2.264,3.399L385.916,436.41z M388.89,432.005l2.16-3.199l-2.89-0.803l-2.105,3.162
	C387.308,431.526,388.307,431.82,388.89,432.005z M391.752,427.765l2.279-3.375c-0.644-0.189-1.674-0.484-2.91-0.833l-2.267,3.403
	L391.752,427.765z M394.725,423.361l1.942-2.876c-0.689-0.181-1.731-0.45-2.988-0.771l-1.864,2.801
	C393.41,422.968,394.262,423.219,394.725,423.361z M397.372,419.441l1.905-2.822l-3.063-0.711l-1.836,2.757
	C395.715,419.007,396.774,419.281,397.372,419.441z M394.975,415.619l-3.17-0.735l-1.747,2.679c1.092,0.277,2.142,0.545,3.099,0.789
	L394.975,415.619z M390.57,414.597l-3.116-0.724l-1.688,2.603c1.019,0.257,2.056,0.52,3.072,0.777L390.57,414.597z M386.221,413.587
	l-2.992-0.694l-1.651,2.524c0.924,0.233,1.928,0.486,2.97,0.75L386.221,413.587z M381.993,412.606l-2.933-0.681l-1.612,2.451
	c0.661,0.167,1.677,0.423,2.908,0.733L381.993,412.606z M377.824,411.638l-3.303-0.768l-1.383,2.178
	c0.927,0.401,1.894,0.873,2.859,1.368c0.003-0.004,0.005-0.008,0.007-0.011L377.824,411.638z M379.047,416.007
	c0.184,0.096,0.362,0.187,0.54,0.278l0.08-0.122C379.447,416.108,379.25,416.058,379.047,416.007z M375.473,426.603
	c-0.341-0.056-0.672-0.171-0.998-0.321l-0.898,1.374c0.927,0.257,1.936,0.538,2.979,0.829l1.778-2.741
	C377.666,426.324,376.619,426.664,375.473,426.603z M372.372,427.322l1.068-1.634c-0.419-0.284-0.837-0.607-1.263-0.938
	c-0.342-0.265-0.687-0.529-1.036-0.781l-1.675,2.549C370.123,426.699,371.14,426.981,372.372,427.322z M370.818,428.127
	c0.215,0.208,0.422,0.418,0.615,0.63l0.254-0.389C371.379,428.283,371.093,428.203,370.818,428.127z M371.545,432.293l2.141,0.613
	l2.189-3.374c-1.054-0.294-2.063-0.574-2.984-0.83l-0.721,1.104c0.427,0.935,0.133,1.619-0.055,1.913
	C371.97,431.948,371.775,432.139,371.545,432.293z M364.709,430.335c-0.69-0.492-1.298-0.962-1.726-1.301l-0.434,0.683
	L364.709,430.335z M326.16,417.359c-1.717,0.078-3.637,0.282-5.652,0.496c-3.999,0.424-8.514,0.904-13.332,0.653
	c-0.364,1.122-1.321,4.461-1.435,8.878c-0.065,2.52,0.181,5.211,0.467,7.395c0.24,1.84,0.509,3.32,0.645,4.022l19.646,1.156
	c-0.603-1.145-1.068-2.403-1.415-3.734C323.545,430.325,324.358,422.959,326.16,417.359z M327.811,439.87
	c1.9-0.941,3.642-3.569,3.97-5.452c-1.661,0.046-3.157,0.059-4.257,0.059c-0.727,0-1.263-0.005-1.585-0.009
	C326.309,436.471,326.914,438.319,327.811,439.87z M266.631,460.87l27.196-18.379c-8.794,1.555-18.555,2.92-27.704,3.883
	L266.631,460.87z M238.621,479.799l26.847-18.143l-0.532-15.159c-6.555,0.669-12.753,1.124-17.997,1.288
	c-4.761,0.167-8.595-1.267-11.399-4.207c-5.952-6.242-5.171-17.056-5.135-17.513c0.154-2.252,2.697-38.759,7.444-65.206
	c-11.812,4.693-29.687,12.803-30.256,15.84c-0.279,1.488,0.68,3.044,2.59,6.142c3.25,5.27,9.298,15.079,15.84,36.521
	C235.206,449.458,238.093,474.592,238.621,479.799z M537.524,480.248V331.866l-10.072-0.078l-9.943,30.226
	c-0.036,0.11-0.104,0.208-0.195,0.28l-64.308,51.136c-0.033,0.026-0.068,0.049-0.105,0.067c-0.001,0-0.001,0-0.002,0.001
	c-0.079,0.039-0.169,0.061-0.261,0.061c-0.022,0-0.045-0.002-0.068-0.004h-0.001c0.001,0.003-0.016-0.002-0.024-0.004l-52.74-7.938
	c-0.234-0.035-0.425-0.206-0.486-0.436c-0.062-0.229,0.02-0.472,0.205-0.619l37.087-29.491l-20.076-14.067l-76.944,51.999
	c8.814-2.17,19.272-4.711,21.168-5.021c3.225-0.521,6.899,3.048,7.762,3.942c0.096,0.001,0.181,0.003,0.269,0.004l2.798-4.198
	c0.137-0.206,0.388-0.302,0.63-0.25l30.818,7.168l14.028-4.771c0.01-0.004,0.02-0.007,0.029-0.01
	c0.081-0.024,0.163-0.029,0.242-0.02s0.156,0.035,0.229,0.078c0.06,0.035,0.113,0.08,0.157,0.135l0.001,0.001
	c0.045,0.055,0.079,0.117,0.102,0.183l0.719,2.012c0.062,0.173,0.04,0.364-0.058,0.519l-18.949,29.901
	c-0.005,0.008-0.01,0.017-0.016,0.024c-0.046,0.065-0.104,0.12-0.167,0.16l-10.51,7.055c-0.1,0.066-0.216,0.102-0.332,0.102
	c-0.07,0-0.141-0.013-0.208-0.038l-33.649-12.537c-0.171-0.063-0.303-0.202-0.358-0.375l-0.648-2.014
	c-0.004-0.013-0.008-0.025-0.011-0.039c0,0,0,0-0.001-0.001c-0.008-0.031-0.013-0.063-0.016-0.094c0-0.001,0-0.001,0-0.001
	c-0.002-0.018-0.003-0.035-0.003-0.054c0-0.101,0.025-0.201,0.079-0.294c0.007-0.014,0.016-0.026,0.024-0.04l4.038-6.055
	l-0.314-0.012c-0.017,0-0.034-0.001-0.053-0.001c-1.098,0-4.103,1.163-7.01,2.289c-2.141,0.829-4.354,1.686-6.357,2.322
	c-2.563,0.814-7.094,1.162-11.023,1.307c-0.328,2.626-2.838,5.965-5.237,6.802c-0.082,0.028-0.162,0.035-0.245,0.031l-21.108-1.242
	c-2.968,0.683-6.232,1.352-9.677,1.994l-56.65,38.284H537.524z M342.835,288.784c-2.833,1.203-7.976,1.684-12.318,0.277
	c-0.317-0.101-0.648,0.07-0.75,0.383c-0.102,0.313,0.07,0.648,0.383,0.75c1.976,0.639,4.109,0.91,6.143,0.91
	c2.725,0,5.27-0.486,7.008-1.224c0.303-0.128,0.444-0.478,0.315-0.78C343.487,288.797,343.139,288.657,342.835,288.784z
	 M334.275,270.477c0.935,0,1.794-1.242,1.918-2.774c0,0,0,0,0,0c0.124-1.532-0.534-2.774-1.469-2.774
	c-0.935,0-1.794,1.242-1.918,2.774C332.682,269.234,333.34,270.476,334.275,270.477z M352.048,268.135
	c0.935,0,1.794-1.242,1.918-2.774c0,0,0,0,0,0c0.124-1.532-0.534-2.774-1.469-2.774c-0.935,0-1.794,1.242-1.917,2.774
	C350.455,266.893,351.113,268.135,352.048,268.135z M339.31,254.908c-4.627-2.176-14.818-0.716-18.802,2.697
	c-0.503,0.431-0.562,1.189-0.13,1.692c0.237,0.277,0.573,0.419,0.912,0.419c0.276,0,0.554-0.095,0.78-0.289
	c3.23-2.769,12.477-4.11,16.218-2.347c0.6,0.282,1.313,0.024,1.597-0.575C340.167,255.905,339.909,255.19,339.31,254.908z
	 M387.634,440.417l16.536-24.499c0.073-0.108,0.181-0.19,0.305-0.231l8.557-2.857c0.241-0.081,0.508,0.001,0.662,0.203
	c0.154,0.203,0.163,0.481,0.021,0.692l-16.555,24.69c-0.075,0.113-0.188,0.196-0.316,0.237l-8.538,2.666
	c-0.059,0.019-0.118,0.027-0.178,0.027c-0.185,0-0.363-0.087-0.478-0.24C387.498,440.902,387.492,440.627,387.634,440.417z
	 M389.57,439.676l6.717-2.098l15.467-23.067l-6.711,2.241L389.57,439.676z"></path>
<path id="color_x5F_w" fill="#FFFFFF" d="M390.611,422.174c-0.841-0.237-1.835-0.516-3.009-0.844l1.769-2.713
	c1.079,0.273,2.124,0.539,3.085,0.784L390.611,422.174z M387.647,426.625l2.27-3.408c-0.946-0.267-1.966-0.552-2.997-0.84
	l-2.233,3.426L387.647,426.625z M381.953,429.997c1.022,0.289,2.003,0.567,2.901,0.823l2.099-3.152l-2.948-0.819L381.953,429.997z
	 M381.206,436.3l-2.832-0.812l-2.305,3.535l2.769,0.833L381.206,436.3z M371.688,428.368c-0.309-0.086-0.595-0.165-0.87-0.241
	c0.215,0.208,0.422,0.418,0.615,0.63L371.688,428.368z M362.549,429.716l2.16,0.619c-0.69-0.492-1.298-0.962-1.726-1.301
	L362.549,429.716z M374.475,426.282l-0.898,1.374c0.927,0.257,1.936,0.538,2.979,0.829l1.778-2.741
	c-0.667,0.58-1.714,0.92-2.861,0.858C375.131,426.546,374.801,426.431,374.475,426.282z M363.694,435.297l2.894,0.872l2.234-3.418
	l-2.906-0.832L363.694,435.297z M390.058,417.563c1.092,0.277,2.142,0.545,3.099,0.789l1.818-2.732l-3.17-0.735L390.058,417.563z
	 M399.277,416.618l-3.063-0.711l-1.836,2.757c1.337,0.343,2.396,0.617,2.994,0.776L399.277,416.618z M381.993,412.606l-2.933-0.681
	l-1.612,2.451c0.661,0.167,1.677,0.423,2.908,0.733L381.993,412.606z M396.667,420.485c-0.689-0.181-1.731-0.45-2.988-0.771
	l-1.864,2.801c1.596,0.453,2.447,0.704,2.91,0.847L396.667,420.485z M385.766,416.476c1.019,0.257,2.056,0.52,3.072,0.777
	l1.732-2.656l-3.116-0.724L385.766,416.476z M394.031,424.39c-0.644-0.189-1.674-0.484-2.91-0.833l-2.267,3.403l2.897,0.805
	L394.031,424.39z M379.054,434.444l2.845,0.815l2.263-3.399c-0.9-0.256-1.877-0.532-2.89-0.817L379.054,434.444z M385.215,437.448
	l-2.808-0.805l-2.378,3.572l2.757,0.83L385.215,437.448z M388.194,433.034c-0.647-0.198-1.636-0.486-2.831-0.83l-2.264,3.399
	l2.816,0.807L388.194,433.034z M391.05,428.806l-2.89-0.803l-2.105,3.162c1.253,0.361,2.252,0.655,2.835,0.84L391.05,428.806z
	 M373.44,425.689c-0.419-0.284-0.837-0.607-1.263-0.938c-0.342-0.265-0.687-0.529-1.036-0.781l-1.675,2.549
	c0.657,0.182,1.674,0.463,2.906,0.805L373.44,425.689z M456.558,356.566c-0.334,1.114-0.704,2.296-1.095,3.512l8.367-6.654
	c0.129-0.103,0.295-0.145,0.459-0.123l11.05,1.664l7.596-18.873c0.045-0.109,0.121-0.204,0.219-0.271l6.385-4.323l-26.119-0.201
	C460.676,341.711,457.872,352.185,456.558,356.566z M309.546,325.417c0.008,0.008,0.015,0.014,0.022,0.022
	c0.527,0.539,1.121,1.922,1.809,3.523c0.61,1.422,1.446,3.37,1.918,3.729c5.512,4.205,9.413,7.669,13.187,11.019
	c1.923,1.706,3.751,3.329,5.711,4.978c3.51-20.406,2.088-25.83,0.133-33.291c-0.784-2.994-1.66-6.337-2.358-11.074
	c-0.57,1.44-1.232,3.275-1.901,5.471c-1.772,5.826-0.531,11.104-0.519,11.156c0.078,0.319-0.118,0.642-0.438,0.719
	c-0.315,0.077-0.641-0.117-0.719-0.438c-0.049-0.2-1.047-4.427,0-9.64c-1.716-1.258-7.254-5.86-10.007-14.67
	c-2.764-8.844-8.922-12.062-10.801-12.86c-0.866,5.105-2.256,11.747-4.173,16.171c-0.557,1.287-1.212,2.384-1.917,3.332
	c-0.361,2.467,0.466,5.406,3.204,8.731c3.07,3.728,4.482,9.092,4.957,11.282C308.263,324.143,308.888,324.744,309.546,325.417
	C309.546,325.417,309.546,325.417,309.546,325.417z M404.388,351.914c-1.269-1.563-2.364-3.37-3.15-5.534l-39.384,30.438
	c-0.109,0.701-0.232,1.433-0.363,2.182l-0.532,12.094C360.959,391.095,401.145,354.857,404.388,351.914z M420.291,332.527
	c0.181-0.018,0.792-0.01,1.105,0.959c0.388,1.2,0.124,3.459-2.188,4.763c-2.204,1.243-3.847,1.978-4.493,2.253
	c-0.279,1.322-1.362,6.412-1.88,8.125l-1.064,7.583l5.092,3.568c0.002,0.001,0.004,0.003,0.006,0.004l30.038,21.047
	c0.539-1.442,1.827-4.917,3.314-9.088c0-0.001,0-0.002,0-0.003c0.001-0.008,0.007-0.013,0.008-0.021
	c1.75-4.912,3.775-10.788,5.187-15.494c2.808-9.359,12.451-46.664,13.696-51.49l-42.091-16.329
	c-1.182,2.388-6.371,13.286-7.626,22.817c-1.242,9.437-3.357,20.078-3.904,22.771c0.875-0.256,1.827-0.565,2.633-0.826
	C419.385,332.758,420.003,332.56,420.291,332.527z M410.553,344.783c1.547-3.469,1.5-6.094,1.5-6.094s1.359-0.469,4.172-1.313
	c1.888-0.567,3.352-1.87,4.112-2.668c0.035-0.445-0.037-0.783-0.109-0.954c-0.36,0.098-1.082,0.332-1.735,0.544
	c-1.782,0.578-4.001,1.298-5.109,1.395c-1.085,0.095-3.794,1.837-5.246,2.912c-0.262,0.195-0.635,0.142-0.833-0.124
	c-0.195-0.265-0.14-0.638,0.124-0.833c0.412-0.305,4.078-2.986,5.852-3.141c0.241-0.021,0.559-0.082,0.926-0.169
	c0.051-0.245,0.262-1.274,0.57-2.846c-2.623,0.827-6.191,2.215-6.859,3.216c-1.026,1.54-5.036,9.359-5.739,10.734
	c0.74,2.252,1.787,4.088,3.102,5.702C406.589,350.003,409.411,347.344,410.553,344.783z M296.037,249.389
	c0.857,3.5,2.89,5.65,3.811,6.477c0.579-0.389,1.201-0.658,1.836-0.802c3.125-0.712,7.095,1.225,9.69,5.573
	c0.185-0.049,0.383-0.056,0.574,0.015l1.677,0.624c1.168-2.246,2.601-4.156,4.702-5.745c-0.858-1.715-3.483-7.752-1.379-13.829
	c2.671-7.719,9.693-7.119,18.599-5.533c5.23,0.932,8.315-0.063,11.038-0.941c2.228-0.718,4.335-1.397,7.153-0.906
	c2.207,0.384,3.931,1.968,5.223,4.274c-0.538-3.059-2.555-8.047-9.521-12.748c-7.319-4.941-22.721-8.268-34.839-5.027
	c-7.43,1.987-12.677,6.024-15.597,12c-1.447,2.961-2.442,5.804-3.103,8.493C295.615,243.859,295.461,247.037,296.037,249.389z
	 M331.569,299.808l-0.169-0.083c-4.546-2.299-9.149-7.009-13.525-12.416c-3.807-6.084-6.181-13.077-6.181-13.077
	s-4.594,1.594-10.125-3.375c-4.407-3.959-2.587-10.872-1.665-13.521c0.561-0.548,1.243-0.93,2.044-1.112
	c2.861-0.655,6.599,1.398,8.884,5.883c0.002,0.002,0.002,0.005,0.003,0.007c0.469,0.921,0.881,1.937,1.207,3.062
	c0.071,0.245,0.291,0.418,0.546,0.429c0.25,0.01,0.489-0.141,0.581-0.379c0.165-0.426,0.331-0.816,0.496-1.208l2.096,1.352
	c0.136,0.087,0.29,0.139,0.451,0.151l3.251,0.236c-0.028,0.29-0.051,0.59-0.065,0.901c-0.24,5.028-0.037,9.219,4.905,9.566
	c0.964,0.068,1.893,0.102,2.791,0.102c3.771,0,7.007-0.603,10.021-1.85c4.615-1.91,5.18-5.785,5.725-9.533l0.052-0.349
	c0.042-0.287,0.07-0.57,0.084-0.849c0.288-0.138,0.656-0.283,0.973-0.315c0.13-0.014,0.254-0.022,0.369-0.026
	c-0.001,0.061-0.001,0.122-0.001,0.183c0.006,1.145,0.123,2.183,0.321,3.139c-0.194,2.664-0.131,7.336,1.742,12.595
	c0.452,1.271,0.42,2.349-0.098,3.205c-1.042,1.727-3.722,2.127-3.748,2.131c-0.325,0.046-0.552,0.347-0.506,0.672
	c0.042,0.297,0.296,0.512,0.588,0.512c0.027,0,0.056-0.002,0.083-0.006c0.133-0.018,3.259-0.478,4.599-2.688
	c0.715-1.178,0.782-2.599,0.203-4.225c-1.227-3.446-1.646-6.626-1.73-9.112c0.939,1.567,2.316,2.608,4.087,3.047
	c3.042,0.755,5.497,0.327,8.089-0.379c-2.209,8.069-5.1,14.675-6.464,17.068C345.477,300.092,338.963,303.447,331.569,299.808z
	 M336.292,291.104c2.725,0,5.27-0.486,7.008-1.224c0.303-0.128,0.444-0.478,0.315-0.78c-0.128-0.303-0.477-0.442-0.78-0.315
	c-2.833,1.203-7.976,1.684-12.318,0.277c-0.317-0.101-0.648,0.07-0.75,0.383c-0.102,0.313,0.07,0.648,0.383,0.75
	C332.125,290.833,334.259,291.104,336.292,291.104z M349.593,255.819c0.13-0.038,0.259-0.089,0.388-0.117
	c3.009-0.653,6.492-1.069,8.849-1.302C355.522,253.744,352.329,254.235,349.593,255.819z M381.577,415.417
	c0.924,0.233,1.928,0.486,2.97,0.75l1.674-2.58l-2.992-0.694L381.577,415.417z M360.811,252.426c-5.05-1.453-9.99-0.643-13.942,2.32
	c-0.53,0.397-0.638,1.15-0.24,1.68c0.207,0.276,0.511,0.43,0.829,0.465c-1.344,1.014-2.454,2.581-2.913,4.588
	c-0.232,0-0.5,0.011-0.792,0.041c-0.318,0.033-0.635,0.114-0.926,0.214c-0.22-1.021-0.659-1.933-1.304-2.68
	c-1.033-1.196-2.481-1.855-4.078-1.855c-5.271,0-11.993,1.129-12.699,1.25c-1.521,0.113-3.896,1.366-4.898,5.139l-5.085-1.891
	c1.304-2.462,2.744-4.14,4.675-5.504c0.25-0.177,0.325-0.514,0.174-0.78c-0.038-0.067-3.792-6.811-1.537-13.323
	c2.171-6.268,7.298-6.524,17.265-4.751c5.523,0.983,8.758-0.06,11.612-0.979c2.175-0.701,4.053-1.306,6.585-0.866
	C358.232,236.311,360.609,244.151,360.811,252.426z M339.31,254.908c-4.627-2.176-14.818-0.716-18.802,2.697
	c-0.503,0.431-0.562,1.189-0.13,1.692c0.237,0.277,0.573,0.419,0.912,0.419c0.276,0,0.554-0.095,0.78-0.289
	c3.23-2.769,12.477-4.11,16.218-2.347c0.6,0.282,1.313,0.024,1.597-0.575C340.167,255.905,339.909,255.19,339.31,254.908z
	 M289.706,309.03c-1.592-2.08-3.493-4.236-5.663-4.773c-0.259,1.172-0.463,2.235-0.661,3.269c-0.576,3.007-1.077,5.617-2.628,9.174
	l23.241,21.718l4.459-12.407c-3.123-3.153-5.653-4.974-8.098-6.726C296.96,316.848,293.751,314.548,289.706,309.03z
	 M373.138,413.048c0.927,0.401,1.894,0.873,2.859,1.368c0.003-0.004,0.005-0.008,0.007-0.011l1.819-2.767l-3.303-0.768
	L373.138,413.048z M379.667,416.163c-0.22-0.055-0.417-0.105-0.62-0.156c0.184,0.096,0.362,0.187,0.54,0.278L379.667,416.163z
	 M366.893,422.642l-0.899,1.592c0.127,0.062,0.23,0.124,0.284,0.184c0.177,0.199,0.747,0.628,1.35,1.081
	c0.224,0.169,0.475,0.359,0.724,0.549l1.795-2.731C369.133,422.726,368.065,422.375,366.893,422.642z M383.082,418.425l0.781-1.203
	c-1.052-0.266-2.058-0.52-2.974-0.75l-0.228,0.349c0.325,0.156,0.637,0.301,0.92,0.422
	C382.391,417.587,382.839,418.011,383.082,418.425z M251.129,440.36c11.168-1.832,48.718-5.126,53.875-5.574
	c-0.282-2.194-0.518-4.875-0.452-7.431c0.108-4.271,0.959-7.518,1.396-8.922c-5.343-0.348-11.021-0.914-16.521-1.462
	c-12.588-1.254-24.477-2.44-31.867-1.107c-0.328,0.055-0.634-0.157-0.691-0.48c-0.058-0.323,0.157-0.633,0.48-0.691
	c0.091-0.016,0.191-0.028,0.284-0.044c0.884-3.125,4.922-17.475,8.077-29.928c2.878-11.36,1.369-23.877,0.683-28.27
	c-2.87-4.825-4.433-7.392-4.455-7.428c-0.171-0.28-0.082-0.646,0.198-0.818c0.283-0.17,0.647-0.082,0.818,0.199
	c0.023,0.038,1.782,2.926,4.995,8.336c3.797,4.037,12.155,13.269,12.01,16.169c-0.187,3.75-5.438,31.688,3.75,36.75
	c9.188,5.062,23.063,3.563,35.25-5.438c12.188-9,20.063-5.625,28.125-9.375c5.878-2.734,10.904-11.358,13.198-15.834
	c0.783-4.394,1.223-7.98,0.885-9.248c-1.129-4.231-11.967-29.064-12.076-29.314c-0.131-0.302,0.006-0.652,0.308-0.784
	c0.298-0.128,0.653,0.006,0.784,0.308c0.208,0.478,2.6,5.956,5.214,12.115c0.211-7.381,0.639-27.549-0.847-32.006
	c-1.683-5.046-13.814-16.211-15.545-17.786c-1.388,0.225-2.806,0.199-4.26-0.106l12.409,28.197c0.105,0.241,0.041,0.522-0.158,0.692
	c-0.199,0.171-0.487,0.19-0.709,0.049l-10.99-7.067c0.559,5.389,0.222,12.594-2.107,25.849c-0.036,0.209-0.182,0.383-0.381,0.456
	c-0.066,0.024-0.136,0.037-0.205,0.037c-0.137,0-0.271-0.048-0.38-0.138c-2.28-1.89-4.346-3.723-6.531-5.664
	c-3.757-3.335-7.642-6.783-13.118-10.961c-0.672-0.513-1.313-1.932-2.291-4.207c-0.329-0.767-0.683-1.589-0.995-2.218l-4.477,12.457
	c-0.068,0.188-0.226,0.33-0.421,0.378c-0.046,0.011-0.093,0.017-0.14,0.017c-0.149,0-0.295-0.057-0.406-0.161l-23.938-22.371
	c-2.898,1.124-23.601,9.329-32.83,17.899c-9.802,9.101-15.426,89.905-15.482,90.721c-0.007,0.084-0.438,6.093,1.705,11.562
	C235.411,438.981,241.568,441.929,251.129,440.36z M365.365,422.925c-0.879,0.144-1.966,0.303-3.044,0.454
	c1.046,0.166,1.877,0.326,2.516,0.482L365.365,422.925z M378.542,421.886c-0.327-0.086-0.663-0.185-1.002-0.292l-0.172,0.263
	c0.034,0.023,0.066,0.046,0.101,0.07c1.274,0.871,1.591,1.703,1.598,2.315l0.205,0.057l1.556-2.399
	C380.133,422.076,379.349,422.097,378.542,421.886z M269.505,306.952c8.344-6.094,25.312-15.095,21-36.282
	c-4.312-21.188-0.937-27.656,1.126-30.188c1.386-1.701,3.135-2.67,4.135-3.125c-1.375-0.49-5.123-1.509-8.712,0.342
	c-3.773,1.946-6.328,6.435-7.592,13.342c-1.268,6.925-1.404,13.562-1.536,19.98c-0.254,12.405-0.475,23.119-9.036,30.513
	c-9.457,8.168-7.725,17.332-6.448,21.079C262.439,319.159,263.207,311.552,269.505,306.952z M355.4,412.405
	c0.28-0.024,7.152-0.397,11.413-0.473c-1.354-1.223-3.817-3.11-5.863-2.777c-3.081,0.503-30.292,7.28-33.488,8.077
	c-1.289,3.802-2.055,8.412-1.962,12.766c2.918,0.092,15.558,0.357,21.137-1.709c3.583-1.327,7.422-1.254,10.081-0.942
	c0.289-0.049,0.555-0.081,0.772-0.075l5.269,0.199c0.132,0.005,0.259,0.054,0.36,0.139c0.038,0.032,3.808,3.185,5.884,3.799
	c1.033,0.308,1.86,0.059,2.11-0.33c0.211-0.33,0.051-0.84-0.44-1.399c-1.038-1.182-2.611-2.365-3.761-3.229
	c-0.735-0.554-1.267-0.953-1.523-1.242c-0.447-0.262-3.899-0.789-7.617-1.233c-0.042-0.001-0.082-0.006-0.121-0.015
	c-0.791-0.094-1.592-0.185-2.378-0.268c-0.327-0.034-0.564-0.327-0.529-0.654c0.034-0.328,0.334-0.576,0.654-0.529
	c0.853,0.09,1.657,0.179,2.411,0.267c0.883-0.111,7.238-0.92,8.765-1.286c2.558-0.612,4.651,1.014,6.335,2.32
	c0.979,0.76,1.903,1.479,2.696,1.611c1.141,0.056,2.073-0.452,2.246-0.962c0.145-0.428-0.239-0.992-1.054-1.549
	c-1.292-0.882-2.446-1.72-3.431-2.436c-0.729-0.528-1.359-0.986-1.878-1.341c-0.009-0.006-0.017-0.012-0.025-0.018
	c-0.284-0.193-0.535-0.355-0.748-0.479c-2.394-1.393-12.309-0.938-15.685-0.385c-0.318,0.056-0.63-0.165-0.684-0.49
	c-0.054-0.324,0.166-0.631,0.49-0.684c2.485-0.41,13.476-1.217,16.477,0.529c0.232,0.136,0.498,0.307,0.796,0.509
	c0.409,0.196,3.989,1.896,6.736,2.617c1.587,0.42,3.018-0.413,3.268-1.146c0.215-0.627-0.533-1.053-0.999-1.25
	c-1.049-0.446-2.367-1.141-3.764-1.876c-2.888-1.521-6.16-3.244-8.059-3.331c-0.28-0.013-0.619-0.022-1.028-0.021
	c-0.047,0-0.105-0.001-0.159-0.001c-3.908,0-12.293,0.456-12.602,0.481c-0.326,0.03-0.616-0.214-0.644-0.542
	C354.83,412.721,355.073,412.433,355.4,412.405z M372.17,429.806c0.427,0.935,0.133,1.619-0.055,1.913
	c-0.146,0.229-0.34,0.42-0.57,0.574l2.141,0.613l2.189-3.374c-1.054-0.294-2.063-0.574-2.984-0.83L372.17,429.806z M383.564,444.722
	l-28.433-8.945l0.209,0.648l33.093,12.33l9.911-6.652l-0.888-1.896l-13.506,4.514C383.828,444.762,383.693,444.766,383.564,444.722z
	 M345.267,329.056l-11.998-27.266c-0.618-0.202-1.243-0.451-1.874-0.746c-0.131,0.269-0.308,0.643-0.521,1.117
	c0.723,5.758,1.721,9.568,2.604,12.934c0.653,2.497,1.249,4.77,1.629,7.428L345.267,329.056z M411.754,414.511l-6.711,2.241
	l-15.473,22.924l6.717-2.098L411.754,414.511z M324.439,274.309c-2.759-0.194-3.4-1.748-3.122-7.559
	c0.233-4.907,2.454-6.324,3.596-6.387c0.037-0.002,0.074-0.006,0.11-0.013c0.071-0.012,7.138-1.231,12.422-1.231
	c1.029,0,1.962,0.423,2.625,1.19c0.833,0.965,1.161,2.388,0.923,4.007l-0.051,0.351c-0.532,3.655-0.952,6.543-4.56,8.036
	C332.936,274.129,329.14,274.639,324.439,274.309z M334.275,270.477c0.935,0,1.794-1.242,1.918-2.774c0,0,0,0,0,0
	c0.124-1.532-0.534-2.774-1.469-2.774c-0.935,0-1.794,1.242-1.918,2.774C332.682,269.234,333.34,270.476,334.275,270.477z
	 M403.449,415.764l12.337-4.196l-18.396,27.407l-12.173,4.067L403.449,415.764z M404.17,415.918l-16.536,24.499
	c-0.142,0.21-0.136,0.485,0.016,0.688c0.114,0.153,0.293,0.24,0.478,0.24c0.06,0,0.119-0.009,0.178-0.027l8.538-2.666
	c0.129-0.041,0.241-0.124,0.316-0.237l16.555-24.69c0.143-0.211,0.134-0.489-0.021-0.692c-0.154-0.202-0.421-0.284-0.662-0.203
	l-8.557,2.857C404.351,415.728,404.243,415.81,404.17,415.918z M527.453,331.789l-9.943,30.226c-0.036,0.11-0.104,0.208-0.195,0.28
	l-64.308,51.136c-0.033,0.026-0.068,0.049-0.105,0.067c-0.001,0-0.001,0-0.002,0.001c-0.079,0.039-0.169,0.061-0.261,0.061
	c-0.022,0-0.045-0.002-0.068-0.004h-0.001c0.001,0.003-0.016-0.002-0.024-0.004l-52.74-7.938c-0.234-0.035-0.425-0.206-0.486-0.436
	c-0.062-0.229,0.02-0.472,0.205-0.619l37.087-29.491l-20.076-14.067l-76.944,51.999c8.814-2.17,19.272-4.711,21.168-5.021
	c3.225-0.521,6.899,3.048,7.762,3.942c0.096,0.001,0.181,0.003,0.269,0.004l2.798-4.198c0.137-0.206,0.388-0.302,0.63-0.25
	l30.818,7.168l14.028-4.771c0.01-0.004,0.02-0.007,0.029-0.01c0.081-0.024,0.163-0.029,0.242-0.02s0.156,0.035,0.229,0.078
	c0.06,0.035,0.113,0.08,0.157,0.135l0.001,0.001c0.045,0.055,0.079,0.117,0.102,0.183l0.719,2.012
	c0.062,0.173,0.04,0.364-0.058,0.519l-18.949,29.901c-0.005,0.008-0.01,0.017-0.016,0.024c-0.046,0.065-0.104,0.12-0.167,0.16
	l-10.51,7.055c-0.1,0.066-0.216,0.102-0.332,0.102c-0.07,0-0.141-0.013-0.208-0.038l-33.649-12.537
	c-0.171-0.063-0.303-0.202-0.358-0.375l-0.648-2.014c-0.004-0.013-0.008-0.025-0.011-0.039c0,0,0,0-0.001-0.001
	c-0.008-0.031-0.013-0.063-0.016-0.094c0-0.001,0-0.001,0-0.001c-0.002-0.018-0.003-0.035-0.003-0.054
	c0-0.101,0.025-0.201,0.079-0.294c0.007-0.014,0.016-0.026,0.024-0.04l4.038-6.055l-0.314-0.012c-0.017,0-0.034-0.001-0.053-0.001
	c-1.098,0-4.103,1.163-7.01,2.289c-2.141,0.829-4.354,1.686-6.357,2.322c-2.563,0.814-7.094,1.162-11.023,1.307
	c-0.328,2.626-2.838,5.965-5.237,6.802c-0.082,0.028-0.162,0.035-0.245,0.031l-21.108-1.242c-2.968,0.683-6.232,1.352-9.677,1.994
	l-56.65,38.284h297.441V331.866L527.453,331.789z M358.512,270.326c-2.939,0.854-5.197,1.41-8.191,0.668
	c-3.349-0.83-4.068-4.491-4.083-7.417c-0.002-0.319,0.016-0.629,0.051-0.927c0.005-0.028,0.009-0.056,0.011-0.084
	c0.359-2.774,2.231-4.585,4.089-4.988c3.759-0.816,8.413-1.261,10.367-1.424C360.502,260.947,359.637,265.817,358.512,270.326z
	 M352.497,262.587c-0.935,0-1.794,1.242-1.917,2.774c-0.124,1.532,0.534,2.774,1.469,2.774c0.935,0,1.794-1.242,1.918-2.774
	c0,0,0,0,0,0C354.09,263.829,353.432,262.587,352.497,262.587z M320.508,417.855c-3.999,0.424-8.514,0.904-13.332,0.653
	c-0.364,1.122-1.321,4.461-1.435,8.878c-0.065,2.52,0.181,5.211,0.467,7.395l18.876,1.444c-1.539-5.9-0.726-13.266,1.076-18.866
	C324.443,417.437,322.523,417.641,320.508,417.855z M383.379,420.154c1.107,0.308,2.111,0.587,3.021,0.84l1.752-2.687
	c-1.021-0.259-2.058-0.521-3.07-0.777L383.379,420.154z M417.324,412.381l-0.226-0.633l-18.646,27.779l0.709,1.513L417.324,412.381z
	 M377.757,428.82c0.995,0.278,2.006,0.561,2.995,0.839l2.05-3.145l-3.007-0.835L377.757,428.82z M367.776,436.526l2.979,0.897
	l2.253-3.473l-2.988-0.856L367.776,436.526z M359.757,434.111l2.748,0.828l2.212-3.364l-2.833-0.812L359.757,434.111z
	 M374.884,433.249l2.973,0.853l2.214-3.396c-0.992-0.278-2.003-0.562-2.992-0.838L374.884,433.249z M371.943,437.781l2.938,0.885
	l2.295-3.521l-2.971-0.851L371.943,437.781z M370.141,412.045c0.573,0.109,1.205,0.303,1.873,0.551l1.728-2.72
	c0.137-0.214,0.394-0.313,0.638-0.261l17.264,4.009c0.017,0.003,0.032,0.007,0.048,0.011l8.698,2.02
	c0.19,0.045,0.348,0.18,0.419,0.362c0.072,0.183,0.05,0.389-0.061,0.551l-2.612,3.869c-0.01,0.017-0.021,0.033-0.032,0.049
	l-2.636,3.903c-0.001,0.002-0.003,0.004-0.004,0.007c-0.001,0.002-0.003,0.003-0.004,0.005l-2.952,4.374
	c-0.006,0.008-0.011,0.016-0.017,0.024l-2.856,4.23c-0.007,0.011-0.015,0.021-0.021,0.032l-2.949,4.367
	c-0.002,0.004-0.005,0.008-0.008,0.013l-3.129,4.634c-0.112,0.167-0.299,0.263-0.493,0.263c-0.058,0-0.115-0.009-0.172-0.025
	l-7.883-2.374c-0.01-0.003-0.019-0.005-0.028-0.009l-8.257-2.486c-0.016-0.004-0.03-0.008-0.045-0.013l-7.988-2.405
	c-0.178-0.054-0.321-0.188-0.386-0.362c-0.065-0.175-0.045-0.37,0.055-0.527l2.772-4.363c0.009-0.016,0.019-0.031,0.029-0.047
	l0.698-1.099l-2.676-0.101l-4.005,6.008l28.36,8.923l18.584-27.807l-29.743-6.918L370.141,412.045z M383.483,425.469l2.234-3.428
	c-1.04-0.29-2.067-0.575-3.019-0.839l-2.226,3.431L383.483,425.469z"></path>
<path id="color_x5F_3" fill="#2c2a80" d="M426.614,387.901l12.875-10.817l7.365,5.16c0.102,0.071,0.221,0.108,0.342,0.108
	c0.059,0,0.118-0.009,0.176-0.027c0.176-0.054,0.316-0.187,0.381-0.358c0.03-0.078,1.563-4.148,3.452-9.438l7.764,1.467
	l-18.674,16.49L426.614,387.901z M483.972,336.705l-12.136,30.154c0,0.001,0,0.002-0.001,0.004l-16.799,41.74
	c0,0.001-0.002,0.002-0.002,0.003l-1.003,2.492l62.403-49.623l19.784-60.142L483.972,336.705z M428.241,404.577
	c-0.064-0.221,0.004-0.46,0.176-0.613l42.365-37.677l4.1-10.187l-10.515-1.583l-9.574,7.613c-1.023,3.101-2.143,6.33-3.185,9.265
	l8.776,1.658c0.224,0.042,0.403,0.208,0.464,0.427c0.06,0.22-0.01,0.454-0.181,0.604l-19.803,17.488
	c-0.11,0.097-0.251,0.149-0.395,0.149c-0.037,0-0.074-0.004-0.11-0.011l-15.2-2.873c-0.227-0.043-0.407-0.212-0.466-0.435
	c-0.058-0.222,0.018-0.458,0.193-0.606l13.592-11.419l-0.853-0.598l-36.293,28.86l50.927,7.665l1.389-3.452l-24.928-3.856
	C428.494,404.962,428.307,404.799,428.241,404.577z"></path>
<path id="color_x5F_4" fill="#00cec9" d="M99.102,482.649h364.249C367.369,565.803,212.833,571.259,99.102,482.649z
	 M145.628,444.488c-2.473-0.449-9.179-0.269-18.751,10.809c-4.479,5.183-10.74,9.087-17.578,11.167
	c1.279-4.652,3.427-10.212,6.838-13.29c6.595-5.951,14.679-4.459,10.469-10.824c-4.21-6.366-18.985,1.69-20.522,11.586
	c-0.964,6.203-1.185,10.934-1.216,13.602c-5.649,1.027-11.505,0.8-16.947-0.966c0.151-5.496,1.618-12.909,6.589-17.427
	c7.844-7.128,17.017-13.94,9.349-13.062c-7.668,0.878-20.362,10.426-21.387,23.24c-0.155,1.933-0.57,3.281-1.164,4.174
	c-0.454-0.284-0.896-0.593-1.338-0.904c5.134,7.041,10.56,13.019,16.109,17.654h64.592
	C159.955,475.211,156.865,458.895,145.628,444.488z M359.854,269.931c2.882-0.89,3.551-3.246,4.008-8.47
	c0.001-0.012,0.002-0.024,0.003-0.036c0.04-0.466,0.06-0.892,0.062-1.279l-2.226-0.806
	C361.33,262.938,360.67,266.525,359.854,269.931z M538.716,366.318v-35.042c0-0.327-0.264-0.593-0.591-0.596l-10.281-0.08
	l10.051-30.553c0.08-0.241-0.004-0.507-0.207-0.66c-0.202-0.154-0.479-0.162-0.692-0.019l-45.747,30.973
	c-0.035-0.007-0.066-0.021-0.103-0.022l-27.412-0.211c3.396-12.908,6.607-25.361,6.666-25.59c0.075-0.292-0.079-0.595-0.361-0.703
	l-43.089-16.717c-0.28-0.109-0.604,0.011-0.743,0.282c-0.065,0.126-6.55,12.756-7.988,23.686c-0.912,6.933-2.298,14.52-3.182,19.103
	c-1.54,0.463-6.982,2.194-8.107,3.881c-1.107,1.662-5.323,9.901-5.863,10.959l-38.962,30.114c0.354-2.626,0.477-4.686,0.215-5.667
	c-0.541-2.027-3.149-8.424-5.813-14.746c0.088-2.434,1.014-29.486-0.826-35.006c-1.655-4.966-12.179-14.897-15.258-17.729
	c4.313-1.284,8.319-5.207,12.099-11.839c1.653-2.9,4.611-9.794,6.79-18.042c0.123-0.036,0.244-0.07,0.368-0.107l0.607-0.177
	c4.207-1.223,4.997-4.904,5.439-9.635l2.067-0.911c0.359-0.158,0.586-0.519,0.572-0.911c-0.013-0.392-0.264-0.737-0.632-0.87
	l-1.95-0.707c-0.173-1.674-0.697-2.927-1.57-3.741c-0.618-0.574-1.395-0.87-2.198-0.88c0.051-4.408-0.495-8.932-1.736-12.555
	c0.179-1.27,0.822-9.321-10.172-16.741c-7.703-5.199-23.204-8.561-35.813-5.19c-7.668,2.05-13.324,6.417-16.359,12.628
	c-0.656,1.342-1.223,2.662-1.709,3.955c-1.512-0.559-5.632-1.711-9.704,0.382c-4.126,2.121-6.895,6.896-8.231,14.192
	c-1.286,7.02-1.423,13.705-1.555,20.17c-0.249,12.121-0.464,22.589-8.625,29.637c-11.383,9.83-7.406,21.12-6.268,23.724
	c-5.744,2.982-11.627,6.531-15.58,10.202c-3.187,2.96-5.914,12.764-8.163,24.921c-4.338,1.711-30.802,12.33-31.677,17
	c-0.364,1.94,0.741,3.732,2.747,6.985c3.222,5.224,9.218,14.948,15.715,36.243c9.369,30.71,12.161,56.225,12.584,60.539h-71.905
	c-0.059-3.147,0.136-11.062,2.928-20.417c1.332-1.171,5.202-3.516,13.826-1.924c4.102,0.757,8.831,0.233,13.342-1.372
	c-2.124-1.717-5.014-3.536-7.877-3.701c-5.535-0.319-9.679,3.45-9.2-1.158c0.48-4.608,11.294-6.391,15.14-2.289
	c2.411,2.571,3.958,4.727,4.776,5.978c3.518-1.653,6.777-3.979,9.338-6.876c-1.737-2.544-4.797-5.498-8.978-5.753
	c-6.598-0.403-13.856-0.153-9.235-2.642c4.62-2.488,14.701-2.777,19.132,2.9c0.668,0.856,1.31,1.337,1.915,1.535
	c0.895-1.587,1.592-3.291,2.046-5.102c0.431-1.719,0.837-3.247,1.226-4.611c-2.903-1.458-8.399-2.979-13.317-2.592
	c-6.892,0.541-2.378-7.437,6.419-5.977c3.721,0.618,6.589,1.859,8.846,2.692c1.631-4.042,3.058-5.212,4.866-6.05
	c2.193-1.017-4.769-10.75-18.748-13.434c1.062,5.027-3.363,10.509-7.753,10.662c-4.71,0.165-1.441-9.256,0.979-10.724
	c0.348-0.211,0.642-0.409,0.891-0.594c-2.722-0.096-5.642,0.077-8.753,0.604c-3.243,0.55-6.234,1.389-8.967,2.458
	c3.136,1.547,7.285,4.078,8.74,7.168c2.452,5.21-5.615,9.874-8.984,4.281c-2.116-3.514-3.682-7.054-4.555-9.201
	c-3.756,2.077-6.875,4.623-9.326,7.418c1.564,2.739,4.589,7.036,8.524,7.844c5.864,1.205,2.266,9.912-3.452,9.102
	c-5.256-0.745-7.067-10.987-7.723-13.437c-3.137,4.867-4.444,10.159-3.807,14.885c3.532,0.695,7.924,1.168,9.292,3.283
	c2.065,3.194-3.494,5.559-6.7,3.953c3.507,7.215,5.875,10.954,6.906,12.457c-2.789,9.417-3.004,17.391-2.948,20.635h-2.504
	c-0.689-4.942-3.76-21.544-15.143-36.272c0.113-2.423,0.283-10.446-1.201-26.316c-2.705,5.556-11.436,7.548-11.389,0.762
	c0.031-4.493,5.092-9.543,8.915-14.07c-2.922-7.646-8.692-14.208-16.392-18.329c1.112,4.287,6.91,21.283,0.994,27.592
	c-6.436,6.863-17.721-2.503-11.413-10.095c4.233-5.095,4.602-14.468,4.386-20.082c-5.226-1.723-11.081-2.417-17.357-1.782
	c0.607,4.051,1.448,10.857,1.589,18.168c0.224,11.637-13.415,12.697-14.471,2.536c-0.627-6.026,2.519-13.89,5.184-19.291
	c-4.219,1.119-8.576,2.831-13.019,5.226c-4.262,2.296-8.009,4.93-11.3,7.766c0.452,0.028,0.971,0.031,1.567,0
	c4.146-0.215,15.583,10.535,9.628,14.953c-5.55,4.117-15.324,0.358-17.957-8.156c-3.574,4.195-6.352,8.584-8.478,12.836
	c-26.925-76.122-19.224-185.19,97.755-205.017c83.326-14.123,46.991-121.308,167.293-155.116
	c120.302-33.808,224.183,49.906,230.67,203.403C553.405,298.566,548.635,334.419,538.716,366.318z M224.395,334.568
	c0-0.329-0.267-0.596-0.595-0.596h-95.286v-82.801c0-0.329-0.267-0.595-0.595-0.595s-0.595,0.267-0.595,0.595v83.396
	c0,0.329,0.267,0.596,0.595,0.596h95.881C224.128,335.163,224.395,334.897,224.395,334.568z M227.482,258.35
	c-0.235-0.229-0.612-0.225-0.842,0.011l-40.645,41.732l-11.949-21.338c-0.113-0.2-0.337-0.322-0.56-0.303
	c-0.229,0.015-0.429,0.162-0.514,0.375l-14.759,37.433l-7.972-13.285c-0.114-0.19-0.322-0.297-0.55-0.287
	c-0.223,0.015-0.419,0.153-0.507,0.359l-10.198,23.757l-5.659-0.103c-0.003-0.001-0.007-0.001-0.011-0.001
	c-0.324,0-0.589,0.26-0.595,0.585c-0.006,0.329,0.256,0.6,0.584,0.605l6.059,0.11c0.003,0.001,0.007,0.001,0.011,0.001
	c0.238,0,0.453-0.142,0.547-0.361l9.897-23.056l7.995,13.323c0.116,0.193,0.333,0.302,0.559,0.287
	c0.226-0.02,0.422-0.164,0.505-0.375l14.742-37.39l11.725,20.938c0.092,0.164,0.256,0.274,0.442,0.299
	c0.186,0.027,0.373-0.04,0.504-0.175l41.201-42.303C227.722,258.956,227.717,258.579,227.482,258.35z M504.846,259.578
	c0-0.329-0.267-0.595-0.596-0.595h-17.364v-64.728h-12.481v64.728h-4.831v-57.078h-12.481v57.078h-4.831v-52.851H439.78v52.851
	h-4.831V218.21h-12.481v40.772h-4.831v-33.123h-12.481v33.123h-8.218v-93.264c0-0.329-0.267-0.595-0.596-0.595
	s-0.596,0.267-0.596,0.595v93.859c0,0.329,0.267,0.595,0.596,0.595H504.25C504.579,260.173,504.846,259.906,504.846,259.578z
	 M413.415,358.832l-11.055,10.312l13.132-8.874l-2.069-1.45C413.419,358.824,413.419,358.829,413.415,358.832z M362.902,256.439
	c-0.347-0.324-0.699-0.385-0.948-0.38c-0.023,0.45-0.05,0.901-0.083,1.353c0.084,0.007,0.169,0.008,0.252,0.038l1.589,0.576
	C363.496,257.144,363.159,256.678,362.902,256.439z M71.442,432.768c-2.108,2.355-3.807,4.728-5.254,6.952
	c1.651,3.295,3.366,6.476,5.135,9.533c2.881-4.732,7.556-10.473,12.749-13.965C93.021,429.271,81.176,421.894,71.442,432.768z"></path>
<path id="color_x5F_5" fill="#2c2a80" d="M157.815,317.909l-7.995-13.323l-9.897,23.056c-0.094,0.22-0.309,0.361-0.547,0.361
	c-0.003,0-0.007,0-0.011-0.001l-6.059-0.11c-0.329-0.006-0.59-0.276-0.584-0.605c0.006-0.325,0.271-0.585,0.595-0.585
	c0.003,0,0.007,0,0.011,0.001l5.659,0.103l10.198-23.757c0.088-0.206,0.284-0.345,0.507-0.359c0.228-0.01,0.436,0.097,0.55,0.287
	l7.972,13.285l14.759-37.433c0.084-0.214,0.284-0.36,0.514-0.375c0.222-0.02,0.447,0.103,0.56,0.303l11.949,21.338l40.645-41.732
	c0.229-0.235,0.607-0.24,0.842-0.011c0.235,0.229,0.24,0.606,0.011,0.842l-41.201,42.303c-0.131,0.135-0.318,0.202-0.504,0.175
	c-0.186-0.024-0.35-0.135-0.442-0.299l-11.725-20.938l-14.742,37.39c-0.083,0.211-0.279,0.355-0.505,0.375
	C158.147,318.211,157.931,318.103,157.815,317.909z M246.939,447.785c-4.761,0.167-8.595-1.267-11.399-4.207
	c-5.952-6.242-5.171-17.056-5.135-17.513c0.154-2.252,2.697-38.759,7.444-65.206c-11.812,4.693-29.687,12.803-30.256,15.84
	c-0.279,1.488,0.68,3.044,2.59,6.142c3.25,5.27,9.298,15.079,15.84,36.521c9.182,30.096,12.07,55.23,12.597,60.438l26.847-18.143
	l-0.532-15.159C258.381,447.166,252.183,447.621,246.939,447.785z M405.155,258.983h12.481v-33.123h-12.481V258.983z
	 M422.467,258.983h12.481V218.21h-12.481V258.983z M439.78,258.983h12.481v-52.851H439.78V258.983z M457.092,258.983h12.481v-57.078
	h-12.481V258.983z M474.405,194.254v64.728h12.481v-64.728H474.405z M134.138,418.422c0.031-4.493,5.092-9.543,8.915-14.07
	c-2.922-7.646-8.692-14.208-16.392-18.329c1.112,4.287,6.91,21.283,0.994,27.592c-6.436,6.863-17.721-2.503-11.413-10.095
	c4.233-5.095,4.602-14.468,4.386-20.082c-5.226-1.723-11.081-2.417-17.357-1.782c0.607,4.051,1.448,10.857,1.589,18.168
	c0.224,11.637-13.415,12.697-14.471,2.536c-0.627-6.026,2.519-13.89,5.184-19.291c-4.219,1.119-8.576,2.831-13.019,5.226
	c-4.262,2.296-8.009,4.93-11.3,7.766c0.452,0.028,0.971,0.031,1.567,0c4.146-0.215,15.583,10.535,9.628,14.953
	c-5.55,4.117-15.324,0.358-17.957-8.156c-3.574,4.195-6.352,8.584-8.478,12.836c-6.905,13.811-6.849,26.169-4.165,25.664
	c2.893-0.545,5.576-0.221,10.767,4.165c1.043-1.695,2.194-3.68,3.574-5.8c1.447-2.224,3.146-4.597,5.254-6.952
	c9.733-10.874,21.579-3.497,12.63,2.52c-5.193,3.492-9.868,9.233-12.749,13.965c-0.662,1.088-1.23,2.123-1.688,3.064
	c1.551,1.64,3.254,3.506,5.135,5.631c1.601,1.808,3.349,3.343,5.198,4.645c0.442,0.311,0.884,0.621,1.338,0.904
	c0.594-0.892,1.009-2.241,1.164-4.174c1.025-12.814,13.719-22.362,21.387-23.24c7.668-0.878-1.505,5.934-9.349,13.062
	c-4.971,4.518-6.438,11.931-6.589,17.427c5.442,1.766,11.298,1.993,16.947,0.966c0.031-2.667,0.252-7.398,1.216-13.602
	c1.537-9.896,16.313-17.952,20.522-11.586c4.21,6.366-3.874,4.873-10.469,10.824c-3.411,3.078-5.559,8.638-6.838,13.29
	c6.839-2.08,13.1-5.984,17.578-11.167c9.572-11.078,16.278-11.259,18.751-10.809c-6.174-7.916-14.806-15.255-26.86-19.829
	c-35.408-13.438-63.524,9.373-63.804,9.604c-0.252,0.213-0.628,0.175-0.838-0.078c-0.209-0.253-0.174-0.628,0.079-0.838
	c0.285-0.236,28.933-23.485,64.987-9.802c12.397,4.705,21.238,12.28,27.537,20.43c0.113-2.423,0.283-10.446-1.201-26.316
	C142.822,423.216,134.091,425.208,134.138,418.422z M202.01,409.454c1.062,5.027-3.363,10.509-7.753,10.662
	c-4.71,0.165-1.441-9.256,0.979-10.724c0.348-0.211,0.642-0.409,0.891-0.594c-2.722-0.096-5.642,0.077-8.753,0.604
	c-3.243,0.55-6.234,1.389-8.967,2.458c3.136,1.547,7.285,4.078,8.74,7.168c2.452,5.21-5.615,9.874-8.984,4.281
	c-2.116-3.514-3.682-7.054-4.555-9.201c-3.756,2.077-6.875,4.623-9.326,7.418c1.564,2.739,4.589,7.036,8.524,7.844
	c5.864,1.205,2.266,9.912-3.452,9.102c-5.256-0.745-7.067-10.987-7.723-13.437c-3.137,4.867-4.444,10.159-3.807,14.885
	c3.532,0.695,7.924,1.168,9.292,3.283c2.065,3.194-3.494,5.559-6.7,3.953c3.507,7.215,5.875,10.954,6.906,12.457
	c1.954-6.596,5.167-13.894,10.445-20.765c15.099-19.655,33.042-20.202,33.222-20.205c0.004-0.001,0.007-0.001,0.011-0.001
	c0.324,0,0.589,0.26,0.595,0.585c0.006,0.328-0.255,0.6-0.583,0.605c-0.174,0.004-17.568,0.564-32.299,19.74
	c-5.149,6.704-8.299,13.819-10.22,20.258c1.332-1.171,5.202-3.516,13.826-1.924c4.102,0.757,8.831,0.233,13.342-1.372
	c-2.124-1.717-5.014-3.536-7.877-3.701c-5.535-0.319-9.679,3.45-9.2-1.158c0.48-4.608,11.294-6.391,15.14-2.289
	c2.411,2.571,3.958,4.727,4.776,5.978c3.518-1.653,6.777-3.979,9.338-6.876c-1.737-2.544-4.797-5.498-8.978-5.753
	c-6.598-0.403-13.856-0.153-9.235-2.642c4.62-2.488,14.701-2.777,19.132,2.9c0.668,0.856,1.31,1.337,1.915,1.535
	c0.895-1.587,1.592-3.291,2.046-5.102c0.431-1.719,0.837-3.247,1.226-4.611c-2.903-1.458-8.399-2.979-13.317-2.592
	c-6.892,0.541-2.378-7.437,6.419-5.977c3.721,0.618,6.589,1.859,8.846,2.692c1.631-4.042,3.058-5.212,4.866-6.05
	C222.951,421.872,215.989,412.139,202.01,409.454z"></path>
<path id="color_x5F_6" fill="#CCCCCC" d="M412.059,358.469l-16.037,14.959l-39.071,26.404c0.91-3.688,3.219-13.28,4.541-20.831
	l-0.532,12.094c0,0,40.186-36.238,43.429-39.18C406.627,354.672,409.416,356.664,412.059,358.469z M296.927,262.212
	c0.102-3.252,1.335-5.279,2.921-6.346c-0.921-0.827-2.954-2.977-3.811-6.477c-0.576-2.352-0.422-5.53-0.135-8.076
	C293.58,250.762,295.448,258.289,296.927,262.212z M266.631,460.87l27.196-18.379c-8.794,1.555-18.555,2.92-27.704,3.883
	L266.631,460.87z M298.354,265.395c0.98,5.888,4.324,9.337,7.849,10.664c0.045,0.011,0.088,0.027,0.128,0.047
	c1.109,0.401,2.216,0.566,3.306,0.584c0.002,0,0.003,0,0.005,0c0.192,0,0.374,0.093,0.485,0.25c2.453,3.456,5.059,7.043,7.75,10.368
	c-3.807-6.084-6.181-13.077-6.181-13.077s-4.594,1.594-10.125-3.375c-4.407-3.959-2.587-10.872-1.665-13.521
	C298.335,258.871,297.744,261.737,298.354,265.395z M306.563,277.435c-0.147,1.178-0.475,3.64-0.982,6.626
	c1.879,0.798,8.037,4.016,10.801,12.86c2.753,8.81,8.291,13.413,10.007,14.67c0.141-0.7,0.315-1.416,0.537-2.144
	c1.441-4.733,2.831-7.773,3.403-8.939c-7.342-3.997-14.667-13.72-20.999-22.628C308.427,277.857,307.494,277.71,306.563,277.435z
	 M291.228,309.08c3.661,4.817,6.528,6.873,9.823,9.235c2.042,1.464,4.147,2.982,6.602,5.262c-0.475-2.19-1.888-7.554-4.957-11.282
	c-2.739-3.326-3.565-6.264-3.204-8.731C296.654,307.38,292.971,308.67,291.228,309.08z M279.59,316.379
	c1.551-3.514,2.052-6.1,2.623-9.077c0.23-1.2,0.468-2.441,0.792-3.854c0.007-0.034,0.017-0.066,0.029-0.099
	c0.027-0.068,0.065-0.129,0.113-0.182c0.063-0.069,0.143-0.125,0.236-0.158c0.027-0.011,0.056-0.019,0.085-0.024l17.115-3.862
	c2.863-7.116,4.517-19.563,4.832-22.097c-3.717-1.544-7.161-5.219-8.213-11.323c-0.637-1.13-6.784-12.682-1.381-28.327
	c-0.016-0.006-0.037-0.013-0.053-0.018c-1.001,0.455-2.75,1.424-4.135,3.125c-2.062,2.531-5.438,9-1.126,30.188
	c4.312,21.188-12.656,30.188-21,36.282c-6.299,4.6-7.066,12.207-7.064,15.661c0.172,0.504,0.334,0.908,0.461,1.2
	C270.781,319.805,278.14,316.934,279.59,316.379z M290.433,308.029c1.335-0.232,6.561-1.521,9.531-7.544l-14.154,3.193
	C287.584,304.618,289.111,306.326,290.433,308.029z M251.129,440.36c-9.561,1.569-15.718-1.379-17.832-2.645
	c0.714,1.822,1.713,3.583,3.108,5.046c2.56,2.683,6.095,3.979,10.497,3.835c16.352-0.512,42.014-3.87,58.76-7.677
	c-0.151-0.779-0.421-2.284-0.659-4.133C299.847,435.234,262.297,438.527,251.129,440.36z M325.938,434.469
	c0.37,2.002,0.976,3.85,1.872,5.401c1.9-0.941,3.642-3.569,3.97-5.452c-1.661,0.046-3.157,0.059-4.257,0.059
	C326.796,434.478,326.26,434.473,325.938,434.469z M263.65,413.963c0.128-0.403,12.775-40.498,7.21-49.957
	c-1.727-2.936-3.22-5.457-4.468-7.556c0.686,4.393,2.195,16.911-0.683,28.27c-3.155,12.453-7.193,26.803-8.077,29.928
	c1.779-0.302,3.787-0.472,5.991-0.533C263.625,414.065,263.634,414.014,263.65,413.963z M283.708,409.657
	c-9.188-5.062-3.937-33-3.75-36.75c0.145-2.901-8.213-12.132-12.01-16.169c1.136,1.912,2.45,4.133,3.938,6.664
	c5.667,9.632-5.88,47.038-7.028,50.689c6.98-0.082,15.651,0.793,24.686,1.694c5.755,0.573,11.706,1.167,17.25,1.507
	c0.001,0.001,0.002,0.001,0.003,0.001c4.885,0.3,9.509-0.19,13.585-0.623c2.352-0.25,4.573-0.485,6.53-0.528
	c0.602-0.15,4.43-1.105,9.332-2.317l19.232-12.997c1.216-4.824,3.493-14.454,4.806-21.818c-2.294,4.476-7.32,13.1-13.198,15.834
	c-8.063,3.75-15.938,0.375-28.125,9.375C306.771,413.22,292.896,414.72,283.708,409.657z M346.637,428.289
	c-5.579,2.066-18.219,1.801-21.137,1.709c0.024,1.116,0.1,2.215,0.243,3.278c1.175,0.015,13.253,0.145,17.92-1.339
	c1.969-0.625,4.165-1.476,6.289-2.298c3.198-1.238,5.39-2.06,6.766-2.292C354.059,427.034,350.22,426.962,346.637,428.289z
	 M416.225,337.377c-2.813,0.844-4.172,1.313-4.172,1.313s0.047,2.625-1.5,6.094c-1.142,2.561-3.964,5.22-5.272,6.363
	c1.46,1.792,3.249,3.316,5.321,4.834l0.706-5.036c-1.19,1.268-2.644,2.334-2.888,2.51c-0.105,0.075-0.227,0.112-0.347,0.112
	c-0.186,0-0.368-0.086-0.484-0.248c-0.191-0.267-0.131-0.639,0.136-0.831c0.957-0.689,3.534-2.781,3.958-4.158
	c0.562-1.826,1.918-8.313,1.932-8.378c0.041-0.195,0.178-0.357,0.363-0.432c0.019-0.007,1.91-0.764,4.647-2.307
	c1.211-0.683,1.59-1.62,1.694-2.285c0.012-0.078,0.014-0.146,0.019-0.218C419.577,335.506,418.114,336.81,416.225,337.377z
	 M306.208,434.781c0.24,1.84,0.509,3.32,0.645,4.022l19.646,1.156c-0.603-1.145-1.068-2.403-1.415-3.734L306.208,434.781z"></path>
</svg>