<?xml version="1.0" standalone="no"?>
<svg version="1.1" id="Layer_1" xmlns:cc="http://creativecommons.org/ns#" xmlns:dc="http://purl.org/dc/elements/1.1/" xmlns:rdf="http://www.w3.org/1999/02/22-rdf-syntax-ns#" xmlns:svg="http://www.w3.org/2000/svg" xmlns="http://www.w3.org/2000/svg" xmlns:xlink="http://www.w3.org/1999/xlink" x="0px" y="0px" viewBox="0 0 595.2 595.2" enable-background="new 0 0 595.2 595.2" xml:space="preserve">
<path id="color_x5F_1" fill="#2c2a80" d="M531.762,477.669h-13.9h-8.654v-62.661c0-0.01,0-0.02,0-0.029v-9.582
	c0-0.023-0.001-0.047-0.004-0.071v-0.001c0-0.001,0-0.001,0-0.002c-0.003-0.027-0.008-0.055-0.015-0.081
	c0-0.001-0.001-0.002-0.001-0.003v-0.001c-0.022-0.084-0.062-0.16-0.114-0.226l-0.001-0.001c-0.001,0-0.001-0.001-0.001-0.001
	c-0.033-0.04-0.072-0.076-0.115-0.107c-0.003-0.002-0.006-0.004-0.009-0.006c-0.001-0.001-0.001-0.001-0.002-0.002
	c0.001,0.001-0.002-0.001-0.002-0.001c-0.078-0.053-0.171-0.087-0.269-0.098c-0.001,0-0.001,0-0.002,0c0,0,0,0-0.001,0
	c-0.021-0.003-0.036,0.004-0.063-0.004l-21.396-0.155c1.18-6.601,1.711-11.794,0.449-21.952
	c-1.452-11.693-11.193-26.713-12.064-28.037c-7.42-27.897-16.743-42.839-29.642-63.509c-2.909-4.661-5.917-9.48-9.182-14.88
	c-5.877-14.656-19.171-21.75-22.543-21.32c-3.272,0.427-41.193,4.176-43.413,4.395l-9.582-2.495l-2.461-1.941
	c0.952-1.564,1.675-4.177,1.098-8.526c-0.816-6.156-3.913-11.365-7.201-12.118c-0.976-0.223-1.883,0.006-2.651,0.611
	c-1.058-2.234-4.428-8.79-8.764-11.577c-0.038-0.025-0.076-0.046-0.115-0.07c-1.268-0.945-2.675-1.746-4.254-2.334
	c-1.172-0.436-2.41-0.741-3.708-0.924c-3.067-0.542-6.249-0.3-9.822,0.703c-0.204,0.057-0.398,0.117-0.598,0.175
	c-1.51,0.403-3.072,0.921-4.686,1.552c-1.344,0.51-2.596,1.052-3.76,1.628c-0.09,0.043-0.178,0.081-0.268,0.124
	c-0.876,0.421-1.697,0.89-2.473,1.396c-5.982,3.744-8.981,8.797-9.56,15.881c-0.692,5.394,0.25,11.107,2.575,16.069
	c3.173,6.773,17.851,24.324,31.117,31.394c-0.529,0.39-1.174,0.853-1.897,1.37c-0.917,0.656-1.829,1.314-2.723,1.97l-0.124-1.53h0
	c0,0-0.606-0.299-1.234-0.299s-0.793,0.413-0.793,0.413l0.181,2.885c-4.626,3.518-8.291,6.853-8.291,9.178
	c0,2.498,0.155,4.644,0.214,5.371c-0.137,0.165-0.243,0.334-0.327,0.489c-0.682-0.227-1.227-0.097-1.593,0.079
	c-1.554,0.746-2.153,3.399-2.323,4.371c-1.434,0.786-2.237,2.668-2.282,2.776c-0.031,0.075-0.046,0.153-0.046,0.229h-9.636
	l-5.211,23.397c-5.714,1.763-20.048,5.224-31.638,8.022c-4.303,1.039-8.238,1.988-11.234,2.731
	c-4.628-3.854-8.565-7.095-11.974-9.902c-11.678-9.618-17.034-14.03-22.783-20.383c-2.272-5.063-3.646-10.168-2.174-15.909
	c0.194-0.757,0.39-1.618,0.599-2.541c1.046-4.615,2.479-10.934,5.808-12.658c1.208-0.625,2.583-0.605,4.203,0.064
	c4.076,1.687,8.299,1.854,11.015,0.435c1.356-0.708,2.223-1.769,2.509-3.069c0.654-2.98,2.014-7.764,2.442-9.25
	c0.667,0.021,1.882-0.07,2.91-0.685c1.507-0.902,1.984-2.483,2.004-2.55c0.068-0.233-0.012-0.484-0.203-0.635
	c-0.019-0.015-1.913-1.523-3.011-3.654c-0.162-0.314-0.288-0.732-0.385-1.233c1.692-1.637,11.731-12.022,8.442-24.822
	c-2.27-8.833-14.95-13.787-26.06-15.478c-10.73-1.633-23.979-0.633-27.721,5.42c-2.144,3.469-3.827,6.023-5.311,8.276
	c-3.097,4.701-5.335,8.098-9.187,15.818c-3.492,6.999-1.577,13.454,5.538,18.666c3.423,2.508,7.714,4.489,12.111,5.923
	l-7.981,17.924c-0.558-0.027-1.126-0.013-1.705,0.047c-10.639,1.076-13.273,18.498-13.377,19.219
	c-0.066,0.369-6.65,37.165-6.53,60.42c0.011,2.08,0.24,4.092,0.737,6.11c-0.169,10.201-3.792,14.993-7.985,20.541
	c-5.14,6.801-10.963,14.509-13.181,33.763l-0.024,0.154c-0.535,3.504-1.643,10.769-0.489,17.622l-70.425,19.702H73.941H56.6
	c-0.663,0-1.2,0.537-1.2,1.2s0.537,1.2,1.2,1.2h475.162c0.663,0,1.2-0.537,1.2-1.2S532.425,477.669,531.762,477.669z
	 M301.954,478.274L411.135,440.1l0.507,8.302l-85.099,29.872H301.954z M411.718,449.637l1.749,28.637h-83.329L411.718,449.637z
	 M406.741,377.652l-9.69-11.173c3.939-0.291,8.072-1.047,12.159-2.068l10.318,12.355
	C413.249,377.37,407.987,377.603,406.741,377.652z M433.283,414.395c-0.105,0.204-0.313,0.32-0.528,0.32
	c-0.093,0-0.187-0.021-0.274-0.066c-0.029-0.016-3.017-1.545-9.181-2.795c-6.267-1.271-11.134-2.195-11.183-2.204
	c-0.322-0.062-0.535-0.373-0.474-0.696c0.062-0.322,0.373-0.532,0.696-0.474c0.048,0.01,4.923,0.935,11.196,2.208
	c6.353,1.288,9.37,2.84,9.495,2.905C433.322,413.744,433.436,414.104,433.283,414.395z M483.983,424.269l24.033-8.436v62.44h-26.779
	C481.39,451.802,482.6,435.446,483.983,424.269z M508.016,414.571l-23.866,8.378c0.439-3.388,0.891-6.287,1.329-8.843l22.537-7.88
	V414.571z M505.177,405.958l-19.464,6.805c0.302-1.706,0.595-3.265,0.87-4.719c0.145-0.767,0.282-1.499,0.414-2.218L505.177,405.958
	z M444.944,291.769c12.794,20.5,22.055,35.34,29.414,62.854c-2.102,1.306-12.92,7.979-22.651,13.116
	c-4.159,2.196-8.114,4.107-11.106,5.2c-3.253,1.037-6.816,1.845-10.382,2.477c-3.052,0.5-6.241,0.897-9.259,1.207l-10.474-12.54
	c15.444-4.071,29.849-11.642,30.043-11.745c0.189-0.101,0.31-0.294,0.316-0.507c0.027-0.826,0.258-8.104,0.329-17.898
	c0.122-16.879-0.23-41.236-2.919-52.952C440.583,284.78,442.791,288.318,444.944,291.769z M414.385,256.119
	c2.803-0.356,15.627,6.451,21.296,20.612c0.003,0.009,0.006,0.017,0.01,0.025c0.209,0.522,0.407,1.055,0.596,1.597
	c5.008,14.417,3.526,68.226,3.381,73.091c-2.999,1.545-27.299,13.766-45.566,13.971c-6.496,0.073-11.904,0.122-16.234,0.155
	c0.145-1.242,0.396-4.027,0.235-7.366c-0.17-3.531-0.848-6.91-1.141-8.238c1.789-0.416,3.688-0.867,5.635-1.343
	c0.023-0.005,0.046-0.01,0.068-0.018c4.358-1.067,8.938-2.259,12.993-3.457c12.668-3.745,21.061-8.097,21.144-8.141
	c0.246-0.128,0.37-0.408,0.301-0.677c-0.061-0.234-5.905-22.851-8.56-35.81c-0.002-0.013-0.005-0.025-0.008-0.038
	c-0.082-0.399-0.16-0.789-0.235-1.169c-2.504-12.627-1.91-21.275-1.904-21.361c0.024-0.328-0.223-0.613-0.55-0.637
	c-0.343-0.018-0.613,0.222-0.638,0.55c-0.005,0.066-0.352,5.082,0.566,13.031c-0.778-1.971-1.211-3.745-1.688-5.692
	c-0.335-1.374-0.683-2.795-1.183-4.458c-0.096-0.315-0.424-0.493-0.742-0.399c-0.314,0.095-0.493,0.427-0.398,0.742
	c0.491,1.634,0.835,3.039,1.167,4.398c0.566,2.314,1.076,4.393,2.15,6.838c0.342,0.78,0.739,1.595,1.217,2.469
	c0.231,1.51,0.507,3.097,0.835,4.752c0.046,0.229,0.093,0.464,0.141,0.701l-18.367,7.12c-0.284,0.109-0.439,0.416-0.359,0.71
	c0.02,0.072,1.984,7.291,4.798,12.976c2.831,5.723,4.536,7.442,4.607,7.513c0.113,0.111,0.276,0.165,0.428,0.172
	c0,0,5.632-0.092,7.479-0.092c1.632,0,5.5-2.53,7.151-3.665c1.352,5.456,2.464,9.797,2.82,11.184
	c-1.836,0.913-9.547,4.601-20.51,7.841c-0.207,0.062-0.416,0.123-0.626,0.185c-1.845-2.021-13.532-15.053-18.936-26.531
	c-5.874-12.474-9.863-23.323-9.903-23.431c-0.001-0.002-0.003-0.004-0.004-0.006c-0.002-0.005-0.001-0.009-0.003-0.014l-2.129-5.214
	c-0.863-2.113-2.486-3.932-3.667-5.064l13.059,1.168c0.18,0.022,0.351-0.048,0.476-0.173c0.125-0.126,0.187-0.301,0.17-0.477
	l-1.028-10.561l-1.307-13.417C376.525,259.966,411.194,256.536,414.385,256.119z M366.935,352.204
	c1.887-0.402,5.073-1.096,8.865-1.969c0.284,1.301,0.949,4.635,1.112,8.026c0.161,3.361-0.114,6.205-0.247,7.318
	c-4.962,0.036-8.365,0.05-10.224,0.056c0.198-1.454,0.65-4.959,0.814-7.867C367.408,355.059,367.124,353.133,366.935,352.204z
	 M365.15,351.364c-0.667-0.625-2.675-2.598-3.289-4.222c-0.843-2.228-4.691-5.476-4.854-5.612c-0.076-0.064-0.164-0.099-0.255-0.119
	l2.589-11.626c6.97,4.956,18.647,15.099,21.894,17.944C373.469,349.61,366.639,351.054,365.15,351.364z M330.303,308.759
	c-0.218-0.035-0.429-0.05-0.631-0.05c-1.038,0-1.829,0.4-2.16,0.601c-0.484-0.377-0.982-0.725-1.489-1.027
	c-0.763-0.455-1.468-0.752-2.111-0.892c0.481-1.026,1.776-2.836,4.773-2.24c2.818,0.56,5.074,1.687,7.064,2.681
	c1.219,0.608,2.271,1.134,3.273,1.44c0.361,0.11,0.512,0.247,0.531,0.33c0.024,0.108-0.08,0.347-0.368,0.615
	c-0.6,0.558-1.729,0.999-2.634,0.72c-0.947-0.291-1.935-0.682-2.89-1.06C332.393,309.374,331.194,308.9,330.303,308.759z
	 M330.117,309.935c0.005,0.001,0.011,0.003,0.016,0.004l0.121,1.918c-0.543-0.582-1.128-1.167-1.748-1.718
	C328.878,309.984,329.451,309.828,330.117,309.935z M332.915,314.774c1.209,0.519,3.288,1.196,5.495,0.908
	c1.464-0.195,2.52,0.133,3.212,0.501h-7.919c-0.125-0.186-0.387-0.565-0.76-1.073L332.915,314.774z M344.96,370.811
	c-1.268,0.288-7.142-0.116-11.677-1.807c-3.636-1.354-6.515-3.514-7.327-4.488c0.931,0.132,2.909,0.776,4.426,1.27
	c1.603,0.521,3.259,1.06,4.581,1.361c3.614,0.822,6.409-1.029,6.526-1.107c0.188-0.127,0.288-0.35,0.257-0.574
	s-0.188-0.412-0.402-0.484c-7.572-2.511-15.813-5.561-16.479-6.289c-0.025-0.042-0.042-0.074-0.054-0.093
	c0.223-0.113,1.371-0.484,5.886,0.646c5.313,1.331,11.909,1.623,11.975,1.626c0.175-0.004,0.345-0.063,0.463-0.191
	c0.119-0.129,0.175-0.304,0.153-0.478c-0.035-0.282-0.38-1.73-3.708-2.448l-2.55-0.556c-3.227-0.706-7.646-1.673-11.494-2.442
	c-2.491-0.497-2.987-1.166-2.977-1.305c0.012-0.152,0.558-0.573,1.716-0.622c2.57-0.088,19.413,1.643,19.583,1.66
	c0.288,0.042,0.587-0.174,0.646-0.478c0.06-0.303-0.122-0.601-0.418-0.687c-0.039-0.011-3.871-1.121-8.068-2.436
	c-1.038-0.325-2.095-0.601-3.116-0.868c-2.632-0.688-5.354-1.398-5.191-2.469c0.395-0.793,4.784-0.315,13.058,1.416l1.438,0.299
	c4.402,0.896,12.653-0.001,13.002-0.039c0.327-0.036,0.563-0.33,0.526-0.657c-0.029-0.259-0.226-0.449-0.465-0.506l0.312-1.404
	l0.894-4.015c1.178,1.02,3.7,3.409,4.271,4.918c0.828,2.191,3.637,4.719,3.823,4.886c0.011,0.009,0.021,0.019,0.032,0.027
	c0.066,0.052,0.14,0.087,0.216,0.107c0.078,0.021,0.161,0.025,0.245,0.013c0.012-0.002,0.023-0.004,0.035-0.006
	c0.044-0.01,0.275-0.058,0.669-0.141c0.171,0.852,0.442,2.685,0.298,5.251c-0.168,2.984-0.646,6.617-0.827,7.937
	c-0.308,0-0.467,0-0.479,0c-0.052,0-0.103,0.007-0.152,0.021C364.427,365.707,346.421,370.485,344.96,370.811z M412.703,323.746
	c-2.177,1.525-5.697,3.71-6.846,3.71c-1.608,0-6.081,0.069-7.229,0.088c-0.474-0.555-1.982-2.496-4.22-7.017
	c-2.329-4.708-4.071-10.506-4.57-12.244l17.675-6.852C408.867,307.942,410.947,316.631,412.703,323.746z M351.975,292.902
	l0.04-3.132c0.604-0.493,1.163-1.071,1.678-1.734c0.758,0.228,2.598,0.856,4.592,2.08c2.389,1.466,5.827,4.145,6.511,4.682
	c0.08,0.217,0.244,0.654,0.492,1.306c-1.408-0.706-3.739-1.75-6.483-2.495c-0.007-0.001-0.014-0.003-0.02-0.005
	C355.546,292.728,353.122,292.79,351.975,292.902z M357.811,294.586l-2.769,6.267l-2.821-6.775
	C353.225,293.994,355.205,293.964,357.811,294.586z M361.534,258.147l8.685,2.261l2.282,23.442l-13.393-1.198
	c0.71-2.008,2.512-7.786,2.425-14.459C361.457,262.468,361.502,259.421,361.534,258.147z M360.356,257.663
	c-0.03,0.9-0.103,3.899-0.015,10.545c0.101,7.614-2.412,14.224-2.604,14.716c-0.028,0.061-0.047,0.127-0.053,0.198
	c-0.02,0.22,0.083,0.423,0.252,0.542c0.272,0.212,3.428,2.717,4.68,5.782l1.292,3.165c-1.41-1.068-3.408-2.532-5.001-3.509
	c-1.855-1.138-3.548-1.778-4.502-2.089c0.801-1.265,1.475-2.768,2.014-4.518c4.281-13.908,1.307-23.295,0.396-25.636
	c0.344-0.19,0.793-0.508,1.247-1.004L360.356,257.663z M313.268,267.745c0.207-0.623,0.936-2.177,3.217-2.899
	c2.721-0.861,6.899-0.729,7.927-0.681c1.989,2.162,6.727,7.658,7.177,9.78c0.455,2.137,2.637,5.534,4.889,5.786
	c0.087,0.01,0.178,0.016,0.271,0.016c0.797,0,1.812-0.403,2.585-2.078c2.097-4.547,1.967-6.933,1.96-7.032
	c-0.021-0.326-0.307-0.57-0.629-0.553c-0.327,0.02-0.577,0.301-0.559,0.628c0.001,0.022,0.096,2.231-1.854,6.458
	c-0.454,0.985-1.007,1.455-1.643,1.378c-1.463-0.164-3.445-2.916-3.857-4.851c-0.615-2.893-6.915-9.746-7.631-10.518
	c-0.018-0.02-0.043-0.029-0.063-0.045c-0.038-0.032-0.076-0.065-0.119-0.086c-0.039-0.019-0.081-0.024-0.123-0.033
	c-0.031-0.007-0.059-0.023-0.092-0.025c-0.214-0.014-5.276-0.33-8.6,0.721c-2.193,0.694-3.233,2.044-3.715,3.007
	c-3.264-3.963-5.702-7.507-6.747-9.737c-1.145-2.444-1.959-5.087-2.396-7.786c3.11,0.685,11.149-0.33,15.164-8.168
	c3.573-6.979,9.905-8.209,11.271-8.396c1.397,1.446,4.311,4.687,5.517,7.726c0.087,0.218,0.295,0.365,0.529,0.375
	c0.046,0.002,4.669,0.256,7.676,4.754c3.215,4.809,4.677,5.69,4.833,5.775c0.089,0.048,0.187,0.072,0.284,0.072
	c0.117,0,0.234-0.035,0.335-0.104c0.185-0.125,0.283-0.344,0.256-0.565c-0.004-0.031-0.296-2.417-0.48-5.348
	c0.119-0.148,0.174-0.344,0.115-0.539c-0.004-0.012-0.109-0.386-0.197-0.993c-0.021-0.482-0.039-0.97-0.05-1.457
	c-0.043-1.918,0.381-3.415,0.823-4.444c0.202-0.451,0.44-0.904,0.735-1.352c0.003-0.005,0.007-0.01,0.01-0.015
	c0.621-0.939,1.398-1.311,2.317-1.102c2.387,0.546,5.469,4.95,6.287,11.113c0.592,4.464-0.248,6.845-1.16,8.105
	c-0.008,0.009-0.019,0.013-0.027,0.023c-0.015,0.019-0.019,0.042-0.031,0.062c-0.745,0.987-1.519,1.24-1.587,1.26
	c-0.17,0.046-0.31,0.165-0.384,0.324c-0.073,0.159-0.073,0.343,0,0.501c0.046,0.098,4.501,10-0.222,25.341
	c-1.654,5.377-4.615,8.252-8.799,8.544c-2.816,0.197-6.008-0.741-9.338-2.411c-0.028-0.017-0.056-0.03-0.085-0.043
	C328.772,284.05,319.643,275.294,313.268,267.745z M334.498,291.218c0.992-0.709,1.795-1.285,2.379-1.73
	c3.108,1.517,6.116,2.417,8.854,2.417c0.28,0,0.56-0.01,0.834-0.029c1.575-0.11,2.989-0.541,4.248-1.276l-0.037,2.964
	c-0.003,0.083,0.011,0.168,0.045,0.25l3.655,8.777c0.024,0.058,0.075,0.094,0.115,0.14c0.11,0.129,0.254,0.225,0.428,0.227
	c0.003,0,0.005,0,0.007,0c0.235,0,0.449-0.14,0.545-0.355l3.404-7.708c3.488,1.012,6.264,2.509,6.967,2.905
	c1.613,4.141,4.741,11.88,8.737,20.369c5.172,10.983,15.982,23.33,18.739,26.39c-3.45,0.981-7.181,1.945-10.771,2.827
	c-1.949-1.716-15.496-13.588-23.025-18.863l2.748-12.339h-18.83c-0.006-0.008-0.007-0.017-0.013-0.024
	c-0.072-0.086-1.791-2.11-5.27-1.658c-0.013,0.002-0.026,0.002-0.039,0.004c-2.328,0.29-4.569-0.672-5.414-1.094l-0.217-2.678
	c0.21,0.082,0.42,0.164,0.636,0.25c0.977,0.387,1.986,0.787,2.979,1.092c1.411,0.434,2.958-0.208,3.794-0.987
	c0.596-0.554,0.851-1.177,0.718-1.753c-0.089-0.389-0.395-0.911-1.344-1.202c-0.907-0.277-1.918-0.782-3.089-1.367
	c-1.203-0.601-2.589-1.291-4.169-1.872l-0.917-11.281C332.422,292.704,333.576,291.878,334.498,291.218z M329.203,295.123
	l0.568,9.055c-0.281-0.069-0.563-0.137-0.854-0.195c-4.207-0.834-5.813,2.205-6.262,3.347c-0.167,0.025-0.328,0.064-0.484,0.118
	c-0.067-0.997-0.157-2.685-0.157-4.58C322.014,301.095,325.59,297.922,329.203,295.123z M322.47,308.608
	c0.674-0.288,1.693-0.047,2.943,0.698c2.954,1.761,5.704,5.306,6.835,6.878h-2.775c-0.209-0.219-4.745-4.926-7.714-6.895
	C321.887,309.051,322.107,308.761,322.47,308.608z M319.631,309.88c0.196-0.095,0.524-0.182,1.09,0.16
	c2.128,1.278,5.537,4.592,7.083,6.143h-3.912c-0.485-0.441-3.185-2.832-5.269-3.285c-0.188-0.04-0.369-0.06-0.545-0.061
	C318.327,311.774,318.838,310.261,319.631,309.88z M318.37,314.063c1.171,0.254,2.672,1.318,3.678,2.121h-6.331
	C316.039,315.539,317.053,313.768,318.37,314.063z M345.769,390.724l4.463-20.039c5.508-1.441,13.62-3.593,14.607-3.855
	c0.131-0.001,0.428-0.001,0.891-0.002c0.02,0,0.039,0,0.059,0c1.692-0.004,5.481-0.018,11.389-0.062c0.011,0.003,0.022,0,0.033,0
	c4.438-0.033,10.07-0.083,16.904-0.159c0.475-0.006,0.955-0.02,1.438-0.04l10.329,11.91c-0.009,1.102-0.042,6.193,0.115,9.935
	c0.104,2.502-0.173,4.295-0.523,6.564c-0.233,1.51-0.498,3.222-0.708,5.488c-0.131,1.412,0.06,2.589,0.422,3.576l-55.908-0.406
	c-0.027-0.001-0.11,0.007-0.164,0.022l-95.896,26.827c-1.404-2.158-3.77-4.991-5.983-6.026c-1.217-0.569-2.302-0.585-3.224-0.043
	c-3.05,1.79-11.754,3.312-13.501,3.604l-2.531-2.649c-0.001-0.001-0.001-0.001-0.002-0.001c-0.103-0.118-1.21-1.373-2.9-3.379
	l0.004-0.901c0.082-18.244,0.146-32.656,2.724-55.229c1.092-4.083,2.033-7.759,2.736-10.903c3.35,2.388,17.033,12.042,22.076,14.016
	c0.338,0.132,0.78,0.194,1.314,0.194c6.698,0,27.818-9.815,38.361-14.925c0.02-0.01,0.044-0.006,0.063-0.019
	c0.009-0.006,0.013-0.015,0.022-0.022c1.884-0.914,3.423-1.673,4.473-2.195l-8.623,38.72H345.769z M249.123,433.159
	c0.584,0.558,1.207,1.068,1.756,1.518c1.12,0.918,2.178,1.784,1.994,2.335c-0.214,0.646-0.752,1.079-1.127,1.314
	c-0.305-0.363-0.693-0.724-1.155-1.068c-1.83-1.363-4.268-3.978-4.569-4.459c-0.076-0.242-0.302-0.418-0.568-0.418
	c-0.329,0-0.595,0.267-0.595,0.596c0,0.805,3.827,4.347,5.021,5.236c0.545,0.406,0.927,0.809,1.167,1.164
	c0.016,0.028,0.033,0.056,0.052,0.08c0.206,0.328,0.287,0.611,0.261,0.813c-0.015,0.117-0.071,0.288-0.386,0.417
	c-0.831,0.339-1.771,0.161-2.119,0.075c-0.204-0.221-0.457-0.439-0.763-0.653c-2.08-1.445-4.846-4.099-4.874-4.125
	c-0.236-0.229-0.613-0.22-0.842,0.016c-0.228,0.237-0.22,0.614,0.017,0.842c0.116,0.111,2.861,2.746,5.019,4.245
	c0.923,0.643,1.089,1.238,0.952,1.554c-0.079,0.182-0.258,0.278-0.429,0.244c-1.036-0.228-5.741-2.277-6.7-3.178
	c-0.762-0.717-2.361-0.413-4.78,0.044c-2.075,0.393-4.657,0.887-6.89,0.656c-2.411-0.242-5.414-2.389-8.926-6.371
	c2.646-4.77,5.753-6.899,6.795-7.513l2.432,2.546c0.135,0.141,0.329,0.207,0.524,0.177c0.433-0.068,10.651-1.706,14.224-3.803
	c0.573-0.335,1.264-0.303,2.117,0.094c3.07,1.437,6.439,6.863,6.558,7.575c0.093,0.559-0.281,1.137-0.62,1.516
	c-0.318-0.285-0.671-0.573-1.035-0.872c-0.559-0.458-1.137-0.931-1.688-1.458c-1.789-1.71-2.072-3.752-2.074-3.772
	c-0.042-0.326-0.344-0.558-0.664-0.517c-0.326,0.04-0.558,0.337-0.518,0.663C246.703,428.773,247.016,431.143,249.123,433.159z
	 M223.894,420.574c-2.081-2.504-4.72-5.77-7.36-9.278c1.838-10.911,5.597-24.642,8.916-36.766c0.131-0.479,0.261-0.953,0.39-1.425
	C224.042,391.482,223.966,404.592,223.894,420.574z M297.185,350.506c-1.4,0.701-3.076,1.527-4.951,2.436
	c-0.194-0.322-0.469-0.803-0.765-1.389l-1.749-6.849c0.012-0.579,0.064-0.997,0.107-1.237c3.866-0.984,7.21-1.871,9.494-2.551
	L297.185,350.506z M244.016,341.351c3.464,2.853,7.473,6.155,12.2,10.091c0.108,0.091,0.243,0.139,0.381,0.139
	c0.048,0,0.096-0.006,0.144-0.018c3.028-0.753,7.078-1.73,11.52-2.803c6.576-1.588,14.037-3.389,20.32-4.976
	c-0.095,0.877-0.127,2.37,0.325,4.317c0.532,2.289,1.663,4.375,2.253,5.361c-13.109,6.312-34.374,15.864-38.105,14.399
	c-5.095-1.993-19.921-12.52-22.234-14.173c0.174-0.821,0.335-1.612,0.468-2.346c1.787-9.816-2.265-17.557-6.184-25.042
	c-0.47-0.899-0.937-1.791-1.391-2.68C228.669,328.708,234.047,333.141,244.016,341.351z M210.886,252.66
	c11.173-3.386,23.549-10.578,24.777-20.606c0.024-0.197,0.204-0.337,0.401-0.313c0.197,0.024,0.337,0.204,0.313,0.401
	c-1.271,10.371-13.894,17.755-25.283,21.207c-9.157,2.775-13.533,8.87-11.422,15.907c2.041,6.803,8.888,7.986,8.957,7.997
	c0.196,0.032,0.33,0.216,0.298,0.413c-0.028,0.177-0.181,0.303-0.354,0.303c-0.019,0-0.038-0.001-0.057-0.004
	c-0.074-0.012-7.359-1.257-9.532-8.5C196.779,262.114,201.451,255.519,210.886,252.66z M253.772,256.634
	c-0.081,0.182-0.294,0.263-0.475,0.183c-0.182-0.081-0.264-0.293-0.184-0.475c0.028-0.064,2.81-6.498,0.21-12.801
	c-2.205-5.345-10.011-8.261-12.377-9.036c0.774,2.359,2.625,10.234-4.018,17.602c-5.776,6.406-12.059,7.27-15.025,7.271
	c-1.074,0-1.712-0.113-1.736-0.118c-0.195-0.037-0.323-0.225-0.286-0.42c0.037-0.195,0.224-0.323,0.42-0.287
	c0.083,0.013,8.508,1.483,16.092-6.928c7.565-8.391,3.676-17.441,3.636-17.532c-0.057-0.127-0.035-0.276,0.056-0.381
	c0.091-0.106,0.236-0.149,0.368-0.112c0.44,0.122,10.806,3.052,13.534,9.667C256.709,249.861,253.894,256.36,253.772,256.634z
	 M206.663,282.52c5.263,1.599,10.583,2.423,14.665,2.423c3.201,0,5.641-0.502,6.696-1.523c0.168-0.163,0.225-0.41,0.145-0.63
	c-0.08-0.221-0.282-0.374-0.516-0.391c-0.186-0.014-4.571-0.385-5.951-4.49c-1.177-3.505-2.664-12.114,8.936-16.35
	c7.507-2.741,11.873-14.736,12.831-17.636c0.347,0.162,0.817,0.418,1.329,0.804c0.431,0.381,0.914,0.898,1.426,1.623
	c1.387,1.963,1.585,4.573,1.222,7.798c-0.167,1.054-0.315,2.055-0.446,3.003c-0.187,1.045-0.315,2.177-0.403,3.305
	c-0.353,3.408-0.394,5.95-0.127,7.717c0,0.001,0,0.004,0,0.004c0,0.001,0.001,0.002,0.001,0.003c0.123,0.812,0.308,1.47,0.562,1.962
	c0.935,1.813,2.343,3.182,2.989,3.753c-0.193,0.407-0.602,1.082-1.332,1.518c-1.125,0.673-2.649,0.497-2.666,0.494
	c-0.287-0.034-0.563,0.144-0.645,0.424c-0.018,0.062-1.807,6.199-2.594,9.784c-0.208,0.945-0.863,1.729-1.896,2.269
	c-2.376,1.24-6.305,1.053-10.009-0.479c-1.936-0.801-3.688-0.808-5.206-0.021c-3.82,1.979-5.324,8.61-6.421,13.452
	c-0.207,0.911-0.399,1.763-0.591,2.51c-1.624,6.332-0.017,11.835,2.51,17.291c-0.794-0.898-1.762-2.112-2.871-3.738
	c-2.938-4.309-5.559-6.256-6.175-6.679c-2.337-3.605-7.057-9.525-13.344-10.502L206.663,282.52z M183.629,319.547
	c0.025-0.172,2.598-17.241,12.322-18.226c9.762-0.976,16.666,12.571,16.734,12.708c0.147,0.295,0.505,0.414,0.799,0.267
	c0.21-0.104,0.325-0.317,0.324-0.536c1.004,1.018,2.227,2.427,3.51,4.308c2.86,4.193,4.851,5.802,5.383,6.189
	c0.441,0.862,0.892,1.726,1.348,2.596c3.825,7.308,7.781,14.863,6.067,24.277c-1.002,5.506-3.34,14.046-5.814,23.086
	c-3.215,11.743-6.84,24.987-8.749,35.766c-2.098-2.839-4.152-5.79-5.877-8.588c-5.965-9.677-11.309-15.479-12.472-16.699
	l12.864-54.033c0.076-0.319-0.122-0.641-0.441-0.717c-0.323-0.077-0.642,0.122-0.717,0.441l-12.939,54.351
	c-0.048,0.201,0.012,0.412,0.158,0.559c0.058,0.058,5.897,5.955,12.535,16.724c1.961,3.181,4.341,6.555,6.731,9.741
	c0.021,0.035,0.045,0.067,0.073,0.098c3.144,4.186,6.296,8.038,8.526,10.691c0.021,0.029,0.044,0.058,0.07,0.083
	c1.145,1.361,2.04,2.397,2.554,2.989c-1.308,0.803-4.257,2.979-6.852,7.528c-2.469-2.202-4.803-4.295-7.016-6.296
	c-0.023-0.025-0.049-0.049-0.077-0.07c-27.274-24.663-35.495-34.686-35.559-47.013C176.995,356.625,183.559,319.936,183.629,319.547
	z M169.625,407.146c3.86-5.106,7.25-9.591,8.052-18.043c3.637,9.401,13.436,19.778,34.031,38.414l-0.491,14.066
	c-0.012,0.328,0.246,0.604,0.574,0.615c0.321-0.006,0.604-0.245,0.616-0.574l0.456-13.063c2.044,1.844,4.198,3.773,6.452,5.783
	c0.055,0.052,0.165,0.181,0.328,0.367c0.759,0.866,2.362,2.688,4.325,4.244l-44.955,12.288l-1.354,0.379
	c-0.004-0.001-0.012-0.003-0.016-0.004c-1.069-0.274-7.853-2.088-12.699-5.139c-4.527-2.849-7.489-5.55-8.254-6.274
	C158.882,421.362,164.588,413.81,169.625,407.146z M177.545,452.891l0.265-0.069l0-0.005l47.078-13.17
	c1.432,1.004,3.005,1.79,4.56,1.947c2.404,0.239,5.079-0.265,7.23-0.672c1.445-0.272,3.424-0.645,3.743-0.347
	c1.192,1.12,6.158,3.23,7.26,3.473c0.108,0.024,0.216,0.035,0.324,0.035c0.613,0,1.192-0.371,1.451-0.965
	c0.13-0.296,0.181-0.657,0.107-1.049c0.551,0.028,1.217-0.016,1.861-0.279c0.642-0.261,1.038-0.747,1.117-1.368
	c0.044-0.347-0.014-0.712-0.166-1.084c0.539-0.339,1.3-0.967,1.627-1.948c0.229-0.688-0.008-1.305-0.5-1.911
	c0.482-0.522,1.144-1.463,0.961-2.561c-0.046-0.277-0.266-0.77-0.604-1.376l95.494-26.715l56.401,0.41
	c1.075,1.791,2.701,2.705,3.437,3.042l1.868,30.586l-112.713,39.409H86.813L177.545,452.891z M440.529,478.869v-0.596v-58.088
	c0-0.329,0.267-0.596,0.596-0.596s0.596,0.267,0.596,0.596v58.088v0.596c0,0.329-0.267,0.596-0.596,0.596
	S440.529,479.198,440.529,478.869z M377.205,164.241v-15.644c0-0.329,0.267-0.595,0.596-0.595h15.645
	c0.329,0,0.596,0.267,0.596,0.595v4.683l-1.191,0.733v-4.821h-14.453v14.454h14.453v-5.624l1.191-1.036v7.255
	c0,0.329-0.267,0.595-0.596,0.595h-15.645C377.472,164.837,377.205,164.57,377.205,164.241z M377.205,187.28v-15.644
	c0-0.329,0.267-0.595,0.596-0.595h15.645c0.329,0,0.596,0.267,0.596,0.595v4.683l-1.191,0.733v-4.821h-14.453v14.454h14.453v-5.624
	l1.191-1.036v7.255c0,0.329-0.267,0.595-0.596,0.595h-15.645C377.472,187.876,377.205,187.609,377.205,187.28z M377.205,210.319
	v-15.644c0-0.329,0.267-0.595,0.596-0.595h15.645c0.329,0,0.596,0.267,0.596,0.595v4.683l-1.191,0.733v-4.821h-14.453v14.454h14.453
	V204.1l1.191-1.036v7.255c0,0.329-0.267,0.595-0.596,0.595h-15.645C377.472,210.915,377.205,210.648,377.205,210.319z
	 M377.205,233.358v-15.644c0-0.329,0.267-0.595,0.596-0.595h15.645c0.329,0,0.596,0.267,0.596,0.595v4.683l-1.191,0.733v-4.821
	h-14.453v14.453h14.453v-5.624l1.191-1.036v7.255c0,0.329-0.267,0.595-0.596,0.595h-15.645
	C377.472,233.953,377.205,233.687,377.205,233.358z M428.667,238.007h22.215c1.253,0,1.972-0.718,1.972-1.97v-2.482
	c0.236,0.12,0.492,0.25,0.773,0.393c3.211,1.639,4.859,2.419,5.541,2.419h29.316c2.505,0,4.544-2.611,4.544-5.821
	c0-1.565-0.495-3.046-1.34-4.125c2.438-0.536,3.901-2.612,3.901-5.685c0-1.532-0.474-2.984-1.286-4.057
	c2.177-0.43,3.849-2.846,3.849-5.753c0-1.532-0.474-2.984-1.286-4.057c2.177-0.43,3.849-2.846,3.849-5.753
	c0-3.209-2.038-5.821-4.543-5.821h-19.664l0.939-10.194c0.009-0.099-0.007-0.199-0.046-0.29l-2.594-6.019
	c-0.095-0.219-0.31-0.36-0.547-0.36h-5.765c-0.302,0-0.556,0.226-0.591,0.525l-1.14,9.585l-12.073,13.311h-1.839v-0.303
	c0-1.252-0.719-1.971-1.972-1.971h-22.215c-1.252,0-1.971,0.718-1.971,1.971v34.486
	C426.696,237.289,427.415,238.007,428.667,238.007z M444.43,228.315c1.665,0,3.015,1.35,3.015,3.015s-1.35,3.015-3.015,3.015
	c-1.665,0-3.015-1.35-3.015-3.015C441.415,229.664,442.765,228.315,444.43,228.315z M454.956,203.045
	c0.168,0,0.328-0.071,0.441-0.195l12.378-13.647c0.083-0.092,0.135-0.207,0.149-0.33l1.1-9.25h4.845l2.379,5.52l-0.985,10.693
	c-0.016,0.167,0.04,0.332,0.153,0.456c0.112,0.124,0.272,0.194,0.439,0.194h20.316c1.817,0,3.352,2.121,3.352,4.631
	c0,2.51-1.534,4.63-3.352,4.63h-0.673c-0.258,0-0.486,0.166-0.566,0.411c-0.079,0.245,0.008,0.514,0.217,0.666
	c1.117,0.813,1.812,2.385,1.812,4.103c0,2.51-1.534,4.63-3.352,4.63h-0.673c-0.258,0-0.486,0.166-0.566,0.411
	c-0.079,0.245,0.008,0.514,0.216,0.666c1.118,0.813,1.813,2.385,1.813,4.103c0,2.899-1.504,4.63-4.024,4.63
	c-0.258,0-0.486,0.166-0.566,0.411c-0.079,0.245,0.008,0.514,0.217,0.666c1.118,0.813,1.813,2.385,1.813,4.103
	c0,2.51-1.535,4.63-3.353,4.63h-29.313c-0.571-0.027-3.564-1.555-5.003-2.29c-0.515-0.263-0.972-0.496-1.314-0.665v-29.179H454.956z
	 M338.118,246.984c-0.06,0.323-0.378,0.536-0.693,0.477c-0.104-0.019-2.633-0.406-5.119,2.777c-2.633,3.375-3.286,8.265-3.292,8.314
	c-0.039,0.3-0.295,0.52-0.59,0.52c-0.025,0-0.051-0.001-0.077-0.005c-0.325-0.042-0.556-0.34-0.515-0.666
	c0.027-0.213,0.703-5.266,3.535-8.895c2.955-3.782,6.143-3.24,6.274-3.216C337.965,246.35,338.179,246.661,338.118,246.984z
	 M339.651,281.573c0.103,0.048,1.547,0.708,3.283,0.708c1.283,0,2.727-0.362,3.903-1.599c2.663-2.805,2.146-7.36,2.123-7.553
	c-0.029-0.248-0.21-0.45-0.452-0.508c-0.246-0.056-0.495,0.042-0.634,0.249c-0.013,0.019-1.313,1.958-3.449,4.542
	c-2.011,2.433-4.623,3.034-4.649,3.04c-0.249,0.055-0.437,0.263-0.464,0.516C339.284,281.222,339.42,281.465,339.651,281.573z
	 M345.344,278.172c1.026-1.242,1.856-2.327,2.452-3.135c-0.096,1.427-0.489,3.423-1.821,4.826c-1.243,1.307-2.958,1.329-4.203,1.109
	C342.815,280.465,344.163,279.601,345.344,278.172z M325.642,270.753c-0.381,0.466-1.36,0.246-2.185-0.491
	c-0.825-0.737-1.185-1.711-0.804-2.177c0.381-0.465,1.361-0.245,2.186,0.492C325.664,269.313,326.024,270.288,325.642,270.753z
	 M337.631,259.865c-0.381,0.466-1.36,0.246-2.185-0.491c-0.826-0.737-1.185-1.711-0.804-2.177c0.382-0.465,1.36-0.246,2.186,0.491
	C337.653,258.426,338.012,259.4,337.631,259.865z M234.682,260.036c-0.192-0.266-0.133-0.638,0.132-0.831
	c0.097-0.07,2.405-1.721,5.502-1.835c3.115-0.116,5.576,1.514,5.68,1.583c0.273,0.183,0.346,0.552,0.163,0.825
	c-0.182,0.273-0.551,0.347-0.825,0.165c-0.008-0.006-0.327-0.214-0.862-0.468l-8.092,0.184c-0.54,0.279-0.859,0.504-0.867,0.51
	c-0.105,0.076-0.228,0.112-0.348,0.112C234.98,260.282,234.798,260.196,234.682,260.036z M244.163,266.447
	C244.163,266.447,244.163,266.447,244.163,266.447c-0.211,1.126-0.687,1.976-1.062,1.899c-0.375-0.077-0.508-1.052-0.297-2.177
	c0.211-1.126,0.687-1.976,1.062-1.899C244.241,264.346,244.374,265.321,244.163,266.447z M301.736,466.501
	c0.082,0.252,0.315,0.412,0.566,0.412c0.058,0,0.117-0.009,0.176-0.026l26.229-8.088c0.152-0.048,0.279-0.153,0.353-0.295
	s0.087-0.307,0.038-0.458l-11.8-36.329c-0.101-0.31-0.429-0.479-0.742-0.386l-26.22,8.087c-0.078,0.023-0.149,0.062-0.21,0.112h0
	c0,0,0,0-0.001,0.001c0,0-0.001,0.001-0.001,0.001c-0.001,0.001-0.002,0.002-0.003,0.002c0,0.001-0.001,0.001-0.001,0.002
	c0,0-0.001,0-0.001,0.001c-0.001,0.001-0.002,0.002-0.004,0.004c-0.088,0.076-0.154,0.18-0.185,0.298c0,0.001,0,0.001,0,0.002
	c-0.002,0.007-0.004,0.015-0.005,0.021l-7.314,33.134c-0.044,0.2,0.019,0.41,0.166,0.554c0.146,0.145,0.358,0.202,0.558,0.152
	l16.196-4L301.736,466.501z M316.347,422.643l11.432,35.196l-25.091,7.737l-11.431-35.196L316.347,422.643z M283.978,462.317
	l6.636-30.063l8.546,26.313L283.978,462.317z M322.034,431.607l42.336,5.385c0.025,0.003,0.05,0.005,0.075,0.005
	c0.066,0,0.132-0.012,0.194-0.033l42.985-14.875c0.267-0.092,0.432-0.358,0.396-0.638c-0.036-0.279-0.263-0.496-0.544-0.519
	l-42.763-3.395c-0.074-0.005-0.148,0.002-0.22,0.024l-42.559,12.885c-0.269,0.081-0.444,0.339-0.42,0.619
	C321.54,431.346,321.756,431.57,322.034,431.607z M364.733,418.734l39.813,3.16l-40.164,13.898l-39.43-5.015L364.733,418.734z"></path>
<path id="color_x5F_w" fill="#FFFFFF" d="M486.996,405.826l18.18,0.132l-19.464,6.805c0.302-1.706,0.595-3.265,0.87-4.719
	C486.727,407.277,486.864,406.545,486.996,405.826z M411.06,438.865l-112.713,39.409H86.813l90.732-25.383l0.265-0.069l0-0.005
	l47.078-13.17c1.432,1.004,3.005,1.79,4.56,1.947c2.404,0.239,5.079-0.265,7.23-0.672c1.445-0.272,3.424-0.645,3.743-0.347
	c1.192,1.12,6.158,3.23,7.26,3.473c0.108,0.024,0.216,0.035,0.324,0.035c0.613,0,1.192-0.371,1.451-0.965
	c0.13-0.296,0.181-0.657,0.107-1.049c0.551,0.028,1.217-0.016,1.861-0.279c0.642-0.261,1.038-0.747,1.117-1.368
	c0.044-0.347-0.014-0.712-0.166-1.084c0.539-0.339,1.3-0.967,1.627-1.948c0.229-0.688-0.008-1.305-0.5-1.911
	c0.482-0.522,1.144-1.463,0.961-2.561c-0.046-0.277-0.266-0.77-0.604-1.376l95.494-26.715l56.401,0.41
	c1.075,1.791,2.701,2.705,3.437,3.042L411.06,438.865z M329.098,458.046l-11.8-36.329c-0.101-0.31-0.429-0.479-0.742-0.386
	l-26.22,8.087c-0.078,0.023-0.149,0.062-0.21,0.112h0c0,0,0,0-0.001,0.001c0,0-0.001,0.001-0.001,0.001
	c-0.001,0.001-0.002,0.002-0.003,0.002c0,0.001-0.001,0.001-0.001,0.002c0,0-0.001,0-0.001,0.001
	c-0.001,0.001-0.002,0.002-0.004,0.004c-0.088,0.076-0.154,0.18-0.185,0.298c0,0.001,0,0.001,0,0.002
	c-0.002,0.007-0.004,0.015-0.005,0.021l-7.314,33.134c-0.044,0.2,0.019,0.41,0.166,0.554c0.146,0.145,0.358,0.202,0.558,0.152
	l16.196-4l2.208,6.799c0.082,0.252,0.315,0.412,0.566,0.412c0.058,0,0.117-0.009,0.176-0.026l26.229-8.088
	c0.152-0.048,0.279-0.153,0.353-0.295S329.146,458.197,329.098,458.046z M408.021,421.45c-0.036-0.279-0.263-0.496-0.544-0.519
	l-42.763-3.395c-0.074-0.005-0.148,0.002-0.22,0.024l-42.559,12.885c-0.269,0.081-0.444,0.339-0.42,0.619
	c0.023,0.28,0.239,0.505,0.518,0.541l42.336,5.385c0.025,0.003,0.05,0.005,0.075,0.005c0.066,0,0.132-0.012,0.194-0.033
	l42.985-14.875C407.892,421.996,408.057,421.73,408.021,421.45z M485.479,414.106c-0.438,2.556-0.89,5.454-1.329,8.843l23.866-8.378
	v-8.345L485.479,414.106z M411.135,440.1l-109.181,38.174h24.59l85.099-29.872L411.135,440.1z M481.237,478.274h26.779v-62.44
	l-24.033,8.436C482.6,435.446,481.39,451.802,481.237,478.274z M330.139,478.274h83.329l-1.749-28.637L330.139,478.274z
	 M444.43,234.344c1.665,0,3.015-1.35,3.015-3.015s-1.35-3.015-3.015-3.015c-1.665,0-3.015,1.35-3.015,3.015
	C441.415,232.995,442.765,234.344,444.43,234.344z M459.171,235.177h29.313c1.817,0,3.353-2.121,3.353-4.63
	c0-1.718-0.694-3.29-1.813-4.103c-0.209-0.151-0.296-0.42-0.217-0.666c0.08-0.245,0.309-0.411,0.566-0.411
	c2.521,0,4.024-1.731,4.024-4.63c0-1.718-0.694-3.29-1.813-4.103c-0.208-0.152-0.295-0.42-0.216-0.666
	c0.08-0.245,0.309-0.411,0.566-0.411h0.673c1.817,0,3.352-2.121,3.352-4.63c0-1.718-0.694-3.29-1.812-4.103
	c-0.209-0.151-0.296-0.42-0.217-0.666c0.08-0.245,0.309-0.411,0.566-0.411h0.673c1.817,0,3.352-2.121,3.352-4.63
	c0-2.51-1.534-4.631-3.352-4.631h-20.316c-0.167,0-0.327-0.07-0.439-0.194c-0.113-0.124-0.169-0.289-0.153-0.456l0.985-10.693
	l-2.379-5.52h-4.845l-1.1,9.25c-0.015,0.123-0.066,0.238-0.149,0.33l-12.378,13.647c-0.113,0.125-0.273,0.195-0.441,0.195h-2.103
	v29.179c0.343,0.169,0.8,0.402,1.314,0.665C455.606,233.622,458.6,235.151,459.171,235.177z M435.69,276.757
	c-0.004-0.008-0.007-0.017-0.01-0.025c-5.669-14.162-18.493-20.968-21.296-20.612c-3.191,0.416-37.86,3.847-42.964,4.351
	l1.307,13.417c2.096,4.542,7.991,16.984,10.885,19.645c3.181,2.927,18.315-0.46,21.467-1.206c-1.074-2.446-1.584-4.524-2.15-6.838
	c-0.332-1.359-0.676-2.765-1.167-4.398c-0.095-0.315,0.084-0.647,0.398-0.742c0.318-0.094,0.646,0.084,0.742,0.399
	c0.5,1.664,0.848,3.084,1.183,4.458c0.477,1.947,0.909,3.721,1.688,5.692c-0.918-7.949-0.571-12.965-0.566-13.031
	c0.024-0.328,0.295-0.567,0.638-0.55c0.327,0.024,0.574,0.31,0.55,0.637c-0.006,0.086-0.6,8.733,1.904,21.361
	c0.075,0.38,0.153,0.77,0.235,1.169c0.003,0.013,0.006,0.025,0.008,0.038c2.654,12.959,8.499,35.575,8.56,35.81
	c0.069,0.269-0.055,0.549-0.301,0.677c-0.083,0.044-8.476,4.396-21.144,8.141c-4.055,1.198-8.635,2.39-12.993,3.457
	c-0.022,0.008-0.045,0.013-0.068,0.018c-1.946,0.476-3.846,0.927-5.635,1.343c0.293,1.328,0.971,4.707,1.141,8.238
	c0.16,3.339-0.091,6.124-0.235,7.366c4.33-0.033,9.738-0.082,16.234-0.155c18.268-0.205,42.567-12.426,45.566-13.971
	c0.146-4.865,1.627-58.674-3.381-73.091C436.098,277.812,435.899,277.279,435.69,276.757z M315.717,316.183h6.331
	c-1.006-0.803-2.507-1.867-3.678-2.121C317.053,313.768,316.039,315.539,315.717,316.183z M327.803,316.183
	c-1.546-1.551-4.955-4.865-7.083-6.143c-0.565-0.342-0.894-0.255-1.09-0.16c-0.793,0.381-1.304,1.894-1.553,2.958
	c0.176,0.001,0.357,0.021,0.545,0.061c2.084,0.453,4.784,2.843,5.269,3.285H327.803z M328.506,310.139
	c0.62,0.551,1.205,1.136,1.748,1.718l-0.121-1.918c-0.005-0.001-0.011-0.003-0.016-0.004
	C329.451,309.828,328.878,309.984,328.506,310.139z M228.024,283.421c0.168-0.163,0.225-0.41,0.145-0.63
	c-0.08-0.221-0.282-0.374-0.516-0.391c-0.186-0.014-4.571-0.385-5.951-4.49c-1.177-3.505-2.664-12.114,8.936-16.35
	c7.507-2.741,11.873-14.736,12.831-17.636c0.347,0.162,0.817,0.418,1.329,0.804c0.431,0.381,0.914,0.898,1.426,1.623
	c1.387,1.963,1.585,4.573,1.222,7.798c-0.167,1.054-0.315,2.055-0.446,3.003c-0.187,1.045-0.315,2.177-0.403,3.305
	c-0.353,3.408-0.394,5.95-0.127,7.717c0,0.001,0,0.004,0,0.004c0,0.001,0.001,0.002,0.001,0.003c0.123,0.812,0.308,1.47,0.562,1.962
	c0.935,1.813,2.343,3.182,2.989,3.753c-0.193,0.407-0.602,1.082-1.332,1.518c-1.125,0.673-2.649,0.497-2.666,0.494
	c-0.287-0.034-0.563,0.144-0.645,0.424c-0.018,0.062-1.807,6.199-2.594,9.784c-0.208,0.945-0.863,1.729-1.896,2.269
	c-2.376,1.24-6.305,1.053-10.009-0.479c-1.936-0.801-3.688-0.808-5.206-0.021c-3.82,1.979-5.324,8.61-6.421,13.452
	c-0.207,0.911-0.399,1.763-0.591,2.51c-1.624,6.332-0.017,11.835,2.51,17.291c-0.794-0.898-1.762-2.112-2.871-3.738
	c-2.938-4.309-5.559-6.256-6.175-6.679c-2.337-3.605-7.057-9.525-13.344-10.502l7.881-17.697c5.263,1.599,10.583,2.423,14.665,2.423
	C224.529,284.943,226.969,284.442,228.024,283.421z M243.866,264.269c-0.375-0.077-0.851,0.774-1.062,1.899
	c-0.211,1.126-0.079,2.1,0.297,2.177c0.375,0.077,0.851-0.774,1.062-1.899c0,0,0,0,0,0
	C244.374,265.321,244.241,264.346,243.866,264.269z M234.682,260.036c0.116,0.161,0.298,0.246,0.483,0.246
	c0.121,0,0.243-0.037,0.348-0.112c0.008-0.006,0.328-0.231,0.867-0.51l8.092-0.184c0.535,0.254,0.853,0.462,0.862,0.468
	c0.274,0.182,0.643,0.108,0.825-0.165c0.183-0.273,0.11-0.642-0.163-0.825c-0.104-0.069-2.565-1.699-5.68-1.583
	c-3.097,0.114-5.406,1.765-5.502,1.835C234.549,259.398,234.49,259.77,234.682,260.036z M322.014,302.867
	c0,1.896,0.09,3.583,0.157,4.58c0.156-0.054,0.317-0.093,0.484-0.118c0.449-1.142,2.055-4.181,6.262-3.347
	c0.291,0.058,0.573,0.126,0.854,0.195l-0.568-9.055C325.59,297.922,322.014,301.095,322.014,302.867z M329.473,316.183h2.775
	c-1.131-1.571-3.881-5.116-6.835-6.878c-1.25-0.745-2.27-0.986-2.943-0.698c-0.362,0.153-0.583,0.443-0.711,0.681
	C324.729,311.257,329.264,315.965,329.473,316.183z M323.911,307.391c0.644,0.14,1.349,0.437,2.111,0.892
	c0.507,0.303,1.005,0.65,1.489,1.027c0.331-0.2,1.122-0.601,2.16-0.601c0.202,0,0.413,0.015,0.631,0.05
	c0.892,0.141,2.09,0.615,3.359,1.118c0.955,0.378,1.942,0.769,2.89,1.06c0.904,0.279,2.034-0.162,2.634-0.72
	c0.288-0.269,0.393-0.507,0.368-0.615c-0.02-0.083-0.17-0.22-0.531-0.33c-1.003-0.307-2.055-0.832-3.273-1.44
	c-1.99-0.994-4.246-2.121-7.064-2.681C325.688,304.555,324.393,306.364,323.911,307.391z M438.256,280.983
	c2.688,11.715,3.041,36.072,2.919,52.952c1.8,3.685,7.193,14.897,9.311,21.251c2.011,6.032,1.524,10.786,1.223,12.554
	c9.732-5.138,20.549-11.81,22.651-13.116c-7.359-27.514-16.62-42.354-29.414-62.854C442.791,288.318,440.583,284.78,438.256,280.983
	z M358.064,255.854c-0.454,0.496-0.903,0.814-1.247,1.004c0.91,2.341,3.885,11.728-0.396,25.636
	c-0.539,1.75-1.213,3.253-2.014,4.518c0.954,0.31,2.648,0.951,4.502,2.089c1.593,0.977,3.591,2.441,5.001,3.509l-1.292-3.165
	c-1.252-3.065-4.407-5.57-4.68-5.782c-0.169-0.118-0.271-0.321-0.252-0.542c0.006-0.07,0.024-0.137,0.053-0.198
	c0.191-0.492,2.704-7.102,2.604-14.716c-0.088-6.646-0.016-9.645,0.015-10.545L358.064,255.854z M247.208,428.009
	c0.32-0.041,0.622,0.19,0.664,0.517c0.002,0.021,0.286,2.063,2.074,3.772c0.551,0.527,1.128,1,1.688,1.458
	c0.364,0.299,0.717,0.587,1.035,0.872c0.339-0.379,0.713-0.957,0.62-1.516c-0.119-0.712-3.488-6.139-6.558-7.575
	c-0.853-0.396-1.544-0.429-2.117-0.094c-3.573,2.097-13.791,3.734-14.224,3.803c-0.195,0.03-0.389-0.036-0.524-0.177l-2.432-2.546
	c-1.043,0.613-4.149,2.743-6.795,7.513c3.512,3.982,6.516,6.13,8.926,6.371c2.232,0.23,4.814-0.264,6.89-0.656
	c2.418-0.457,4.018-0.761,4.78-0.044c0.959,0.9,5.665,2.95,6.7,3.178c0.171,0.034,0.35-0.063,0.429-0.244
	c0.138-0.315-0.029-0.911-0.952-1.554c-2.158-1.499-4.903-4.134-5.019-4.245c-0.237-0.228-0.244-0.604-0.017-0.842
	c0.229-0.235,0.606-0.244,0.842-0.016c0.028,0.026,2.794,2.68,4.874,4.125c0.307,0.214,0.559,0.433,0.763,0.653
	c0.348,0.086,1.288,0.264,2.119-0.075c0.314-0.129,0.371-0.3,0.386-0.417c0.026-0.202-0.056-0.485-0.261-0.813
	c-0.02-0.024-0.037-0.052-0.052-0.08c-0.24-0.355-0.623-0.758-1.167-1.164c-1.194-0.89-5.021-4.432-5.021-5.236
	c0-0.329,0.267-0.596,0.595-0.596c0.267,0,0.492,0.176,0.568,0.418c0.301,0.481,2.739,3.096,4.569,4.459
	c0.462,0.345,0.85,0.705,1.155,1.068c0.375-0.235,0.913-0.669,1.127-1.314c0.184-0.551-0.874-1.417-1.994-2.335
	c-0.549-0.449-1.172-0.96-1.756-1.518c-2.107-2.017-2.42-4.387-2.433-4.487C246.65,428.346,246.882,428.049,247.208,428.009z
	 M359.108,282.652l13.393,1.198l-2.282-23.442l-8.685-2.261c-0.032,1.274-0.077,4.321-0.001,10.045
	C361.62,274.866,359.818,280.644,359.108,282.652z M366.441,365.636c1.858-0.006,5.262-0.02,10.224-0.056
	c0.133-1.113,0.408-3.957,0.247-7.318c-0.163-3.392-0.828-6.726-1.112-8.026c-3.792,0.873-6.979,1.566-8.865,1.969
	c0.189,0.929,0.474,2.854,0.321,5.564C367.092,360.677,366.64,364.182,366.441,365.636z M292.235,352.941
	c1.875-0.908,3.551-1.734,4.951-2.436l2.136-9.589c-2.284,0.68-5.628,1.567-9.494,2.551c-0.043,0.239-0.094,0.658-0.107,1.237
	l1.749,6.849C291.766,352.138,292.041,352.619,292.235,352.941z M334.963,367.147c-1.322-0.302-2.979-0.841-4.581-1.361
	c-1.517-0.493-3.495-1.138-4.426-1.27c0.813,0.975,3.691,3.134,7.327,4.488c4.535,1.69,10.409,2.095,11.677,1.807
	c1.461-0.325,19.467-5.104,19.648-5.151c0.05-0.014,0.101-0.021,0.152-0.021c0.012,0,0.171,0,0.479,0
	c0.182-1.319,0.659-4.952,0.827-7.937c0.145-2.566-0.127-4.399-0.298-5.251c-0.394,0.083-0.625,0.131-0.669,0.141
	c-0.012,0.002-0.023,0.004-0.035,0.006c-0.084,0.013-0.167,0.009-0.245-0.013c-0.076-0.021-0.149-0.056-0.216-0.107
	c-0.011-0.009-0.021-0.019-0.032-0.027c-0.187-0.167-2.995-2.694-3.823-4.886c-0.571-1.509-3.093-3.899-4.271-4.918l-0.894,4.015
	l-0.312,1.404c0.239,0.056,0.435,0.247,0.465,0.506c0.036,0.327-0.199,0.621-0.526,0.657c-0.349,0.038-8.6,0.936-13.002,0.039
	l-1.438-0.299c-8.273-1.731-12.663-2.209-13.058-1.416c-0.162,1.07,2.56,1.781,5.191,2.469c1.021,0.268,2.078,0.543,3.116,0.868
	c4.197,1.314,8.029,2.425,8.068,2.436c0.296,0.086,0.478,0.384,0.418,0.687c-0.059,0.304-0.357,0.52-0.646,0.478
	c-0.17-0.018-17.013-1.748-19.583-1.66c-1.158,0.049-1.704,0.47-1.716,0.622c-0.011,0.139,0.485,0.808,2.977,1.305
	c3.848,0.77,8.268,1.736,11.494,2.442l2.55,0.556c3.328,0.718,3.673,2.166,3.708,2.448c0.021,0.174-0.034,0.349-0.153,0.478
	c-0.118,0.129-0.288,0.188-0.463,0.191c-0.065-0.003-6.661-0.295-11.975-1.626c-4.515-1.131-5.663-0.76-5.886-0.646
	c0.012,0.019,0.028,0.051,0.054,0.093c0.665,0.729,8.906,3.778,16.479,6.289c0.215,0.072,0.371,0.26,0.402,0.484
	s-0.068,0.447-0.257,0.574C341.372,366.117,338.577,367.969,334.963,367.147z M345.975,279.862c1.332-1.402,1.726-3.398,1.821-4.826
	c-0.596,0.808-1.426,1.894-2.452,3.135c-1.181,1.429-2.528,2.293-3.572,2.8C343.017,281.192,344.731,281.17,345.975,279.862z
	 M305.664,256.981c-1.145-2.444-1.959-5.087-2.396-7.786c3.11,0.685,11.149-0.33,15.164-8.168c3.573-6.979,9.905-8.209,11.271-8.396
	c1.397,1.446,4.311,4.687,5.517,7.726c0.087,0.218,0.295,0.365,0.529,0.375c0.046,0.002,4.669,0.256,7.676,4.754
	c3.215,4.809,4.677,5.69,4.833,5.775c0.089,0.048,0.187,0.072,0.284,0.072c0.117,0,0.234-0.035,0.335-0.104
	c0.185-0.125,0.283-0.344,0.256-0.565c-0.004-0.031-0.296-2.417-0.48-5.348c0.119-0.148,0.174-0.344,0.115-0.539
	c-0.004-0.012-0.109-0.386-0.197-0.993c-0.021-0.482-0.039-0.97-0.05-1.457c-0.043-1.918,0.381-3.415,0.823-4.444
	c0.202-0.451,0.44-0.904,0.735-1.352c0.003-0.005,0.007-0.01,0.01-0.015c0.621-0.939,1.398-1.311,2.317-1.102
	c2.387,0.546,5.469,4.95,6.287,11.113c0.592,4.464-0.248,6.845-1.16,8.105c-0.008,0.009-0.019,0.013-0.027,0.023
	c-0.015,0.019-0.019,0.042-0.031,0.062c-0.745,0.987-1.519,1.24-1.587,1.26c-0.17,0.046-0.31,0.165-0.384,0.324
	c-0.073,0.159-0.073,0.343,0,0.501c0.046,0.098,4.501,10-0.222,25.341c-1.654,5.377-4.615,8.252-8.799,8.544
	c-2.816,0.197-6.008-0.741-9.338-2.411c-0.028-0.017-0.056-0.03-0.085-0.043c-8.287-4.185-17.416-12.941-23.791-20.489
	c0.207-0.623,0.936-2.177,3.217-2.899c2.721-0.861,6.899-0.729,7.927-0.681c1.989,2.162,6.727,7.658,7.177,9.78
	c0.455,2.137,2.637,5.534,4.889,5.786c0.087,0.01,0.178,0.016,0.271,0.016c0.797,0,1.812-0.403,2.585-2.078
	c2.097-4.547,1.967-6.933,1.96-7.032c-0.021-0.326-0.307-0.57-0.629-0.553c-0.327,0.02-0.577,0.301-0.559,0.628
	c0.001,0.022,0.096,2.231-1.854,6.458c-0.454,0.985-1.007,1.455-1.643,1.378c-1.463-0.164-3.445-2.916-3.857-4.851
	c-0.615-2.893-6.915-9.746-7.631-10.518c-0.018-0.02-0.043-0.029-0.063-0.045c-0.038-0.032-0.074-0.064-0.119-0.086
	c-0.039-0.019-0.081-0.024-0.123-0.033c-0.031-0.007-0.059-0.023-0.092-0.025c-0.214-0.014-5.276-0.33-8.6,0.721
	c-2.193,0.694-3.233,2.044-3.715,3.007C309.147,262.755,306.709,259.212,305.664,256.981z M324.839,268.577
	c-0.825-0.737-1.804-0.956-2.186-0.492c-0.382,0.466-0.021,1.44,0.804,2.177c0.825,0.737,1.804,0.957,2.185,0.491
	C326.024,270.288,325.664,269.313,324.839,268.577z M339.776,280.453c-0.249,0.055-0.437,0.263-0.464,0.516
	c-0.028,0.253,0.107,0.497,0.339,0.604c0.103,0.048,1.547,0.708,3.283,0.708c1.283,0,2.727-0.362,3.903-1.599
	c2.663-2.805,2.146-7.36,2.123-7.553c-0.029-0.248-0.21-0.45-0.452-0.508c-0.246-0.056-0.495,0.042-0.634,0.249
	c-0.013,0.019-1.313,1.958-3.449,4.542C342.415,279.846,339.803,280.447,339.776,280.453z M336.828,257.689
	c-0.825-0.737-1.804-0.956-2.186-0.491c-0.381,0.466-0.022,1.44,0.804,2.177c0.825,0.736,1.804,0.956,2.185,0.491
	C338.012,259.4,337.653,258.426,336.828,257.689z M327.832,258.401c-0.041,0.326,0.189,0.625,0.515,0.666
	c0.026,0.003,0.052,0.005,0.077,0.005c0.295,0,0.551-0.219,0.59-0.52c0.006-0.049,0.659-4.939,3.292-8.314
	c2.486-3.184,5.016-2.796,5.119-2.777c0.315,0.059,0.634-0.153,0.693-0.477c0.061-0.323-0.153-0.634-0.477-0.694
	c-0.132-0.024-3.319-0.566-6.274,3.216C328.535,253.135,327.859,258.187,327.832,258.401z M346.565,291.876
	c-0.274,0.019-0.554,0.029-0.834,0.029c-2.738,0-5.746-0.9-8.854-2.417c-0.584,0.445-1.387,1.021-2.379,1.73
	c-0.923,0.66-2.076,1.487-3.302,2.395l0.917,11.281c1.58,0.581,2.965,1.271,4.169,1.872c1.171,0.585,2.182,1.09,3.089,1.367
	c0.949,0.291,1.255,0.813,1.344,1.202c0.133,0.576-0.122,1.199-0.718,1.753c-0.836,0.779-2.383,1.421-3.794,0.987
	c-0.992-0.305-2.002-0.705-2.979-1.092c-0.216-0.086-0.426-0.168-0.636-0.25l0.217,2.678c0.845,0.421,3.085,1.384,5.414,1.094
	c0.58-0.566,2.813-2.648,5.078-3.444c2.288-0.804,9.463-6.784,11.296-8.33c-0.04-0.046-0.091-0.082-0.115-0.14l-3.655-8.777
	c-0.034-0.082-0.048-0.167-0.045-0.25l0.037-2.964C349.555,291.335,348.14,291.766,346.565,291.876z M441.125,419.59
	c-0.329,0-0.596,0.267-0.596,0.596v58.088v0.596c0,0.329,0.267,0.596,0.596,0.596s0.596-0.267,0.596-0.596v-0.596v-58.088
	C441.721,419.857,441.454,419.59,441.125,419.59z M433.031,413.593c-0.125-0.065-3.143-1.617-9.495-2.905
	c-6.273-1.273-11.148-2.198-11.196-2.208c-0.323-0.059-0.635,0.151-0.696,0.474c-0.062,0.323,0.151,0.635,0.474,0.696
	c0.049,0.009,4.916,0.933,11.183,2.204c6.164,1.25,9.151,2.779,9.181,2.795c0.088,0.045,0.182,0.066,0.274,0.066
	c0.215,0,0.423-0.116,0.528-0.32C433.436,414.104,433.322,413.744,433.031,413.593z M208.516,277.963
	c0.019,0.003,0.038,0.004,0.057,0.004c0.173,0,0.326-0.126,0.354-0.303c0.032-0.196-0.102-0.381-0.298-0.413
	c-0.069-0.011-6.916-1.194-8.957-7.997c-2.111-7.037,2.265-13.132,11.422-15.907c11.39-3.452,24.013-10.835,25.283-21.207
	c0.024-0.197-0.116-0.377-0.313-0.401c-0.198-0.024-0.377,0.116-0.401,0.313c-1.228,10.028-13.604,17.22-24.777,20.606
	c-9.435,2.859-14.107,9.454-11.902,16.803C201.157,276.706,208.442,277.951,208.516,277.963z M220.303,258.552
	c-0.197-0.037-0.383,0.092-0.42,0.287c-0.037,0.195,0.091,0.383,0.286,0.42c0.023,0.004,0.662,0.118,1.736,0.118
	c2.966,0,9.249-0.864,15.025-7.271c6.643-7.367,4.792-15.243,4.018-17.602c2.366,0.775,10.172,3.691,12.377,9.036
	c2.6,6.304-0.182,12.737-0.21,12.801c-0.08,0.182,0.002,0.394,0.184,0.475c0.18,0.08,0.394-0.001,0.475-0.183
	c0.121-0.273,2.937-6.772,0.217-13.367c-2.728-6.615-13.094-9.545-13.534-9.667c-0.132-0.037-0.277,0.006-0.368,0.112
	c-0.091,0.105-0.113,0.254-0.056,0.381c0.04,0.09,3.93,9.141-3.636,17.532C228.811,260.035,220.386,258.566,220.303,258.552z
	 M291.256,430.38l11.431,35.196l25.091-7.737l-11.432-35.196L291.256,430.38z M283.978,462.317l15.182-3.75l-8.546-26.313
	L283.978,462.317z M324.952,430.777l39.43,5.015l40.164-13.898l-39.813-3.16L324.952,430.777z"></path>
<path id="color_x5F_3" fill="#50e3c2" d="M409.21,364.411l10.318,12.355c-6.278,0.603-11.54,0.836-12.787,0.886l-9.69-11.173
	C400.99,366.189,405.123,365.433,409.21,364.411z M365.942,297.799c-0.703-0.396-3.479-1.893-6.967-2.905l-3.404,7.708
	c-0.096,0.216-0.31,0.355-0.545,0.355c-0.002,0-0.004,0-0.007,0c-0.174-0.002-0.318-0.098-0.428-0.227
	c-1.832,1.546-9.007,7.526-11.296,8.33c-2.265,0.796-4.498,2.878-5.078,3.444c0.013-0.002,0.026-0.002,0.039-0.004
	c3.479-0.452,5.197,1.572,5.27,1.658c0.006,0.007,0.007,0.016,0.013,0.024h18.83l-2.748,12.339
	c7.529,5.275,21.076,17.147,23.025,18.863c3.591-0.882,7.321-1.846,10.771-2.827c-2.757-3.06-13.567-15.406-18.739-26.39
	C370.684,309.68,367.556,301.941,365.942,297.799z M355.042,300.853l2.769-6.267c-2.605-0.621-4.586-0.592-5.59-0.508
	L355.042,300.853z M358.785,293.605c0.006,0.002,0.013,0.004,0.02,0.005c2.744,0.745,5.075,1.789,6.483,2.495
	c-0.248-0.652-0.412-1.09-0.492-1.306c-0.683-0.537-4.122-3.216-6.511-4.682c-1.995-1.224-3.835-1.852-4.592-2.08
	c-0.515,0.663-1.074,1.241-1.678,1.734l-0.04,3.132C353.122,292.79,355.546,292.728,358.785,293.605z M394.409,320.527
	c2.237,4.521,3.746,6.462,4.22,7.017c1.147-0.019,5.62-0.088,7.229-0.088c1.148,0,4.669-2.185,6.846-3.71
	c-1.756-7.115-3.836-15.805-5.189-22.314l-17.675,6.852C390.338,310.022,392.08,315.819,394.409,320.527z M338.41,315.683
	c-2.207,0.288-4.286-0.389-5.495-0.908l0.027,0.336c0.374,0.507,0.636,0.887,0.76,1.073h7.919
	C340.93,315.816,339.875,315.488,338.41,315.683z M450.485,355.185c-2.118-6.354-7.51-17.566-9.311-21.251
	c-0.071,9.793-0.302,17.071-0.329,17.898c-0.007,0.213-0.127,0.406-0.316,0.507c-0.194,0.104-14.599,7.674-30.043,11.745
	l10.474,12.54c3.018-0.31,6.207-0.707,9.259-1.207c3.567-0.632,7.13-1.44,10.382-2.477c2.992-1.093,6.947-3.004,11.106-5.2
	C452.009,365.971,452.496,361.217,450.485,355.185z M413.009,324.983c-1.651,1.135-5.52,3.665-7.151,3.665
	c-1.848,0-7.479,0.092-7.479,0.092c-0.151-0.007-0.314-0.061-0.428-0.172c-0.071-0.07-1.776-1.79-4.607-7.513
	c-2.813-5.685-4.778-12.903-4.798-12.976c-0.08-0.294,0.075-0.601,0.359-0.71l18.367-7.12c-0.048-0.237-0.095-0.472-0.141-0.701
	c-0.328-1.655-0.604-3.242-0.835-4.752c-0.478-0.874-0.874-1.689-1.217-2.469c-3.153,0.746-18.286,4.133-21.467,1.206
	c-2.894-2.662-8.789-15.104-10.885-19.645l1.028,10.561c0.017,0.176-0.045,0.351-0.17,0.477c-0.125,0.125-0.296,0.196-0.476,0.173
	l-13.059-1.168c1.181,1.132,2.804,2.951,3.667,5.064l2.129,5.214c0.002,0.005,0.001,0.009,0.003,0.014
	c0.001,0.002,0.003,0.004,0.004,0.006c0.04,0.108,4.029,10.957,9.903,23.431c5.403,11.479,17.091,24.511,18.936,26.531
	c0.21-0.062,0.419-0.123,0.626-0.185c10.963-3.24,18.674-6.928,20.51-7.841C415.473,334.779,414.36,330.439,413.009,324.983z"></path>
<path id="color_x5F_4" fill="#00CEC9" d="M405.996,388.412c0.104,2.502-0.173,4.295-0.523,6.564
	c-0.233,1.51-0.498,3.222-0.708,5.488c-0.131,1.412,0.06,2.589,0.422,3.576l-55.908-0.406c-0.027-0.001-0.11,0.007-0.164,0.022
	l-95.896,26.827c-1.404-2.158-3.77-4.991-5.983-6.026c-1.217-0.569-2.302-0.585-3.224-0.043c-3.05,1.79-11.754,3.312-13.501,3.604
	l-2.531-2.649c-0.001-0.001-0.001-0.001-0.002-0.001c-0.103-0.118-1.21-1.373-2.9-3.379l0.004-0.901
	c0.082-18.244,0.146-32.656,2.724-55.229c1.092-4.083,2.033-7.759,2.736-10.903c3.35,2.388,17.033,12.042,22.076,14.016
	c0.338,0.132,0.78,0.194,1.314,0.194c6.698,0,27.818-9.815,38.361-14.925c0.02-0.01,0.044-0.006,0.063-0.019
	c0.009-0.006,0.013-0.015,0.022-0.022c1.884-0.914,3.423-1.673,4.473-2.195l-8.623,38.72h57.54l4.463-20.039
	c5.508-1.441,13.62-3.593,14.607-3.855c0.131-0.001,0.428-0.001,0.891-0.002c0.02,0,0.039,0,0.059,0
	c1.692-0.004,5.481-0.018,11.389-0.062c0.011,0.003,0.022,0,0.033,0c4.438-0.033,10.07-0.083,16.904-0.159
	c0.475-0.006,0.955-0.02,1.438-0.04l10.329,11.91C405.872,379.58,405.839,384.67,405.996,388.412z M177.66,451.623l1.354-0.379
	l-1.371,0.375C177.648,451.62,177.656,451.622,177.66,451.623z M378.396,209.724h14.453V204.1l-4.453,3.873l-8.533-10.951
	l9.884,4.977l3.102-1.908v-4.821h-14.453V209.724z M378.396,186.685h14.453v-5.624l-4.453,3.873l-8.533-10.951l9.884,4.977
	l3.102-1.908v-4.821h-14.453V186.685z M361.861,347.143c0.614,1.624,2.622,3.597,3.289,4.222c1.488-0.311,8.318-1.754,16.085-3.635
	c-3.247-2.845-14.924-12.987-21.894-17.944l-2.589,11.626c0.091,0.02,0.179,0.054,0.255,0.119
	C357.17,341.667,361.019,344.915,361.861,347.143z M517.861,477.669h-8.654v-62.661c0-0.01,0-0.02,0-0.029v-9.582
	c0-0.023-0.001-0.047-0.004-0.071v-0.001c0-0.001,0-0.001,0-0.002c-0.003-0.027-0.008-0.055-0.015-0.081
	c0-0.001-0.001-0.002-0.001-0.003v-0.001c-0.022-0.084-0.062-0.16-0.114-0.226l-0.001-0.001c-0.001,0-0.001-0.001-0.001-0.001
	c-0.033-0.04-0.072-0.076-0.115-0.107c-0.003-0.002-0.006-0.004-0.009-0.006c-0.001-0.001-0.001-0.001-0.002-0.002
	c0.001,0.001-0.002-0.001-0.002-0.001c-0.078-0.053-0.171-0.087-0.269-0.098c-0.001,0-0.001,0-0.002,0c0,0,0,0-0.001,0
	c-0.021-0.003-0.036,0.004-0.063-0.004l-21.396-0.155c1.18-6.601,1.711-11.794,0.449-21.952
	c-1.452-11.693-11.193-26.713-12.064-28.037c-7.42-27.897-16.743-42.839-29.642-63.509c-2.909-4.661-5.917-9.48-9.182-14.88
	c-5.877-14.656-19.171-21.75-22.543-21.32c-3.272,0.427-41.193,4.176-43.413,4.395l-9.582-2.495l-2.461-1.941
	c0.952-1.564,1.675-4.177,1.098-8.526c-0.816-6.156-3.913-11.365-7.201-12.118c-0.976-0.223-1.883,0.006-2.651,0.611
	c-1.058-2.234-4.428-8.79-8.764-11.577c-0.038-0.025-0.076-0.046-0.115-0.07c-1.268-0.945-2.675-1.746-4.254-2.334
	c-1.172-0.436-2.41-0.741-3.708-0.924c-3.067-0.542-6.249-0.3-9.822,0.703c-0.204,0.057-0.398,0.117-0.598,0.175
	c-1.51,0.403-3.072,0.921-4.686,1.552c-1.344,0.51-2.596,1.052-3.76,1.628c-0.09,0.043-0.178,0.081-0.268,0.124
	c-0.876,0.421-1.697,0.89-2.473,1.396c-5.982,3.744-8.981,8.797-9.56,15.881c-0.692,5.394,0.25,11.107,2.575,16.069
	c3.173,6.773,17.851,24.324,31.117,31.394c-0.529,0.39-1.174,0.853-1.897,1.37c-0.917,0.656-1.829,1.314-2.723,1.97l-0.124-1.53h0
	c0,0-0.606-0.299-1.234-0.299s-0.793,0.413-0.793,0.413l0.181,2.885c-4.626,3.518-8.291,6.853-8.291,9.178
	c0,2.498,0.155,4.644,0.214,5.371c-0.137,0.165-0.243,0.334-0.327,0.489c-0.682-0.227-1.227-0.097-1.593,0.079
	c-1.554,0.746-2.153,3.399-2.323,4.371c-1.434,0.786-2.237,2.668-2.282,2.776c-0.031,0.075-0.046,0.153-0.046,0.229h-9.636
	l-5.211,23.397c-5.714,1.763-20.048,5.224-31.638,8.022c-4.303,1.039-8.238,1.988-11.234,2.731
	c-4.628-3.854-8.565-7.095-11.974-9.902c-11.678-9.618-17.034-14.03-22.783-20.383c-2.272-5.063-3.646-10.168-2.174-15.909
	c0.194-0.757,0.39-1.618,0.599-2.541c1.046-4.615,2.479-10.934,5.808-12.658c1.208-0.625,2.583-0.605,4.203,0.064
	c4.076,1.687,8.299,1.854,11.015,0.435c1.356-0.708,2.223-1.769,2.509-3.069c0.654-2.98,2.014-7.764,2.442-9.25
	c0.667,0.021,1.882-0.07,2.91-0.685c1.507-0.902,1.984-2.483,2.004-2.55c0.068-0.233-0.012-0.484-0.203-0.635
	c-0.019-0.015-1.913-1.523-3.011-3.654c-0.162-0.314-0.288-0.732-0.385-1.233c1.692-1.637,11.731-12.022,8.442-24.822
	c-2.27-8.833-14.95-13.787-26.06-15.478c-10.73-1.633-23.979-0.633-27.721,5.42c-2.144,3.469-3.827,6.023-5.311,8.276
	c-3.097,4.701-5.335,8.098-9.187,15.818c-3.492,6.999-1.577,13.454,5.538,18.666c3.423,2.508,7.714,4.489,12.111,5.923
	l-7.981,17.924c-0.558-0.027-1.126-0.013-1.705,0.047c-10.639,1.076-13.273,18.498-13.377,19.219
	c-0.066,0.369-6.65,37.165-6.53,60.42c0.011,2.08,0.24,4.092,0.737,6.11c-0.169,10.201-3.792,14.993-7.985,20.541
	c-5.14,6.801-10.963,14.509-13.181,33.763l-0.024,0.154c-0.535,3.504-1.643,10.769-0.489,17.622l-70.425,19.702H73.941
	c-4.78-12.922-45.783-129.059-5.806-208.207c42.38-83.908,98.698-75.944,159.851-70.966c61.153,4.978,93.862-26.31,128.706-61.153
	c34.843-34.843,147.905-39.821,177.77,92.44C562.575,354.286,522.643,465.096,517.861,477.669z M408.591,213.448l-14.55,8.95v-4.683
	c0-0.329-0.267-0.595-0.596-0.595h-15.645c-0.329,0-0.596,0.267-0.596,0.595v15.644c0,0.329,0.267,0.595,0.596,0.595h15.645
	c0.329,0,0.596-0.267,0.596-0.595v-7.255L408.591,213.448z M408.591,190.409l-14.55,8.95v-4.683c0-0.329-0.267-0.595-0.596-0.595
	h-15.645c-0.329,0-0.596,0.267-0.596,0.595v15.644c0,0.329,0.267,0.595,0.596,0.595h15.645c0.329,0,0.596-0.267,0.596-0.595v-7.255
	L408.591,190.409z M408.591,167.37l-14.55,8.95v-4.683c0-0.329-0.267-0.595-0.596-0.595h-15.645c-0.329,0-0.596,0.267-0.596,0.595
	v15.644c0,0.329,0.267,0.595,0.596,0.595h15.645c0.329,0,0.596-0.267,0.596-0.595v-7.255L408.591,167.37z M408.591,144.331
	l-14.55,8.95v-4.683c0-0.329-0.267-0.595-0.596-0.595h-15.645c-0.329,0-0.596,0.267-0.596,0.595v15.644
	c0,0.329,0.267,0.595,0.596,0.595h15.645c0.329,0,0.596-0.267,0.596-0.595v-7.255L408.591,144.331z M500.715,201.116
	c0-3.209-2.038-5.821-4.543-5.821h-19.664l0.939-10.194c0.009-0.099-0.007-0.199-0.046-0.29l-2.594-6.019
	c-0.095-0.219-0.31-0.36-0.547-0.36h-5.765c-0.302,0-0.556,0.226-0.591,0.525l-1.14,9.585l-12.073,13.311h-1.839v-0.303
	c0-1.252-0.719-1.971-1.972-1.971h-22.215c-1.252,0-1.971,0.718-1.971,1.971v34.486c0,1.252,0.719,1.97,1.971,1.97h22.215
	c1.253,0,1.972-0.718,1.972-1.97v-2.482c0.236,0.12,0.492,0.25,0.773,0.393c3.211,1.639,4.859,2.419,5.541,2.419h29.316
	c2.505,0,4.544-2.611,4.544-5.821c0-1.565-0.495-3.046-1.34-4.125c2.438-0.536,3.901-2.612,3.901-5.685
	c0-1.532-0.474-2.984-1.286-4.057c2.177-0.43,3.849-2.846,3.849-5.753c0-1.532-0.474-2.984-1.286-4.057
	C499.043,206.44,500.715,204.024,500.715,201.116z M378.396,232.763h14.453v-5.624l-4.453,3.873l-8.533-10.951l9.884,4.977
	l3.102-1.908v-4.821h-14.453V232.763z M378.396,163.646h14.453v-5.624l-4.453,3.873l-8.533-10.951l9.884,4.977l3.102-1.908v-4.821
	h-14.453V163.646z"></path>
<path id="color_x5F_5" fill="#50e3c2" d="M388.397,161.895l-8.533-10.951l9.884,4.977l3.102-1.908l1.191-0.733l14.55-8.95
	l-14.55,12.655l-1.191,1.036L388.397,161.895z M392.85,177.053l-3.102,1.908l-9.884-4.977l8.533,10.951l4.453-3.873l1.191-1.036
	l14.55-12.655l-14.55,8.95L392.85,177.053z M392.85,200.092L389.748,202l-9.884-4.977l8.533,10.951l4.453-3.873l1.191-1.036
	l14.55-12.655l-14.55,8.95L392.85,200.092z M392.85,223.131l-3.102,1.908l-9.884-4.977l8.533,10.951l4.453-3.873l1.191-1.036
	l14.55-12.655l-14.55,8.95L392.85,223.131z M223.894,420.574c0.072-15.982,0.148-29.093,1.945-47.469
	c-0.129,0.472-0.259,0.946-0.39,1.425c-3.319,12.124-7.077,25.854-8.916,36.766C219.174,414.805,221.813,418.07,223.894,420.574z
	 M288.58,343.784c-6.283,1.587-13.744,3.388-20.32,4.976c-4.442,1.072-8.491,2.05-11.52,2.803c-0.047,0.012-0.096,0.018-0.144,0.018
	c-0.138,0-0.273-0.048-0.381-0.139c-4.727-3.936-8.736-7.238-12.2-10.091c-9.969-8.21-15.347-12.643-20.304-17.73
	c0.453,0.889,0.921,1.782,1.391,2.68c3.918,7.485,7.971,15.226,6.184,25.042c-0.133,0.733-0.294,1.525-0.468,2.346
	c2.314,1.653,17.14,12.18,22.234,14.173c3.731,1.465,24.996-8.087,38.105-14.399c-0.589-0.986-1.72-3.072-2.253-5.361
	C288.453,346.154,288.485,344.661,288.58,343.784z M222.701,324.257c-0.532-0.387-2.523-1.996-5.383-6.189
	c-1.283-1.881-2.506-3.29-3.51-4.308c0.001,0.219-0.114,0.432-0.324,0.536c-0.294,0.147-0.652,0.028-0.799-0.267
	c-0.068-0.137-6.972-13.684-16.734-12.708c-9.724,0.984-12.297,18.054-12.322,18.226c-0.07,0.389-6.634,37.078-6.515,60.224
	c0.064,12.327,8.285,22.35,35.559,47.013c0.028,0.021,0.054,0.045,0.077,0.07c2.213,2.001,4.547,4.094,7.016,6.296
	c2.595-4.549,5.544-6.726,6.852-7.528c-0.515-0.592-1.409-1.628-2.554-2.989c-0.026-0.025-0.049-0.054-0.07-0.083
	c-2.23-2.653-5.383-6.506-8.526-10.691c-0.028-0.03-0.052-0.063-0.073-0.098c-2.39-3.187-4.771-6.561-6.731-9.741
	c-6.638-10.769-12.477-16.666-12.535-16.724c-0.146-0.146-0.206-0.357-0.158-0.559l12.939-54.351
	c0.075-0.319,0.394-0.519,0.717-0.441c0.32,0.076,0.518,0.397,0.441,0.717l-12.864,54.033c1.163,1.22,6.507,7.022,12.472,16.699
	c1.725,2.798,3.779,5.749,5.877,8.588c1.908-10.778,5.534-24.022,8.749-35.766c2.475-9.04,4.812-17.58,5.814-23.086
	c1.713-9.414-2.242-16.97-6.067-24.277C223.593,325.983,223.141,325.118,222.701,324.257z M219.644,434.711
	c-0.163-0.187-0.273-0.315-0.328-0.367c-2.254-2.01-4.409-3.939-6.452-5.783l-0.456,13.063c-0.012,0.329-0.295,0.568-0.616,0.574
	c-0.328-0.012-0.585-0.287-0.574-0.615l0.491-14.066c-20.596-18.636-30.394-29.013-34.031-38.414
	c-0.803,8.452-4.192,12.937-8.052,18.043c-5.037,6.665-10.743,14.216-12.935,33.06c0.765,0.725,3.727,3.425,8.254,6.274
	c4.847,3.051,11.631,4.865,12.699,5.139l1.371-0.375l44.955-12.288C222.006,437.399,220.403,435.577,219.644,434.711z"></path>
</svg>