<svg width="367" height="340" viewBox="0 0 367 340" fill="none" xmlns="http://www.w3.org/2000/svg">
<rect width="366.789" height="339.306" fill="white"/>
<path fill-rule="evenodd" clip-rule="evenodd" d="M133.576 202.045C133.576 202.523 133.378 202.834 133.011 203.033C132.275 203.456 130.803 203.629 129.786 203.629C127.179 203.629 124.604 202.779 122.37 200.597C121.38 199.64 119.37 196.747 119.37 192.761C119.37 189.445 120.528 186.877 122.17 185.573C124.323 183.873 126.444 183.705 128.23 183.705C131.878 183.705 134.172 184.919 134.881 185.997C135.307 186.675 135.446 187.468 135.475 187.865C135.505 188.118 135.533 188.288 135.675 188.288C135.872 188.288 135.925 188.148 135.925 187.697C135.925 184.859 136.125 184.073 136.125 183.677C136.125 183.561 136.072 183.45 135.783 183.424C135.076 183.394 134.083 183.282 133.489 183.142C132.955 183.029 130.945 182.657 129.161 182.657C126.985 182.657 124.181 182.857 121.634 184.441C119.114 186.026 116.907 189.221 116.907 193.754C116.907 197.291 118.549 200.314 120.274 201.819C123.419 204.562 127.437 204.844 129.584 204.844C131.229 204.844 133.77 204.534 135.584 203.569C135.922 203.372 135.951 203.319 135.951 202.045V198.873C135.951 197.685 135.951 196.837 136.007 195.933C136.064 194.939 136.288 194.458 137.055 194.314C137.395 194.261 137.565 194.23 137.762 194.23C137.877 194.23 137.988 194.177 137.988 194.06C137.988 193.896 137.848 193.838 137.536 193.838C136.685 193.838 134.903 193.92 134.763 193.92C134.624 193.92 132.84 193.838 131.563 193.838C131.253 193.838 131.111 193.893 131.111 194.059C131.111 194.177 131.226 194.229 131.339 194.229C131.592 194.229 132.075 194.261 132.299 194.314C133.434 194.627 133.571 194.939 133.571 197.236V202.045H133.576ZM141.974 201.77C141.534 202.983 141.048 203.904 139.93 204.048C139.697 204.078 139.462 204.094 139.227 204.096C139.105 204.096 139.011 204.149 139.011 204.245C139.011 204.389 139.155 204.437 139.473 204.437C140.61 204.437 141.945 204.367 142.212 204.367C142.478 204.367 143.52 204.437 144.104 204.437C144.32 204.437 144.467 204.387 144.467 204.245C144.467 204.151 144.395 204.095 144.222 204.095H143.982C143.568 204.095 143.056 203.875 143.056 203.396C143.056 202.959 143.178 202.379 143.399 201.771L144.852 197.479C144.902 197.353 144.977 197.279 145.097 197.279H150.313C150.433 197.279 150.483 197.329 150.533 197.43L152.789 203.396C152.934 203.781 152.789 203.997 152.638 204.048C152.542 204.077 152.469 204.12 152.469 204.218C152.469 204.365 152.736 204.365 153.199 204.384C154.869 204.435 156.641 204.435 157.007 204.435C157.271 204.435 157.493 204.385 157.493 204.243C157.493 204.12 157.396 204.093 157.247 204.093C157.005 204.093 156.639 204.074 156.278 203.949C155.768 203.8 155.066 203.415 154.194 201.256C152.714 197.57 148.908 187.552 148.538 186.631C148.249 185.879 148.151 185.761 148.007 185.761C147.857 185.761 147.761 185.908 147.473 186.704L141.973 201.771L141.974 201.77ZM145.364 196.408C145.297 196.408 145.244 196.358 145.297 196.238L147.429 189.69C147.549 189.325 147.669 189.325 147.793 189.69L150.096 196.238C150.12 196.336 150.12 196.408 150.002 196.408H145.364ZM163.287 187.144L166.43 187.194C168.824 187.24 169.4 187.8 169.5 188.524L169.522 188.794C169.546 189.132 169.598 189.204 169.725 189.204C169.823 189.204 169.895 189.104 169.895 188.889C169.895 188.622 169.969 186.949 169.969 186.22C169.969 186.076 169.969 185.932 169.846 185.932C169.742 185.932 169.519 185.98 169.146 186.052C168.748 186.102 168.174 186.172 167.372 186.172H158.019C157.722 186.172 156.772 186.124 156.047 186.052C155.377 186.002 155.125 185.763 154.954 185.763C154.855 185.763 154.756 186.078 154.699 186.22C154.652 186.413 154.153 188.502 154.153 188.745C154.153 188.892 154.203 188.964 154.276 188.964C154.376 188.964 154.455 188.916 154.529 188.719C154.6 188.553 154.675 188.377 154.954 187.969C155.352 187.384 155.946 187.216 157.494 187.194L161.189 187.144V197.406C161.189 199.732 161.189 201.648 161.063 202.668C160.964 203.37 160.841 203.906 160.338 204C160.113 204.05 159.817 204.098 159.592 204.098C159.438 204.098 159.392 204.173 159.392 204.248C159.392 204.392 159.517 204.44 159.789 204.44C160.541 204.44 162.109 204.37 162.231 204.37C162.359 204.37 163.932 204.44 165.297 204.44C165.577 204.44 165.703 204.37 165.703 204.247C165.703 204.175 165.651 204.098 165.498 204.098C165.278 204.098 164.724 204.05 164.38 204C163.63 203.906 163.48 203.37 163.405 202.668C163.282 201.648 163.282 199.732 163.282 197.406V187.144H163.287ZM174.627 197.404C174.627 199.729 174.627 201.646 174.504 202.665C174.405 203.365 174.285 203.904 173.802 203.997C173.564 204.055 173.321 204.088 173.076 204.096C172.929 204.096 172.881 204.17 172.881 204.245C172.881 204.389 173.001 204.437 173.266 204.437C173.633 204.437 174.186 204.413 174.675 204.387C175.182 204.387 175.595 204.365 175.644 204.365C176.348 204.365 177.971 204.507 181.634 204.507C182.586 204.507 182.774 204.507 182.939 203.875C183.064 203.365 183.257 201.72 183.257 201.525C183.257 201.357 183.257 201.16 183.115 201.16C182.992 201.16 182.939 201.259 182.893 201.525C182.725 202.519 182.434 203.005 181.804 203.276C181.174 203.538 180.104 203.538 179.474 203.538C177.098 203.538 176.735 203.223 176.661 201.552C176.639 201.04 176.661 198.229 176.661 197.404V195.264C176.661 195.17 176.706 195.094 176.827 195.094C177.245 195.094 179.645 195.144 180.294 195.221C181.246 195.314 181.463 195.728 181.559 196.069C181.655 196.389 181.655 196.625 181.655 196.868C181.655 196.99 181.703 197.091 181.821 197.091C181.991 197.091 181.991 196.822 181.991 196.627C181.991 196.454 182.042 195.564 182.088 195.074C182.165 194.274 182.283 193.864 182.283 193.72C182.283 193.576 182.237 193.528 182.165 193.528C182.066 193.528 181.968 193.65 181.799 193.843C181.581 194.088 181.244 194.131 180.659 194.182C180.099 194.232 177.115 194.232 176.803 194.232C176.68 194.232 176.656 194.158 176.656 193.989V187.298C176.656 187.129 176.702 187.052 176.803 187.052C177.072 187.052 179.713 187.076 180.123 187.127C181.436 187.271 181.679 187.56 181.85 187.952C181.97 188.24 181.994 188.652 181.994 188.822C181.994 189.019 182.044 189.137 182.191 189.137C182.285 189.137 182.336 188.993 182.36 188.875C182.408 188.579 182.453 187.514 182.477 187.271C182.552 186.593 182.675 186.3 182.675 186.129C182.675 186.006 182.645 185.913 182.581 185.913C182.453 185.913 182.36 186.006 182.239 186.03C182.042 186.08 181.655 186.129 181.191 186.153C180.638 186.177 175.81 186.177 175.636 186.177C175.511 186.177 173.985 186.107 172.893 186.107C172.631 186.107 172.506 186.155 172.506 186.3C172.506 186.393 172.602 186.444 172.7 186.444C172.922 186.444 173.333 186.473 173.53 186.518C174.328 186.689 174.516 187.076 174.571 187.904C174.619 188.678 174.619 189.356 174.619 193.138V197.404H174.627ZM191.182 204.779C192.54 204.779 193.907 204.485 194.99 203.754C196.728 202.571 197.133 200.722 197.133 199.729C197.133 197.791 196.426 196.289 193.445 194.03L192.747 193.499C190.369 191.631 189.671 190.799 189.671 189.423C189.671 187.656 191.029 186.61 192.767 186.61C195.093 186.61 195.771 187.63 195.916 187.894C196.073 188.161 196.223 188.817 196.251 189.106C196.281 189.301 196.308 189.423 196.451 189.423C196.583 189.423 196.631 189.255 196.631 188.87C196.631 187.216 196.728 186.415 196.728 186.292C196.728 186.172 196.678 186.127 196.478 186.127C196.278 186.127 196.073 186.102 195.593 186.004C194.963 185.857 194.235 185.764 193.245 185.764C190.046 185.764 188.028 187.531 188.028 190.128C188.028 191.778 188.628 193.28 191.307 195.387L192.439 196.291C194.613 198.008 195.345 198.977 195.345 200.653C195.345 202.206 194.153 203.875 191.737 203.875C190.047 203.875 188.381 203.204 187.998 201.405C187.928 201.066 187.928 200.725 187.928 200.508C187.928 200.314 187.903 200.239 187.748 200.239C187.626 200.239 187.578 200.366 187.548 200.631C187.523 201.018 187.425 201.985 187.425 203.204C187.425 203.855 187.45 203.954 187.801 204.122C188.831 204.603 190.002 204.779 191.182 204.779ZM213.279 192.9C213.584 192.689 213.629 192.388 213.482 192.164H210.927C211.477 190.476 211.885 188.87 212.849 187.536C213.336 186.862 213.846 186.466 214.439 186.466C214.976 186.466 215.627 186.824 215.691 188.016C215.711 188.158 215.792 188.336 215.975 188.336C216.305 188.336 216.853 187.721 216.853 187.103C216.853 186.304 216.033 185.79 215.177 185.79C213.975 185.79 212.77 186.266 211.741 187.442C210.539 188.832 210.002 190.38 209.471 192.167H207.722C207.448 192.347 207.363 192.727 207.572 192.903H209.268C208.288 196.146 207.611 199.561 206.567 202.882C206.142 204.231 205.654 204.532 205.281 204.532C204.871 204.532 204.339 204.255 204.059 203.791C203.891 203.536 203.75 203.377 203.461 203.617C203.32 203.716 203.08 203.889 203.08 204.334C203.08 204.671 203.46 205.346 204.403 205.346C205.61 205.346 206.485 204.57 206.728 204.334C207.161 203.954 207.779 202.86 208.348 201.074C209.023 198.89 209.614 196.683 210.27 194.475C210.448 193.884 210.618 193.242 210.737 192.905H213.28V192.9H213.279ZM220.519 191.893C219.706 191.893 218.814 192.188 217.775 193.184C216.426 194.47 215.691 196.401 215.611 197.634C215.493 199.34 216.328 200.28 217.597 200.28C218.141 200.28 219.204 200.176 220.437 198.907C221.914 197.397 222.488 195.487 222.546 194.393C222.628 192.948 221.933 191.893 220.519 191.893ZM220.389 192.487C221.079 192.487 221.197 193.184 221.178 193.797C221.139 194.85 220.206 197.471 219.326 198.645C218.691 199.498 218.194 199.681 217.763 199.681C217.181 199.681 216.905 199.104 216.951 198.411C217.001 197.358 217.778 194.992 218.932 193.441C219.504 192.667 219.985 192.487 220.389 192.487ZM228.832 192.487C228.954 192.145 228.479 191.893 228.207 191.893C227.239 191.893 225.168 193.458 224.636 194.249C224.616 194.429 224.778 194.589 224.988 194.549C225.481 194.052 226.556 193.184 226.951 193.184C227.116 193.184 227.094 193.381 226.951 193.756L225.051 198.589C224.698 199.457 224.801 200.277 225.646 200.277C226.759 200.277 229.325 197.731 230.817 195.925L230.855 195.945L229.447 199.578C229.325 199.893 229.637 200.278 229.965 200.278C231.07 200.278 233.043 198.708 233.583 197.75C233.563 197.515 233.393 197.435 233.208 197.471C232.671 198.091 231.583 199.025 231.19 199.025C230.98 199.025 231 198.787 231.108 198.527C231.973 196.168 233.316 192.9 233.521 192.369C233.443 192.129 232.941 191.929 232.511 192.009C231.833 193.22 230.752 195.526 228.871 197.315C227.797 198.327 226.971 198.962 226.664 198.962C226.434 198.962 226.326 198.765 226.521 198.292L228.832 192.487ZM240.632 192.708C240.815 192.246 240.594 191.893 240.115 191.893C239.125 191.893 237.908 192.708 237.158 193.739C237.138 193.896 237.232 194.035 237.398 194.035C238.05 193.463 238.747 193.047 239.206 193.047C239.365 193.047 239.365 193.239 239.266 193.499C239.163 193.78 237.059 199.499 236.96 199.76C236.778 200.213 237.311 200.28 237.533 200.28C237.711 200.28 237.795 200.215 237.889 200.035C239.062 197.851 239.879 196.303 240.938 194.99C242.018 193.622 243.2 192.628 243.672 192.628C243.972 192.628 243.996 192.867 243.996 193.102C243.996 193.499 243.734 194.194 243.578 194.552C243.118 195.545 242.383 197.495 241.967 198.469C241.548 199.459 241.488 199.604 241.488 199.779C241.488 200.018 241.788 200.279 241.967 200.279C243.056 200.279 244.629 199.325 245.388 198.049C245.388 197.892 245.343 197.733 245.061 197.774C244.494 198.469 243.534 199.128 243.203 199.128C243.056 199.128 243.078 198.948 243.155 198.748C243.219 198.594 244.643 195.35 245.006 194.358C245.17 193.901 245.326 193.288 245.326 192.968C245.326 192.311 244.984 191.898 244.213 191.898C242.719 191.898 240.755 194.081 239.348 196.228L239.288 196.19L240.632 192.708ZM255.473 192.51C255.259 192.09 254.776 191.893 254.461 191.893C253.509 191.893 252.253 192.446 250.902 193.658C249.334 195.067 248.264 197.435 248.264 198.842C248.264 199.638 248.675 200.277 249.45 200.277C251.376 200.277 252.876 198.349 254.24 196.519L254.314 196.536L253.624 198.506C253.427 199.08 253.364 199.397 253.364 199.638C253.364 199.958 253.584 200.278 254.002 200.278C255.04 200.278 256.839 198.642 257.38 197.553C257.363 197.373 257.265 197.296 257.082 197.296C256.462 198.07 255.213 199.082 254.898 199.082C254.721 199.082 254.697 198.885 254.776 198.626C254.959 198.029 255.889 194.853 257.856 189.423C258.452 187.778 258.753 187.023 259.106 185.908L259.027 185.79C258.178 185.77 257.07 186.03 256.683 186.167C256.603 186.244 256.579 186.365 256.623 186.442L257.082 186.764C257.363 186.944 257.303 187.302 256.904 188.414L255.474 192.511L255.473 192.51ZM254.42 192.487C254.918 192.487 255.177 193.081 254.937 193.915C254.646 194.968 254.059 196.168 252.518 197.753C251.143 199.159 250.133 199.523 249.832 199.523C249.654 199.523 249.452 199.34 249.452 199.102C249.452 198.844 249.452 198.486 250.07 197.216C250.683 195.964 252.112 194.076 252.91 193.34C253.43 192.867 253.96 192.487 254.42 192.487ZM267.043 192.708C266.947 192.537 266.809 192.392 266.643 192.287C266.499 192.207 266.336 192.164 266.17 192.162C265.653 192.162 265.15 192.306 264.38 192.742C263.563 193.198 262.71 193.994 261.755 195.302C260.44 197.115 260.002 198.705 260.002 199.157C260.002 199.717 260.322 200.277 260.88 200.277C261.81 200.277 263.842 198.904 265.251 197.157L265.311 197.18L264.655 198.96C264.501 199.421 264.458 199.602 264.458 199.736C264.458 199.89 264.58 200.277 265.03 200.277C266.124 200.277 267.533 199.157 268.375 198.046C268.375 197.89 268.228 197.791 268.094 197.791C266.966 198.787 266.384 199.126 266.044 199.126C265.886 199.126 265.788 199.003 265.903 198.666C266.543 196.858 268.269 192.467 268.57 191.729C268.447 191.477 267.93 191.275 267.6 191.439L267.043 192.708ZM265.549 192.924C266.066 192.924 266.401 193.264 266.545 193.641C266.225 194.811 265.391 196.521 263.883 197.931C262.751 198.962 262.154 199.219 261.953 199.219C261.774 199.219 261.656 199.082 261.656 198.844C261.656 197.438 262.868 194.831 264.14 193.699C264.76 193.141 265.075 192.924 265.549 192.924ZM277.111 192.824C277.366 192.677 277.493 192.267 277.354 192.062H275.184L275.762 190.032C275.603 189.826 275.204 189.784 275.009 189.911L273.893 191.954L272.303 192.242C272.109 192.324 272.044 192.614 272.09 192.819H273.631L271.773 198.524C271.575 199.141 271.491 199.429 271.491 199.702C271.491 199.949 271.748 200.264 272.032 200.264C272.864 200.264 274.732 198.996 275.841 197.291C275.889 197.043 275.767 196.918 275.569 196.918C274.915 197.698 273.602 198.774 273.307 198.774C273.143 198.774 273.049 198.649 273.16 198.261L274.954 192.821H277.111V192.824ZM278.686 199.558C278.642 199.647 278.627 199.747 278.643 199.844C278.66 199.941 278.706 200.031 278.776 200.1C278.881 200.215 279.006 200.28 279.112 200.28C280.579 200.28 282.764 198.488 283.075 197.909C283.075 197.736 282.97 197.594 282.765 197.577C282.044 198.351 280.915 199.044 280.559 199.044C280.387 199.044 280.409 198.806 280.492 198.606L283.021 192.963C283.277 192.388 283.277 192.208 283.147 192.09C283.057 192.008 282.952 191.893 282.803 191.893C282.108 191.893 280.477 192.628 279.309 193.876C279.263 194.033 279.389 194.194 279.584 194.216C280.641 193.398 281.2 193.162 281.344 193.162C281.49 193.162 281.49 193.319 281.39 193.542L278.686 199.558ZM283.354 187.122C282.528 187.122 282.208 187.94 282.208 188.375C282.208 188.731 282.423 189.127 282.97 189.127C283.631 189.127 284.096 188.495 284.096 187.877C284.096 187.442 283.842 187.122 283.354 187.122ZM291.68 191.893C290.862 191.893 289.966 192.188 288.934 193.184C287.58 194.47 286.847 196.401 286.767 197.634C286.65 199.34 287.482 200.28 288.758 200.28C289.295 200.28 290.365 200.176 291.596 198.907C293.07 197.397 293.642 195.487 293.705 194.393C293.784 192.948 293.085 191.893 291.68 191.893ZM291.538 192.487C292.238 192.487 292.353 193.184 292.334 193.797C292.291 194.85 291.358 197.471 290.487 198.645C289.853 199.498 289.355 199.681 288.91 199.681C288.342 199.681 288.064 199.104 288.102 198.411C288.157 197.358 288.936 194.992 290.088 193.441C290.665 192.667 291.139 192.487 291.538 192.487ZM299.668 192.708C299.855 192.246 299.625 191.893 299.138 191.893C298.105 191.893 296.842 192.708 296.052 193.739C296.032 193.896 296.139 194.035 296.302 194.035C296.984 193.463 297.712 193.047 298.187 193.047C298.345 193.047 298.345 193.239 298.245 193.499C298.142 193.78 295.949 199.499 295.847 199.76C295.661 200.213 296.217 200.28 296.447 200.28C296.637 200.28 296.714 200.215 296.817 200.035C298.037 197.851 298.882 196.303 299.98 194.99C301.116 193.622 302.341 192.628 302.836 192.628C303.144 192.628 303.164 192.867 303.164 193.102C303.164 193.499 302.899 194.194 302.729 194.552C302.256 195.545 301.493 197.495 301.059 198.469C300.623 199.459 300.56 199.604 300.56 199.779C300.56 200.018 300.868 200.279 301.058 200.279C302.196 200.279 303.826 199.325 304.614 198.049C304.614 197.892 304.567 197.733 304.282 197.774C303.676 198.469 302.692 199.128 302.344 199.128C302.196 199.128 302.216 198.948 302.294 198.748C302.356 198.594 303.846 195.35 304.219 194.358C304.384 193.901 304.552 193.288 304.552 192.968C304.552 192.311 304.194 191.898 303.389 191.898C301.846 191.898 299.798 194.081 298.329 196.228L298.267 196.19L299.667 192.708H299.668ZM58.2733 169.63C58.2733 172.407 58.2733 174.693 58.1293 175.91C58.0113 176.748 57.8673 177.387 57.2813 177.497C57.0193 177.557 56.6713 177.615 56.4053 177.615C56.2353 177.615 56.1733 177.701 56.1733 177.79C56.1733 177.96 56.3193 178.019 56.6383 178.019C57.5133 178.019 59.3463 177.933 59.4903 177.933C59.7253 177.933 62.6923 178.107 63.3633 178.107C68.3393 178.107 70.7853 174.894 70.7853 171.8C70.7853 168.415 67.9043 166.363 65.7493 165.699C67.1173 164.279 68.4823 162.86 68.4823 160.488C68.4823 159.043 67.4343 156.15 62.6603 156.15C61.3223 156.15 60.1903 156.236 59.4903 156.236C59.3443 156.236 57.5113 156.15 56.2033 156.15C55.8793 156.15 55.7383 156.209 55.7383 156.378C55.7383 156.498 55.8543 156.555 55.9703 156.555C56.2323 156.555 56.7243 156.585 56.9603 156.644C57.9223 156.845 58.1523 157.31 58.2103 158.291C58.2683 159.217 58.2683 160.023 58.2683 164.539V169.629L58.2733 169.63ZM60.5993 157.42C60.5993 157.25 60.6893 157.162 60.9503 157.1C61.4153 156.985 62.0293 156.958 62.3453 156.958C65.1993 156.958 66.2753 159.534 66.2753 161.933C66.2753 163.118 65.8403 164.16 65.2293 164.853C64.6193 165.549 64.2083 165.608 62.5783 165.608C61.5043 165.608 60.9803 165.524 60.8023 165.493C60.6583 165.433 60.5993 165.377 60.5993 165.173V157.42ZM60.5993 166.591C60.5993 166.444 60.6593 166.387 60.7753 166.387C61.2103 166.387 62.6653 166.387 63.0433 166.444C63.7433 166.532 64.4703 166.616 65.4623 167.284C67.7003 168.818 68.2893 171.333 68.2893 173.071C68.2893 176.34 65.7563 177.181 64.1833 177.181C63.6593 177.181 62.4073 177.124 61.6213 176.745C60.7213 176.31 60.7213 175.907 60.6313 174.486C60.6013 174.054 60.6013 170.468 60.6013 168.241V166.591H60.5993ZM78.8733 166.708C78.8733 162.928 78.8733 162.25 78.9273 161.471C78.9763 160.62 79.1843 160.209 79.8813 160.088C80.1913 160.038 80.3483 160.016 80.5313 160.016C80.6333 160.016 80.7413 159.966 80.7413 159.867C80.7413 159.723 80.6073 159.675 80.3203 159.675C79.5453 159.675 77.9163 159.747 77.7863 159.747C77.6573 159.747 76.0293 159.675 75.1753 159.675C74.8903 159.675 74.7623 159.725 74.7623 159.867C74.7623 159.966 74.8643 160.017 74.9673 160.017C75.1493 160.017 75.4853 160.04 75.7673 160.113C76.3423 160.235 76.5983 160.649 76.6493 161.471C76.7033 162.248 76.7033 162.926 76.7033 166.708V170.976C76.7033 173.304 76.7033 175.223 76.5733 176.238C76.4703 176.942 76.3423 177.478 75.8233 177.579C75.5674 177.633 75.3075 177.663 75.0463 177.671C74.8903 177.671 74.8393 177.745 74.8393 177.817C74.8393 177.964 74.9693 178.01 75.2543 178.01C76.0313 178.01 77.6603 177.94 77.7863 177.94C77.9193 177.94 79.5483 178.01 80.9693 178.01C81.2563 178.01 81.3843 177.94 81.3843 177.817C81.3843 177.747 81.3303 177.671 81.1763 177.671C80.9463 177.671 80.3743 177.623 80.0123 177.579C79.2353 177.479 79.0863 176.942 79.0043 176.238C78.8743 175.22 78.8743 173.302 78.8743 170.976L78.8733 166.708ZM89.2933 166.708C89.2933 162.928 89.2933 162.25 89.3463 161.471C89.3983 160.62 89.5983 160.209 90.3283 160.088C90.6313 160.038 90.9843 160.016 91.1643 160.016C91.2613 160.016 91.3643 159.966 91.3643 159.867C91.3643 159.723 91.2363 159.675 90.9593 159.675C90.2013 159.675 88.3603 159.747 88.2353 159.747C88.1083 159.747 86.5173 159.675 85.3853 159.675C85.1093 159.675 84.9823 159.725 84.9823 159.867C84.9823 159.966 85.0823 160.017 85.1823 160.017C85.4093 160.017 85.8403 160.04 86.0403 160.088C86.8723 160.257 87.0753 160.646 87.1253 161.471C87.1773 162.248 87.1773 162.926 87.1773 166.708V170.976C87.1773 173.304 87.1773 175.223 87.0473 176.238C86.9473 176.942 86.8203 177.478 86.3153 177.579C86.0665 177.633 85.8135 177.663 85.5593 177.671C85.4073 177.671 85.3573 177.745 85.3573 177.817C85.3573 177.964 85.4843 178.01 85.7593 178.01C86.1393 178.01 86.6953 177.988 87.1973 177.962C87.7053 177.962 88.1333 177.938 88.2333 177.938C89.6963 177.938 91.3613 178.084 94.9933 178.084C96.3303 178.084 96.4033 177.988 96.5833 177.43C96.7853 176.726 96.9603 175.271 96.9603 175.006C96.9603 174.737 96.9333 174.641 96.8053 174.641C96.6583 174.641 96.6053 174.764 96.5803 174.958C96.5053 175.418 96.2503 176.024 95.9233 176.413C95.3203 177.115 94.2073 177.139 92.8693 177.139C90.9043 177.139 90.2463 176.971 89.8433 176.581C89.3913 176.146 89.2883 174.595 89.2883 171.027V166.708H89.2933ZM103.226 166.708C103.226 162.928 103.226 162.25 103.276 161.471C103.327 160.62 103.517 160.209 104.222 160.088C104.512 160.038 104.854 160.016 105.025 160.016C105.119 160.016 105.217 159.966 105.217 159.867C105.217 159.723 105.095 159.675 104.83 159.675C104.101 159.675 102.334 159.747 102.209 159.747C102.086 159.747 100.557 159.675 99.4683 159.675C99.2013 159.675 99.0783 159.725 99.0783 159.867C99.0783 159.966 99.1773 160.017 99.2733 160.017C99.4923 160.017 99.9033 160.04 100.1 160.088C100.899 160.257 101.093 160.646 101.144 161.471C101.192 162.248 101.192 162.926 101.192 166.708V170.976C101.192 173.304 101.192 175.223 101.072 176.238C100.973 176.942 100.852 177.478 100.37 177.579C100.13 177.632 99.8853 177.663 99.6393 177.671C99.4923 177.671 99.4463 177.745 99.4463 177.817C99.4463 177.964 99.5663 178.01 99.8333 178.01C100.196 178.01 100.733 177.988 101.213 177.962C101.702 177.962 102.11 177.938 102.209 177.938C103.616 177.938 105.217 178.084 108.709 178.084C109.993 178.084 110.069 177.988 110.24 177.43C110.43 176.726 110.601 175.271 110.601 175.006C110.601 174.737 110.577 174.641 110.454 174.641C110.308 174.641 110.262 174.764 110.238 174.958C110.166 175.418 109.921 176.024 109.603 176.413C109.023 177.115 107.956 177.139 106.67 177.139C104.777 177.139 104.145 176.971 103.76 176.581C103.322 176.146 103.224 174.595 103.224 171.027V166.708H103.226ZM119.512 175.253C120.945 175.253 122.992 174.62 124.43 172.958C126.005 171.125 126.457 169.038 126.517 168.405C126.557 168.005 126.599 166.995 126.599 166.615C127.233 167.141 127.909 167.94 128.01 168.11C128.118 168.276 128.277 168.38 128.503 168.234C128.871 168.002 129.691 167.752 130.04 167.707C130.266 167.665 130.45 167.648 130.573 167.497C130.827 167.23 130.967 166.875 130.963 166.507C130.963 165.961 130.759 165.328 130.206 165.328C129.838 165.328 129.551 165.603 129.551 165.855C129.551 165.919 129.592 166.023 129.633 166.171C129.674 166.298 129.715 166.466 129.715 166.698C129.715 167.057 129.511 167.351 129.301 167.351C128.938 167.351 128.873 167.245 128.404 166.802C127.397 165.877 126.805 165.16 125.678 165.16C125.392 165.16 124.468 165.328 123.651 166.026C122.626 166.891 122.256 167.836 122.256 168.383C122.256 168.949 122.708 169.228 123.138 169.228C123.713 169.228 123.814 168.786 123.814 168.638C123.814 168.511 123.732 168.278 123.667 168.051C123.61 167.816 123.504 167.547 123.504 167.354C123.504 166.636 124.362 166.006 125 166.006C125.413 166.006 125.841 166.152 126.065 166.366C126.005 168.091 125.735 169.146 124.959 170.621C123.771 172.876 121.681 174.056 119.981 174.056C118.406 174.056 116.314 173.154 116.355 170.456V170.287C118.485 168.793 121.927 166.112 123.627 164.386C125.531 162.471 126.207 161.163 126.207 160.067C126.207 159.247 125.735 158.952 125.264 158.952C124.874 158.952 124.444 159.246 124.444 159.818C124.444 160.048 124.502 160.112 124.668 160.283C124.814 160.428 124.918 160.619 124.918 160.916C124.918 161.462 124.466 162.306 124.18 162.682C123.607 163.461 122.191 164.937 121.292 165.697C121.107 165.427 120.902 164.875 120 164.875C119.55 164.875 118.279 165.085 116.947 166.518C115.309 168.244 114.982 169.995 114.982 171.048C114.987 173.213 116.278 175.253 119.512 175.253ZM116.401 169.481C116.543 168.598 116.87 167.754 117.507 166.891C118.123 166.068 118.793 165.753 119.084 165.753C119.474 165.753 119.758 166.006 119.758 166.403C119.758 166.448 119.758 166.721 119.738 166.911C119.063 167.521 117.856 168.447 116.401 169.481ZM157.529 156.346C157.471 155.796 157.382 155.567 157.185 155.567C156.985 155.567 156.872 155.769 156.759 156.029L148.439 174.2L139.779 156.002C139.634 155.68 139.526 155.567 139.353 155.567C139.184 155.567 139.1 155.769 139.04 156.088L137.003 174.951C136.89 176.05 136.806 177.175 135.868 177.352C135.445 177.441 135.248 177.441 135.019 177.441C134.878 177.441 134.741 177.495 134.741 177.583C134.741 177.79 134.935 177.844 135.219 177.844C135.984 177.844 137.339 177.758 137.595 177.758C137.823 177.758 139.179 177.844 140.23 177.844C140.567 177.844 140.735 177.79 140.735 177.584C140.735 177.497 140.625 177.441 140.509 177.441C140.339 177.441 139.915 177.409 139.434 177.293C139.228 177.252 139.042 177.14 138.908 176.977C138.774 176.814 138.7 176.61 138.698 176.399C138.698 175.907 138.698 175.386 138.728 174.921L139.86 161.498H139.973C140.288 162.278 143.455 169.224 143.71 169.742C143.854 170.032 146.285 175.037 147.023 176.455C147.559 177.495 147.699 177.787 147.896 177.787C148.151 177.787 148.24 177.524 148.834 176.249L155.766 161.209H155.85L157.206 176.133C157.264 176.654 157.238 177.146 157.093 177.175C156.954 177.207 156.896 177.264 156.896 177.382C156.896 177.524 157.041 177.613 157.687 177.67C158.738 177.756 161.79 177.842 162.415 177.842C162.759 177.842 163.009 177.756 163.009 177.581C163.009 177.465 162.925 177.438 162.783 177.438C162.497 177.438 161.766 177.438 160.946 177.175C159.724 176.772 159.526 175.153 159.414 174.11L157.529 156.346ZM166.164 170.808C166.164 173.136 166.164 175.052 166.036 176.069C165.936 176.774 165.811 177.305 165.309 177.406C165.079 177.454 164.776 177.5 164.551 177.5C164.398 177.5 164.346 177.575 164.346 177.647C164.346 177.793 164.473 177.841 164.753 177.841C165.131 177.841 165.711 177.815 166.216 177.791C166.746 177.791 167.174 177.769 167.226 177.769C167.956 177.769 169.647 177.914 173.453 177.914C174.439 177.914 174.641 177.914 174.813 177.281C174.941 176.774 175.144 175.124 175.144 174.927C175.144 174.757 175.144 174.562 174.989 174.562C174.866 174.562 174.814 174.665 174.766 174.927C174.586 175.92 174.284 176.406 173.626 176.673C172.973 176.94 171.86 176.94 171.208 176.94C168.732 176.94 168.357 176.625 168.279 174.954C168.257 174.444 168.279 171.628 168.279 170.806V168.67C168.279 168.572 168.329 168.5 168.457 168.5C168.887 168.5 171.38 168.55 172.063 168.622C173.048 168.719 173.273 169.132 173.373 169.474C173.473 169.786 173.473 170.027 173.473 170.272C173.473 170.392 173.523 170.493 173.646 170.493C173.824 170.493 173.824 170.226 173.824 170.029C173.824 169.861 173.876 168.966 173.929 168.478C174.001 167.678 174.129 167.264 174.129 167.122C174.129 166.975 174.079 166.925 174.001 166.925C173.904 166.925 173.801 167.045 173.621 167.242C173.398 167.485 173.046 167.531 172.438 167.584C171.855 167.634 168.752 167.634 168.427 167.634C168.302 167.634 168.274 167.559 168.274 167.389V160.692C168.274 160.524 168.324 160.449 168.427 160.449C168.707 160.449 171.453 160.471 171.883 160.521C173.246 160.666 173.498 160.957 173.676 161.346C173.804 161.637 173.826 162.048 173.826 162.216C173.826 162.414 173.879 162.532 174.031 162.532C174.131 162.532 174.181 162.387 174.206 162.269C174.254 161.979 174.306 160.911 174.334 160.666C174.409 159.99 174.536 159.699 174.536 159.526C174.536 159.403 174.509 159.309 174.434 159.309C174.306 159.309 174.206 159.403 174.081 159.434C173.722 159.499 173.358 159.538 172.993 159.55C172.416 159.576 167.392 159.576 167.219 159.576C167.087 159.576 165.499 159.504 164.363 159.504C164.088 159.504 163.958 159.552 163.958 159.699C163.958 159.795 164.061 159.843 164.163 159.843C164.391 159.843 164.821 159.867 165.018 159.918C165.854 160.086 166.054 160.471 166.104 161.298C166.156 162.075 166.156 162.753 166.156 166.54V170.808H166.164ZM182.599 166.538C182.599 162.753 182.599 162.075 182.652 161.296C182.704 160.446 182.904 160.038 183.632 159.916C183.94 159.865 184.292 159.841 184.467 159.841C184.57 159.841 184.677 159.793 184.677 159.697C184.677 159.547 184.545 159.502 184.267 159.502C183.504 159.502 181.671 159.574 181.544 159.574C181.416 159.574 179.824 159.502 178.69 159.502C178.415 159.502 178.288 159.55 178.288 159.697C178.288 159.793 178.39 159.841 178.493 159.841C178.718 159.841 179.146 159.865 179.348 159.915C180.183 160.084 180.386 160.468 180.431 161.295C180.486 162.072 180.486 162.75 180.486 166.538V170.806C180.486 173.133 180.486 175.05 180.361 176.066C180.261 176.771 180.131 177.303 179.623 177.406C179.398 177.452 179.093 177.498 178.866 177.498C178.716 177.498 178.663 177.572 178.663 177.644C178.663 177.791 178.79 177.839 179.068 177.839C179.448 177.839 180.003 177.813 180.508 177.789C181.011 177.789 181.444 177.765 181.541 177.765C183.004 177.765 184.675 177.911 188.298 177.911C189.636 177.911 189.708 177.813 189.891 177.257C190.091 176.555 190.266 175.103 190.266 174.831C190.266 174.559 190.246 174.468 190.119 174.468C189.961 174.468 189.914 174.59 189.889 174.785C189.816 175.245 189.566 175.85 189.234 176.238C188.624 176.942 187.518 176.968 186.18 176.968C184.21 176.968 183.552 176.798 183.152 176.413C182.697 175.973 182.594 174.423 182.594 170.859V166.538H182.599ZM196.867 166.538C196.867 162.753 196.867 162.075 196.921 161.296C196.974 160.446 197.18 160.038 197.875 159.916C198.19 159.865 198.347 159.841 198.524 159.841C198.631 159.841 198.731 159.793 198.731 159.697C198.731 159.547 198.606 159.502 198.321 159.502C197.539 159.502 195.915 159.574 195.792 159.574C195.656 159.574 194.025 159.502 193.173 159.502C192.893 159.502 192.755 159.55 192.755 159.697C192.755 159.793 192.858 159.841 192.968 159.841C193.143 159.841 193.484 159.865 193.771 159.941C194.343 160.062 194.601 160.471 194.648 161.296C194.702 162.072 194.702 162.75 194.702 166.538V170.806C194.702 173.133 194.702 175.05 194.574 176.066C194.474 176.771 194.34 177.303 193.822 177.406C193.565 177.46 193.304 177.49 193.042 177.498C192.892 177.498 192.832 177.572 192.832 177.644C192.832 177.791 192.968 177.839 193.248 177.839C194.025 177.839 195.656 177.767 195.792 177.767C195.918 177.767 197.542 177.839 198.967 177.839C199.252 177.839 199.38 177.767 199.38 177.644C199.38 177.574 199.332 177.498 199.178 177.498C198.942 177.498 198.375 177.45 198.016 177.406C197.228 177.303 197.08 176.771 197.003 176.066C196.867 175.047 196.867 173.131 196.867 170.806V166.538ZM206.049 162.923C206.846 163.793 209.641 166.853 212.521 169.885C215.151 172.648 218.723 176.216 218.993 176.456C220.313 177.743 220.606 178.01 220.803 178.01C220.974 178.01 221.028 177.887 221.028 176.283L221.078 162.073C221.078 160.617 221.173 160.083 221.99 159.915C222.297 159.841 222.464 159.841 222.592 159.841C222.766 159.841 222.862 159.766 222.862 159.675C222.862 159.528 222.685 159.505 222.415 159.505C221.402 159.505 220.581 159.576 220.313 159.576C220.033 159.576 218.838 159.504 217.735 159.504C217.427 159.504 217.231 159.531 217.231 159.674C217.231 159.766 217.263 159.841 217.427 159.841C217.629 159.841 218.199 159.865 218.642 159.963C219.412 160.156 219.583 160.692 219.612 162.269L219.885 174.59C219.089 173.79 216.385 170.832 213.932 168.262C210.115 164.258 206.418 160.353 206.049 159.942C205.799 159.697 205.383 159.162 205.182 159.162C204.982 159.162 204.912 159.432 204.912 160.377L204.882 174.273C204.882 176.48 204.756 177.187 204.137 177.353C203.768 177.476 203.321 177.5 203.127 177.5C202.999 177.5 202.927 177.55 202.927 177.647C202.927 177.815 203.077 177.841 203.321 177.841C204.439 177.841 205.477 177.769 205.703 177.769C205.929 177.769 206.919 177.841 208.328 177.841C208.63 177.841 208.77 177.791 208.77 177.647C208.77 177.551 208.704 177.5 208.579 177.5C208.357 177.5 207.809 177.476 207.335 177.353C206.669 177.159 206.418 176.526 206.369 174.54L206.049 162.923ZM227.115 170.81C227.115 173.136 227.115 175.052 226.985 176.072C226.886 176.776 226.764 177.308 226.265 177.409C226.022 177.464 225.774 177.495 225.525 177.502C225.37 177.502 225.323 177.577 225.323 177.649C225.323 177.796 225.449 177.844 225.721 177.844C226.466 177.844 228.027 177.772 228.145 177.772C228.401 177.772 231.52 178.062 233.651 178.062C237.866 178.062 240.101 176.362 241.165 175.273C242.549 173.843 243.845 171.489 243.845 168.433C243.845 165.547 242.677 163.534 241.438 162.272C238.486 159.29 233.946 159.507 231.5 159.507C230.013 159.507 228.452 159.579 228.145 159.579C228.025 159.579 226.464 159.507 225.343 159.507C225.077 159.507 224.957 159.555 224.957 159.701C224.957 159.798 225.053 159.846 225.154 159.846C225.37 159.846 225.793 159.87 225.994 159.92C226.81 160.09 227.007 160.473 227.061 161.3C227.113 162.077 227.113 162.755 227.113 166.542V170.81H227.115ZM229.195 166.148C229.195 164.28 229.195 161.808 229.219 160.985C229.219 160.716 229.29 160.595 229.521 160.497C229.713 160.401 230.63 160.329 231.129 160.329C234.076 160.329 236.905 160.668 239.238 163.07C240.251 164.114 241.615 166.105 241.615 169.185C241.615 171.414 240.922 173.745 239.636 174.98C238.171 176.41 236.04 177.236 233.736 177.236C230.809 177.236 229.839 176.726 229.521 176.264C229.315 176 229.266 175.026 229.246 174.42C229.219 173.96 229.195 171.729 229.195 169.156V166.148ZM247.188 174.664C246.756 175.846 246.28 176.744 245.178 176.887C244.988 176.908 244.652 176.934 244.488 176.934C244.36 176.934 244.27 176.984 244.27 177.077C244.27 177.22 244.415 177.267 244.728 177.267C245.853 177.267 247.162 177.197 247.428 177.197C247.686 177.197 248.718 177.267 249.292 177.267C249.506 177.267 249.648 177.218 249.648 177.077C249.648 176.983 249.579 176.934 249.406 176.934H249.169C248.757 176.934 248.257 176.721 248.257 176.247C248.257 175.82 248.377 175.255 248.591 174.664L250.025 170.476C250.075 170.356 250.141 170.288 250.271 170.288H255.41C255.526 170.288 255.575 170.338 255.623 170.431L257.846 176.247C257.996 176.629 257.846 176.843 257.706 176.887C257.609 176.908 257.536 176.955 257.536 177.051C257.536 177.195 257.803 177.195 258.254 177.216C259.906 177.265 261.648 177.265 262.008 177.265C262.271 177.265 262.488 177.215 262.488 177.075C262.488 176.955 262.392 176.932 262.248 176.932C262.005 176.932 261.645 176.906 261.285 176.789C260.785 176.646 260.095 176.269 259.23 174.165C257.777 170.567 254.023 160.798 253.66 159.9C253.378 159.166 253.286 159.049 253.137 159.049C252.992 159.049 252.895 159.194 252.608 159.973L247.188 174.664ZM250.534 169.434C250.466 169.434 250.414 169.388 250.466 169.271L252.573 162.883C252.684 162.531 252.805 162.531 252.928 162.883L255.196 169.271C255.22 169.364 255.22 169.435 255.104 169.435L250.534 169.434Z" fill="black"/>
</svg>
