<svg width="367" height="340" viewBox="0 0 367 340" fill="none" xmlns="http://www.w3.org/2000/svg">
<rect width="366.789" height="339.306" fill="white"/>
<path d="M94.0841 144.767H80.9923V145.986H85.1571V169.677C85.1571 176.743 83.3491 178.81 79.2973 178.81C78.5823 178.894 77.8661 178.664 77.3061 178.171C76.746 177.677 76.3881 176.96 76.3109 176.178C76.2867 175.984 76.2867 175.788 76.3109 175.595C76.3109 173.016 76.1817 171.426 74.0186 171.426C71.8554 171.426 71.6133 173.828 71.6133 174.553C71.6133 177.821 72.937 180.312 78.8937 180.312C85.9966 180.312 89.8386 177.697 89.8386 169.041V145.968H94.2133L94.0841 144.767Z" fill="#503629"/>
<path d="M95.829 174.8C95.4912 174.786 95.1545 174.85 94.8405 174.987C94.5265 175.124 94.2419 175.331 94.0048 175.595C93.7633 175.854 93.5729 176.166 93.4452 176.509C93.3175 176.852 93.2552 177.22 93.2623 177.591C93.2571 177.953 93.3204 178.313 93.4482 178.647C93.576 178.982 93.7655 179.284 94.0048 179.534C94.4909 180.058 95.1467 180.35 95.829 180.347C96.521 180.352 97.1874 180.06 97.6854 179.534C97.9248 179.284 98.1143 178.982 98.242 178.647C98.3698 178.313 98.4331 177.953 98.428 177.591C98.4322 177.229 98.3713 176.87 98.2487 176.533C98.1261 176.197 97.9441 175.891 97.7133 175.632C97.4824 175.372 97.2072 175.166 96.9032 175.023C96.5993 174.88 96.2727 174.804 95.942 174.8H95.829Z" fill="#503629"/>
<path d="M124.887 174.8C124.557 174.79 124.229 174.853 123.921 174.983C123.613 175.113 123.332 175.308 123.093 175.558C122.854 175.807 122.663 176.106 122.531 176.437C122.398 176.768 122.327 177.124 122.32 177.485V177.591C122.32 177.959 122.392 178.323 122.532 178.658C122.671 178.994 122.874 179.292 123.127 179.534C123.616 180.055 124.27 180.347 124.952 180.347C125.293 180.355 125.632 180.287 125.948 180.147C126.264 180.008 126.551 179.799 126.792 179.534C127.039 179.289 127.237 178.989 127.37 178.654C127.504 178.319 127.571 177.957 127.567 177.591C127.576 177.219 127.513 176.848 127.382 176.504C127.251 176.16 127.056 175.85 126.808 175.595C126.573 175.338 126.293 175.135 125.986 174.999C125.678 174.862 125.348 174.795 125.016 174.8" fill="#503629"/>
<path d="M115.829 144.767H102.915V145.986H106.676V173.033C106.774 174.137 106.659 175.25 106.337 176.302C106.19 176.679 105.969 177.017 105.69 177.291C105.411 177.566 105.081 177.771 104.723 177.892C103.937 178.181 103.114 178.33 102.285 178.333V179.464H116.007V178.333C115.116 178.34 114.229 178.203 113.375 177.927C113.018 177.803 112.69 177.597 112.411 177.323C112.133 177.049 111.911 176.712 111.761 176.337C111.495 175.639 111.379 174.883 111.422 174.129V164.871H114.844C124.756 164.871 127.549 160.596 127.549 154.784C127.549 148.971 125.87 144.767 115.829 144.767ZM114.053 163.493H111.454V146.145H113.811C121.463 146.109 123.271 149.519 123.271 155.102C123.271 160.684 120.268 163.617 114.182 163.617" fill="#503629"/>
<path d="M168.47 176.214C168.259 175.447 168.166 174.647 168.196 173.846V145.986H171.602V144.855H163.417L153.667 171.267C153.652 171.311 153.626 171.349 153.591 171.377C153.557 171.406 153.516 171.422 153.473 171.426C153.423 171.428 153.374 171.414 153.331 171.386C153.288 171.358 153.253 171.316 153.231 171.267C153.231 171.267 142.981 145.173 142.868 144.855H133.844V145.951H137.799V175.242C137.763 175.871 137.579 176.48 137.266 177.009C136.897 177.537 136.39 177.931 135.813 178.139C135.194 178.296 134.559 178.362 133.924 178.334V179.464H142.868V178.334C142.32 178.341 141.775 178.252 141.253 178.069C140.615 177.91 140.046 177.517 139.639 176.956C139.322 176.428 139.133 175.82 139.09 175.189L138.993 172.751V149.625H139.526C139.526 149.625 151.197 179.111 151.197 179.447H152.327L163.337 149.873H163.627V173.705C163.642 174.528 163.549 175.349 163.353 176.143C163.232 176.497 163.049 176.821 162.814 177.097C162.578 177.373 162.295 177.595 161.981 177.751C161.25 178.033 160.48 178.176 159.705 178.175V179.305H172.215V178.175C171.422 178.173 170.635 178.017 169.891 177.715C169.555 177.551 169.256 177.307 169.016 177.002C168.776 176.696 168.601 176.337 168.502 175.949" fill="#503629"/>
<path d="M185.339 154.042C178.656 154.042 174.395 158.865 174.395 167.292C174.395 179.659 183.225 180.454 185.113 180.454C188.891 180.454 196.058 177.892 196.058 167.062C196.058 158.547 191.474 154.042 185.291 154.042M185.291 178.917C180.254 178.917 179.48 176.196 179.48 167.416C179.48 160.614 179.867 155.508 185.291 155.508C191.119 155.508 191.151 160.808 191.151 166.939C191.151 175.772 189.763 178.846 185.291 178.846" fill="#503629"/>
<path d="M213.575 154.413C209.572 154.413 208.345 156.992 207.215 159.607H206.908C206.908 159.607 206.327 155.809 206.117 154.678H198.32V155.968H202.517V173.157C202.575 174.362 202.399 175.566 202.001 176.691C201.581 177.556 200.613 177.98 199.031 177.98H198.336V179.5H211.251V177.98H210.637C208.926 177.98 208.2 177.574 207.748 176.761C207.291 175.63 207.108 174.389 207.215 173.157V164.2C207.215 161.215 209.281 157.787 211.767 157.787C214.253 157.787 214.302 162.151 217.256 160.402C218.87 159.448 218.58 154.448 213.608 154.448" fill="#503629"/>
<path d="M265.201 176.902C263.813 176.902 263.361 176.054 263.28 174.658V161.108C263.363 160.18 263.262 159.243 262.984 158.362C262.705 157.481 262.256 156.676 261.666 156.002C260.455 154.695 258.163 154.006 254.821 154.006C252.324 153.804 249.832 154.472 247.702 155.914C247.075 156.329 246.556 156.915 246.197 157.615C245.837 158.314 245.65 159.104 245.652 159.907C245.611 160.229 245.641 160.558 245.74 160.865C245.838 161.172 246.002 161.449 246.217 161.673C246.613 162.042 247.119 162.237 247.638 162.221C248.929 162.221 249.639 161.497 249.93 159.659C249.965 158.591 250.322 157.566 250.947 156.744C251.366 156.329 251.86 156.015 252.396 155.82C252.932 155.625 253.5 155.555 254.063 155.614C254.696 155.534 255.338 155.622 255.934 155.872C256.529 156.121 257.061 156.523 257.485 157.045C258.132 158.115 258.449 159.384 258.389 160.666V164.818C254.24 165.224 244.442 166.072 244.877 174.217C245.028 175.863 245.743 177.385 246.878 178.476C248.014 179.568 249.485 180.148 250.996 180.1C252.455 180.051 253.887 179.661 255.196 178.953C256.505 178.246 257.66 177.239 258.583 176.001C258.782 177.106 259.336 178.096 260.144 178.792C260.952 179.489 261.962 179.846 262.99 179.799C266.008 179.799 267.832 178.174 268.026 174.164H267.235C267.042 175.93 266.057 176.849 265.234 176.849M258.437 174.234C258.453 174.261 258.462 174.291 258.462 174.323C258.462 174.354 258.453 174.385 258.437 174.411V174.517C257.098 176.157 255.265 177.217 253.272 177.503C252.805 177.522 252.34 177.44 251.902 177.262C251.465 177.084 251.064 176.813 250.722 176.465C250.38 176.117 250.104 175.699 249.91 175.234C249.716 174.77 249.608 174.268 249.591 173.757C249.575 173.563 249.575 173.368 249.591 173.174C249.591 168.563 255.402 166.249 258.566 166.249L258.437 174.234Z" fill="#503629"/>
<path d="M291.771 176.725C291.177 175.608 290.896 174.324 290.964 173.033V161.815C291.03 160.378 290.77 158.945 290.205 157.645C289.68 156.593 288.89 155.729 287.929 155.154C286.865 154.586 285.691 154.307 284.507 154.342C282.99 154.3 281.494 154.728 280.189 155.574C278.884 156.421 277.824 157.653 277.129 159.129H276.629L275.822 154.642H268.832V155.932H272.367V173.033C272.394 174.007 272.307 174.981 272.109 175.93C272.026 176.295 271.862 176.631 271.631 176.909C271.4 177.186 271.109 177.396 270.785 177.52C270.16 177.769 269.497 177.889 268.832 177.874V179.446H280.035V177.856C279.606 177.881 279.178 177.8 278.781 177.62C278.384 177.439 278.029 177.164 277.743 176.814C277.236 175.723 277.018 174.499 277.113 173.28V166.761C276.897 164.365 277.19 161.947 277.969 159.695C278.423 158.834 279.081 158.123 279.874 157.638C280.667 157.152 281.565 156.911 282.473 156.939C283.095 156.87 283.722 157 284.278 157.313C284.834 157.627 285.295 158.111 285.604 158.705C286.154 160.576 286.41 162.535 286.363 164.5V172.591C286.447 173.59 286.447 174.596 286.363 175.595C286.331 175.951 286.226 176.295 286.055 176.601C285.885 176.907 285.653 177.167 285.378 177.361C284.831 177.697 284.214 177.874 283.587 177.874V179.464H294.386V177.891C293.03 177.785 292.142 177.432 291.739 176.743" fill="#503629"/>
<path d="M241.115 153.034C240.754 153.198 240.439 153.465 240.204 153.806C239.968 154.148 239.82 154.552 239.775 154.978C239.598 155.985 239.242 156.585 238.774 156.744C238.24 156.898 237.674 156.861 237.16 156.638C235.118 154.743 232.488 153.781 229.815 153.953C227.583 153.763 225.373 154.548 223.67 156.138C221.966 157.727 220.908 159.991 220.727 162.433C220.727 162.804 220.727 163.175 220.727 163.546C220.727 168.846 222.583 171.302 226.635 172.238C226.893 172.238 226.893 172.591 226.635 172.627C223.229 173.316 220.178 174.393 220.178 178.015C220.175 178.86 220.412 179.685 220.858 180.376C221.304 181.066 221.935 181.587 222.664 181.866C224.823 182.679 227.096 183.068 229.379 183.015C231.18 182.996 232.979 183.084 234.771 183.28C235.818 183.383 236.827 183.765 237.709 184.393C238.091 184.737 238.391 185.177 238.585 185.675C238.779 186.173 238.861 186.715 238.823 187.255C238.807 188.103 238.568 188.928 238.136 189.633C237.704 190.338 237.096 190.892 236.385 191.23C234.48 192.252 232.37 192.732 230.251 192.625C228.292 192.781 226.334 192.308 224.617 191.265C224.112 190.88 223.728 190.335 223.517 189.702C223.306 189.07 223.279 188.382 223.439 187.732C223.593 187.225 223.56 186.673 223.345 186.194C223.131 185.714 222.753 185.347 222.292 185.17H222.05C221.678 185.118 221.301 185.18 220.959 185.348C220.617 185.517 220.324 185.785 220.113 186.124C219.741 186.811 219.566 187.605 219.613 188.403C219.654 189.548 220.046 190.644 220.725 191.515C221.404 192.387 222.332 192.983 223.358 193.208C225.377 193.913 227.487 194.253 229.605 194.215C232.049 194.34 234.485 193.844 236.724 192.767C238.053 192.156 239.189 191.133 239.992 189.824C240.795 188.514 241.231 186.976 241.244 185.4C241.307 183.876 240.935 182.37 240.179 181.089C237.919 177.697 234.722 178.156 227.523 177.768C224.068 177.768 223.39 177.096 223.39 176.001C223.39 174.234 224.665 173.616 229.637 172.786C234.609 171.955 239.178 169.977 239.178 163.422C239.193 161.82 238.884 160.233 238.274 158.776C239.203 159.058 240.186 159.058 241.115 158.776C241.544 158.649 241.945 158.427 242.293 158.123C242.64 157.819 242.926 157.44 243.133 157.009C243.353 156.68 243.502 156.301 243.569 155.901C243.636 155.5 243.619 155.088 243.52 154.695C243.101 153.229 242.293 152.699 241.067 153.105M229.928 171.178C226.99 171.178 225.23 170.012 225.23 163.475C225.23 158.864 226.699 155.437 229.928 155.437C233.609 155.437 234.609 158.564 234.609 163.369C234.609 170.189 232.624 171.178 229.928 171.178Z" fill="#503629"/>
</svg>
