<svg width="367" height="340" viewBox="0 0 367 340" fill="none" xmlns="http://www.w3.org/2000/svg">
<rect width="366.789" height="339.306" fill="white"/>
<g clip-path="url(#clip0_2296_1204)">
<path d="M137.114 124C128.177 124.003 119.434 126.609 111.955 131.5C104.475 136.391 98.5818 143.354 94.9954 151.54C106.097 152.444 116.395 157.69 123.653 166.138C123.95 166.442 124.316 166.668 124.721 166.797C128.712 167.865 136.545 169.721 144.428 169.361C131.785 164.721 126.148 148.167 126.028 146.242C133.382 147.06 136.804 147.11 140.836 147.519C148.599 148.307 155.404 152.079 157.12 158.874C157.458 160.176 157.603 161.521 157.549 162.866C159.685 159.872 160.413 157.118 163.806 156.19C165.17 155.714 166.66 155.736 168.009 156.253C169.359 156.77 170.482 157.748 171.18 159.014C165.821 160.76 166.68 165.879 165.033 171.826C163.806 175.219 161.94 178.661 157.819 180.677C149.038 184.967 137.413 184.868 124.831 169.381C115.501 157.896 104.604 153.416 94.6461 152.488C92.525 157.675 91.4108 163.219 91.3633 168.823C103.218 166.827 116.02 173.423 123.294 177.963C139 187.642 152.021 187.163 158.956 182.343C153.329 187.332 142.053 189.508 126.766 184.189C120.414 181.856 113.716 180.601 106.949 180.477C102.174 180.338 97.4311 181.315 93.0995 183.331C94.8531 189.116 97.732 194.497 101.571 199.167C109.165 192.112 119.921 189.847 137.683 190.466C148.878 190.855 155.963 188.151 160.064 183.81C156.671 188.26 150.674 191.354 142.213 193C126.966 195.964 118.045 199.436 113.196 209.285C119.261 212.979 126.1 215.22 133.176 215.83C140.251 216.44 147.372 215.404 153.981 212.801C160.589 210.199 166.505 206.103 171.265 200.832C176.026 195.561 179.501 189.26 181.419 182.421C183.336 175.583 183.645 168.394 182.319 161.416C180.994 154.439 178.071 147.863 173.78 142.204C169.488 136.545 163.945 131.957 157.583 128.799C151.222 125.64 144.216 123.998 137.114 124ZM195.527 147.289H203.749C208.549 147.289 211.452 150.133 211.452 154.274V154.334C211.452 158.994 207.83 161.409 203.32 161.409H199.957V167.406H195.527V147.289ZM203.509 157.437C205.725 157.437 207.012 156.11 207.012 154.394V154.324C207.012 152.328 205.635 151.281 203.42 151.281H199.997V157.437H203.509ZM212.031 159.792V159.732C212.031 155.332 215.164 151.75 219.644 151.75C224.793 151.75 227.148 155.741 227.148 160.111C227.148 160.461 227.148 160.86 227.088 161.259H216.372C216.514 162.138 216.979 162.933 217.677 163.487C218.375 164.041 219.255 164.314 220.143 164.252C220.841 164.262 221.532 164.126 222.174 163.855C222.817 163.584 223.396 163.182 223.875 162.676L226.38 164.891C225.31 166.151 223.883 167.056 222.287 167.486C220.691 167.915 219.002 167.849 217.445 167.295C215.888 166.742 214.536 165.728 213.569 164.387C212.602 163.047 212.065 161.445 212.031 159.792ZM222.897 158.525C222.638 156.529 221.49 155.252 219.644 155.252C217.798 155.252 216.651 156.549 216.312 158.525H222.897ZM228.615 162.985V162.925C228.615 159.563 231.169 158.006 234.821 158.006C236.102 157.994 237.376 158.207 238.583 158.635V158.385C238.583 156.569 237.466 155.571 235.28 155.571C233.819 155.574 232.373 155.858 231.02 156.41L229.932 153.077C231.808 152.215 233.855 151.792 235.919 151.839C236.856 151.764 237.799 151.875 238.693 152.166C239.587 152.457 240.415 152.923 241.128 153.536C241.716 154.207 242.164 154.988 242.447 155.835C242.73 156.681 242.841 157.575 242.774 158.465V167.446H238.543V165.739C237.963 166.396 237.243 166.915 236.438 167.26C235.632 167.605 234.759 167.768 233.883 167.735C231.01 167.695 228.615 166.029 228.615 162.985ZM238.653 161.987V161.199C237.773 160.81 236.821 160.613 235.859 160.62C233.993 160.62 232.866 161.369 232.866 162.746V162.806C232.866 163.983 233.863 164.672 235.25 164.672C237.276 164.682 238.653 163.514 238.653 161.977V161.987ZM244.64 159.792V159.732C244.63 158.673 244.834 157.622 245.238 156.643C245.642 155.664 246.238 154.775 246.992 154.031C247.746 153.286 248.642 152.701 249.626 152.309C250.61 151.917 251.663 151.727 252.723 151.75C253.878 151.681 255.034 151.879 256.101 152.327C257.168 152.775 258.119 153.461 258.879 154.334L256.205 157.208C255.784 156.68 255.25 156.253 254.642 155.959C254.034 155.666 253.368 155.513 252.693 155.511C251.642 155.578 250.661 156.057 249.962 156.844C249.263 157.631 248.903 158.662 248.961 159.712V159.772C248.925 160.311 249 160.852 249.18 161.361C249.36 161.87 249.641 162.338 250.006 162.735C250.372 163.132 250.815 163.451 251.307 163.673C251.8 163.894 252.332 164.013 252.872 164.023C253.542 164.007 254.201 163.854 254.809 163.572C255.416 163.291 255.96 162.887 256.405 162.387L258.959 164.971C258.197 165.893 257.233 166.627 256.14 167.115C255.048 167.604 253.858 167.833 252.663 167.785C251.606 167.805 250.556 167.612 249.576 167.218C248.595 166.824 247.704 166.237 246.955 165.491C246.207 164.745 245.616 163.856 245.218 162.877C244.82 161.898 244.624 160.849 244.64 159.792ZM259.488 159.822V159.762C259.488 155.362 262.621 151.78 267.111 151.78C272.26 151.78 274.615 155.771 274.615 160.141C274.615 160.491 274.615 160.89 274.555 161.289H263.828C263.97 162.167 264.435 162.96 265.13 163.513C265.826 164.067 266.703 164.341 267.59 164.282C268.289 164.293 268.982 164.158 269.627 163.887C270.271 163.615 270.851 163.213 271.332 162.706L273.837 164.921C272.767 166.181 271.34 167.086 269.744 167.515C268.148 167.945 266.459 167.878 264.902 167.325C263.345 166.772 261.993 165.758 261.026 164.417C260.059 163.077 259.522 161.474 259.488 159.822ZM270.354 158.525C270.095 156.529 268.947 155.252 267.101 155.252C265.255 155.252 264.118 156.529 263.729 158.525H270.314H270.354ZM194.669 181.615V181.565C194.644 180.184 194.899 178.812 195.419 177.532C195.939 176.252 196.713 175.091 197.694 174.119C198.675 173.146 199.843 172.382 201.127 171.873C202.411 171.364 203.785 171.121 205.166 171.157C206.641 171.078 208.115 171.313 209.492 171.848C210.868 172.383 212.115 173.206 213.149 174.261L210.285 177.484C208.933 176.08 207.084 175.263 205.136 175.209C204.338 175.228 203.553 175.406 202.825 175.733C202.097 176.06 201.442 176.529 200.898 177.113C200.354 177.697 199.933 178.384 199.658 179.133C199.383 179.882 199.261 180.678 199.299 181.475V181.535C199.299 184.987 201.683 187.861 205.136 187.861C206.132 187.852 207.115 187.638 208.025 187.233C208.935 186.828 209.751 186.24 210.424 185.506L213.238 188.35C212.225 189.535 210.956 190.474 209.526 191.096C208.096 191.719 206.544 192.008 204.986 191.942C203.625 191.964 202.272 191.711 201.01 191.2C199.748 190.688 198.602 189.928 197.639 188.965C196.676 188.001 195.917 186.854 195.407 185.592C194.897 184.329 194.646 182.976 194.669 181.615ZM214.166 184.01V183.95C214.321 181.854 215.261 179.895 216.797 178.462C218.334 177.029 220.355 176.229 222.456 176.222C224.556 176.214 226.583 177 228.13 178.421C229.677 179.843 230.63 181.796 230.8 183.89V183.95C230.646 186.045 229.706 188.005 228.169 189.437C226.633 190.87 224.612 191.67 222.511 191.677C220.41 191.685 218.384 190.9 216.837 189.478C215.29 188.057 214.336 186.104 214.166 184.01ZM226.529 184.01V183.95C226.551 183.402 226.462 182.857 226.269 182.344C226.075 181.832 225.781 181.364 225.403 180.967C225.025 180.571 224.572 180.254 224.069 180.037C223.567 179.819 223.026 179.704 222.478 179.699C221.936 179.698 221.399 179.808 220.901 180.021C220.402 180.235 219.953 180.548 219.579 180.941C219.206 181.334 218.916 181.799 218.728 182.308C218.541 182.817 218.458 183.358 218.487 183.9V183.96C218.466 184.507 218.554 185.053 218.748 185.565C218.941 186.077 219.236 186.546 219.613 186.942C219.991 187.338 220.445 187.655 220.947 187.873C221.45 188.091 221.991 188.205 222.538 188.21C223.08 188.211 223.617 188.101 224.116 187.888C224.614 187.674 225.064 187.361 225.437 186.968C225.811 186.575 226.1 186.11 226.288 185.601C226.476 185.093 226.558 184.551 226.529 184.01ZM232.916 176.216H237.286V179.32C238.174 177.194 239.611 175.807 242.205 175.927V180.477H241.976C239.072 180.477 237.286 182.233 237.286 185.915V191.603H232.916V176.216ZM244.301 176.216H248.671V178.432C249.198 177.646 249.914 177.006 250.752 176.568C251.591 176.131 252.525 175.91 253.471 175.927C257.063 175.927 260.456 178.741 260.456 183.91V183.97C260.456 189.118 257.093 191.952 253.471 191.952C252.546 191.97 251.631 191.77 250.797 191.37C249.964 190.97 249.236 190.38 248.671 189.647V196.263H244.301V176.216ZM256.115 183.95V183.89C256.115 181.335 254.389 179.639 252.353 179.639C250.318 179.639 248.611 181.335 248.611 183.89V183.95C248.611 186.504 250.308 188.2 252.353 188.2C254.399 188.2 256.115 186.534 256.115 183.95ZM261.244 189.587L263.11 186.714C264.505 187.806 266.201 188.446 267.969 188.55C269.237 188.55 269.805 188.091 269.805 187.402V187.342C269.805 186.344 268.309 186.075 266.612 185.556C264.457 184.928 262.012 183.92 262.012 180.926V180.876C262.012 177.743 264.547 175.987 267.65 175.987C269.698 176.018 271.693 176.638 273.398 177.773L271.731 180.767C270.479 179.954 269.047 179.461 267.56 179.33C266.493 179.33 265.954 179.789 265.954 180.397V180.477C265.954 181.335 267.421 181.744 269.087 182.313C271.242 183.032 273.747 184.069 273.747 186.883V186.943C273.747 190.366 271.192 191.932 267.85 191.932C265.448 191.908 263.123 191.083 261.244 189.587Z" fill="black"/>
</g>
<defs>
<clipPath id="clip0_2296_1204">
<rect width="184" height="92" fill="white" transform="translate(91 124)"/>
</clipPath>
</defs>
</svg>
